<?xml version="1.0" encoding="utf-8"?><svg version="1.1" preserveAspectRatio="xMidYMid" xml:space="preserve" width="600.34105pt" height="295.27271pt" viewBox="-0.0840500000000004 11.953690000000001 600.34105 295.27271" xmlns="http://www.w3.org/2000/svg" xmlns:svg="http://www.w3.org/2000/svg" xmlns:xlink="http://www.w3.org/1999/xlink"><g transform="matrix(1 0 0 -1 0 768)"><g stroke="#000000" fill="#000000" fill-rule="nonzero" stroke-width="1" stroke-linecap="round" stroke-linejoin="miter" stroke-miterlimit="10" alphaIsShape="0" letter-spacing="normal" word-spacing="normal" font-family="Helvetica" font-size="10" font-weight="normal" font-style="normal" baseline-shift="0"><g transform="matrix(0.750000 0 0 0.750000 0 768.200012)"><g transform="matrix(0.959509 0 0 -0.959700 0 0)"><path fill="#C0BFC0" stroke="none" fill-rule="nonzero" d="M194 349L317 349 317 411 194 411 194 349" /><path stroke="none" fill="#99CCFF" stroke-width="3" fill-rule="nonzero" d="M191 346L314 346 314 408 191 408 191 346" /><path stroke="#FFFF00" fill="none" stroke-width="3" d="M191 346L314 346 314 409 191 409 191 346" /><path stroke="#FFFF00" stroke-width="3" fill="none" d="M191 346L314 346 314 408 191 408 191 346" /><text transform="matrix(1 0 0 1 218 352)" font-family="Arial" font-size="10.000000" stroke="none"><tspan x="0" y="9">«IDEAS:Type»</tspan></text><text transform="matrix(1 0 0 1 192 365)" font-family="Arial" font-size="10.000000" font-weight="bold" stroke="none"><tspan x="0" y="9">ArchitectureDescription</tspan></text><path fill="#C0BFC0" stroke="none" fill-rule="nonzero" d="M70 347L170 347 170 383 70 383 70 347" /><path stroke="none" fill="#99CCFF" stroke-width="3" fill-rule="nonzero" d="M67 344L167 344 167 380 67 380 67 344" /><path stroke="#FFFF00" fill="none" stroke-width="3" d="M67 344L167 344 167 381 67 381 67 344" /><path stroke="#FFFF00" stroke-width="3" fill="none" d="M67 344L167 344 167 380 67 380 67 344" /><text transform="matrix(1 0 0 1 82 350)" font-family="Arial" font-size="10.000000" stroke="none"><tspan x="0" y="9">«IDEAS:Type»</tspan></text><text transform="matrix(1 0 0 1 73 363)" font-family="Arial" font-size="10.000000" font-weight="bold" stroke="none"><tspan x="0" y="9">ArchitectureView</tspan></text><path fill="#C0BFC0" stroke="none" fill-rule="nonzero" d="M14 282L125 282 125 318 14 318 14 282" /><path stroke="none" fill="#99CCFF" stroke-width="3" fill-rule="nonzero" d="M11 279L122 279 122 315 11 315 11 279" /><path stroke="#FFFF00" fill="none" stroke-width="3" d="M11 279L122 279 122 316 11 316 11 279" /><path stroke="#FFFF00" stroke-width="3" fill="none" d="M11 279L122 279 122 315 11 315 11 279" /><text transform="matrix(1 0 0 1 32 285)" font-family="Arial" font-size="10.000000" stroke="none"><tspan x="0" y="9">«IDEAS:Type»</tspan></text><text transform="matrix(1 0 0 1 20 298)" font-family="Arial" font-size="10.000000" font-weight="bold" stroke="none"><tspan x="0" y="9">ArchitectureModel</tspan></text><path fill="#C0BFC0" stroke="none" fill-rule="nonzero" d="M15 32L407 32 407 109 15 109 15 32" /><path stroke="none" fill="#C0C0C0" stroke-width="3" fill-rule="nonzero" d="M12 29L404 29 404 106 12 106 12 29" /><path stroke="#FFFF00" fill="none" stroke-width="3" d="M12 29L404 29 404 107 12 107 12 29" /><path stroke="#FFFF00" stroke-width="3" fill="none" d="M12 29L404 29 404 106 12 106 12 29" /><text transform="matrix(1 0 0 1 173 35)" font-family="Arial" font-size="10.000000" stroke="none"><tspan x="0" y="9">«IDEAS:Type»</tspan></text><text transform="matrix(1 0 0 1 180 48)" font-family="Arial" font-size="10.000000" font-weight="bold" font-style="italic" stroke="none"><tspan x="0" y="9">ADElement</tspan></text><path fill="#C0BFC0" stroke="none" fill-rule="nonzero" d="M524 31L634 31 634 105 524 105 524 31" /><path stroke="none" fill="#C0C0C0" fill-rule="nonzero" d="M521 28L631 28 631 102 521 102 521 28" /><path stroke="#FFFF00" fill="none" d="M521 28L631 28 631 103 521 103 521 28" /><path stroke="#FFFF00" fill="none" d="M521 28L631 28 631 102 521 102 521 28" /><text transform="matrix(1 0 0 1 541 34)" font-family="Arial" font-size="10.000000" stroke="none"><tspan x="0" y="9">«IDEAS:Type»</tspan></text><text transform="matrix(1 0 0 1 535 47)" font-family="Arial" font-size="10.000000" font-weight="bold" font-style="italic" stroke="none"><tspan x="0" y="9">correspondence</tspan></text><path fill="#C0BFC0" stroke="none" fill-rule="nonzero" d="M688 349L823 349 823 413 688 413 688 349" /><path stroke="none" fill="#99CCFF" fill-rule="nonzero" d="M685 346L820 346 820 410 685 410 685 346" /><path stroke="#FFFF00" fill="none" d="M685 346L820 346 820 411 685 411 685 346" /><path stroke="#FFFF00" fill="none" d="M685 346L820 346 820 410 685 410 685 346" /><text transform="matrix(1 0 0 1 718 352)" font-family="Arial" font-size="10.000000" stroke="none"><tspan x="0" y="9">«IDEAS:Type»</tspan></text><text transform="matrix(1 0 0 1 699 365)" font-family="Arial" font-size="10.000000" font-weight="bold" font-style="italic" stroke="none"><tspan x="0" y="9">CorrespondenceRule</tspan></text><path fill="#C0BFC0" stroke="none" fill-rule="nonzero" d="M664 174L813 174 813 210 664 210 664 174" /><path stroke="none" fill="#CCFFCC" fill-rule="nonzero" d="M661 171L810 171 810 207 661 207 661 171" /><path stroke="#FFFF00" fill="none" d="M661 171L810 171 810 208 661 208 661 171" /><path stroke="#FFFF00" fill="none" d="M661 171L810 171 810 207 661 207 661 171" /><text transform="matrix(1 0 0 1 687 177)" font-family="Arial" font-size="10.000000" stroke="none"><tspan x="0" y="9">«IDEAS:TupleType»</tspan></text><text transform="matrix(1 0 0 1 661 190)" font-family="Arial" font-size="10.000000" font-weight="bold" stroke="none"><tspan x="0" y="9">ruleGovernsCorrespondence</tspan></text><path fill="#C0BFC0" stroke="none" fill-rule="nonzero" d="M333 210L422 210 422 261 333 261 333 210" /><path stroke="none" fill="#99CCFF" stroke-width="3" fill-rule="nonzero" d="M330 207L419 207 419 258 330 258 330 207" /><path stroke="#FFFF00" fill="none" stroke-width="3" d="M330 207L419 207 419 259 330 259 330 207" /><path stroke="#FFFF00" stroke-width="3" fill="none" d="M330 207L419 207 419 258 330 258 330 207" /><text transform="matrix(1 0 0 1 344 213)" font-family="Arial" font-size="10.000000" stroke="none"><tspan x="0" y="9">«IDEAS:Ty...</tspan></text><text transform="matrix(1 0 0 1 338 226)" font-family="Arial" font-size="10.000000" font-weight="bold" stroke="none"><tspan x="0" y="9">ModelElement</tspan></text><path fill="#C0BFC0" stroke="none" fill-rule="nonzero" d="M14 181L288 181 288 219 14 219 14 181" /><path stroke="none" fill="#C0C0C0" stroke-width="3" fill-rule="nonzero" d="M11 178L285 178 285 216 11 216 11 178" /><path stroke="#FFFF00" fill="none" stroke-width="3" d="M11 178L285 178 285 217 11 217 11 178" /><path stroke="#FFFF00" stroke-width="3" fill="none" d="M11 178L285 178 285 216 11 216 11 178" /><text transform="matrix(1 0 0 1 113 184)" font-family="Arial" font-size="10.000000" stroke="none"><tspan x="0" y="9">«IDEAS:Type»</tspan></text><text transform="matrix(1 0 0 1 94 197)" font-family="Arial" font-size="10.000000" font-weight="bold" font-style="italic" stroke="none"><tspan x="0" y="9">StructuredADElement</tspan></text><path fill="#C0BFC0" stroke="none" fill-rule="nonzero" d="M504 347L656 347 656 416 504 416 504 347" /><path stroke="none" fill="#CCFFCC" fill-rule="nonzero" d="M501 344L653 344 653 413 501 413 501 344" /><path stroke="#FFFF00" fill="none" d="M501 344L653 344 653 414 501 414 501 344" /><path stroke="#FFFF00" fill="none" d="M501 344L653 344 653 413 501 413 501 344" /><text transform="matrix(1 0 0 1 528 350)" font-family="Arial" font-size="10.000000" stroke="none"><tspan x="0" y="9">«IDEAS:TupleType»</tspan></text><text transform="matrix(1 0 0 1 520 363)" font-family="Arial" font-size="10.000000" font-weight="bold" stroke="none"><tspan x="0" y="9">architectureReference</tspan></text><path stroke="#0000FF" fill="none" d="M576 344L576 103" /><path stroke="#0000FF" fill="#FCF2E3" d="M582 119L570 119L576 103L582 119" /><g transform="matrix(1 0 0 -1 521 227)"><path fill="#FFFFFF" stroke="none" fill-rule="nonzero" d="M0 0L115 0 115 -11 0 -11 0 0" /></g><text transform="matrix(1 0 0 1 521 227)" font-family="Arial" font-size="10.000000" stroke="none"><tspan x="0" y="9">«IDEAS:superSubtype»</tspan></text><path fill="none" d="M501 358L317 358" /><path fill="none" d="M317 358L332 352" /><path fill="none" d="M317 358L332 364" /><g transform="matrix(1 0 0 -1 482 363)"><path fill="#FFFFFF" stroke="none" fill-rule="nonzero" d="M0 0L17 0 17 -11 0 -11 0 0" /></g><text transform="matrix(1 0 0 1 482 363)" font-family="Arial" font-size="10.000000" stroke="none"><tspan x="0" y="9">0..*</tspan></text><g transform="matrix(1 0 0 -1 383 344)"><path fill="#FFFFFF" stroke="none" fill-rule="nonzero" d="M0 0L55 0 55 -11 0 -11 0 0" /></g><text transform="matrix(1 0 0 1 383 344)" font-family="Arial" font-size="10.000000" stroke="none"><tspan x="0" y="9">referringAD</tspan></text><g transform="matrix(1 0 0 -1 375 361)"><path fill="#FFFFFF" stroke="none" fill-rule="nonzero" d="M0 0L71 0 71 -11 0 -11 0 0" /></g><text transform="matrix(1 0 0 1 375 361)" font-family="Arial" font-size="10.000000" stroke="none"><tspan x="0" y="9">«place1Type»</tspan></text><g transform="matrix(1 0 0 -1 320 363)"><path fill="#FFFFFF" stroke="none" fill-rule="nonzero" d="M0 0L6 0 6 -11 0 -11 0 0" /></g><text transform="matrix(1 0 0 1 320 363)" font-family="Arial" font-size="10.000000" stroke="none"><tspan x="0" y="9">1</tspan></text><path fill="none" d="M501 396L317 396" /><path fill="none" d="M317 396L332 390" /><path fill="none" d="M317 396L332 402" /><g transform="matrix(1 0 0 -1 482 401)"><path fill="#FFFFFF" stroke="none" fill-rule="nonzero" d="M0 0L17 0 17 -11 0 -11 0 0" /></g><text transform="matrix(1 0 0 1 482 401)" font-family="Arial" font-size="10.000000" stroke="none"><tspan x="0" y="9">0..*</tspan></text><g transform="matrix(1 0 0 -1 385 382)"><path fill="#FFFFFF" stroke="none" fill-rule="nonzero" d="M0 0L51 0 51 -11 0 -11 0 0" /></g><text transform="matrix(1 0 0 1 385 382)" font-family="Arial" font-size="10.000000" stroke="none"><tspan x="0" y="9">referredTo</tspan></text><g transform="matrix(1 0 0 -1 375 399)"><path fill="#FFFFFF" stroke="none" fill-rule="nonzero" d="M0 0L71 0 71 -11 0 -11 0 0" /></g><text transform="matrix(1 0 0 1 375 399)" font-family="Arial" font-size="10.000000" stroke="none"><tspan x="0" y="9">«place2Type»</tspan></text><g transform="matrix(1 0 0 -1 320 401)"><path fill="#FFFFFF" stroke="none" fill-rule="nonzero" d="M0 0L6 0 6 -11 0 -11 0 0" /></g><text transform="matrix(1 0 0 1 320 401)" font-family="Arial" font-size="10.000000" stroke="none"><tspan x="0" y="9">1</tspan></text><path stroke="#0000FF" fill="none" d="M152 342L152 219" /><path stroke="#0000FF" fill="#FCF2E3" d="M158 235L146 235L152 219L158 235" /><g transform="matrix(1 0 0 -1 116 239)"><path fill="#FFFFFF" stroke="none" fill-rule="nonzero" d="M0 0L115 0 115 -11 0 -11 0 0" /></g><text transform="matrix(1 0 0 1 116 239)" font-family="Arial" font-size="10.000000" stroke="none"><tspan x="0" y="9">«IDEAS:superSubtype»</tspan></text><path stroke="#0000FF" fill="none" d="M367 205L367 109" /><path stroke="#0000FF" fill="#FCF2E3" d="M373 125L361 125L367 109L373 125" /><g transform="matrix(1 0 0 -1 312 160)"><path fill="#FFFFFF" stroke="none" fill-rule="nonzero" d="M0 0L115 0 115 -11 0 -11 0 0" /></g><text transform="matrix(1 0 0 1 312 160)" font-family="Arial" font-size="10.000000" stroke="none"><tspan x="0" y="9">«IDEAS:superSubtype»</tspan></text><path stroke="#0000FF" fill="none" d="M149 176L149 109" /><path stroke="#0000FF" fill="#FCF2E3" d="M155 125L143 125L149 109L155 125" /><g transform="matrix(1 0 0 -1 94 146)"><path fill="#FFFFFF" stroke="none" fill-rule="nonzero" d="M0 0L115 0 115 -11 0 -11 0 0" /></g><text transform="matrix(1 0 0 1 94 146)" font-family="Arial" font-size="10.000000" stroke="none"><tspan x="0" y="9">«IDEAS:superSubtype»</tspan></text><path stroke="#0000FF" fill="none" d="M67 277L67 219" /><path stroke="#0000FF" fill="#FCF2E3" d="M73 235L61 235L67 219L73 235" /><g transform="matrix(1 0 0 -1 12 251)"><path fill="#FFFFFF" stroke="none" fill-rule="nonzero" d="M0 0L115 0 115 -11 0 -11 0 0" /></g><text transform="matrix(1 0 0 1 12 251)" font-family="Arial" font-size="10.000000" stroke="none"><tspan x="0" y="9">«IDEAS:superSubtype»</tspan></text><path stroke="#0000FF" fill="none" d="M238 344L238 219" /><path stroke="#0000FF" fill="#FCF2E3" d="M244 235L232 235L238 219L244 235" /><g transform="matrix(1 0 0 -1 183 285)"><path fill="#FFFFFF" stroke="none" fill-rule="nonzero" d="M0 0L115 0 115 -11 0 -11 0 0" /></g><text transform="matrix(1 0 0 1 183 285)" font-family="Arial" font-size="10.000000" stroke="none"><tspan x="0" y="9">«IDEAS:superSubtype»</tspan></text><path fill="none" d="M756 171L756 60" /><path fill="none" d="M756 60L632 60" /><path fill="none" d="M632 60L647 54" /><path fill="none" d="M632 60L647 66" /><g transform="matrix(1 0 0 -1 759 154)"><path fill="#FFFFFF" stroke="none" fill-rule="nonzero" d="M0 0L17 0 17 -11 0 -11 0 0" /></g><text transform="matrix(1 0 0 1 759 154)" font-family="Arial" font-size="10.000000" stroke="none"><tspan x="0" y="9">0..*</tspan></text><g transform="matrix(1 0 0 -1 675 46)"><path fill="#FFFFFF" stroke="none" fill-rule="nonzero" d="M0 0L41 0 41 -11 0 -11 0 0" /></g><text transform="matrix(1 0 0 1 675 46)" font-family="Arial" font-size="10.000000" stroke="none"><tspan x="0" y="9">instance</tspan></text><g transform="matrix(1 0 0 -1 660 63)"><path fill="#FFFFFF" stroke="none" fill-rule="nonzero" d="M0 0L71 0 71 -11 0 -11 0 0" /></g><text transform="matrix(1 0 0 1 660 63)" font-family="Arial" font-size="10.000000" stroke="none"><tspan x="0" y="9">«place2Type»</tspan></text><g transform="matrix(1 0 0 -1 635 65)"><path fill="#FFFFFF" stroke="none" fill-rule="nonzero" d="M0 0L6 0 6 -11 0 -11 0 0" /></g><text transform="matrix(1 0 0 1 635 65)" font-family="Arial" font-size="10.000000" stroke="none"><tspan x="0" y="9">1</tspan></text><path fill="none" d="M748 208L748 346" /><path fill="none" d="M748 346L742 331" /><path fill="none" d="M748 346L754 331" /><g transform="matrix(1 0 0 -1 756 213)"><path fill="#FFFFFF" stroke="none" fill-rule="nonzero" d="M0 0L17 0 17 -11 0 -11 0 0" /></g><text transform="matrix(1 0 0 1 756 213)" font-family="Arial" font-size="10.000000" stroke="none"><tspan x="0" y="9">0..*</tspan></text><g transform="matrix(1 0 0 -1 738 263)"><path fill="#FFFFFF" stroke="none" fill-rule="nonzero" d="M0 0L21 0 21 -11 0 -11 0 0" /></g><text transform="matrix(1 0 0 1 738 263)" font-family="Arial" font-size="10.000000" stroke="none"><tspan x="0" y="9">type</tspan></text><g transform="matrix(1 0 0 -1 714 280)"><path fill="#FFFFFF" stroke="none" fill-rule="nonzero" d="M0 0L71 0 71 -11 0 -11 0 0" /></g><text transform="matrix(1 0 0 1 714 280)" font-family="Arial" font-size="10.000000" stroke="none"><tspan x="0" y="9">«place1Type»</tspan></text><g transform="matrix(1 0 0 -1 756 328)"><path fill="#FFFFFF" stroke="none" fill-rule="nonzero" d="M0 0L6 0 6 -11 0 -11 0 0" /></g><text transform="matrix(1 0 0 1 756 328)" font-family="Arial" font-size="10.000000" stroke="none"><tspan x="0" y="9">1</tspan></text><path fill="none" d="M521 85L407 85" /><path fill="none" d="M407 85L422 79" /><path fill="none" d="M407 85L422 91" /><g transform="matrix(1 0 0 -1 502 90)"><path fill="#FFFFFF" stroke="none" fill-rule="nonzero" d="M0 0L17 0 17 -11 0 -11 0 0" /></g><text transform="matrix(1 0 0 1 502 90)" font-family="Arial" font-size="10.000000" stroke="none"><tspan x="0" y="9">0..*</tspan></text><g transform="matrix(1 0 0 -1 430 88)"><path fill="#FFFFFF" stroke="none" fill-rule="nonzero" d="M0 0L71 0 71 -11 0 -11 0 0" /></g><text transform="matrix(1 0 0 1 430 88)" font-family="Arial" font-size="10.000000" stroke="none"><tspan x="0" y="9">«place2Type»</tspan></text><g transform="matrix(1 0 0 -1 410 90)"><path fill="#FFFFFF" stroke="none" fill-rule="nonzero" d="M0 0L6 0 6 -11 0 -11 0 0" /></g><text transform="matrix(1 0 0 1 410 90)" font-family="Arial" font-size="10.000000" stroke="none"><tspan x="0" y="9">1</tspan></text><path fill="none" d="M521 44L407 44" /><path fill="none" d="M407 44L422 38" /><path fill="none" d="M407 44L422 50" /><g transform="matrix(1 0 0 -1 502 49)"><path fill="#FFFFFF" stroke="none" fill-rule="nonzero" d="M0 0L17 0 17 -11 0 -11 0 0" /></g><text transform="matrix(1 0 0 1 502 49)" font-family="Arial" font-size="10.000000" stroke="none"><tspan x="0" y="9">0..*</tspan></text><g transform="matrix(1 0 0 -1 430 47)"><path fill="#FFFFFF" stroke="none" fill-rule="nonzero" d="M0 0L71 0 71 -11 0 -11 0 0" /></g><text transform="matrix(1 0 0 1 430 47)" font-family="Arial" font-size="10.000000" stroke="none"><tspan x="0" y="9">«place1Type»</tspan></text><g transform="matrix(1 0 0 -1 410 49)"><path fill="#FFFFFF" stroke="none" fill-rule="nonzero" d="M0 0L6 0 6 -11 0 -11 0 0" /></g><text transform="matrix(1 0 0 1 410 49)" font-family="Arial" font-size="10.000000" stroke="none"><tspan x="0" y="9">1</tspan></text></g></g></g></g></svg>