<?xml version="1.0" encoding="utf-8"?><svg version="1.1" preserveAspectRatio="xMidYMid" xml:space="preserve" width="567.52pt" height="247.73453pt" viewBox="11.440000000000001 2.9647699999999997 567.52 247.73453" xmlns="http://www.w3.org/2000/svg" xmlns:svg="http://www.w3.org/2000/svg" xmlns:xlink="http://www.w3.org/1999/xlink"><g transform="matrix(1 0 0 -1 0 790)"><g stroke="#000000" fill="#000000" fill-rule="nonzero" stroke-width="1" stroke-linecap="round" stroke-linejoin="miter" stroke-miterlimit="10" alphaIsShape="0" letter-spacing="normal" word-spacing="normal" font-family="Helvetica" font-size="10" font-weight="normal" font-style="normal" baseline-shift="0"><g transform="matrix(0.600000 0 0 0.600000 0 790.549988)"><g transform="matrix(1.200000 0 0 -1.199454 0 0)"><path fill="#C0BFC0" stroke="none" fill-rule="nonzero" d="M30 19L194 19 194 338 30 338 30 19" /><path stroke="none" fill="#99CCFF" stroke-width="3" fill-rule="nonzero" d="M27 16L191 16 191 335 27 335 27 16" /><path stroke="#32CD32" fill="none" stroke-width="3" d="M27 16L191 16 191 336 27 336 27 16" /><path stroke="#32CD32" stroke-width="3" fill="none" d="M27 16L191 16 191 335 27 335 27 16" /><text transform="matrix(1 0 0 1 85 22)" font-family="Arial" font-size="8.000000" stroke="none"><tspan x="0" y="8">«IDEAS:Type»</tspan></text><text transform="matrix(1 0 0 1 89 32)" font-family="Arial" font-size="8.000000" font-weight="bold" stroke="none"><tspan x="0" y="8">Capability</tspan></text><path fill="#C0BFC0" stroke="none" fill-rule="nonzero" d="M319 253L490 253 490 338 319 338 319 253" /><path stroke="none" fill="#CCFFCC" fill-rule="nonzero" d="M316 250L487 250 487 335 316 335 316 250" /><path stroke="#32CD32" fill="none" d="M316 250L487 250 487 336 316 336 316 250" /><path stroke="#32CD32" fill="none" d="M316 250L487 250 487 335 316 335 316 250" /><text transform="matrix(1 0 0 1 368 256)" font-family="Arial" font-size="8.000000" stroke="none"><tspan x="0" y="8">«IDEAS:TupleType»</tspan></text><text transform="matrix(1 0 0 1 353 266)" font-family="Arial" font-size="8.000000" font-weight="bold" stroke="none"><tspan x="0" y="8">capabilitySpecialisation</tspan></text><path fill="#C0BFC0" stroke="none" fill-rule="nonzero" d="M319 160L490 160 490 198 319 198 319 160" /><path stroke="none" fill="#99CCFF" fill-rule="nonzero" d="M316 157L487 157 487 195 316 195 316 157" /><path stroke="#32CD32" fill="none" d="M316 157L487 157 487 196 316 196 316 157" /><path stroke="#32CD32" fill="none" d="M316 157L487 157 487 195 316 195 316 157" /><text transform="matrix(1 0 0 1 377 163)" font-family="Arial" font-size="8.000000" stroke="none"><tspan x="0" y="8">«IDEAS:Type»</tspan></text><text transform="matrix(1 0 0 1 371 173)" font-family="Arial" font-size="8.000000" font-weight="bold" stroke="none"><tspan x="0" y="8">ApplicableMoE</tspan></text><path fill="#C0BFC0" stroke="none" fill-rule="nonzero" d="M636 160L793 160 793 201 636 201 636 160" /><path fill="#99CCFF" stroke="none" fill-rule="nonzero" d="M633 157L790 157 790 198 633 198 633 157" /><path fill="none" d="M633 157L790 157 790 199 633 199 633 157" /><path fill="none" d="M633 157L790 157 790 198 633 198 633 157" /><text transform="matrix(1 0 0 1 687 163)" font-family="Arial" font-size="8.000000" stroke="none"><tspan x="0" y="8">«IDEAS:Type»</tspan></text><text transform="matrix(1 0 0 1 676 173)" font-family="Arial" font-size="8.000000" font-weight="bold" stroke="none"><tspan x="0" y="8">MeasureCategory</tspan></text><path fill="#C0BFC0" stroke="none" fill-rule="nonzero" d="M257 48L755 48 755 126 257 126 257 48" /><path fill="#FFFF00" d="M254 33L254 124L753 124L753 45L741 33L254 33" /><path fill="#DCDC00" d="M741 33L741 45L753 45L741 33" /></g><g transform="matrix(1.200000 0 0 1.199454 0 0)"><text transform="matrix(1 0 0 -1 0 0)" font-family="Segoe UI" font-size="8.000000" stroke="none"><tspan x="259" y="55">Note change from NAF 3.1:</tspan></text><text transform="matrix(1 0 0 -1 0 0)" font-family="Segoe UI" font-size="8.000000" stroke="none"><tspan x="259" y="77">Capabilities are now just associated with *types* of MoE (measure categories). Only when a capability is applied do any metrics become </tspan></text><text transform="matrix(1 0 0 -1 0 0)" font-family="Segoe UI" font-size="8.000000" stroke="none"><tspan x="259" y="88">associated with it. For example, when an EnterprisePhase maps to capability in E2, the EnterprisePhase may have a measure (with value or </tspan></text><text transform="matrix(1 0 0 -1 0 0)" font-family="Segoe UI" font-size="8.000000" stroke="none"><tspan x="259" y="99">range) that corresponds to the measure category expressed against the capability.</tspan></text></g><g transform="matrix(1.200000 0 0 -1.199454 0 0)"><path fill="none" d="M316 315L194 315" /><path fill="none" d="M194 315L209 309" /><path fill="none" d="M194 315L209 321" /><g transform="matrix(1 0 0 -1 242 304)"><path fill="#FFFFFF" stroke="none" fill-rule="nonzero" d="M0 0L29 0 29 -9 0 -9 0 0" /></g><text transform="matrix(1 0 0 1 242 304)" font-family="Arial" font-size="8.000000" stroke="none"><tspan x="0" y="8">specific</tspan></text><g transform="matrix(1 0 0 -1 232 317)"><path fill="#FFFFFF" stroke="none" fill-rule="nonzero" d="M0 0L57 0 57 -9 0 -9 0 0" /></g><text transform="matrix(1 0 0 1 232 317)" font-family="Arial" font-size="8.000000" stroke="none"><tspan x="0" y="8">«place2Type»</tspan></text><path fill="none" d="M316 262L194 262" /><path fill="none" d="M194 262L209 256" /><path fill="none" d="M194 262L209 268" /><g transform="matrix(1 0 0 -1 242 251)"><path fill="#FFFFFF" stroke="none" fill-rule="nonzero" d="M0 0L30 0 30 -9 0 -9 0 0" /></g><text transform="matrix(1 0 0 1 242 251)" font-family="Arial" font-size="8.000000" stroke="none"><tspan x="0" y="8">general</tspan></text><g transform="matrix(1 0 0 -1 232 264)"><path fill="#FFFFFF" stroke="none" fill-rule="nonzero" d="M0 0L57 0 57 -9 0 -9 0 0" /></g><text transform="matrix(1 0 0 1 232 264)" font-family="Arial" font-size="8.000000" stroke="none"><tspan x="0" y="8">«place1Type»</tspan></text><path fill="none" d="M316 175L194 175" /><path fill="none" d="M194 175L209 169" /><path fill="none" d="M194 175L209 181" /><g transform="matrix(1 0 0 -1 302 180)"><path fill="#FFFFFF" stroke="none" fill-rule="nonzero" d="M0 0L13 0 13 -9 0 -9 0 0" /></g><text transform="matrix(1 0 0 1 302 180)" font-family="Arial" font-size="8.000000" stroke="none"><tspan x="0" y="8">0..*</tspan></text><g transform="matrix(1 0 0 -1 240 164)"><path fill="#FFFFFF" stroke="none" fill-rule="nonzero" d="M0 0L38 0 38 -9 0 -9 0 0" /></g><text transform="matrix(1 0 0 1 240 164)" font-family="Arial" font-size="8.000000" stroke="none"><tspan x="0" y="8">capability</tspan></text><g transform="matrix(1 0 0 -1 232 177)"><path fill="#FFFFFF" stroke="none" fill-rule="nonzero" d="M0 0L57 0 57 -9 0 -9 0 0" /></g><text transform="matrix(1 0 0 1 232 177)" font-family="Arial" font-size="8.000000" stroke="none"><tspan x="0" y="8">«place2Type»</tspan></text><g transform="matrix(1 0 0 -1 197 180)"><path fill="#FFFFFF" stroke="none" fill-rule="nonzero" d="M0 0L5 0 5 -9 0 -9 0 0" /></g><text transform="matrix(1 0 0 1 197 180)" font-family="Arial" font-size="8.000000" stroke="none"><tspan x="0" y="8">1</tspan></text><path fill="none" d="M488 176L633 176" /><path fill="none" d="M633 176L618 182" /><path fill="none" d="M633 176L618 170" /><g transform="matrix(1 0 0 -1 495 159)"><path fill="#FFFFFF" stroke="none" fill-rule="nonzero" d="M0 0L13 0 13 -9 0 -9 0 0" /></g><text transform="matrix(1 0 0 1 495 159)" font-family="Arial" font-size="8.000000" stroke="none"><tspan x="0" y="8">0..*</tspan></text><g transform="matrix(1 0 0 -1 554 165)"><path fill="#FFFFFF" stroke="none" fill-rule="nonzero" d="M0 0L17 0 17 -9 0 -9 0 0" /></g><text transform="matrix(1 0 0 1 554 165)" font-family="Arial" font-size="8.000000" stroke="none"><tspan x="0" y="8">moe</tspan></text><g transform="matrix(1 0 0 -1 538 178)"><path fill="#FFFFFF" stroke="none" fill-rule="nonzero" d="M0 0L57 0 57 -9 0 -9 0 0" /></g><text transform="matrix(1 0 0 1 538 178)" font-family="Arial" font-size="8.000000" stroke="none"><tspan x="0" y="8">«place1Type»</tspan></text><g transform="matrix(1 0 0 -1 626 181)"><path fill="#FFFFFF" stroke="none" fill-rule="nonzero" d="M0 0L5 0 5 -9 0 -9 0 0" /></g><text transform="matrix(1 0 0 1 626 181)" font-family="Arial" font-size="8.000000" stroke="none"><tspan x="0" y="8">1</tspan></text></g></g></g></g></svg>