<?xml version="1.0" encoding="utf-8"?><svg version="1.1" preserveAspectRatio="xMidYMid" xml:space="preserve" width="424.24pt" height="249.17381pt" viewBox="10 5.12379 424.24 249.17381" xmlns="http://www.w3.org/2000/svg" xmlns:svg="http://www.w3.org/2000/svg" xmlns:xlink="http://www.w3.org/1999/xlink"><g transform="matrix(1 0 0 -1 0 790)"><g stroke="#000000" fill="#000000" fill-rule="nonzero" stroke-width="1" stroke-linecap="round" stroke-linejoin="miter" stroke-miterlimit="10" alphaIsShape="0" letter-spacing="normal" word-spacing="normal" font-family="Helvetica" font-size="10" font-weight="normal" font-style="normal" baseline-shift="0"><g transform="matrix(0.600000 0 0 0.600000 0 790.549988)"><g transform="matrix(1.200000 0 0 -1.199454 0 0)"><path fill="#C0BFC0" stroke="none" fill-rule="nonzero" d="M28 22L192 22 192 343 28 343 28 22" /><path stroke="none" fill="#99CCFF" stroke-width="3" fill-rule="nonzero" d="M25 19L189 19 189 340 25 340 25 19" /><path stroke="#32CD32" fill="none" stroke-width="3" d="M25 19L189 19 189 341 25 341 25 19" /><path stroke="#32CD32" stroke-width="3" fill="none" d="M25 19L189 19 189 340 25 340 25 19" /><text transform="matrix(1 0 0 1 83 25)" font-family="Arial" font-size="8.000000" stroke="none"><tspan x="0" y="8">«IDEAS:Type»</tspan></text><text transform="matrix(1 0 0 1 87 35)" font-family="Arial" font-size="8.000000" font-weight="bold" stroke="none"><tspan x="0" y="8">Capability</tspan></text><path fill="#C0BFC0" stroke="none" fill-rule="nonzero" d="M454 258L591 258 591 343 454 343 454 258" /><path stroke="none" fill="#CCFFCC" fill-rule="nonzero" d="M451 255L588 255 588 340 451 340 451 255" /><path stroke="#32CD32" fill="none" d="M451 255L588 255 588 341 451 341 451 255" /><path stroke="#32CD32" fill="none" d="M451 255L588 255 588 340 451 340 451 255" /><text transform="matrix(1 0 0 1 486 261)" font-family="Arial" font-size="8.000000" stroke="none"><tspan x="0" y="8">«IDEAS:TupleType»</tspan></text><text transform="matrix(1 0 0 1 471 271)" font-family="Arial" font-size="8.000000" font-weight="bold" stroke="none"><tspan x="0" y="8">capabilitySpecialisation</tspan></text><path fill="#C0BFC0" stroke="none" fill-rule="nonzero" d="M454 22L591 22 591 107 454 107 454 22" /><path stroke="none" fill="#99CCFF" fill-rule="nonzero" d="M451 19L588 19 588 104 451 104 451 19" /><path stroke="#32CD32" fill="none" d="M451 19L588 19 588 105 451 105 451 19" /><path stroke="#32CD32" fill="none" d="M451 19L588 19 588 104 451 104 451 19" /><text transform="matrix(1 0 0 1 495 25)" font-family="Arial" font-size="8.000000" stroke="none"><tspan x="0" y="8">«IDEAS:Type»</tspan></text><text transform="matrix(1 0 0 1 474 35)" font-family="Arial" font-size="8.000000" font-weight="bold" stroke="none"><tspan x="0" y="8">CapabilityComposition</tspan></text><path fill="#C0BFC0" stroke="none" fill-rule="nonzero" d="M455 140L592 140 592 225 455 225 455 140" /><path stroke="none" fill="#CCFFCC" fill-rule="nonzero" d="M452 137L589 137 589 222 452 222 452 137" /><path stroke="#32CD32" fill="none" d="M452 137L589 137 589 223 452 223 452 137" /><path stroke="#32CD32" fill="none" d="M452 137L589 137 589 222 452 222 452 137" /><text transform="matrix(1 0 0 1 487 143)" font-family="Arial" font-size="8.000000" stroke="none"><tspan x="0" y="8">«IDEAS:TupleType»</tspan></text><text transform="matrix(1 0 0 1 476 153)" font-family="Arial" font-size="8.000000" font-weight="bold" stroke="none"><tspan x="0" y="8">capabilityDependency</tspan></text><path fill="none" d="M451 87L192 87" /><path fill="none" d="M192 87L207 81" /><path fill="none" d="M192 87L207 93" /><g transform="matrix(1 0 0 -1 288 76)"><path fill="#FFFFFF" stroke="none" fill-rule="nonzero" d="M0 0L84 0 84 -9 0 -9 0 0" /></g><text transform="matrix(1 0 0 1 288 76)" font-family="Arial" font-size="8.000000" stroke="none"><tspan x="0" y="8">componentCapability</tspan></text><g transform="matrix(1 0 0 -1 299 89)"><path fill="#FFFFFF" stroke="none" fill-rule="nonzero" d="M0 0L57 0 57 -9 0 -9 0 0" /></g><text transform="matrix(1 0 0 1 299 89)" font-family="Arial" font-size="8.000000" stroke="none"><tspan x="0" y="8">«place2Type»</tspan></text><path fill="none" d="M451 35L192 35" /><path fill="none" d="M192 35L207 29" /><path fill="none" d="M192 35L207 41" /><g transform="matrix(1 0 0 -1 295 24)"><path fill="#FFFFFF" stroke="none" fill-rule="nonzero" d="M0 0L65 0 65 -9 0 -9 0 0" /></g><text transform="matrix(1 0 0 1 295 24)" font-family="Arial" font-size="8.000000" stroke="none"><tspan x="0" y="8">parentCapability</tspan></text><g transform="matrix(1 0 0 -1 299 37)"><path fill="#FFFFFF" stroke="none" fill-rule="nonzero" d="M0 0L57 0 57 -9 0 -9 0 0" /></g><text transform="matrix(1 0 0 1 299 37)" font-family="Arial" font-size="8.000000" stroke="none"><tspan x="0" y="8">«place1Type»</tspan></text><path fill="none" d="M451 320L192 320" /><path fill="none" d="M192 320L207 314" /><path fill="none" d="M192 320L207 326" /><g transform="matrix(1 0 0 -1 309 309)"><path fill="#FFFFFF" stroke="none" fill-rule="nonzero" d="M0 0L29 0 29 -9 0 -9 0 0" /></g><text transform="matrix(1 0 0 1 309 309)" font-family="Arial" font-size="8.000000" stroke="none"><tspan x="0" y="8">specific</tspan></text><g transform="matrix(1 0 0 -1 299 322)"><path fill="#FFFFFF" stroke="none" fill-rule="nonzero" d="M0 0L57 0 57 -9 0 -9 0 0" /></g><text transform="matrix(1 0 0 1 299 322)" font-family="Arial" font-size="8.000000" stroke="none"><tspan x="0" y="8">«place2Type»</tspan></text><path fill="none" d="M451 267L192 267" /><path fill="none" d="M192 267L207 261" /><path fill="none" d="M192 267L207 273" /><g transform="matrix(1 0 0 -1 309 256)"><path fill="#FFFFFF" stroke="none" fill-rule="nonzero" d="M0 0L30 0 30 -9 0 -9 0 0" /></g><text transform="matrix(1 0 0 1 309 256)" font-family="Arial" font-size="8.000000" stroke="none"><tspan x="0" y="8">general</tspan></text><g transform="matrix(1 0 0 -1 299 269)"><path fill="#FFFFFF" stroke="none" fill-rule="nonzero" d="M0 0L57 0 57 -9 0 -9 0 0" /></g><text transform="matrix(1 0 0 1 299 269)" font-family="Arial" font-size="8.000000" stroke="none"><tspan x="0" y="8">«place1Type»</tspan></text><path fill="none" d="M452 202L192 202" /><path fill="none" d="M192 202L207 196" /><path fill="none" d="M192 202L207 208" /><g transform="matrix(1 0 0 -1 438 207)"><path fill="#FFFFFF" stroke="none" fill-rule="nonzero" d="M0 0L13 0 13 -9 0 -9 0 0" /></g><text transform="matrix(1 0 0 1 438 207)" font-family="Arial" font-size="8.000000" stroke="none"><tspan x="0" y="8">0..*</tspan></text><g transform="matrix(1 0 0 -1 305 191)"><path fill="#FFFFFF" stroke="none" fill-rule="nonzero" d="M0 0L42 0 42 -9 0 -9 0 0" /></g><text transform="matrix(1 0 0 1 305 191)" font-family="Arial" font-size="8.000000" stroke="none"><tspan x="0" y="8">dependent</tspan></text><g transform="matrix(1 0 0 -1 299 204)"><path fill="#FFFFFF" stroke="none" fill-rule="nonzero" d="M0 0L57 0 57 -9 0 -9 0 0" /></g><text transform="matrix(1 0 0 1 299 204)" font-family="Arial" font-size="8.000000" stroke="none"><tspan x="0" y="8">«place2Type»</tspan></text><g transform="matrix(1 0 0 -1 195 207)"><path fill="#FFFFFF" stroke="none" fill-rule="nonzero" d="M0 0L5 0 5 -9 0 -9 0 0" /></g><text transform="matrix(1 0 0 1 195 207)" font-family="Arial" font-size="8.000000" stroke="none"><tspan x="0" y="8">1</tspan></text><path fill="none" d="M452 156L192 156" /><path fill="none" d="M192 156L207 150" /><path fill="none" d="M192 156L207 162" /><g transform="matrix(1 0 0 -1 438 161)"><path fill="#FFFFFF" stroke="none" fill-rule="nonzero" d="M0 0L13 0 13 -9 0 -9 0 0" /></g><text transform="matrix(1 0 0 1 438 161)" font-family="Arial" font-size="8.000000" stroke="none"><tspan x="0" y="8">0..*</tspan></text><g transform="matrix(1 0 0 -1 296 145)"><path fill="#FFFFFF" stroke="none" fill-rule="nonzero" d="M0 0L63 0 63 -9 0 -9 0 0" /></g><text transform="matrix(1 0 0 1 296 145)" font-family="Arial" font-size="8.000000" stroke="none"><tspan x="0" y="8">dependentUpon</tspan></text><g transform="matrix(1 0 0 -1 299 158)"><path fill="#FFFFFF" stroke="none" fill-rule="nonzero" d="M0 0L57 0 57 -9 0 -9 0 0" /></g><text transform="matrix(1 0 0 1 299 158)" font-family="Arial" font-size="8.000000" stroke="none"><tspan x="0" y="8">«place1Type»</tspan></text><g transform="matrix(1 0 0 -1 195 161)"><path fill="#FFFFFF" stroke="none" fill-rule="nonzero" d="M0 0L5 0 5 -9 0 -9 0 0" /></g><text transform="matrix(1 0 0 1 195 161)" font-family="Arial" font-size="8.000000" stroke="none"><tspan x="0" y="8">1</tspan></text></g></g></g></g></svg>