<?xml version="1.0" encoding="utf-8"?><svg version="1.1" preserveAspectRatio="xMidYMid" xml:space="preserve" width="649.6pt" height="446.36406pt" viewBox="9.280000000000001 11.600840000000001 649.6 446.36406" xmlns="http://www.w3.org/2000/svg" xmlns:svg="http://www.w3.org/2000/svg" xmlns:xlink="http://www.w3.org/1999/xlink"><g transform="matrix(1 0 0 -1 0 790)"><g stroke="#000000" fill="#000000" fill-rule="nonzero" stroke-width="1" stroke-linecap="round" stroke-linejoin="miter" stroke-miterlimit="10" alphaIsShape="0" letter-spacing="normal" word-spacing="normal" font-family="Helvetica" font-size="10" font-weight="normal" font-style="normal" baseline-shift="0"><g transform="matrix(0.600000 0 0 0.600000 0 790.549988)"><g transform="matrix(1.200000 0 0 -1.199454 0 0)"><path fill="#C0BFC0" stroke="none" fill-rule="nonzero" d="M297 315L431 315 431 439 297 439 297 315" /><path stroke="none" fill="#99CCFF" stroke-width="3" fill-rule="nonzero" d="M294 312L428 312 428 436 294 436 294 312" /><path stroke="#32CD32" fill="none" stroke-width="3" d="M294 312L428 312 428 437 294 437 294 312" /><path stroke="#32CD32" stroke-width="3" fill="none" d="M294 312L428 312 428 436 294 436 294 312" /><text transform="matrix(1 0 0 1 337 318)" font-family="Arial" font-size="8.000000" stroke="none"><tspan x="0" y="8">«IDEAS:Type»</tspan></text><text transform="matrix(1 0 0 1 341 328)" font-family="Arial" font-size="8.000000" font-weight="bold" stroke="none"><tspan x="0" y="8">Capability</tspan></text><path fill="#C0BFC0" stroke="none" fill-rule="nonzero" d="M297 87L431 87 431 289 297 289 297 87" /><path stroke="none" fill="#99CCFF" stroke-width="3" fill-rule="nonzero" d="M294 84L428 84 428 286 294 286 294 84" /><path stroke="#32CD32" fill="none" stroke-width="3" d="M294 84L428 84 428 287 294 287 294 84" /><path stroke="#32CD32" stroke-width="3" fill="none" d="M294 84L428 84 428 286 294 286 294 84" /><text transform="matrix(1 0 0 1 337 90)" font-family="Arial" font-size="8.000000" stroke="none"><tspan x="0" y="8">«IDEAS:Type»</tspan></text><text transform="matrix(1 0 0 1 327 100)" font-family="Arial" font-size="8.000000" font-weight="bold" stroke="none"><tspan x="0" y="8">StandardActivity</tspan></text><path fill="#C0BFC0" stroke="none" fill-rule="nonzero" d="M825 245L904 245 904 352 825 352 825 245" /><path stroke="none" fill="#99CCFF" stroke-width="3" fill-rule="nonzero" d="M822 242L901 242 901 349 822 349 822 242" /><path stroke="#32CD32" fill="none" stroke-width="3" d="M822 242L901 242 901 350 822 350 822 242" /><path stroke="#32CD32" stroke-width="3" fill="none" d="M822 242L901 242 901 349 822 349 822 242" /><text transform="matrix(1 0 0 1 837 248)" font-family="Arial" font-size="8.000000" stroke="none"><tspan x="0" y="8">«IDEAS:Type»</tspan></text><text transform="matrix(1 0 0 1 833 258)" font-family="Arial" font-size="8.000000" font-weight="bold" stroke="none"><tspan x="0" y="8">CapabilityRole</tspan></text><path fill="#C0BFC0" stroke="none" fill-rule="nonzero" d="M559 318L710 318 710 356 559 356 559 318" /><path stroke="none" fill="#99CCFF" fill-rule="nonzero" d="M556 315L707 315 707 353 556 353 556 315" /><path stroke="#32CD32" fill="none" d="M556 315L707 315 707 354 556 354 556 315" /><path stroke="#32CD32" fill="none" d="M556 315L707 315 707 353 556 353 556 315" /><text transform="matrix(1 0 0 1 607 321)" font-family="Arial" font-size="8.000000" stroke="none"><tspan x="0" y="8">«IDEAS:Type»</tspan></text><text transform="matrix(1 0 0 1 598 331)" font-family="Arial" font-size="8.000000" font-weight="bold" stroke="none"><tspan x="0" y="8">RoleOfCapability</tspan></text><path fill="#C0BFC0" stroke="none" fill-rule="nonzero" d="M559 245L710 245 710 284 559 284 559 245" /><path stroke="none" fill="#99CCFF" fill-rule="nonzero" d="M556 242L707 242 707 281 556 281 556 242" /><path stroke="#32CD32" fill="none" d="M556 242L707 242 707 282 556 282 556 242" /><path stroke="#32CD32" fill="none" d="M556 242L707 242 707 281 556 281 556 242" /><text transform="matrix(1 0 0 1 607 248)" font-family="Arial" font-size="8.000000" stroke="none"><tspan x="0" y="8">«IDEAS:Type»</tspan></text><text transform="matrix(1 0 0 1 585 258)" font-family="Arial" font-size="8.000000" font-weight="bold" stroke="none"><tspan x="0" y="8">RoleInStandardActivity</tspan></text><path fill="#C0BFC0" stroke="none" fill-rule="nonzero" d="M297 587L431 587 431 626 297 626 297 587" /><path stroke="none" fill="#FFAD5B" stroke-width="3" fill-rule="nonzero" d="M294 584L428 584 428 623 294 623 294 584" /><path stroke="#32CD32" fill="none" stroke-width="3" d="M294 584L428 584 428 624 294 624 294 584" /><path stroke="#32CD32" stroke-width="3" fill="none" d="M294 584L428 584 428 623 294 623 294 584" /><text transform="matrix(1 0 0 1 321 590)" font-family="Arial" font-size="8.000000" stroke="none"><tspan x="0" y="8">«IDEAS:IndividualType»</tspan></text><text transform="matrix(1 0 0 1 333 600)" font-family="Arial" font-size="8.000000" font-weight="bold" stroke="none"><tspan x="0" y="8">EnduringTask</tspan></text><path fill="#C0BFC0" stroke="none" fill-rule="nonzero" d="M559 415L710 415 710 535 559 535 559 415" /><path stroke="none" fill="#CCFFCC" fill-rule="nonzero" d="M556 412L707 412 707 532 556 532 556 412" /><path stroke="#32CD32" fill="none" d="M556 412L707 412 707 533 556 533 556 412" /><path stroke="#32CD32" fill="none" d="M556 412L707 412 707 532 556 532 556 412" /><text transform="matrix(1 0 0 1 598 418)" font-family="Arial" font-size="8.000000" stroke="none"><tspan x="0" y="8">«IDEAS:TupleType»</tspan></text><text transform="matrix(1 0 0 1 596 428)" font-family="Arial" font-size="8.000000" font-weight="bold" stroke="none"><tspan x="0" y="8">capabilityForTask</tspan></text><path fill="#C0BFC0" stroke="none" fill-rule="nonzero" d="M297 498L431 498 431 536 297 536 297 498" /><path stroke="none" fill="#C0C0C0" stroke-width="3" fill-rule="nonzero" d="M294 495L428 495 428 533 294 533 294 495" /><path stroke="#32CD32" fill="none" stroke-width="3" d="M294 495L428 495 428 534 294 534 294 495" /><path stroke="#32CD32" stroke-width="3" fill="none" d="M294 495L428 495 428 533 294 533 294 495" /><text transform="matrix(1 0 0 1 321 501)" font-family="Arial" font-size="8.000000" stroke="none"><tspan x="0" y="8">«IDEAS:IndividualType»</tspan></text><text transform="matrix(1 0 0 1 320 511)" font-family="Arial" font-size="8.000000" font-weight="bold" stroke="none"><tspan x="0" y="8">EnduringTaskPhase</tspan></text><path fill="#C0BFC0" stroke="none" fill-rule="nonzero" d="M27 580L135 580 135 618 27 618 27 580" /><path stroke="none" fill="#CCFFCC" fill-rule="nonzero" d="M24 577L132 577 132 615 24 615 24 577" /><path stroke="#0000FF" fill="none" d="M24 577L132 577 132 616 24 616 24 577" /><path stroke="#0000FF" fill="none" d="M24 577L132 577 132 615 24 615 24 577" /><text transform="matrix(1 0 0 1 44 583)" font-family="Arial" font-size="8.000000" stroke="none"><tspan x="0" y="8">«IDEAS:TupleType»</tspan></text><text transform="matrix(1 0 0 1 44 593)" font-family="Arial" font-size="8.000000" font-weight="bold" stroke="none"><tspan x="0" y="8">templateForTask</tspan></text><path fill="#C0BFC0" stroke="none" fill-rule="nonzero" d="M27 31L248 31 248 66 27 66 27 31" /><path stroke="none" fill="#99CCFF" stroke-width="2" fill-rule="nonzero" d="M24 28L245 28 245 63 24 63 24 28" /><path stroke="#0000FF" fill="none" stroke-width="2" d="M24 28L245 28 245 64 24 64 24 28" /><path stroke="#0000FF" stroke-width="2" fill="none" d="M24 28L245 28 245 63 24 63 24 28" /><text transform="matrix(1 0 0 1 110 34)" font-family="Arial" font-size="8.000000" stroke="none"><tspan x="0" y="8">«IDEAS:Type»</tspan></text><text transform="matrix(1 0 0 1 96 44)" font-family="Arial" font-size="8.000000" font-weight="bold" stroke="none"><tspan x="0" y="8">OperationalActivity</tspan></text><path fill="#C0BFC0" stroke="none" fill-rule="nonzero" d="M559 31L710 31 710 110 559 110 559 31" /><path stroke="none" fill="#CCFFCC" fill-rule="nonzero" d="M556 28L707 28 707 107 556 107 556 28" /><path stroke="#0000FF" fill="none" d="M556 28L707 28 707 108 556 108 556 28" /><path stroke="#0000FF" fill="none" d="M556 28L707 28 707 107 556 107 556 28" /><text transform="matrix(1 0 0 1 598 34)" font-family="Arial" font-size="8.000000" stroke="none"><tspan x="0" y="8">«IDEAS:TupleType»</tspan></text><text transform="matrix(1 0 0 1 598 44)" font-family="Arial" font-size="8.000000" font-weight="bold" stroke="none"><tspan x="0" y="8">activityBasedOn</tspan></text><path fill="#C0BFC0" stroke="none" fill-rule="nonzero" d="M559 144L710 144 710 213 559 213 559 144" /><path stroke="none" fill="#99CCFF" fill-rule="nonzero" d="M556 141L707 141 707 210 556 210 556 141" /><path stroke="#32CD32" fill="none" d="M556 141L707 141 707 211 556 211 556 141" /><path stroke="#32CD32" fill="none" d="M556 141L707 141 707 210 556 210 556 141" /><text transform="matrix(1 0 0 1 607 147)" font-family="Arial" font-size="8.000000" stroke="none"><tspan x="0" y="8">«IDEAS:Type»</tspan></text><text transform="matrix(1 0 0 1 573 157)" font-family="Arial" font-size="8.000000" font-weight="bold" stroke="none"><tspan x="0" y="8">StandardActivityComposition</tspan></text><path fill="#C0BFC0" stroke="none" fill-rule="nonzero" d="M27 278L182 278 182 316 27 316 27 278" /><path stroke="none" fill="#99CCFF" stroke-width="3" fill-rule="nonzero" d="M24 275L179 275 179 313 24 313 24 275" /><path stroke="#0000FF" fill="none" stroke-width="3" d="M24 275L179 275 179 314 24 314 24 275" /><path stroke="#0000FF" stroke-width="3" fill="none" d="M24 275L179 275 179 313 24 313 24 275" /><text transform="matrix(1 0 0 1 77 281)" font-family="Arial" font-size="8.000000" stroke="none"><tspan x="0" y="8">«IDEAS:Type»</tspan></text><text transform="matrix(1 0 0 1 74 291)" font-family="Arial" font-size="8.000000" font-weight="bold" stroke="none"><tspan x="0" y="8">ActivityGroup</tspan></text><path fill="#C0BFC0" stroke="none" fill-rule="nonzero" d="M76 159L187 159 187 196 76 196 76 159" /><path stroke="none" fill="#99CCFF" fill-rule="nonzero" d="M73 156L184 156 184 193 73 193 73 156" /><path stroke="#0000FF" fill="none" d="M73 156L184 156 184 194 73 194 73 156" /><path stroke="#0000FF" fill="none" d="M73 156L184 156 184 193 73 193 73 156" /><text transform="matrix(1 0 0 1 104 162)" font-family="Arial" font-size="8.000000" stroke="none"><tspan x="0" y="8">«IDEAS:Type»</tspan></text><text transform="matrix(1 0 0 1 95 172)" font-family="Arial" font-size="8.000000" font-weight="bold" stroke="none"><tspan x="0" y="8">ActivityGrouping</tspan></text><path fill="none" d="M556 516L431 516" /><path fill="none" d="M431 516L446 510" /><path fill="none" d="M431 516L446 522" /><g transform="matrix(1 0 0 -1 542 521)"><path fill="#FFFFFF" stroke="none" fill-rule="nonzero" d="M0 0L13 0 13 -9 0 -9 0 0" /></g><text transform="matrix(1 0 0 1 542 521)" font-family="Arial" font-size="8.000000" stroke="none"><tspan x="0" y="8">0..*</tspan></text><g transform="matrix(1 0 0 -1 488 505)"><path fill="#FFFFFF" stroke="none" fill-rule="nonzero" d="M0 0L14 0 14 -9 0 -9 0 0" /></g><text transform="matrix(1 0 0 1 488 505)" font-family="Arial" font-size="8.000000" stroke="none"><tspan x="0" y="8">task</tspan></text><g transform="matrix(1 0 0 -1 471 518)"><path fill="#FFFFFF" stroke="none" fill-rule="nonzero" d="M0 0L57 0 57 -9 0 -9 0 0" /></g><text transform="matrix(1 0 0 1 471 518)" font-family="Arial" font-size="8.000000" stroke="none"><tspan x="0" y="8">«place2Type»</tspan></text><g transform="matrix(1 0 0 -1 434 521)"><path fill="#FFFFFF" stroke="none" fill-rule="nonzero" d="M0 0L5 0 5 -9 0 -9 0 0" /></g><text transform="matrix(1 0 0 1 434 521)" font-family="Arial" font-size="8.000000" stroke="none"><tspan x="0" y="8">1</tspan></text><path fill="none" d="M556 46L247 46" /><path fill="none" d="M247 46L262 40" /><path fill="none" d="M247 46L262 52" /><g transform="matrix(1 0 0 -1 542 51)"><path fill="#FFFFFF" stroke="none" fill-rule="nonzero" d="M0 0L13 0 13 -9 0 -9 0 0" /></g><text transform="matrix(1 0 0 1 542 51)" font-family="Arial" font-size="8.000000" stroke="none"><tspan x="0" y="8">0..*</tspan></text><g transform="matrix(1 0 0 -1 379 35)"><path fill="#FFFFFF" stroke="none" fill-rule="nonzero" d="M0 0L57 0 57 -9 0 -9 0 0" /></g><text transform="matrix(1 0 0 1 379 35)" font-family="Arial" font-size="8.000000" stroke="none"><tspan x="0" y="8">derivedActivity</tspan></text><g transform="matrix(1 0 0 -1 379 48)"><path fill="#FFFFFF" stroke="none" fill-rule="nonzero" d="M0 0L57 0 57 -9 0 -9 0 0" /></g><text transform="matrix(1 0 0 1 379 48)" font-family="Arial" font-size="8.000000" stroke="none"><tspan x="0" y="8">«place2Type»</tspan></text><g transform="matrix(1 0 0 -1 250 51)"><path fill="#FFFFFF" stroke="none" fill-rule="nonzero" d="M0 0L5 0 5 -9 0 -9 0 0" /></g><text transform="matrix(1 0 0 1 250 51)" font-family="Arial" font-size="8.000000" stroke="none"><tspan x="0" y="8">1</tspan></text><path fill="none" d="M556 94L431 94" /><path fill="none" d="M431 94L446 88" /><path fill="none" d="M431 94L446 100" /><g transform="matrix(1 0 0 -1 541 99)"><path fill="#FFFFFF" stroke="none" fill-rule="nonzero" d="M0 0L15 0 15 -9 0 -9 0 0" /></g><text transform="matrix(1 0 0 1 541 99)" font-family="Arial" font-size="8.000000" stroke="none"><tspan x="0" y="8">0..1</tspan></text><g transform="matrix(1 0 0 -1 486 81)"><path fill="#FFFFFF" stroke="none" fill-rule="nonzero" d="M0 0L19 0 19 -9 0 -9 0 0" /></g><text transform="matrix(1 0 0 1 486 81)" font-family="Arial" font-size="8.000000" stroke="none"><tspan x="0" y="8">basis</tspan></text><g transform="matrix(1 0 0 -1 470 98)"><path fill="#FFFFFF" stroke="none" fill-rule="nonzero" d="M0 0L57 0 57 -9 0 -9 0 0" /></g><text transform="matrix(1 0 0 1 470 98)" font-family="Arial" font-size="8.000000" stroke="none"><tspan x="0" y="8">«place1Type»</tspan></text><g transform="matrix(1 0 0 -1 434 99)"><path fill="#FFFFFF" stroke="none" fill-rule="nonzero" d="M0 0L5 0 5 -9 0 -9 0 0" /></g><text transform="matrix(1 0 0 1 434 99)" font-family="Arial" font-size="8.000000" stroke="none"><tspan x="0" y="8">1</tspan></text><path fill="none" d="M708 260L820 260" /><path fill="none" d="M820 260L805 266" /><path fill="none" d="M820 260L805 254" /><g transform="matrix(1 0 0 -1 711 265)"><path fill="#FFFFFF" stroke="none" fill-rule="nonzero" d="M0 0L13 0 13 -9 0 -9 0 0" /></g><text transform="matrix(1 0 0 1 711 265)" font-family="Arial" font-size="8.000000" stroke="none"><tspan x="0" y="8">0..*</tspan></text><g transform="matrix(1 0 0 -1 758 249)"><path fill="#FFFFFF" stroke="none" fill-rule="nonzero" d="M0 0L15 0 15 -9 0 -9 0 0" /></g><text transform="matrix(1 0 0 1 758 249)" font-family="Arial" font-size="8.000000" stroke="none"><tspan x="0" y="8">role</tspan></text><g transform="matrix(1 0 0 -1 741 262)"><path fill="#FFFFFF" stroke="none" fill-rule="nonzero" d="M0 0L57 0 57 -9 0 -9 0 0" /></g><text transform="matrix(1 0 0 1 741 262)" font-family="Arial" font-size="8.000000" stroke="none"><tspan x="0" y="8">«place2Type»</tspan></text><g transform="matrix(1 0 0 -1 813 265)"><path fill="#FFFFFF" stroke="none" fill-rule="nonzero" d="M0 0L5 0 5 -9 0 -9 0 0" /></g><text transform="matrix(1 0 0 1 813 265)" font-family="Arial" font-size="8.000000" stroke="none"><tspan x="0" y="8">1</tspan></text><path fill="none" d="M556 262L431 262" /><path fill="none" d="M431 262L446 256" /><path fill="none" d="M431 262L446 268" /><g transform="matrix(1 0 0 -1 542 267)"><path fill="#FFFFFF" stroke="none" fill-rule="nonzero" d="M0 0L13 0 13 -9 0 -9 0 0" /></g><text transform="matrix(1 0 0 1 542 267)" font-family="Arial" font-size="8.000000" stroke="none"><tspan x="0" y="8">0..*</tspan></text><g transform="matrix(1 0 0 -1 483 251)"><path fill="#FFFFFF" stroke="none" fill-rule="nonzero" d="M0 0L27 0 27 -9 0 -9 0 0" /></g><text transform="matrix(1 0 0 1 483 251)" font-family="Arial" font-size="8.000000" stroke="none"><tspan x="0" y="8">activity</tspan></text><g transform="matrix(1 0 0 -1 471 264)"><path fill="#FFFFFF" stroke="none" fill-rule="nonzero" d="M0 0L57 0 57 -9 0 -9 0 0" /></g><text transform="matrix(1 0 0 1 471 264)" font-family="Arial" font-size="8.000000" stroke="none"><tspan x="0" y="8">«place1Type»</tspan></text><g transform="matrix(1 0 0 -1 434 267)"><path fill="#FFFFFF" stroke="none" fill-rule="nonzero" d="M0 0L5 0 5 -9 0 -9 0 0" /></g><text transform="matrix(1 0 0 1 434 267)" font-family="Arial" font-size="8.000000" stroke="none"><tspan x="0" y="8">1</tspan></text><path fill="none" d="M154 156L154 65" /><path fill="none" d="M154 65L160 80" /><path fill="none" d="M154 65L148 80" /><g transform="matrix(1 0 0 -1 157 142)"><path fill="#FFFFFF" stroke="none" fill-rule="nonzero" d="M0 0L13 0 13 -9 0 -9 0 0" /></g><text transform="matrix(1 0 0 1 157 142)" font-family="Arial" font-size="8.000000" stroke="none"><tspan x="0" y="8">0..*</tspan></text><g transform="matrix(1 0 0 -1 141 100)"><path fill="#FFFFFF" stroke="none" fill-rule="nonzero" d="M0 0L32 0 32 -9 0 -9 0 0" /></g><text transform="matrix(1 0 0 1 141 100)" font-family="Arial" font-size="8.000000" stroke="none"><tspan x="0" y="8">member</tspan></text><g transform="matrix(1 0 0 -1 131 113)"><path fill="#FFFFFF" stroke="none" fill-rule="nonzero" d="M0 0L57 0 57 -9 0 -9 0 0" /></g><text transform="matrix(1 0 0 1 131 113)" font-family="Arial" font-size="8.000000" stroke="none"><tspan x="0" y="8">«place2Type»</tspan></text><g transform="matrix(1 0 0 -1 166 70)"><path fill="#FFFFFF" stroke="none" fill-rule="nonzero" d="M0 0L5 0 5 -9 0 -9 0 0" /></g><text transform="matrix(1 0 0 1 166 70)" font-family="Arial" font-size="8.000000" stroke="none"><tspan x="0" y="8">1</tspan></text><path stroke="#0000FF" fill="none" d="M365 582L365 536" /><path stroke="#0000FF" fill="#FCF2E3" d="M371 552L359 552L365 536L371 552" /><g transform="matrix(1 0 0 -1 326 561)"><path fill="#FFFFFF" stroke="none" fill-rule="nonzero" d="M0 0L92 0 92 -9 0 -9 0 0" /></g><text transform="matrix(1 0 0 1 326 561)" font-family="Arial" font-size="8.000000" stroke="none"><tspan x="0" y="8">«IDEAS:superSubtype»</tspan></text><path stroke="#0000FF" fill="none" d="M55 273L55 65" /><path stroke="#0000FF" fill="#FCF2E3" d="M61 81L49 81L55 65L61 81" /><g transform="matrix(1 0 0 -1 26 103)"><path fill="#FFFFFF" stroke="none" fill-rule="nonzero" d="M0 0L92 0 92 -9 0 -9 0 0" /></g><text transform="matrix(1 0 0 1 26 103)" font-family="Arial" font-size="8.000000" stroke="none"><tspan x="0" y="8">«IDEAS:superSubtype»</tspan></text><path fill="none" d="M133 599L292 599" /><path fill="none" d="M292 599L277 605" /><path fill="none" d="M292 599L277 593" /><g transform="matrix(1 0 0 -1 136 604)"><path fill="#FFFFFF" stroke="none" fill-rule="nonzero" d="M0 0L13 0 13 -9 0 -9 0 0" /></g><text transform="matrix(1 0 0 1 136 604)" font-family="Arial" font-size="8.000000" stroke="none"><tspan x="0" y="8">0..*</tspan></text><g transform="matrix(1 0 0 -1 207 588)"><path fill="#FFFFFF" stroke="none" fill-rule="nonzero" d="M0 0L14 0 14 -9 0 -9 0 0" /></g><text transform="matrix(1 0 0 1 207 588)" font-family="Arial" font-size="8.000000" stroke="none"><tspan x="0" y="8">task</tspan></text><g transform="matrix(1 0 0 -1 190 601)"><path fill="#FFFFFF" stroke="none" fill-rule="nonzero" d="M0 0L57 0 57 -9 0 -9 0 0" /></g><text transform="matrix(1 0 0 1 190 601)" font-family="Arial" font-size="8.000000" stroke="none"><tspan x="0" y="8">«place2Type»</tspan></text><g transform="matrix(1 0 0 -1 285 604)"><path fill="#FFFFFF" stroke="none" fill-rule="nonzero" d="M0 0L5 0 5 -9 0 -9 0 0" /></g><text transform="matrix(1 0 0 1 285 604)" font-family="Arial" font-size="8.000000" stroke="none"><tspan x="0" y="8">1</tspan></text><path fill="none" d="M556 425L431 425" /><path fill="none" d="M431 425L446 419" /><path fill="none" d="M431 425L446 431" /><g transform="matrix(1 0 0 -1 542 430)"><path fill="#FFFFFF" stroke="none" fill-rule="nonzero" d="M0 0L13 0 13 -9 0 -9 0 0" /></g><text transform="matrix(1 0 0 1 542 430)" font-family="Arial" font-size="8.000000" stroke="none"><tspan x="0" y="8">0..*</tspan></text><g transform="matrix(1 0 0 -1 463 414)"><path fill="#FFFFFF" stroke="none" fill-rule="nonzero" d="M0 0L72 0 72 -9 0 -9 0 0" /></g><text transform="matrix(1 0 0 1 463 414)" font-family="Arial" font-size="8.000000" stroke="none"><tspan x="0" y="8">requiredCapability</tspan></text><g transform="matrix(1 0 0 -1 471 427)"><path fill="#FFFFFF" stroke="none" fill-rule="nonzero" d="M0 0L57 0 57 -9 0 -9 0 0" /></g><text transform="matrix(1 0 0 1 471 427)" font-family="Arial" font-size="8.000000" stroke="none"><tspan x="0" y="8">«place1Type»</tspan></text><g transform="matrix(1 0 0 -1 434 430)"><path fill="#FFFFFF" stroke="none" fill-rule="nonzero" d="M0 0L5 0 5 -9 0 -9 0 0" /></g><text transform="matrix(1 0 0 1 434 430)" font-family="Arial" font-size="8.000000" stroke="none"><tspan x="0" y="8">1</tspan></text><path fill="none" d="M556 204L431 204" /><path fill="none" d="M431 204L446 198" /><path fill="none" d="M431 204L446 210" /><g transform="matrix(1 0 0 -1 542 209)"><path fill="#FFFFFF" stroke="none" fill-rule="nonzero" d="M0 0L13 0 13 -9 0 -9 0 0" /></g><text transform="matrix(1 0 0 1 542 209)" font-family="Arial" font-size="8.000000" stroke="none"><tspan x="0" y="8">0..*</tspan></text><g transform="matrix(1 0 0 -1 488 193)"><path fill="#FFFFFF" stroke="none" fill-rule="nonzero" d="M0 0L15 0 15 -9 0 -9 0 0" /></g><text transform="matrix(1 0 0 1 488 193)" font-family="Arial" font-size="8.000000" stroke="none"><tspan x="0" y="8">part</tspan></text><g transform="matrix(1 0 0 -1 471 206)"><path fill="#FFFFFF" stroke="none" fill-rule="nonzero" d="M0 0L57 0 57 -9 0 -9 0 0" /></g><text transform="matrix(1 0 0 1 471 206)" font-family="Arial" font-size="8.000000" stroke="none"><tspan x="0" y="8">«place2Type»</tspan></text><g transform="matrix(1 0 0 -1 434 209)"><path fill="#FFFFFF" stroke="none" fill-rule="nonzero" d="M0 0L5 0 5 -9 0 -9 0 0" /></g><text transform="matrix(1 0 0 1 434 209)" font-family="Arial" font-size="8.000000" stroke="none"><tspan x="0" y="8">1</tspan></text><path fill="none" d="M556 156L431 156" /><path fill="none" d="M431 156L446 150" /><path fill="none" d="M431 156L446 162" /><g transform="matrix(1 0 0 -1 542 161)"><path fill="#FFFFFF" stroke="none" fill-rule="nonzero" d="M0 0L13 0 13 -9 0 -9 0 0" /></g><text transform="matrix(1 0 0 1 542 161)" font-family="Arial" font-size="8.000000" stroke="none"><tspan x="0" y="8">0..*</tspan></text><g transform="matrix(1 0 0 -1 485 145)"><path fill="#FFFFFF" stroke="none" fill-rule="nonzero" d="M0 0L23 0 23 -9 0 -9 0 0" /></g><text transform="matrix(1 0 0 1 485 145)" font-family="Arial" font-size="8.000000" stroke="none"><tspan x="0" y="8">whole</tspan></text><g transform="matrix(1 0 0 -1 471 158)"><path fill="#FFFFFF" stroke="none" fill-rule="nonzero" d="M0 0L57 0 57 -9 0 -9 0 0" /></g><text transform="matrix(1 0 0 1 471 158)" font-family="Arial" font-size="8.000000" stroke="none"><tspan x="0" y="8">«place1Type»</tspan></text><g transform="matrix(1 0 0 -1 434 161)"><path fill="#FFFFFF" stroke="none" fill-rule="nonzero" d="M0 0L5 0 5 -9 0 -9 0 0" /></g><text transform="matrix(1 0 0 1 434 161)" font-family="Arial" font-size="8.000000" stroke="none"><tspan x="0" y="8">1</tspan></text><path fill="none" d="M556 334L431 334" /><path fill="none" d="M431 334L446 328" /><path fill="none" d="M431 334L446 340" /><g transform="matrix(1 0 0 -1 542 339)"><path fill="#FFFFFF" stroke="none" fill-rule="nonzero" d="M0 0L13 0 13 -9 0 -9 0 0" /></g><text transform="matrix(1 0 0 1 542 339)" font-family="Arial" font-size="8.000000" stroke="none"><tspan x="0" y="8">0..*</tspan></text><g transform="matrix(1 0 0 -1 479 323)"><path fill="#FFFFFF" stroke="none" fill-rule="nonzero" d="M0 0L38 0 38 -9 0 -9 0 0" /></g><text transform="matrix(1 0 0 1 479 323)" font-family="Arial" font-size="8.000000" stroke="none"><tspan x="0" y="8">capability</tspan></text><g transform="matrix(1 0 0 -1 471 336)"><path fill="#FFFFFF" stroke="none" fill-rule="nonzero" d="M0 0L57 0 57 -9 0 -9 0 0" /></g><text transform="matrix(1 0 0 1 471 336)" font-family="Arial" font-size="8.000000" stroke="none"><tspan x="0" y="8">«place1Type»</tspan></text><g transform="matrix(1 0 0 -1 434 339)"><path fill="#FFFFFF" stroke="none" fill-rule="nonzero" d="M0 0L5 0 5 -9 0 -9 0 0" /></g><text transform="matrix(1 0 0 1 434 339)" font-family="Arial" font-size="8.000000" stroke="none"><tspan x="0" y="8">1</tspan></text><path fill="none" d="M708 333L820 333" /><path fill="none" d="M820 333L805 339" /><path fill="none" d="M820 333L805 327" /><g transform="matrix(1 0 0 -1 711 338)"><path fill="#FFFFFF" stroke="none" fill-rule="nonzero" d="M0 0L13 0 13 -9 0 -9 0 0" /></g><text transform="matrix(1 0 0 1 711 338)" font-family="Arial" font-size="8.000000" stroke="none"><tspan x="0" y="8">0..*</tspan></text><g transform="matrix(1 0 0 -1 758 322)"><path fill="#FFFFFF" stroke="none" fill-rule="nonzero" d="M0 0L15 0 15 -9 0 -9 0 0" /></g><text transform="matrix(1 0 0 1 758 322)" font-family="Arial" font-size="8.000000" stroke="none"><tspan x="0" y="8">role</tspan></text><g transform="matrix(1 0 0 -1 741 335)"><path fill="#FFFFFF" stroke="none" fill-rule="nonzero" d="M0 0L57 0 57 -9 0 -9 0 0" /></g><text transform="matrix(1 0 0 1 741 335)" font-family="Arial" font-size="8.000000" stroke="none"><tspan x="0" y="8">«place2Type»</tspan></text><g transform="matrix(1 0 0 -1 813 338)"><path fill="#FFFFFF" stroke="none" fill-rule="nonzero" d="M0 0L5 0 5 -9 0 -9 0 0" /></g><text transform="matrix(1 0 0 1 813 338)" font-family="Arial" font-size="8.000000" stroke="none"><tspan x="0" y="8">1</tspan></text><path fill="none" d="M78 577L78 316" /><path fill="none" d="M78 316L84 331" /><path fill="none" d="M78 316L72 331" /><g transform="matrix(1 0 0 -1 81 563)"><path fill="#FFFFFF" stroke="none" fill-rule="nonzero" d="M0 0L5 0 5 -9 0 -9 0 0" /></g><text transform="matrix(1 0 0 1 81 563)" font-family="Arial" font-size="8.000000" stroke="none"><tspan x="0" y="8">1</tspan></text><g transform="matrix(1 0 0 -1 64 436)"><path fill="#FFFFFF" stroke="none" fill-rule="nonzero" d="M0 0L35 0 35 -9 0 -9 0 0" /></g><text transform="matrix(1 0 0 1 64 436)" font-family="Arial" font-size="8.000000" stroke="none"><tspan x="0" y="8">template</tspan></text><g transform="matrix(1 0 0 -1 55 449)"><path fill="#FFFFFF" stroke="none" fill-rule="nonzero" d="M0 0L57 0 57 -9 0 -9 0 0" /></g><text transform="matrix(1 0 0 1 55 449)" font-family="Arial" font-size="8.000000" stroke="none"><tspan x="0" y="8">«place1Type»</tspan></text><g transform="matrix(1 0 0 -1 90 321)"><path fill="#FFFFFF" stroke="none" fill-rule="nonzero" d="M0 0L5 0 5 -9 0 -9 0 0" /></g><text transform="matrix(1 0 0 1 90 321)" font-family="Arial" font-size="8.000000" stroke="none"><tspan x="0" y="8">1</tspan></text><path fill="none" d="M127 194L127 273" /><path fill="none" d="M127 273L121 258" /><path fill="none" d="M127 273L133 258" /><g transform="matrix(1 0 0 -1 135 199)"><path fill="#FFFFFF" stroke="none" fill-rule="nonzero" d="M0 0L13 0 13 -9 0 -9 0 0" /></g><text transform="matrix(1 0 0 1 135 199)" font-family="Arial" font-size="8.000000" stroke="none"><tspan x="0" y="8">2..*</tspan></text><g transform="matrix(1 0 0 -1 117 223)"><path fill="#FFFFFF" stroke="none" fill-rule="nonzero" d="M0 0L22 0 22 -9 0 -9 0 0" /></g><text transform="matrix(1 0 0 1 117 223)" font-family="Arial" font-size="8.000000" stroke="none"><tspan x="0" y="8">group</tspan></text><g transform="matrix(1 0 0 -1 104 236)"><path fill="#FFFFFF" stroke="none" fill-rule="nonzero" d="M0 0L57 0 57 -9 0 -9 0 0" /></g><text transform="matrix(1 0 0 1 104 236)" font-family="Arial" font-size="8.000000" stroke="none"><tspan x="0" y="8">«place1Type»</tspan></text><g transform="matrix(1 0 0 -1 135 258)"><path fill="#FFFFFF" stroke="none" fill-rule="nonzero" d="M0 0L5 0 5 -9 0 -9 0 0" /></g><text transform="matrix(1 0 0 1 135 258)" font-family="Arial" font-size="8.000000" stroke="none"><tspan x="0" y="8">1</tspan></text></g></g></g></g></svg>