<?xml version="1.0" encoding="utf-8"?><svg version="1.1" preserveAspectRatio="xMidYMid" xml:space="preserve" width="578.20149pt" height="48.380959999999995pt" viewBox="7.116809999999999 55.59235 578.20149 48.380959999999995" xmlns="http://www.w3.org/2000/svg" xmlns:svg="http://www.w3.org/2000/svg" xmlns:xlink="http://www.w3.org/1999/xlink"><g transform="matrix(1 0 0 -1 0 816)"><g stroke="#000000" fill="#000000" fill-rule="nonzero" stroke-width="1" stroke-linecap="round" stroke-linejoin="miter" stroke-miterlimit="10" alphaIsShape="0" letter-spacing="normal" word-spacing="normal" font-family="Helvetica" font-size="10" font-weight="normal" font-style="normal" baseline-shift="0"><g transform="matrix(0.600000 0 0 0.600000 0 816.450012)"><g transform="matrix(1.199747 0 0 -1.199295 0 0)"><path fill="#C0BFC0" stroke="none" fill-rule="nonzero" d="M24 92L188 92 188 133 24 133 24 92" /><path stroke="none" fill="#99CCFF" stroke-width="3" fill-rule="nonzero" d="M21 89L185 89 185 130 21 130 21 89" /><path stroke="#32CD32" fill="none" stroke-width="3" d="M21 89L185 89 185 131 21 131 21 89" /><path stroke="#32CD32" stroke-width="3" fill="none" d="M21 89L185 89 185 130 21 130 21 89" /><text transform="matrix(1 0 0 1 79 95)" font-family="Arial" font-size="8.000000" stroke="none"><tspan x="0" y="8">«IDEAS:Type»</tspan></text><text transform="matrix(1 0 0 1 83 105)" font-family="Arial" font-size="8.000000" font-weight="bold" stroke="none"><tspan x="0" y="8">Capability</tspan></text><path fill="#C0BFC0" stroke="none" fill-rule="nonzero" d="M331 93L502 93 502 134 331 134 331 93" /><path stroke="none" fill="#99CCFF" fill-rule="nonzero" d="M328 90L499 90 499 131 328 131 328 90" /><path stroke="#32CD32" fill="none" d="M328 90L499 90 499 132 328 132 328 90" /><path stroke="#32CD32" fill="none" d="M328 90L499 90 499 131 328 131 328 90" /><text transform="matrix(1 0 0 1 389 96)" font-family="Arial" font-size="8.000000" stroke="none"><tspan x="0" y="8">«IDEAS:Type»</tspan></text><text transform="matrix(1 0 0 1 383 106)" font-family="Arial" font-size="8.000000" font-weight="bold" stroke="none"><tspan x="0" y="8">ApplicableMoE</tspan></text><path fill="#C0BFC0" stroke="none" fill-rule="nonzero" d="M645 93L802 93 802 134 645 134 645 93" /><path fill="#99CCFF" stroke="none" fill-rule="nonzero" d="M642 90L799 90 799 131 642 131 642 90" /><path fill="none" d="M642 90L799 90 799 132 642 132 642 90" /><path fill="none" d="M642 90L799 90 799 131 642 131 642 90" /><text transform="matrix(1 0 0 1 696 96)" font-family="Arial" font-size="8.000000" stroke="none"><tspan x="0" y="8">«IDEAS:Type»</tspan></text><text transform="matrix(1 0 0 1 685 106)" font-family="Arial" font-size="8.000000" font-weight="bold" stroke="none"><tspan x="0" y="8">MeasureCategory</tspan></text><path fill="none" d="M328 110L188 110" /><path fill="none" d="M188 110L203 104" /><path fill="none" d="M188 110L203 116" /><g transform="matrix(1 0 0 -1 314 115)"><path fill="#FFFFFF" stroke="none" fill-rule="nonzero" d="M0 0L13 0 13 -9 0 -9 0 0" /></g><text transform="matrix(1 0 0 1 314 115)" font-family="Arial" font-size="8.000000" stroke="none"><tspan x="0" y="8">0..*</tspan></text><g transform="matrix(1 0 0 -1 243 99)"><path fill="#FFFFFF" stroke="none" fill-rule="nonzero" d="M0 0L38 0 38 -9 0 -9 0 0" /></g><text transform="matrix(1 0 0 1 243 99)" font-family="Arial" font-size="8.000000" stroke="none"><tspan x="0" y="8">capability</tspan></text><g transform="matrix(1 0 0 -1 235 112)"><path fill="#FFFFFF" stroke="none" fill-rule="nonzero" d="M0 0L57 0 57 -9 0 -9 0 0" /></g><text transform="matrix(1 0 0 1 235 112)" font-family="Arial" font-size="8.000000" stroke="none"><tspan x="0" y="8">«place2Type»</tspan></text><g transform="matrix(1 0 0 -1 191 115)"><path fill="#FFFFFF" stroke="none" fill-rule="nonzero" d="M0 0L5 0 5 -9 0 -9 0 0" /></g><text transform="matrix(1 0 0 1 191 115)" font-family="Arial" font-size="8.000000" stroke="none"><tspan x="0" y="8">1</tspan></text><path fill="none" d="M500 111L642 111" /><path fill="none" d="M642 111L627 117" /><path fill="none" d="M642 111L627 105" /><g transform="matrix(1 0 0 -1 507 94)"><path fill="#FFFFFF" stroke="none" fill-rule="nonzero" d="M0 0L13 0 13 -9 0 -9 0 0" /></g><text transform="matrix(1 0 0 1 507 94)" font-family="Arial" font-size="8.000000" stroke="none"><tspan x="0" y="8">0..*</tspan></text><g transform="matrix(1 0 0 -1 564 100)"><path fill="#FFFFFF" stroke="none" fill-rule="nonzero" d="M0 0L18 0 18 -9 0 -9 0 0" /></g><text transform="matrix(1 0 0 1 564 100)" font-family="Arial" font-size="8.000000" stroke="none"><tspan x="0" y="8">moe</tspan></text><g transform="matrix(1 0 0 -1 548 113)"><path fill="#FFFFFF" stroke="none" fill-rule="nonzero" d="M0 0L57 0 57 -9 0 -9 0 0" /></g><text transform="matrix(1 0 0 1 548 113)" font-family="Arial" font-size="8.000000" stroke="none"><tspan x="0" y="8">«place1Type»</tspan></text><g transform="matrix(1 0 0 -1 635 116)"><path fill="#FFFFFF" stroke="none" fill-rule="nonzero" d="M0 0L5 0 5 -9 0 -9 0 0" /></g><text transform="matrix(1 0 0 1 635 116)" font-family="Arial" font-size="8.000000" stroke="none"><tspan x="0" y="8">1</tspan></text></g></g></g></g></svg>