<?xml version="1.0" encoding="utf-8"?><svg version="1.1" preserveAspectRatio="xMidYMid" xml:space="preserve" width="974.83782pt" height="678.01089pt" viewBox="20.07408 34.72461 974.83782 678.01089" xmlns="http://www.w3.org/2000/svg" xmlns:svg="http://www.w3.org/2000/svg" xmlns:xlink="http://www.w3.org/1999/xlink"><g transform="matrix(1 0 0 -1 0 816)"><g stroke="#000000" fill="#000000" fill-rule="nonzero" stroke-width="1" stroke-linecap="round" stroke-linejoin="miter" stroke-miterlimit="10" alphaIsShape="0" letter-spacing="normal" word-spacing="normal" font-family="Helvetica" font-size="10" font-weight="normal" font-style="normal" baseline-shift="0"><g transform="matrix(0.600000 0 0 0.600000 0 816.450012)"><g transform="matrix(1.199747 0 0 -1.199295 0 0)"><path fill="#C0BFC0" stroke="none" fill-rule="nonzero" d="M562 366L715 366 715 760 562 760 562 366" /><path stroke="none" fill="#FFAD5B" stroke-width="3" fill-rule="nonzero" d="M559 363L712 363 712 757 559 757 559 363" /><path stroke="#FFFF00" fill="none" stroke-width="3" d="M559 363L712 363 712 758 559 758 559 363" /><path stroke="#FFFF00" stroke-width="3" fill="none" d="M559 363L712 363 712 757 559 757 559 363" /><text transform="matrix(1 0 0 1 596 369)" font-family="Arial" font-size="8.000000" stroke="none"><tspan x="0" y="8">«IDEAS:IndividualType»</tspan></text><text transform="matrix(1 0 0 1 602 379)" font-family="Arial" font-size="8.000000" font-weight="bold" stroke="none"><tspan x="0" y="8">EnterprisePhase</tspan></text><path fill="#C0BFC0" stroke="none" fill-rule="nonzero" d="M562 813L719 813 719 980 562 980 562 813" /><path stroke="none" fill="#FFAD5B" stroke-width="3" fill-rule="nonzero" d="M559 810L716 810 716 977 559 977 559 810" /><path stroke="#FFFF00" fill="none" stroke-width="3" d="M559 810L716 810 716 978 559 978 559 810" /><path stroke="#FFFF00" stroke-width="3" fill="none" d="M559 810L716 810 716 977 559 977 559 810" /><text transform="matrix(1 0 0 1 598 816)" font-family="Arial" font-size="8.000000" stroke="none"><tspan x="0" y="8">«IDEAS:IndividualType»</tspan></text><text transform="matrix(1 0 0 1 596 826)" font-family="Arial" font-size="8.000000" font-weight="bold" stroke="none"><tspan x="0" y="8">WholeLifeEnterprise</tspan></text><path fill="#C0BFC0" stroke="none" fill-rule="nonzero" d="M863 899L1042 899 1042 977 863 977 863 899" /><path stroke="none" fill="#CCFFCC" fill-rule="nonzero" d="M860 896L1039 896 1039 974 860 974 860 896" /><path stroke="#FFFF00" fill="none" d="M860 896L1039 896 1039 975 860 975 860 896" /><path stroke="#FFFF00" fill="none" d="M860 896L1039 896 1039 974 860 974 860 896" /><text transform="matrix(1 0 0 1 916 902)" font-family="Arial" font-size="8.000000" stroke="none"><tspan x="0" y="8">«IDEAS:TupleType»</tspan></text><text transform="matrix(1 0 0 1 910 912)" font-family="Arial" font-size="8.000000" font-weight="bold" stroke="none"><tspan x="0" y="8">enterpriseStructure</tspan></text><path fill="#C0BFC0" stroke="none" fill-rule="nonzero" d="M863 620L1042 620 1042 688 863 688 863 620" /><path stroke="none" fill="#CCFFCC" fill-rule="nonzero" d="M860 617L1039 617 1039 685 860 685 860 617" /><path stroke="#FFFF00" fill="none" d="M860 617L1039 617 1039 686 860 686 860 617" /><path stroke="#FFFF00" fill="none" d="M860 617L1039 617 1039 685 860 685 860 617" /><text transform="matrix(1 0 0 1 916 623)" font-family="Arial" font-size="8.000000" stroke="none"><tspan x="0" y="8">«IDEAS:TupleType»</tspan></text><text transform="matrix(1 0 0 1 902 633)" font-family="Arial" font-size="8.000000" font-weight="bold" stroke="none"><tspan x="0" y="8">enterpriseTemporalPart</tspan></text><path fill="#C0BFC0" stroke="none" fill-rule="nonzero" d="M863 738L1042 738 1042 836 863 836 863 738" /><path stroke="none" fill="#CCFFCC" fill-rule="nonzero" d="M860 735L1039 735 1039 833 860 833 860 735" /><path stroke="#FFFF00" fill="none" d="M860 735L1039 735 1039 834 860 834 860 735" /><path stroke="#FFFF00" fill="none" d="M860 735L1039 735 1039 833 860 833 860 735" /><text transform="matrix(1 0 0 1 916 741)" font-family="Arial" font-size="8.000000" stroke="none"><tspan x="0" y="8">«IDEAS:TupleType»</tspan></text><text transform="matrix(1 0 0 1 903 751)" font-family="Arial" font-size="8.000000" font-weight="bold" stroke="none"><tspan x="0" y="8">enterpriseWholePhase</tspan></text><path fill="#C0BFC0" stroke="none" fill-rule="nonzero" d="M46 546L371 546 371 586 46 586 46 546" /><path stroke="none" fill="#FFAD5B" stroke-width="3" fill-rule="nonzero" d="M43 543L368 543 368 583 43 583 43 543" /><path stroke="#32CD32" fill="none" stroke-width="3" d="M43 543L368 543 368 584 43 584 43 543" /><path stroke="#32CD32" stroke-width="3" fill="none" d="M43 543L368 543 368 583 43 583 43 543" /><text transform="matrix(1 0 0 1 166 549)" font-family="Arial" font-size="8.000000" stroke="none"><tspan x="0" y="8">«IDEAS:IndividualType»</tspan></text><text transform="matrix(1 0 0 1 178 559)" font-family="Arial" font-size="8.000000" font-weight="bold" stroke="none"><tspan x="0" y="8">EnduringTask</tspan></text><path fill="#C0BFC0" stroke="none" fill-rule="nonzero" d="M298 367L489 367 489 405 298 405 298 367" /><path stroke="none" fill="#FFAD5B" stroke-width="3" fill-rule="nonzero" d="M295 364L486 364 486 402 295 402 295 364" /><path stroke="#32CD32" fill="none" stroke-width="3" d="M295 364L486 364 486 403 295 403 295 364" /><path stroke="#32CD32" stroke-width="3" fill="none" d="M295 364L486 364 486 402 295 402 295 364" /><text transform="matrix(1 0 0 1 351 370)" font-family="Arial" font-size="8.000000" stroke="none"><tspan x="0" y="8">«IDEAS:IndividualType»</tspan></text><text transform="matrix(1 0 0 1 350 380)" font-family="Arial" font-size="8.000000" font-weight="bold" stroke="none"><tspan x="0" y="8">EnduringTaskPhase</tspan></text><path fill="#C0BFC0" stroke="none" fill-rule="nonzero" d="M42 368L167 368 167 401 42 401 42 368" /><path stroke="none" fill="#CCFFCC" fill-rule="nonzero" d="M39 365L164 365 164 398 39 398 39 365" /><path stroke="#32CD32" fill="none" d="M39 365L164 365 164 399 39 399 39 365" /><path stroke="#32CD32" fill="none" d="M39 365L164 365 164 398 39 398 39 365" /><text transform="matrix(1 0 0 1 68 371)" font-family="Arial" font-size="8.000000" stroke="none"><tspan x="0" y="8">«IDEAS:TupleType»</tspan></text><text transform="matrix(1 0 0 1 57 381)" font-family="Arial" font-size="8.000000" font-weight="bold" stroke="none"><tspan x="0" y="8">phaseOfEnduringTask</tspan></text><path fill="#C0BFC0" stroke="none" fill-rule="nonzero" d="M273 798L456 798 456 847 273 847 273 798" /><path stroke="none" fill="#FFAD5B" stroke-width="3" fill-rule="nonzero" d="M270 795L453 795 453 844 270 844 270 795" /><path stroke="#32CD32" fill="none" stroke-width="3" d="M270 795L453 795 453 845 270 845 270 795" /><path stroke="#32CD32" stroke-width="3" fill="none" d="M270 795L453 795 453 844 270 844 270 795" /><text transform="matrix(1 0 0 1 322 801)" font-family="Arial" font-size="8.000000" stroke="none"><tspan x="0" y="8">«IDEAS:IndividualType»</tspan></text><text transform="matrix(1 0 0 1 300 811)" font-family="Arial" font-size="8.000000" font-weight="bold" stroke="none"><tspan x="0" y="8">EnterpriseRoleInEnduringTask</tspan></text><path fill="#C0BFC0" stroke="none" fill-rule="nonzero" d="M280 686L440 686 440 722 280 722 280 686" /><path stroke="none" fill="#CCFFCC" fill-rule="nonzero" d="M277 683L437 683 437 719 277 719 277 683" /><path stroke="#32CD32" fill="none" d="M277 683L437 683 437 720 277 720 277 683" /><path stroke="#32CD32" fill="none" d="M277 683L437 683 437 719 277 719 277 683" /><text transform="matrix(1 0 0 1 323 689)" font-family="Arial" font-size="8.000000" stroke="none"><tspan x="0" y="8">«IDEAS:TupleType»</tspan></text><text transform="matrix(1 0 0 1 299 699)" font-family="Arial" font-size="8.000000" font-weight="bold" stroke="none"><tspan x="0" y="8">enduringTaskEnterpriseRole</tspan></text><path fill="#C0BFC0" stroke="none" fill-rule="nonzero" d="M280 936L459 936 459 971 280 971 280 936" /><path stroke="none" fill="#CCFFCC" fill-rule="nonzero" d="M277 933L456 933 456 968 277 968 277 933" /><path stroke="#32CD32" fill="none" d="M277 933L456 933 456 969 277 969 277 933" /><path stroke="#32CD32" fill="none" d="M277 933L456 933 456 968 277 968 277 933" /><text transform="matrix(1 0 0 1 333 939)" font-family="Arial" font-size="8.000000" stroke="none"><tspan x="0" y="8">«IDEAS:TupleType»</tspan></text><text transform="matrix(1 0 0 1 337 949)" font-family="Arial" font-size="8.000000" font-weight="bold" stroke="none"><tspan x="0" y="8">enterpriseRole</tspan></text><path fill="#C0BFC0" stroke="none" fill-rule="nonzero" d="M1180 547L1369 547 1369 587 1180 587 1180 547" /><path stroke="none" fill="#99CCFF" stroke-width="3" fill-rule="nonzero" d="M1177 544L1366 544 1366 584 1177 584 1177 544" /><path stroke="#3CB371" fill="none" stroke-width="3" d="M1177 544L1366 544 1366 585 1177 585 1177 544" /><path stroke="#3CB371" stroke-width="3" fill="none" d="M1177 544L1366 544 1366 584 1177 584 1177 544" /><text transform="matrix(1 0 0 1 1247 550)" font-family="Arial" font-size="8.000000" stroke="none"><tspan x="0" y="8">«IDEAS:Type»</tspan></text><text transform="matrix(1 0 0 1 1238 560)" font-family="Arial" font-size="8.000000" font-weight="bold" stroke="none"><tspan x="0" y="8">VisionStatement</tspan></text><path fill="#C0BFC0" stroke="none" fill-rule="nonzero" d="M1180 364L1369 364 1369 403 1180 403 1180 364" /><path stroke="none" fill="#99CCFF" stroke-width="3" fill-rule="nonzero" d="M1177 361L1366 361 1366 400 1177 400 1177 361" /><path stroke="#3CB371" fill="none" stroke-width="3" d="M1177 361L1366 361 1366 401 1177 401 1177 361" /><path stroke="#3CB371" stroke-width="3" fill="none" d="M1177 361L1366 361 1366 400 1177 400 1177 361" /><text transform="matrix(1 0 0 1 1247 367)" font-family="Arial" font-size="8.000000" stroke="none"><tspan x="0" y="8">«IDEAS:Type»</tspan></text><text transform="matrix(1 0 0 1 1237 377)" font-family="Arial" font-size="8.000000" font-weight="bold" stroke="none"><tspan x="0" y="8">StatementOfGoal</tspan></text><path fill="#C0BFC0" stroke="none" fill-rule="nonzero" d="M863 549L1042 549 1042 586 863 586 863 549" /><path stroke="none" fill="#CCFFCC" fill-rule="nonzero" d="M860 546L1039 546 1039 583 860 583 860 546" /><path stroke="#3CB371" fill="none" d="M860 546L1039 546 1039 584 860 584 860 546" /><path stroke="#3CB371" fill="none" d="M860 546L1039 546 1039 583 860 583 860 546" /><text transform="matrix(1 0 0 1 916 552)" font-family="Arial" font-size="8.000000" stroke="none"><tspan x="0" y="8">«IDEAS:TupleType»</tspan></text><text transform="matrix(1 0 0 1 916 562)" font-family="Arial" font-size="8.000000" font-weight="bold" stroke="none"><tspan x="0" y="8">enterpriseVision</tspan></text><path fill="#C0BFC0" stroke="none" fill-rule="nonzero" d="M863 360L1042 360 1042 399 863 399 863 360" /><path stroke="none" fill="#CCFFCC" fill-rule="nonzero" d="M860 357L1039 357 1039 396 860 396 860 357" /><path stroke="#3CB371" fill="none" d="M860 357L1039 357 1039 397 860 397 860 357" /><path stroke="#3CB371" fill="none" d="M860 357L1039 357 1039 396 860 396 860 357" /><text transform="matrix(1 0 0 1 916 363)" font-family="Arial" font-size="8.000000" stroke="none"><tspan x="0" y="8">«IDEAS:TupleType»</tspan></text><text transform="matrix(1 0 0 1 919 373)" font-family="Arial" font-size="8.000000" font-weight="bold" stroke="none"><tspan x="0" y="8">enterpriseGoal</tspan></text><path fill="#C0BFC0" stroke="none" fill-rule="nonzero" d="M1182 245L1371 245 1371 281 1182 281 1182 245" /><path stroke="none" fill="#99CCFF" fill-rule="nonzero" d="M1179 242L1368 242 1368 278 1179 278 1179 242" /><path stroke="#32CD32" fill="none" d="M1179 242L1368 242 1368 279 1179 279 1179 242" /><path stroke="#32CD32" fill="none" d="M1179 242L1368 242 1368 278 1179 278 1179 242" /><text transform="matrix(1 0 0 1 1249 248)" font-family="Arial" font-size="8.000000" stroke="none"><tspan x="0" y="8">«IDEAS:Type»</tspan></text><text transform="matrix(1 0 0 1 1256 258)" font-family="Arial" font-size="8.000000" font-weight="bold" stroke="none"><tspan x="0" y="8">SubGoal</tspan></text><path fill="#C0BFC0" stroke="none" fill-rule="nonzero" d="M863 461L1042 461 1042 499 863 499 863 461" /><path stroke="none" fill="#99CCFF" stroke-width="3" fill-rule="nonzero" d="M860 458L1039 458 1039 496 860 496 860 458" /><path stroke="#32CD32" fill="none" stroke-width="3" d="M860 458L1039 458 1039 497 860 497 860 458" /><path stroke="#32CD32" stroke-width="3" fill="none" d="M860 458L1039 458 1039 496 860 496 860 458" /><text transform="matrix(1 0 0 1 925 464)" font-family="Arial" font-size="8.000000" stroke="none"><tspan x="0" y="8">«IDEAS:Type»</tspan></text><text transform="matrix(1 0 0 1 915 474)" font-family="Arial" font-size="8.000000" font-weight="bold" stroke="none"><tspan x="0" y="8">BenefitStatement</tspan></text><path fill="#C0BFC0" stroke="none" fill-rule="nonzero" d="M1180 464L1369 464 1369 499 1180 499 1180 464" /><path stroke="none" fill="#99CCFF" fill-rule="nonzero" d="M1177 461L1366 461 1366 496 1177 496 1177 461" /><path stroke="#32CD32" fill="none" d="M1177 461L1366 461 1366 497 1177 497 1177 461" /><path stroke="#32CD32" fill="none" d="M1177 461L1366 461 1366 496 1177 496 1177 461" /><text transform="matrix(1 0 0 1 1247 467)" font-family="Arial" font-size="8.000000" stroke="none"><tspan x="0" y="8">«IDEAS:Type»</tspan></text><text transform="matrix(1 0 0 1 1243 477)" font-family="Arial" font-size="8.000000" font-weight="bold" stroke="none"><tspan x="0" y="8">BenefitOfGoal</tspan></text><path fill="#C0BFC0" stroke="none" fill-rule="nonzero" d="M1180 63L1369 63 1369 185 1180 185 1180 63" /><path stroke="none" fill="#99CCFF" stroke-width="3" fill-rule="nonzero" d="M1177 60L1366 60 1366 182 1177 182 1177 60" /><path stroke="#FFFF00" fill="none" stroke-width="3" d="M1177 60L1366 60 1366 183 1177 183 1177 60" /><path stroke="#FFFF00" stroke-width="3" fill="none" d="M1177 60L1366 60 1366 182 1177 182 1177 60" /><text transform="matrix(1 0 0 1 1247 66)" font-family="Arial" font-size="8.000000" stroke="none"><tspan x="0" y="8">«IDEAS:Type»</tspan></text><text transform="matrix(1 0 0 1 1251 76)" font-family="Arial" font-size="8.000000" font-weight="bold" stroke="none"><tspan x="0" y="8">Constraint</tspan></text><path fill="#C0BFC0" stroke="none" fill-rule="nonzero" d="M895 63L1013 63 1013 102 895 102 895 63" /><path stroke="none" fill="#CCFFCC" fill-rule="nonzero" d="M892 60L1010 60 1010 99 892 99 892 60" /><path stroke="#FFFF00" fill="none" d="M892 60L1010 60 1010 100 892 100 892 60" /><path stroke="#FFFF00" fill="none" d="M892 60L1010 60 1010 99 892 99 892 60" /><text transform="matrix(1 0 0 1 917 66)" font-family="Arial" font-size="8.000000" stroke="none"><tspan x="0" y="8">«IDEAS:TupleType»</tspan></text><text transform="matrix(1 0 0 1 905 76)" font-family="Arial" font-size="8.000000" font-weight="bold" stroke="none"><tspan x="0" y="8">constraintOnIndividual</tspan></text><path fill="#C0BFC0" stroke="none" fill-rule="nonzero" d="M378 63L705 63 705 107 378 107 378 63" /><path stroke="none" fill="#C0C0C0" stroke-width="3" fill-rule="nonzero" d="M375 60L702 60 702 104 375 104 375 60" /><path stroke="#FFFF00" fill="none" stroke-width="3" d="M375 60L702 60 702 105 375 105 375 60" /><path stroke="#FFFF00" stroke-width="3" fill="none" d="M375 60L702 60 702 104 375 104 375 60" /><text transform="matrix(1 0 0 1 499 66)" font-family="Arial" font-size="8.000000" stroke="none"><tspan x="0" y="8">«IDEAS:IndividualType»</tspan></text><text transform="matrix(1 0 0 1 487 76)" font-family="Arial" font-size="8.000000" font-weight="bold" stroke="none"><tspan x="0" y="8">ModemIndividualElement</tspan></text><path fill="#C0BFC0" stroke="none" fill-rule="nonzero" d="M379 166L700 166 700 205 379 205 379 166" /><path stroke="none" fill="#C0C0C0" stroke-width="3" fill-rule="nonzero" d="M376 163L697 163 697 202 376 202 376 163" /><path stroke="#FFFF00" fill="none" stroke-width="3" d="M376 163L697 163 697 203 376 203 376 163" /><path stroke="#FFFF00" stroke-width="3" fill="none" d="M376 163L697 163 697 202 376 202 376 163" /><text transform="matrix(1 0 0 1 497 169)" font-family="Arial" font-size="8.000000" stroke="none"><tspan x="0" y="8">«IDEAS:IndividualType»</tspan></text><text transform="matrix(1 0 0 1 504 179)" font-family="Arial" font-size="8.000000" font-weight="bold" font-style="italic" stroke="none"><tspan x="0" y="8">UndertakingPart</tspan></text><path fill="#C0BFC0" stroke="none" fill-rule="nonzero" d="M379 260L701 260 701 297 379 297 379 260" /><path stroke="none" fill="#C0C0C0" stroke-width="3" fill-rule="nonzero" d="M376 257L698 257 698 294 376 294 376 257" /><path stroke="#FFFF00" fill="none" stroke-width="3" d="M376 257L698 257 698 295 376 295 376 257" /><path stroke="#FFFF00" stroke-width="3" fill="none" d="M376 257L698 257 698 294 376 294 376 257" /><text transform="matrix(1 0 0 1 497 263)" font-family="Arial" font-size="8.000000" stroke="none"><tspan x="0" y="8">«IDEAS:IndividualType»</tspan></text><text transform="matrix(1 0 0 1 502 273)" font-family="Arial" font-size="8.000000" font-weight="bold" font-style="italic" stroke="none"><tspan x="0" y="8">UndertakingState</tspan></text><path fill="none" d="M358 720L358 793" /><path fill="none" d="M358 793L352 778" /><path fill="none" d="M358 793L364 778" /><g transform="matrix(1 0 0 -1 366 725)"><path fill="#FFFFFF" stroke="none" fill-rule="nonzero" d="M0 0L15 0 15 -9 0 -9 0 0" /></g><text transform="matrix(1 0 0 1 366 725)" font-family="Arial" font-size="8.000000" stroke="none"><tspan x="0" y="8">0..1</tspan></text><g transform="matrix(1 0 0 -1 352 746)"><path fill="#FFFFFF" stroke="none" fill-rule="nonzero" d="M0 0L15 0 15 -9 0 -9 0 0" /></g><text transform="matrix(1 0 0 1 352 746)" font-family="Arial" font-size="8.000000" stroke="none"><tspan x="0" y="8">role</tspan></text><g transform="matrix(1 0 0 -1 335 759)"><path fill="#FFFFFF" stroke="none" fill-rule="nonzero" d="M0 0L57 0 57 -9 0 -9 0 0" /></g><text transform="matrix(1 0 0 1 335 759)" font-family="Arial" font-size="8.000000" stroke="none"><tspan x="0" y="8">«place2Type»</tspan></text><g transform="matrix(1 0 0 -1 366 778)"><path fill="#FFFFFF" stroke="none" fill-rule="nonzero" d="M0 0L5 0 5 -9 0 -9 0 0" /></g><text transform="matrix(1 0 0 1 366 778)" font-family="Arial" font-size="8.000000" stroke="none"><tspan x="0" y="8">1</tspan></text><path stroke="#0000FF" fill="none" d="M636 808L636 760" /><path stroke="#0000FF" fill="#FCF2E3" d="M642 776L630 776L636 760L642 776" /><g transform="matrix(1 0 0 -1 597 786)"><path fill="#FFFFFF" stroke="none" fill-rule="nonzero" d="M0 0L92 0 92 -9 0 -9 0 0" /></g><text transform="matrix(1 0 0 1 597 786)" font-family="Arial" font-size="8.000000" stroke="none"><tspan x="0" y="8">«IDEAS:superSubtype»</tspan></text><path fill="none" d="M860 958L719 958" /><path fill="none" d="M719 958L734 952" /><path fill="none" d="M719 958L734 964" /><g transform="matrix(1 0 0 -1 846 963)"><path fill="#FFFFFF" stroke="none" fill-rule="nonzero" d="M0 0L13 0 13 -9 0 -9 0 0" /></g><text transform="matrix(1 0 0 1 846 963)" font-family="Arial" font-size="8.000000" stroke="none"><tspan x="0" y="8">0..*</tspan></text><g transform="matrix(1 0 0 -1 784 947)"><path fill="#FFFFFF" stroke="none" fill-rule="nonzero" d="M0 0L15 0 15 -9 0 -9 0 0" /></g><text transform="matrix(1 0 0 1 784 947)" font-family="Arial" font-size="8.000000" stroke="none"><tspan x="0" y="8">part</tspan></text><g transform="matrix(1 0 0 -1 767 960)"><path fill="#FFFFFF" stroke="none" fill-rule="nonzero" d="M0 0L57 0 57 -9 0 -9 0 0" /></g><text transform="matrix(1 0 0 1 767 960)" font-family="Arial" font-size="8.000000" stroke="none"><tspan x="0" y="8">«place2Type»</tspan></text><g transform="matrix(1 0 0 -1 722 963)"><path fill="#FFFFFF" stroke="none" fill-rule="nonzero" d="M0 0L5 0 5 -9 0 -9 0 0" /></g><text transform="matrix(1 0 0 1 722 963)" font-family="Arial" font-size="8.000000" stroke="none"><tspan x="0" y="8">1</tspan></text><path fill="none" d="M860 913L719 913" /><path fill="none" d="M719 913L734 907" /><path fill="none" d="M719 913L734 919" /><g transform="matrix(1 0 0 -1 846 918)"><path fill="#FFFFFF" stroke="none" fill-rule="nonzero" d="M0 0L13 0 13 -9 0 -9 0 0" /></g><text transform="matrix(1 0 0 1 846 918)" font-family="Arial" font-size="8.000000" stroke="none"><tspan x="0" y="8">0..*</tspan></text><g transform="matrix(1 0 0 -1 781 902)"><path fill="#FFFFFF" stroke="none" fill-rule="nonzero" d="M0 0L23 0 23 -9 0 -9 0 0" /></g><text transform="matrix(1 0 0 1 781 902)" font-family="Arial" font-size="8.000000" stroke="none"><tspan x="0" y="8">whole</tspan></text><g transform="matrix(1 0 0 -1 767 915)"><path fill="#FFFFFF" stroke="none" fill-rule="nonzero" d="M0 0L57 0 57 -9 0 -9 0 0" /></g><text transform="matrix(1 0 0 1 767 915)" font-family="Arial" font-size="8.000000" stroke="none"><tspan x="0" y="8">«place1Type»</tspan></text><g transform="matrix(1 0 0 -1 722 918)"><path fill="#FFFFFF" stroke="none" fill-rule="nonzero" d="M0 0L5 0 5 -9 0 -9 0 0" /></g><text transform="matrix(1 0 0 1 722 918)" font-family="Arial" font-size="8.000000" stroke="none"><tspan x="0" y="8">1</tspan></text><path stroke="#0000FF" fill="none" d="M950 896L950 834" /><path stroke="#0000FF" fill="#FCF2E3" d="M956 850L944 850L950 834L956 850" /><g transform="matrix(1 0 0 -1 907 864)"><path fill="#FFFFFF" stroke="none" fill-rule="nonzero" d="M0 0L92 0 92 -9 0 -9 0 0" /></g><text transform="matrix(1 0 0 1 907 864)" font-family="Arial" font-size="8.000000" stroke="none"><tspan x="0" y="8">«IDEAS:superSubtype»</tspan></text><path fill="none" d="M860 675L715 675" /><path fill="none" d="M715 675L730 669" /><path fill="none" d="M715 675L730 681" /><g transform="matrix(1 0 0 -1 846 680)"><path fill="#FFFFFF" stroke="none" fill-rule="nonzero" d="M0 0L13 0 13 -9 0 -9 0 0" /></g><text transform="matrix(1 0 0 1 846 680)" font-family="Arial" font-size="8.000000" stroke="none"><tspan x="0" y="8">0..*</tspan></text><g transform="matrix(1 0 0 -1 782 664)"><path fill="#FFFFFF" stroke="none" fill-rule="nonzero" d="M0 0L15 0 15 -9 0 -9 0 0" /></g><text transform="matrix(1 0 0 1 782 664)" font-family="Arial" font-size="8.000000" stroke="none"><tspan x="0" y="8">part</tspan></text><g transform="matrix(1 0 0 -1 765 677)"><path fill="#FFFFFF" stroke="none" fill-rule="nonzero" d="M0 0L57 0 57 -9 0 -9 0 0" /></g><text transform="matrix(1 0 0 1 765 677)" font-family="Arial" font-size="8.000000" stroke="none"><tspan x="0" y="8">«place2Type»</tspan></text><g transform="matrix(1 0 0 -1 718 680)"><path fill="#FFFFFF" stroke="none" fill-rule="nonzero" d="M0 0L5 0 5 -9 0 -9 0 0" /></g><text transform="matrix(1 0 0 1 718 680)" font-family="Arial" font-size="8.000000" stroke="none"><tspan x="0" y="8">1</tspan></text><path fill="none" d="M860 630L715 630" /><path fill="none" d="M715 630L730 624" /><path fill="none" d="M715 630L730 636" /><g transform="matrix(1 0 0 -1 846 635)"><path fill="#FFFFFF" stroke="none" fill-rule="nonzero" d="M0 0L13 0 13 -9 0 -9 0 0" /></g><text transform="matrix(1 0 0 1 846 635)" font-family="Arial" font-size="8.000000" stroke="none"><tspan x="0" y="8">0..*</tspan></text><g transform="matrix(1 0 0 -1 779 619)"><path fill="#FFFFFF" stroke="none" fill-rule="nonzero" d="M0 0L23 0 23 -9 0 -9 0 0" /></g><text transform="matrix(1 0 0 1 779 619)" font-family="Arial" font-size="8.000000" stroke="none"><tspan x="0" y="8">whole</tspan></text><g transform="matrix(1 0 0 -1 765 632)"><path fill="#FFFFFF" stroke="none" fill-rule="nonzero" d="M0 0L57 0 57 -9 0 -9 0 0" /></g><text transform="matrix(1 0 0 1 765 632)" font-family="Arial" font-size="8.000000" stroke="none"><tspan x="0" y="8">«place1Type»</tspan></text><g transform="matrix(1 0 0 -1 718 635)"><path fill="#FFFFFF" stroke="none" fill-rule="nonzero" d="M0 0L5 0 5 -9 0 -9 0 0" /></g><text transform="matrix(1 0 0 1 718 635)" font-family="Arial" font-size="8.000000" stroke="none"><tspan x="0" y="8">1</tspan></text><path stroke="#0000FF" fill="none" d="M950 735L950 686" /><path stroke="#0000FF" fill="#FCF2E3" d="M956 702L944 702L950 686L956 702" /><g transform="matrix(1 0 0 -1 911 713)"><path fill="#FFFFFF" stroke="none" fill-rule="nonzero" d="M0 0L92 0 92 -9 0 -9 0 0" /></g><text transform="matrix(1 0 0 1 911 713)" font-family="Arial" font-size="8.000000" stroke="none"><tspan x="0" y="8">«IDEAS:superSubtype»</tspan></text><path fill="none" d="M860 821L719 821" /><path fill="none" d="M719 821L734 815" /><path fill="none" d="M719 821L734 827" /><g transform="matrix(1 0 0 -1 846 826)"><path fill="#FFFFFF" stroke="none" fill-rule="nonzero" d="M0 0L13 0 13 -9 0 -9 0 0" /></g><text transform="matrix(1 0 0 1 846 826)" font-family="Arial" font-size="8.000000" stroke="none"><tspan x="0" y="8">0..*</tspan></text><g transform="matrix(1 0 0 -1 781 810)"><path fill="#FFFFFF" stroke="none" fill-rule="nonzero" d="M0 0L23 0 23 -9 0 -9 0 0" /></g><text transform="matrix(1 0 0 1 781 810)" font-family="Arial" font-size="8.000000" stroke="none"><tspan x="0" y="8">whole</tspan></text><g transform="matrix(1 0 0 -1 767 823)"><path fill="#FFFFFF" stroke="none" fill-rule="nonzero" d="M0 0L57 0 57 -9 0 -9 0 0" /></g><text transform="matrix(1 0 0 1 767 823)" font-family="Arial" font-size="8.000000" stroke="none"><tspan x="0" y="8">«place1Type»</tspan></text><g transform="matrix(1 0 0 -1 722 826)"><path fill="#FFFFFF" stroke="none" fill-rule="nonzero" d="M0 0L5 0 5 -9 0 -9 0 0" /></g><text transform="matrix(1 0 0 1 722 826)" font-family="Arial" font-size="8.000000" stroke="none"><tspan x="0" y="8">1</tspan></text><path fill="none" d="M860 747L715 747" /><path fill="none" d="M715 747L730 741" /><path fill="none" d="M715 747L730 753" /><g transform="matrix(1 0 0 -1 846 752)"><path fill="#FFFFFF" stroke="none" fill-rule="nonzero" d="M0 0L13 0 13 -9 0 -9 0 0" /></g><text transform="matrix(1 0 0 1 846 752)" font-family="Arial" font-size="8.000000" stroke="none"><tspan x="0" y="8">1..*</tspan></text><g transform="matrix(1 0 0 -1 782 736)"><path fill="#FFFFFF" stroke="none" fill-rule="nonzero" d="M0 0L15 0 15 -9 0 -9 0 0" /></g><text transform="matrix(1 0 0 1 782 736)" font-family="Arial" font-size="8.000000" stroke="none"><tspan x="0" y="8">part</tspan></text><g transform="matrix(1 0 0 -1 765 749)"><path fill="#FFFFFF" stroke="none" fill-rule="nonzero" d="M0 0L57 0 57 -9 0 -9 0 0" /></g><text transform="matrix(1 0 0 1 765 749)" font-family="Arial" font-size="8.000000" stroke="none"><tspan x="0" y="8">«place2Type»</tspan></text><g transform="matrix(1 0 0 -1 718 752)"><path fill="#FFFFFF" stroke="none" fill-rule="nonzero" d="M0 0L5 0 5 -9 0 -9 0 0" /></g><text transform="matrix(1 0 0 1 718 752)" font-family="Arial" font-size="8.000000" stroke="none"><tspan x="0" y="8">1</tspan></text><path stroke="#0000FF" fill="none" d="M335 541L335 405" /><path stroke="#0000FF" fill="#FCF2E3" d="M341 421L329 421L335 405L341 421" /><g transform="matrix(1 0 0 -1 296 475)"><path fill="#FFFFFF" stroke="none" fill-rule="nonzero" d="M0 0L92 0 92 -9 0 -9 0 0" /></g><text transform="matrix(1 0 0 1 296 475)" font-family="Arial" font-size="8.000000" stroke="none"><tspan x="0" y="8">«IDEAS:superSubtype»</tspan></text><path stroke="#0000FF" fill="none" d="M431 362L431 297" /><path stroke="#0000FF" fill="#FCF2E3" d="M437 313L425 313L431 297L437 313" /><g transform="matrix(1 0 0 -1 392 332)"><path fill="#FFFFFF" stroke="none" fill-rule="nonzero" d="M0 0L92 0 92 -9 0 -9 0 0" /></g><text transform="matrix(1 0 0 1 392 332)" font-family="Arial" font-size="8.000000" stroke="none"><tspan x="0" y="8">«IDEAS:superSubtype»</tspan></text><path fill="none" d="M165 379L293 379" /><path fill="none" d="M293 379L278 385" /><path fill="none" d="M293 379L278 373" /><g transform="matrix(1 0 0 -1 219 368)"><path fill="#FFFFFF" stroke="none" fill-rule="nonzero" d="M0 0L23 0 23 -9 0 -9 0 0" /></g><text transform="matrix(1 0 0 1 219 368)" font-family="Arial" font-size="8.000000" stroke="none"><tspan x="0" y="8">phase</tspan></text><g transform="matrix(1 0 0 -1 206 381)"><path fill="#FFFFFF" stroke="none" fill-rule="nonzero" d="M0 0L57 0 57 -9 0 -9 0 0" /></g><text transform="matrix(1 0 0 1 206 381)" font-family="Arial" font-size="8.000000" stroke="none"><tspan x="0" y="8">«place2Type»</tspan></text><path stroke="#0000FF" fill="none" d="M629 361L629 297" /><path stroke="#0000FF" fill="#FCF2E3" d="M635 313L623 313L629 297L635 313" /><g transform="matrix(1 0 0 -1 590 331)"><path fill="#FFFFFF" stroke="none" fill-rule="nonzero" d="M0 0L92 0 92 -9 0 -9 0 0" /></g><text transform="matrix(1 0 0 1 590 331)" font-family="Arial" font-size="8.000000" stroke="none"><tspan x="0" y="8">«IDEAS:superSubtype»</tspan></text><path fill="none" d="M415 683L415 405" /><path fill="none" d="M415 405L421 420" /><path fill="none" d="M415 405L409 420" /><g transform="matrix(1 0 0 -1 418 669)"><path fill="#FFFFFF" stroke="none" fill-rule="nonzero" d="M0 0L13 0 13 -9 0 -9 0 0" /></g><text transform="matrix(1 0 0 1 418 669)" font-family="Arial" font-size="8.000000" stroke="none"><tspan x="0" y="8">0..*</tspan></text><g transform="matrix(1 0 0 -1 409 533)"><path fill="#FFFFFF" stroke="none" fill-rule="nonzero" d="M0 0L14 0 14 -9 0 -9 0 0" /></g><text transform="matrix(1 0 0 1 409 533)" font-family="Arial" font-size="8.000000" stroke="none"><tspan x="0" y="8">task</tspan></text><g transform="matrix(1 0 0 -1 392 546)"><path fill="#FFFFFF" stroke="none" fill-rule="nonzero" d="M0 0L57 0 57 -9 0 -9 0 0" /></g><text transform="matrix(1 0 0 1 392 546)" font-family="Arial" font-size="8.000000" stroke="none"><tspan x="0" y="8">«place1Type»</tspan></text><g transform="matrix(1 0 0 -1 427 410)"><path fill="#FFFFFF" stroke="none" fill-rule="nonzero" d="M0 0L5 0 5 -9 0 -9 0 0" /></g><text transform="matrix(1 0 0 1 427 410)" font-family="Arial" font-size="8.000000" stroke="none"><tspan x="0" y="8">1</tspan></text><path stroke="#0000FF" fill="none" d="M537 161L537 107" /><path stroke="#0000FF" fill="#FCF2E3" d="M543 123L531 123L537 107L543 123" /><g transform="matrix(1 0 0 -1 498 136)"><path fill="#FFFFFF" stroke="none" fill-rule="nonzero" d="M0 0L92 0 92 -9 0 -9 0 0" /></g><text transform="matrix(1 0 0 1 498 136)" font-family="Arial" font-size="8.000000" stroke="none"><tspan x="0" y="8">«IDEAS:superSubtype»</tspan></text><path fill="none" d="M366 933L366 847" /><path fill="none" d="M366 847L372 862" /><path fill="none" d="M366 847L360 862" /><g transform="matrix(1 0 0 -1 369 919)"><path fill="#FFFFFF" stroke="none" fill-rule="nonzero" d="M0 0L15 0 15 -9 0 -9 0 0" /></g><text transform="matrix(1 0 0 1 369 919)" font-family="Arial" font-size="8.000000" stroke="none"><tspan x="0" y="8">0..1</tspan></text><g transform="matrix(1 0 0 -1 360 879)"><path fill="#FFFFFF" stroke="none" fill-rule="nonzero" d="M0 0L15 0 15 -9 0 -9 0 0" /></g><text transform="matrix(1 0 0 1 360 879)" font-family="Arial" font-size="8.000000" stroke="none"><tspan x="0" y="8">role</tspan></text><g transform="matrix(1 0 0 -1 343 892)"><path fill="#FFFFFF" stroke="none" fill-rule="nonzero" d="M0 0L57 0 57 -9 0 -9 0 0" /></g><text transform="matrix(1 0 0 1 343 892)" font-family="Arial" font-size="8.000000" stroke="none"><tspan x="0" y="8">«place2Type»</tspan></text><g transform="matrix(1 0 0 -1 378 852)"><path fill="#FFFFFF" stroke="none" fill-rule="nonzero" d="M0 0L5 0 5 -9 0 -9 0 0" /></g><text transform="matrix(1 0 0 1 378 852)" font-family="Arial" font-size="8.000000" stroke="none"><tspan x="0" y="8">1</tspan></text><path fill="none" d="M457 946L557 946" /><path fill="none" d="M557 946L542 952" /><path fill="none" d="M557 946L542 940" /><g transform="matrix(1 0 0 -1 460 951)"><path fill="#FFFFFF" stroke="none" fill-rule="nonzero" d="M0 0L13 0 13 -9 0 -9 0 0" /></g><text transform="matrix(1 0 0 1 460 951)" font-family="Arial" font-size="8.000000" stroke="none"><tspan x="0" y="8">0..*</tspan></text><g transform="matrix(1 0 0 -1 490 935)"><path fill="#FFFFFF" stroke="none" fill-rule="nonzero" d="M0 0L38 0 38 -9 0 -9 0 0" /></g><text transform="matrix(1 0 0 1 490 935)" font-family="Arial" font-size="8.000000" stroke="none"><tspan x="0" y="8">enterprise</tspan></text><g transform="matrix(1 0 0 -1 484 948)"><path fill="#FFFFFF" stroke="none" fill-rule="nonzero" d="M0 0L57 0 57 -9 0 -9 0 0" /></g><text transform="matrix(1 0 0 1 484 948)" font-family="Arial" font-size="8.000000" stroke="none"><tspan x="0" y="8">«place1Type»</tspan></text><g transform="matrix(1 0 0 -1 550 951)"><path fill="#FFFFFF" stroke="none" fill-rule="nonzero" d="M0 0L5 0 5 -9 0 -9 0 0" /></g><text transform="matrix(1 0 0 1 550 951)" font-family="Arial" font-size="8.000000" stroke="none"><tspan x="0" y="8">1</tspan></text><path fill="none" d="M860 565L715 565" /><path fill="none" d="M715 565L730 559" /><path fill="none" d="M715 565L730 571" /><g transform="matrix(1 0 0 -1 845 570)"><path fill="#FFFFFF" stroke="none" fill-rule="nonzero" d="M0 0L15 0 15 -9 0 -9 0 0" /></g><text transform="matrix(1 0 0 1 845 570)" font-family="Arial" font-size="8.000000" stroke="none"><tspan x="0" y="8">0..1</tspan></text><g transform="matrix(1 0 0 -1 771 554)"><path fill="#FFFFFF" stroke="none" fill-rule="nonzero" d="M0 0L38 0 38 -9 0 -9 0 0" /></g><text transform="matrix(1 0 0 1 771 554)" font-family="Arial" font-size="8.000000" stroke="none"><tspan x="0" y="8">enterprise</tspan></text><g transform="matrix(1 0 0 -1 765 567)"><path fill="#FFFFFF" stroke="none" fill-rule="nonzero" d="M0 0L57 0 57 -9 0 -9 0 0" /></g><text transform="matrix(1 0 0 1 765 567)" font-family="Arial" font-size="8.000000" stroke="none"><tspan x="0" y="8">«place1Type»</tspan></text><g transform="matrix(1 0 0 -1 718 570)"><path fill="#FFFFFF" stroke="none" fill-rule="nonzero" d="M0 0L5 0 5 -9 0 -9 0 0" /></g><text transform="matrix(1 0 0 1 718 570)" font-family="Arial" font-size="8.000000" stroke="none"><tspan x="0" y="8">1</tspan></text><path fill="none" d="M1040 565L1175 565" /><path fill="none" d="M1175 565L1160 571" /><path fill="none" d="M1175 565L1160 559" /><g transform="matrix(1 0 0 -1 1043 570)"><path fill="#FFFFFF" stroke="none" fill-rule="nonzero" d="M0 0L5 0 5 -9 0 -9 0 0" /></g><text transform="matrix(1 0 0 1 1043 570)" font-family="Arial" font-size="8.000000" stroke="none"><tspan x="0" y="8">1</tspan></text><g transform="matrix(1 0 0 -1 1099 554)"><path fill="#FFFFFF" stroke="none" fill-rule="nonzero" d="M0 0L23 0 23 -9 0 -9 0 0" /></g><text transform="matrix(1 0 0 1 1099 554)" font-family="Arial" font-size="8.000000" stroke="none"><tspan x="0" y="8">vision</tspan></text><g transform="matrix(1 0 0 -1 1085 567)"><path fill="#FFFFFF" stroke="none" fill-rule="nonzero" d="M0 0L57 0 57 -9 0 -9 0 0" /></g><text transform="matrix(1 0 0 1 1085 567)" font-family="Arial" font-size="8.000000" stroke="none"><tspan x="0" y="8">«place2Type»</tspan></text><g transform="matrix(1 0 0 -1 1168 570)"><path fill="#FFFFFF" stroke="none" fill-rule="nonzero" d="M0 0L5 0 5 -9 0 -9 0 0" /></g><text transform="matrix(1 0 0 1 1168 570)" font-family="Arial" font-size="8.000000" stroke="none"><tspan x="0" y="8">1</tspan></text><path fill="none" d="M860 379L715 379" /><path fill="none" d="M715 379L730 373" /><path fill="none" d="M715 379L730 385" /><g transform="matrix(1 0 0 -1 846 384)"><path fill="#FFFFFF" stroke="none" fill-rule="nonzero" d="M0 0L13 0 13 -9 0 -9 0 0" /></g><text transform="matrix(1 0 0 1 846 384)" font-family="Arial" font-size="8.000000" stroke="none"><tspan x="0" y="8">0..*</tspan></text><g transform="matrix(1 0 0 -1 771 368)"><path fill="#FFFFFF" stroke="none" fill-rule="nonzero" d="M0 0L38 0 38 -9 0 -9 0 0" /></g><text transform="matrix(1 0 0 1 771 368)" font-family="Arial" font-size="8.000000" stroke="none"><tspan x="0" y="8">enterprise</tspan></text><g transform="matrix(1 0 0 -1 765 381)"><path fill="#FFFFFF" stroke="none" fill-rule="nonzero" d="M0 0L57 0 57 -9 0 -9 0 0" /></g><text transform="matrix(1 0 0 1 765 381)" font-family="Arial" font-size="8.000000" stroke="none"><tspan x="0" y="8">«place1Type»</tspan></text><g transform="matrix(1 0 0 -1 718 384)"><path fill="#FFFFFF" stroke="none" fill-rule="nonzero" d="M0 0L5 0 5 -9 0 -9 0 0" /></g><text transform="matrix(1 0 0 1 718 384)" font-family="Arial" font-size="8.000000" stroke="none"><tspan x="0" y="8">1</tspan></text><path fill="none" d="M1040 378L1175 378" /><path fill="none" d="M1175 378L1160 384" /><path fill="none" d="M1175 378L1160 372" /><g transform="matrix(1 0 0 -1 1043 383)"><path fill="#FFFFFF" stroke="none" fill-rule="nonzero" d="M0 0L13 0 13 -9 0 -9 0 0" /></g><text transform="matrix(1 0 0 1 1043 383)" font-family="Arial" font-size="8.000000" stroke="none"><tspan x="0" y="8">1..*</tspan></text><g transform="matrix(1 0 0 -1 1101 367)"><path fill="#FFFFFF" stroke="none" fill-rule="nonzero" d="M0 0L18 0 18 -9 0 -9 0 0" /></g><text transform="matrix(1 0 0 1 1101 367)" font-family="Arial" font-size="8.000000" stroke="none"><tspan x="0" y="8">goal</tspan></text><g transform="matrix(1 0 0 -1 1085 380)"><path fill="#FFFFFF" stroke="none" fill-rule="nonzero" d="M0 0L57 0 57 -9 0 -9 0 0" /></g><text transform="matrix(1 0 0 1 1085 380)" font-family="Arial" font-size="8.000000" stroke="none"><tspan x="0" y="8">«place2Type»</tspan></text><g transform="matrix(1 0 0 -1 1168 383)"><path fill="#FFFFFF" stroke="none" fill-rule="nonzero" d="M0 0L5 0 5 -9 0 -9 0 0" /></g><text transform="matrix(1 0 0 1 1168 383)" font-family="Arial" font-size="8.000000" stroke="none"><tspan x="0" y="8">1</tspan></text><path fill="none" d="M1214 279L1214 359" /><path fill="none" d="M1214 359L1208 344" /><path fill="none" d="M1214 359L1220 344" /><g transform="matrix(1 0 0 -1 1222 284)"><path fill="#FFFFFF" stroke="none" fill-rule="nonzero" d="M0 0L13 0 13 -9 0 -9 0 0" /></g><text transform="matrix(1 0 0 1 1222 284)" font-family="Arial" font-size="8.000000" stroke="none"><tspan x="0" y="8">0..*</tspan></text><g transform="matrix(1 0 0 -1 1206 308)"><path fill="#FFFFFF" stroke="none" fill-rule="nonzero" d="M0 0L19 0 19 -9 0 -9 0 0" /></g><text transform="matrix(1 0 0 1 1206 308)" font-family="Arial" font-size="8.000000" stroke="none"><tspan x="0" y="8">child</tspan></text><g transform="matrix(1 0 0 -1 1191 321)"><path fill="#FFFFFF" stroke="none" fill-rule="nonzero" d="M0 0L57 0 57 -9 0 -9 0 0" /></g><text transform="matrix(1 0 0 1 1191 321)" font-family="Arial" font-size="8.000000" stroke="none"><tspan x="0" y="8">«place2Type»</tspan></text><g transform="matrix(1 0 0 -1 1222 344)"><path fill="#FFFFFF" stroke="none" fill-rule="nonzero" d="M0 0L5 0 5 -9 0 -9 0 0" /></g><text transform="matrix(1 0 0 1 1222 344)" font-family="Arial" font-size="8.000000" stroke="none"><tspan x="0" y="8">1</tspan></text><path fill="none" d="M1327 279L1327 359" /><path fill="none" d="M1327 359L1321 344" /><path fill="none" d="M1327 359L1333 344" /><g transform="matrix(1 0 0 -1 1335 284)"><path fill="#FFFFFF" stroke="none" fill-rule="nonzero" d="M0 0L13 0 13 -9 0 -9 0 0" /></g><text transform="matrix(1 0 0 1 1335 284)" font-family="Arial" font-size="8.000000" stroke="none"><tspan x="0" y="8">0..*</tspan></text><g transform="matrix(1 0 0 -1 1317 308)"><path fill="#FFFFFF" stroke="none" fill-rule="nonzero" d="M0 0L25 0 25 -9 0 -9 0 0" /></g><text transform="matrix(1 0 0 1 1317 308)" font-family="Arial" font-size="8.000000" stroke="none"><tspan x="0" y="8">parent</tspan></text><g transform="matrix(1 0 0 -1 1304 321)"><path fill="#FFFFFF" stroke="none" fill-rule="nonzero" d="M0 0L57 0 57 -9 0 -9 0 0" /></g><text transform="matrix(1 0 0 1 1304 321)" font-family="Arial" font-size="8.000000" stroke="none"><tspan x="0" y="8">«place1Type»</tspan></text><g transform="matrix(1 0 0 -1 1335 344)"><path fill="#FFFFFF" stroke="none" fill-rule="nonzero" d="M0 0L5 0 5 -9 0 -9 0 0" /></g><text transform="matrix(1 0 0 1 1335 344)" font-family="Arial" font-size="8.000000" stroke="none"><tspan x="0" y="8">1</tspan></text><path fill="none" d="M1272 461L1272 403" /><path fill="none" d="M1272 403L1278 418" /><path fill="none" d="M1272 403L1266 418" /><g transform="matrix(1 0 0 -1 1275 447)"><path fill="#FFFFFF" stroke="none" fill-rule="nonzero" d="M0 0L13 0 13 -9 0 -9 0 0" /></g><text transform="matrix(1 0 0 1 1275 447)" font-family="Arial" font-size="8.000000" stroke="none"><tspan x="0" y="8">0..*</tspan></text><g transform="matrix(1 0 0 -1 1265 421)"><path fill="#FFFFFF" stroke="none" fill-rule="nonzero" d="M0 0L18 0 18 -9 0 -9 0 0" /></g><text transform="matrix(1 0 0 1 1265 421)" font-family="Arial" font-size="8.000000" stroke="none"><tspan x="0" y="8">goal</tspan></text><g transform="matrix(1 0 0 -1 1249 434)"><path fill="#FFFFFF" stroke="none" fill-rule="nonzero" d="M0 0L57 0 57 -9 0 -9 0 0" /></g><text transform="matrix(1 0 0 1 1249 434)" font-family="Arial" font-size="8.000000" stroke="none"><tspan x="0" y="8">«place1Type»</tspan></text><g transform="matrix(1 0 0 -1 1284 408)"><path fill="#FFFFFF" stroke="none" fill-rule="nonzero" d="M0 0L5 0 5 -9 0 -9 0 0" /></g><text transform="matrix(1 0 0 1 1284 408)" font-family="Arial" font-size="8.000000" stroke="none"><tspan x="0" y="8">1</tspan></text><path fill="none" d="M1177 479L1042 479" /><path fill="none" d="M1042 479L1057 473" /><path fill="none" d="M1042 479L1057 485" /><g transform="matrix(1 0 0 -1 1163 484)"><path fill="#FFFFFF" stroke="none" fill-rule="nonzero" d="M0 0L13 0 13 -9 0 -9 0 0" /></g><text transform="matrix(1 0 0 1 1163 484)" font-family="Arial" font-size="8.000000" stroke="none"><tspan x="0" y="8">0..*</tspan></text><g transform="matrix(1 0 0 -1 1099 468)"><path fill="#FFFFFF" stroke="none" fill-rule="nonzero" d="M0 0L28 0 28 -9 0 -9 0 0" /></g><text transform="matrix(1 0 0 1 1099 468)" font-family="Arial" font-size="8.000000" stroke="none"><tspan x="0" y="8">benefit</tspan></text><g transform="matrix(1 0 0 -1 1087 481)"><path fill="#FFFFFF" stroke="none" fill-rule="nonzero" d="M0 0L57 0 57 -9 0 -9 0 0" /></g><text transform="matrix(1 0 0 1 1087 481)" font-family="Arial" font-size="8.000000" stroke="none"><tspan x="0" y="8">«place2Type»</tspan></text><g transform="matrix(1 0 0 -1 1045 484)"><path fill="#FFFFFF" stroke="none" fill-rule="nonzero" d="M0 0L5 0 5 -9 0 -9 0 0" /></g><text transform="matrix(1 0 0 1 1045 484)" font-family="Arial" font-size="8.000000" stroke="none"><tspan x="0" y="8">1</tspan></text><path fill="none" d="M892 80L705 80" /><path fill="none" d="M705 80L720 74" /><path fill="none" d="M705 80L720 86" /><g transform="matrix(1 0 0 -1 878 85)"><path fill="#FFFFFF" stroke="none" fill-rule="nonzero" d="M0 0L13 0 13 -9 0 -9 0 0" /></g><text transform="matrix(1 0 0 1 878 85)" font-family="Arial" font-size="8.000000" stroke="none"><tspan x="0" y="8">0..*</tspan></text><g transform="matrix(1 0 0 -1 776 82)"><path fill="#FFFFFF" stroke="none" fill-rule="nonzero" d="M0 0L57 0 57 -9 0 -9 0 0" /></g><text transform="matrix(1 0 0 1 776 82)" font-family="Arial" font-size="8.000000" stroke="none"><tspan x="0" y="8">«place2Type»</tspan></text><g transform="matrix(1 0 0 -1 708 85)"><path fill="#FFFFFF" stroke="none" fill-rule="nonzero" d="M0 0L5 0 5 -9 0 -9 0 0" /></g><text transform="matrix(1 0 0 1 708 85)" font-family="Arial" font-size="8.000000" stroke="none"><tspan x="0" y="8">1</tspan></text><path fill="none" d="M1011 80L1175 80" /><path fill="none" d="M1175 80L1160 86" /><path fill="none" d="M1175 80L1160 74" /><g transform="matrix(1 0 0 -1 1014 85)"><path fill="#FFFFFF" stroke="none" fill-rule="nonzero" d="M0 0L13 0 13 -9 0 -9 0 0" /></g><text transform="matrix(1 0 0 1 1014 85)" font-family="Arial" font-size="8.000000" stroke="none"><tspan x="0" y="8">0..*</tspan></text><g transform="matrix(1 0 0 -1 1070 82)"><path fill="#FFFFFF" stroke="none" fill-rule="nonzero" d="M0 0L57 0 57 -9 0 -9 0 0" /></g><text transform="matrix(1 0 0 1 1070 82)" font-family="Arial" font-size="8.000000" stroke="none"><tspan x="0" y="8">«place1Type»</tspan></text><g transform="matrix(1 0 0 -1 1168 85)"><path fill="#FFFFFF" stroke="none" fill-rule="nonzero" d="M0 0L5 0 5 -9 0 -9 0 0" /></g><text transform="matrix(1 0 0 1 1168 85)" font-family="Arial" font-size="8.000000" stroke="none"><tspan x="0" y="8">1</tspan></text><path stroke="#0000FF" fill="none" d="M537 255L537 205" /><path stroke="#0000FF" fill="#FCF2E3" d="M543 221L531 221L537 205L543 221" /><g transform="matrix(1 0 0 -1 498 232)"><path fill="#FFFFFF" stroke="none" fill-rule="nonzero" d="M0 0L92 0 92 -9 0 -9 0 0" /></g><text transform="matrix(1 0 0 1 498 232)" font-family="Arial" font-size="8.000000" stroke="none"><tspan x="0" y="8">«IDEAS:superSubtype»</tspan></text><path fill="none" d="M105 399L105 541" /><path fill="none" d="M105 541L99 526" /><path fill="none" d="M105 541L111 526" /><g transform="matrix(1 0 0 -1 99 459)"><path fill="#FFFFFF" stroke="none" fill-rule="nonzero" d="M0 0L14 0 14 -9 0 -9 0 0" /></g><text transform="matrix(1 0 0 1 99 459)" font-family="Arial" font-size="8.000000" stroke="none"><tspan x="0" y="8">task</tspan></text><g transform="matrix(1 0 0 -1 82 472)"><path fill="#FFFFFF" stroke="none" fill-rule="nonzero" d="M0 0L57 0 57 -9 0 -9 0 0" /></g><text transform="matrix(1 0 0 1 82 472)" font-family="Arial" font-size="8.000000" stroke="none"><tspan x="0" y="8">«place1Type»</tspan></text></g></g></g></g></svg>