<?xml version="1.0" encoding="utf-8"?><svg version="1.1" preserveAspectRatio="xMidYMid" xml:space="preserve" width="612.59699pt" height="804.6564500000001pt" viewBox="21.50601 5.22195 612.59699 804.6564500000001" xmlns="http://www.w3.org/2000/svg" xmlns:svg="http://www.w3.org/2000/svg" xmlns:xlink="http://www.w3.org/1999/xlink"><g transform="matrix(1 0 0 -1 0 816)"><g stroke="#000000" fill="#000000" fill-rule="nonzero" stroke-width="1" stroke-linecap="round" stroke-linejoin="miter" stroke-miterlimit="10" alphaIsShape="0" letter-spacing="normal" word-spacing="normal" font-family="Helvetica" font-size="10" font-weight="normal" font-style="normal" baseline-shift="0"><g transform="matrix(0.750000 0 0 0.750000 0 816.450012)"><g transform="matrix(0.959545 0 0 -0.959436 0 0)"><path fill="#C0BFC0" stroke="none" fill-rule="nonzero" d="M44 331L177 331 177 738 44 738 44 331" /><path stroke="none" fill="#99CCFF" stroke-width="3" fill-rule="nonzero" d="M41 328L174 328 174 735 41 735 41 328" /><path stroke="#0000FF" fill="none" stroke-width="3" d="M41 328L174 328 174 736 41 736 41 328" /><path stroke="#0000FF" stroke-width="3" fill="none" d="M41 328L174 328 174 735 41 735 41 328" /><text transform="matrix(1 0 0 1 73 334)" font-family="Arial" font-size="10.000000" stroke="none"><tspan x="0" y="9">«IDEAS:Type»</tspan></text><text transform="matrix(1 0 0 1 95 347)" font-family="Arial" font-size="10.000000" font-weight="bold" stroke="none"><tspan x="0" y="9">Node</tspan></text><path fill="#C0BFC0" stroke="none" fill-rule="nonzero" d="M508 211L626 211 626 248 508 248 508 211" /><path stroke="none" fill="#99CCFF" stroke-width="3" fill-rule="nonzero" d="M505 208L623 208 623 245 505 245 505 208" /><path stroke="#0000FF" fill="none" stroke-width="3" d="M505 208L623 208 623 246 505 246 505 208" /><path stroke="#0000FF" stroke-width="3" fill="none" d="M505 208L623 208 623 245 505 245 505 208" /><text transform="matrix(1 0 0 1 529 214)" font-family="Arial" font-size="10.000000" stroke="none"><tspan x="0" y="9">«IDEAS:Type»</tspan></text><text transform="matrix(1 0 0 1 514 227)" font-family="Arial" font-size="10.000000" font-weight="bold" stroke="none"><tspan x="0" y="9">LogicalArchitecture</tspan></text><path fill="#C0BFC0" stroke="none" fill-rule="nonzero" d="M97 219L221 219 221 257 97 257 97 219" /><path stroke="none" fill="#99CCFF" fill-rule="nonzero" d="M94 216L218 216 218 254 94 254 94 216" /><path stroke="#0000FF" fill="none" d="M94 216L218 216 218 255 94 255 94 216" /><path stroke="#0000FF" fill="none" d="M94 216L218 216 218 254 94 254 94 216" /><text transform="matrix(1 0 0 1 121 222)" font-family="Arial" font-size="10.000000" stroke="none"><tspan x="0" y="9">«IDEAS:Type»</tspan></text><text transform="matrix(1 0 0 1 127 235)" font-family="Arial" font-size="10.000000" font-weight="bold" stroke="none"><tspan x="0" y="9">NodeUsage</tspan></text><path fill="#C0BFC0" stroke="none" fill-rule="nonzero" d="M44 116L801 116 801 155 44 155 44 116" /><path stroke="none" fill="#C0C0C0" stroke-width="3" fill-rule="nonzero" d="M41 113L798 113 798 152 41 152 41 113" /><path stroke="#0000FF" fill="none" stroke-width="3" d="M41 113L798 113 798 153 41 153 41 113" /><path stroke="#0000FF" stroke-width="3" fill="none" d="M41 113L798 113 798 152 41 152 41 113" /><text transform="matrix(1 0 0 1 385 119)" font-family="Arial" font-size="10.000000" stroke="none"><tspan x="0" y="9">«IDEAS:Type»</tspan></text><text transform="matrix(1 0 0 1 390 132)" font-family="Arial" font-size="10.000000" font-weight="bold" font-style="italic" stroke="none"><tspan x="0" y="9">NodeParent</tspan></text><path fill="#C0BFC0" stroke="none" fill-rule="nonzero" d="M500 587L619 587 619 627 500 627 500 587" /><path stroke="none" fill="#99CCFF" stroke-width="3" fill-rule="nonzero" d="M497 584L616 584 616 624 497 624 497 584" /><path stroke="#32CD32" fill="none" stroke-width="3" d="M497 584L616 584 616 625 497 625 497 584" /><path stroke="#32CD32" stroke-width="3" fill="none" d="M497 584L616 584 616 624 497 624 497 584" /><text transform="matrix(1 0 0 1 522 590)" font-family="Arial" font-size="10.000000" stroke="none"><tspan x="0" y="9">«IDEAS:Type»</tspan></text><text transform="matrix(1 0 0 1 532 603)" font-family="Arial" font-size="10.000000" font-weight="bold" stroke="none"><tspan x="0" y="9">Capability</tspan></text><path fill="#C0BFC0" stroke="none" fill-rule="nonzero" d="M269 587L395 587 395 627 269 627 269 587" /><path stroke="none" fill="#CCFFCC" fill-rule="nonzero" d="M266 584L392 584 392 624 266 624 266 584" /><path stroke="#0000FF" fill="none" d="M266 584L392 584 392 625 266 625 266 584" /><path stroke="#0000FF" fill="none" d="M266 584L392 584 392 624 266 624 266 584" /><text transform="matrix(1 0 0 1 280 590)" font-family="Arial" font-size="10.000000" stroke="none"><tspan x="0" y="9">«IDEAS:TupleType»</tspan></text><text transform="matrix(1 0 0 1 283 603)" font-family="Arial" font-size="10.000000" font-weight="bold" stroke="none"><tspan x="0" y="9">capabilityForNode</tspan></text><path fill="#C0BFC0" stroke="none" fill-rule="nonzero" d="M682 257L785 257 785 297 682 297 682 257" /><path stroke="none" fill="#C0C0C0" stroke-width="3" fill-rule="nonzero" d="M679 254L782 254 782 294 679 294 679 254" /><path stroke="#0000FF" fill="none" stroke-width="3" d="M679 254L782 254 782 295 679 295 679 254" /><path stroke="#0000FF" stroke-width="3" fill="none" d="M679 254L782 254 782 294 679 294 679 254" /><text transform="matrix(1 0 0 1 696 260)" font-family="Arial" font-size="10.000000" stroke="none"><tspan x="0" y="9">«IDEAS:Type»</tspan></text><text transform="matrix(1 0 0 1 693 273)" font-family="Arial" font-size="10.000000" font-weight="bold" font-style="italic" stroke="none"><tspan x="0" y="9">LogicalDomain</tspan></text><path fill="#C0BFC0" stroke="none" fill-rule="nonzero" d="M682 350L774 350 774 393 682 393 682 350" /><path stroke="none" fill="#99CCFF" stroke-width="2" fill-rule="nonzero" d="M679 347L771 347 771 390 679 390 679 347" /><path stroke="#0000FF" fill="none" stroke-width="2" d="M679 347L771 347 771 391 679 391 679 347" /><path stroke="#0000FF" stroke-width="2" fill="none" d="M679 347L771 347 771 390 679 390 679 347" /><text transform="matrix(1 0 0 1 690 353)" font-family="Arial" font-size="10.000000" stroke="none"><tspan x="0" y="9">«IDEAS:Type»</tspan></text><text transform="matrix(1 0 0 1 685 366)" font-family="Arial" font-size="10.000000" font-weight="bold" stroke="none"><tspan x="0" y="9">SecurityDomain</tspan></text><path fill="#C0BFC0" stroke="none" fill-rule="nonzero" d="M637 505L809 505 809 541 637 541 637 505" /><path stroke="none" fill="#99CCFF" stroke-width="3" fill-rule="nonzero" d="M634 502L806 502 806 538 634 538 634 502" /><path stroke="#0000FF" fill="none" stroke-width="3" d="M634 502L806 502 806 539 634 539 634 502" /><path stroke="#0000FF" stroke-width="3" fill="none" d="M634 502L806 502 806 538 634 538 634 502" /><text transform="matrix(1 0 0 1 685 508)" font-family="Arial" font-size="10.000000" stroke="none"><tspan x="0" y="9">«IDEAS:Type»</tspan></text><text transform="matrix(1 0 0 1 671 521)" font-family="Arial" font-size="10.000000" font-weight="bold" stroke="none"><tspan x="0" y="9">OperationalActivity</tspan></text><path fill="#C0BFC0" stroke="none" fill-rule="nonzero" d="M280 501L406 501 406 541 280 541 280 501" /><path stroke="none" fill="#99CCFF" fill-rule="nonzero" d="M277 498L403 498 403 538 277 538 277 498" /><path stroke="#0000FF" fill="none" d="M277 498L403 498 403 539 277 539 277 498" /><path stroke="#0000FF" fill="none" d="M277 498L403 498 403 538 277 538 277 498" /><text transform="matrix(1 0 0 1 305 504)" font-family="Arial" font-size="10.000000" stroke="none"><tspan x="0" y="9">«IDEAS:Type»</tspan></text><text transform="matrix(1 0 0 1 316 517)" font-family="Arial" font-size="10.000000" font-weight="bold" stroke="none"><tspan x="0" y="9">NodeRole</tspan></text><path fill="#C0BFC0" stroke="none" fill-rule="nonzero" d="M677 420L868 420 868 459 677 459 677 420" /><path stroke="none" fill="#C0C0C0" stroke-width="3" fill-rule="nonzero" d="M674 417L865 417 865 456 674 456 674 417" /><path stroke="#0000FF" fill="none" stroke-width="3" d="M674 417L865 417 865 457 674 457 674 417" /><path stroke="#0000FF" stroke-width="3" fill="none" d="M674 417L865 417 865 456 674 456 674 417" /><text transform="matrix(1 0 0 1 735 423)" font-family="Arial" font-size="10.000000" stroke="none"><tspan x="0" y="9">«IDEAS:Type»</tspan></text><text transform="matrix(1 0 0 1 730 436)" font-family="Arial" font-size="10.000000" font-weight="bold" font-style="italic" stroke="none"><tspan x="0" y="9">LogicalProcess</tspan></text><path fill="#C0BFC0" stroke="none" fill-rule="nonzero" d="M732 587L870 587 870 625 732 625 732 587" /><path stroke="none" fill="#99CCFF" fill-rule="nonzero" d="M729 584L867 584 867 622 729 622 729 584" /><path stroke="#32CD32" fill="none" d="M729 584L867 584 867 623 729 623 729 584" /><path stroke="#32CD32" fill="none" d="M729 584L867 584 867 622 729 622 729 584" /><text transform="matrix(1 0 0 1 763 590)" font-family="Arial" font-size="10.000000" stroke="none"><tspan x="0" y="9">«IDEAS:Type»</tspan></text><text transform="matrix(1 0 0 1 760 603)" font-family="Arial" font-size="10.000000" font-weight="bold" stroke="none"><tspan x="0" y="9">ApplicableMoE</tspan></text><path fill="#C0BFC0" stroke="none" fill-rule="nonzero" d="M744 689L858 689 858 730 744 730 744 689" /><path fill="#99CCFF" stroke="none" fill-rule="nonzero" d="M741 686L855 686 855 727 741 727 741 686" /><path fill="none" d="M741 686L855 686 855 728 741 728 741 686" /><path fill="none" d="M741 686L855 686 855 727 741 727 741 686" /><text transform="matrix(1 0 0 1 763 692)" font-family="Arial" font-size="10.000000" stroke="none"><tspan x="0" y="9">«IDEAS:Type»</tspan></text><text transform="matrix(1 0 0 1 753 705)" font-family="Arial" font-size="10.000000" font-weight="bold" stroke="none"><tspan x="0" y="9">MeasureCategory</tspan></text><path fill="#C0BFC0" stroke="none" fill-rule="nonzero" d="M45 793L849 793 849 829 45 829 45 793" /><path fill="#99CCFF" stroke="none" fill-rule="nonzero" d="M42 790L846 790 846 826 42 826 42 790" /><path fill="none" d="M42 790L846 790 846 827 42 827 42 790" /><path fill="none" d="M42 790L846 790 846 826 42 826 42 790" /><text transform="matrix(1 0 0 1 409 796)" font-family="Arial" font-size="10.000000" stroke="none"><tspan x="0" y="9">«IDEAS:Type»</tspan></text><text transform="matrix(1 0 0 1 422 809)" font-family="Arial" font-size="10.000000" font-weight="bold" stroke="none"><tspan x="0" y="9">Measure</tspan></text><path fill="#C0BFC0" stroke="none" fill-rule="nonzero" d="M680 975L800 975 800 1010 680 1010 680 975" /><path fill="#99CCFF" stroke="none" fill-rule="nonzero" d="M677 972L797 972 797 1007 677 1007 677 972" /><path fill="none" d="M677 972L797 972 797 1008 677 1008 677 972" /><path fill="none" d="M677 972L797 972 797 1007 677 1007 677 972" /><text transform="matrix(1 0 0 1 702 978)" font-family="Arial" font-size="10.000000" stroke="none"><tspan x="0" y="9">«IDEAS:Type»</tspan></text><text transform="matrix(1 0 0 1 702 991)" font-family="Arial" font-size="10.000000" font-weight="bold" stroke="none"><tspan x="0" y="9">MeasurePoint</tspan></text><path fill="#C0BFC0" stroke="none" fill-rule="nonzero" d="M457 972L587 972 587 1011 457 1011 457 972" /><path fill="#99CCFF" stroke="none" fill-rule="nonzero" d="M454 969L584 969 584 1008 454 1008 454 969" /><path fill="none" d="M454 969L584 969 584 1009 454 1009 454 969" /><path fill="none" d="M454 969L584 969 584 1008 454 1008 454 969" /><text transform="matrix(1 0 0 1 484 975)" font-family="Arial" font-size="10.000000" stroke="none"><tspan x="0" y="9">«IDEAS:Type»</tspan></text><text transform="matrix(1 0 0 1 481 988)" font-family="Arial" font-size="10.000000" font-weight="bold" stroke="none"><tspan x="0" y="9">MeasureRange</tspan></text><path fill="#C0BFC0" stroke="none" fill-rule="nonzero" d="M559 1076L710 1076 710 1115 559 1115 559 1076" /><path fill="#CCFFCC" stroke="none" fill-rule="nonzero" d="M556 1073L707 1073 707 1112 556 1112 556 1073" /><path fill="none" d="M556 1073L707 1073 707 1113 556 1113 556 1073" /><path fill="none" d="M556 1073L707 1073 707 1112 556 1112 556 1073" /><text transform="matrix(1 0 0 1 583 1079)" font-family="Arial" font-size="10.000000" stroke="none"><tspan x="0" y="9">«IDEAS:TupleType»</tspan></text><text transform="matrix(1 0 0 1 557 1092)" font-family="Arial" font-size="10.000000" font-weight="bold" stroke="none"><tspan x="0" y="9">upperBoundOfMeasureRange</tspan></text><path fill="#C0BFC0" stroke="none" fill-rule="nonzero" d="M554 878L708 878 708 915 554 915 554 878" /><path fill="#CCFFCC" stroke="none" fill-rule="nonzero" d="M551 875L705 875 705 912 551 912 551 875" /><path fill="none" d="M551 875L705 875 705 913 551 913 551 875" /><path fill="none" d="M551 875L705 875 705 912 551 912 551 875" /><text transform="matrix(1 0 0 1 579 881)" font-family="Arial" font-size="10.000000" stroke="none"><tspan x="0" y="9">«IDEAS:TupleType»</tspan></text><text transform="matrix(1 0 0 1 553 894)" font-family="Arial" font-size="10.000000" font-weight="bold" stroke="none"><tspan x="0" y="9">lowerBoundOfMeasureRange</tspan></text><path fill="#C0BFC0" stroke="none" fill-rule="nonzero" d="M45 994L180 994 180 1033 45 1033 45 994" /><path stroke="none" fill="#CCFFCC" fill-rule="nonzero" d="M42 991L177 991 177 1030 42 1030 42 991" /><path stroke="#FFFF00" fill="none" d="M42 991L177 991 177 1031 42 1031 42 991" /><path stroke="#FFFF00" fill="none" d="M42 991L177 991 177 1030 42 1030 42 991" /><text transform="matrix(1 0 0 1 61 997)" font-family="Arial" font-size="10.000000" stroke="none"><tspan x="0" y="9">«IDEAS:TupleType»</tspan></text><text transform="matrix(1 0 0 1 53 1010)" font-family="Arial" font-size="10.000000" font-weight="bold" stroke="none"><tspan x="0" y="9">environmentalContext</tspan></text><path fill="#C0BFC0" stroke="none" fill-rule="nonzero" d="M45 901L180 901 180 941 45 941 45 901" /><path stroke="none" fill="#99CCFF" stroke-width="3" fill-rule="nonzero" d="M42 898L177 898 177 938 42 938 42 898" /><path stroke="#FFFF00" fill="none" stroke-width="3" d="M42 898L177 898 177 939 42 939 42 898" /><path stroke="#FFFF00" stroke-width="3" fill="none" d="M42 898L177 898 177 938 42 938 42 898" /><text transform="matrix(1 0 0 1 75 904)" font-family="Arial" font-size="10.000000" stroke="none"><tspan x="0" y="9">«IDEAS:Type»</tspan></text><text transform="matrix(1 0 0 1 63 917)" font-family="Arial" font-size="10.000000" font-weight="bold" stroke="none"><tspan x="0" y="9">MeasureInContext</tspan></text><path fill="#C0BFC0" stroke="none" fill-rule="nonzero" d="M308 900L410 900 410 937 308 937 308 900" /><path stroke="none" fill="#CCFFCC" fill-rule="nonzero" d="M305 897L407 897 407 934 305 934 305 897" /><path stroke="#FFFF00" fill="none" d="M305 897L407 897 407 935 305 935 305 897" /><path stroke="#FFFF00" fill="none" d="M305 897L407 897 407 934 305 934 305 897" /><text transform="matrix(1 0 0 1 318 903)" font-family="Arial" font-size="10.000000" stroke="none"><tspan x="0" y="9">«IDEAS:Tuple...</tspan></text><text transform="matrix(1 0 0 1 312 916)" font-family="Arial" font-size="10.000000" font-weight="bold" stroke="none"><tspan x="0" y="9">qualifiedMeasure</tspan></text><path fill="#C0BFC0" stroke="none" fill-rule="nonzero" d="M503 689L617 689 617 730 503 730 503 689" /><path fill="#CCFFCC" stroke="none" fill-rule="nonzero" d="M500 686L614 686 614 727 500 727 500 686" /><path fill="none" d="M500 686L614 686 614 728 500 728 500 686" /><path fill="none" d="M500 686L614 686 614 727 500 727 500 686" /><text transform="matrix(1 0 0 1 515 692)" font-family="Arial" font-size="10.000000" stroke="none"><tspan x="0" y="9">«IDEAS:TupleT...</tspan></text><text transform="matrix(1 0 0 1 501 705)" font-family="Arial" font-size="10.000000" font-weight="bold" stroke="none"><tspan x="0" y="9">measureTypeInstance</tspan></text><path fill="#C0BFC0" stroke="none" fill-rule="nonzero" d="M273 689L438 689 438 729 273 729 273 689" /><path fill="#CCFFCC" stroke="none" fill-rule="nonzero" d="M270 686L435 686 435 726 270 726 270 686" /><path fill="none" d="M270 686L435 686 435 727 270 727 270 686" /><path fill="none" d="M270 686L435 686 435 726 270 726 270 686" /><text transform="matrix(1 0 0 1 304 692)" font-family="Arial" font-size="10.000000" stroke="none"><tspan x="0" y="9">«IDEAS:TupleType»</tspan></text><text transform="matrix(1 0 0 1 270 705)" font-family="Arial" font-size="10.000000" font-weight="bold" stroke="none"><tspan x="0" y="9">requiredMeasureOfPerformance</tspan></text><path fill="#C0BFC0" stroke="none" fill-rule="nonzero" d="M273 216L386 216 386 294 273 294 273 216" /><path stroke="none" fill="#99CCFF" fill-rule="nonzero" d="M270 213L383 213 383 291 270 291 270 213" /><path stroke="#0000FF" fill="none" d="M270 213L383 213 383 292 270 292 270 213" /><path stroke="#0000FF" fill="none" d="M270 213L383 213 383 291 270 291 270 213" /><text transform="matrix(1 0 0 1 292 219)" font-family="Arial" font-size="10.000000" stroke="none"><tspan x="0" y="9">«IDEAS:Type»</tspan></text><text transform="matrix(1 0 0 1 272 232)" font-family="Arial" font-size="10.000000" font-weight="bold" stroke="none"><tspan x="0" y="9">DomainInArchitecture</tspan></text><path fill="#C0BFC0" stroke="none" fill-rule="nonzero" d="M458 356L568 356 568 394 458 394 458 356" /><path stroke="none" fill="#CCFFCC" fill-rule="nonzero" d="M455 353L565 353 565 391 455 391 455 353" /><path stroke="#0000FF" fill="none" d="M455 353L565 353 565 392 455 392 455 353" /><path stroke="#0000FF" fill="none" d="M455 353L565 353 565 391 455 391 455 353" /><text transform="matrix(1 0 0 1 468 359)" font-family="Arial" font-size="10.000000" stroke="none"><tspan x="0" y="9">«IDEAS:TupleT...</tspan></text><text transform="matrix(1 0 0 1 457 372)" font-family="Arial" font-size="10.000000" font-weight="bold" stroke="none"><tspan x="0" y="9">logicalSecurityPolicy</tspan></text><path fill="#C0BFC0" stroke="none" fill-rule="nonzero" d="M674 22L863 22 863 61 674 61 674 22" /><path stroke="none" fill="#C0C0C0" stroke-width="3" fill-rule="nonzero" d="M671 19L860 19 860 58 671 58 671 19" /><path stroke="#0000FF" fill="none" stroke-width="3" d="M671 19L860 19 860 59 671 59 671 19" /><path stroke="#0000FF" stroke-width="3" fill="none" d="M671 19L860 19 860 58 671 58 671 19" /><text transform="matrix(1 0 0 1 731 25)" font-family="Arial" font-size="10.000000" stroke="none"><tspan x="0" y="9">«IDEAS:Type»</tspan></text><text transform="matrix(1 0 0 1 709 38)" font-family="Arial" font-size="10.000000" font-weight="bold" font-style="italic" stroke="none"><tspan x="0" y="9">LogicalIndividualType</tspan></text><path fill="#C0BFC0" stroke="none" fill-rule="nonzero" d="M213 359L333 359 333 397 213 397 213 359" /><path stroke="none" fill="#99CCFF" stroke-width="3" fill-rule="nonzero" d="M210 356L330 356 330 394 210 394 210 356" /><path stroke="#7F7F7F" fill="none" stroke-width="3" d="M210 356L330 356 330 395 210 395 210 356" /><path stroke="#7F7F7F" stroke-width="3" fill="none" d="M210 356L330 356 330 394 210 394 210 356" /><text transform="matrix(1 0 0 1 235 362)" font-family="Arial" font-size="10.000000" stroke="none"><tspan x="0" y="9">«IDEAS:Type»</tspan></text><text transform="matrix(1 0 0 1 234 375)" font-family="Arial" font-size="10.000000" font-weight="bold" stroke="none"><tspan x="0" y="9">SecurityPolicy</tspan></text><path stroke="#0000FF" fill="none" d="M712 252L712 155" /><path stroke="#0000FF" fill="#FCF2E3" d="M718 171L706 171L712 155L718 171" /><g transform="matrix(1 0 0 -1 658 189)"><path fill="#FFFFFF" stroke="none" fill-rule="nonzero" d="M0 0L115 0 115 -11 0 -11 0 0" /></g><text transform="matrix(1 0 0 1 658 189)" font-family="Arial" font-size="10.000000" stroke="none"><tspan x="0" y="9">«IDEAS:superSubtype»</tspan></text><path fill="none" d="M729 602L619 602" /><path fill="none" d="M619 602L634 596" /><path fill="none" d="M619 602L634 608" /><g transform="matrix(1 0 0 -1 710 607)"><path fill="#FFFFFF" stroke="none" fill-rule="nonzero" d="M0 0L17 0 17 -11 0 -11 0 0" /></g><text transform="matrix(1 0 0 1 710 607)" font-family="Arial" font-size="10.000000" stroke="none"><tspan x="0" y="9">0..*</tspan></text><g transform="matrix(1 0 0 -1 651 588)"><path fill="#FFFFFF" stroke="none" fill-rule="nonzero" d="M0 0L48 0 48 -11 0 -11 0 0" /></g><text transform="matrix(1 0 0 1 651 588)" font-family="Arial" font-size="10.000000" stroke="none"><tspan x="0" y="9">capability</tspan></text><g transform="matrix(1 0 0 -1 640 605)"><path fill="#FFFFFF" stroke="none" fill-rule="nonzero" d="M0 0L71 0 71 -11 0 -11 0 0" /></g><text transform="matrix(1 0 0 1 640 605)" font-family="Arial" font-size="10.000000" stroke="none"><tspan x="0" y="9">«place2Type»</tspan></text><g transform="matrix(1 0 0 -1 622 607)"><path fill="#FFFFFF" stroke="none" fill-rule="nonzero" d="M0 0L6 0 6 -11 0 -11 0 0" /></g><text transform="matrix(1 0 0 1 622 607)" font-family="Arial" font-size="10.000000" stroke="none"><tspan x="0" y="9">1</tspan></text><path fill="none" d="M798 623L798 686" /><path fill="none" d="M798 686L792 671" /><path fill="none" d="M798 686L804 671" /><g transform="matrix(1 0 0 -1 807 627)"><path fill="#FFFFFF" stroke="none" fill-rule="nonzero" d="M0 0L17 0 17 -11 0 -11 0 0" /></g><text transform="matrix(1 0 0 1 807 627)" font-family="Arial" font-size="10.000000" stroke="none"><tspan x="0" y="9">0..*</tspan></text><g transform="matrix(1 0 0 -1 788 641)"><path fill="#FFFFFF" stroke="none" fill-rule="nonzero" d="M0 0L22 0 22 -11 0 -11 0 0" /></g><text transform="matrix(1 0 0 1 788 641)" font-family="Arial" font-size="10.000000" stroke="none"><tspan x="0" y="9">moe</tspan></text><g transform="matrix(1 0 0 -1 764 658)"><path fill="#FFFFFF" stroke="none" fill-rule="nonzero" d="M0 0L71 0 71 -11 0 -11 0 0" /></g><text transform="matrix(1 0 0 1 764 658)" font-family="Arial" font-size="10.000000" stroke="none"><tspan x="0" y="9">«place1Type»</tspan></text><g transform="matrix(1 0 0 -1 806 668)"><path fill="#FFFFFF" stroke="none" fill-rule="nonzero" d="M0 0L6 0 6 -11 0 -11 0 0" /></g><text transform="matrix(1 0 0 1 806 668)" font-family="Arial" font-size="10.000000" stroke="none"><tspan x="0" y="9">1</tspan></text><path stroke="#0000FF" fill="none" d="M824 415L824 61" /><path stroke="#0000FF" fill="#FCF2E3" d="M830 77L818 77L824 61L830 77" /><g transform="matrix(1 0 0 -1 751 159)"><path fill="#FFFFFF" stroke="none" fill-rule="nonzero" d="M0 0L115 0 115 -11 0 -11 0 0" /></g><text transform="matrix(1 0 0 1 751 159)" font-family="Arial" font-size="10.000000" stroke="none"><tspan x="0" y="9">«IDEAS:superSubtype»</tspan></text><path fill="none" d="M404 519L632 519" /><path fill="none" d="M632 519L617 525" /><path fill="none" d="M632 519L617 513" /><g transform="matrix(1 0 0 -1 407 524)"><path fill="#FFFFFF" stroke="none" fill-rule="nonzero" d="M0 0L6 0 6 -11 0 -11 0 0" /></g><text transform="matrix(1 0 0 1 407 524)" font-family="Arial" font-size="10.000000" stroke="none"><tspan x="0" y="9">1</tspan></text><g transform="matrix(1 0 0 -1 502 505)"><path fill="#FFFFFF" stroke="none" fill-rule="nonzero" d="M0 0L34 0 34 -11 0 -11 0 0" /></g><text transform="matrix(1 0 0 1 502 505)" font-family="Arial" font-size="10.000000" stroke="none"><tspan x="0" y="9">activity</tspan></text><g transform="matrix(1 0 0 -1 484 522)"><path fill="#FFFFFF" stroke="none" fill-rule="nonzero" d="M0 0L71 0 71 -11 0 -11 0 0" /></g><text transform="matrix(1 0 0 1 484 522)" font-family="Arial" font-size="10.000000" stroke="none"><tspan x="0" y="9">«place2Type»</tspan></text><g transform="matrix(1 0 0 -1 623 524)"><path fill="#FFFFFF" stroke="none" fill-rule="nonzero" d="M0 0L6 0 6 -11 0 -11 0 0" /></g><text transform="matrix(1 0 0 1 623 524)" font-family="Arial" font-size="10.000000" stroke="none"><tspan x="0" y="9">1</tspan></text><path fill="none" d="M277 518L177 518" /><path fill="none" d="M177 518L192 512" /><path fill="none" d="M177 518L192 524" /><g transform="matrix(1 0 0 -1 258 523)"><path fill="#FFFFFF" stroke="none" fill-rule="nonzero" d="M0 0L17 0 17 -11 0 -11 0 0" /></g><text transform="matrix(1 0 0 1 258 523)" font-family="Arial" font-size="10.000000" stroke="none"><tspan x="0" y="9">0..*</tspan></text><g transform="matrix(1 0 0 -1 215 504)"><path fill="#FFFFFF" stroke="none" fill-rule="nonzero" d="M0 0L25 0 25 -11 0 -11 0 0" /></g><text transform="matrix(1 0 0 1 215 504)" font-family="Arial" font-size="10.000000" stroke="none"><tspan x="0" y="9">node</tspan></text><g transform="matrix(1 0 0 -1 193 521)"><path fill="#FFFFFF" stroke="none" fill-rule="nonzero" d="M0 0L71 0 71 -11 0 -11 0 0" /></g><text transform="matrix(1 0 0 1 193 521)" font-family="Arial" font-size="10.000000" stroke="none"><tspan x="0" y="9">«place1Type»</tspan></text><g transform="matrix(1 0 0 -1 180 523)"><path fill="#FFFFFF" stroke="none" fill-rule="nonzero" d="M0 0L6 0 6 -11 0 -11 0 0" /></g><text transform="matrix(1 0 0 1 180 523)" font-family="Arial" font-size="10.000000" stroke="none"><tspan x="0" y="9">1</tspan></text><path stroke="#0000FF" fill="none" d="M82 326L82 155" /><path stroke="#0000FF" fill="#FCF2E3" d="M88 171L76 171L82 155L88 171" /><g transform="matrix(1 0 0 -1 41 180)"><path fill="#FFFFFF" stroke="none" fill-rule="nonzero" d="M0 0L115 0 115 -11 0 -11 0 0" /></g><text transform="matrix(1 0 0 1 41 180)" font-family="Arial" font-size="10.000000" stroke="none"><tspan x="0" y="9">«IDEAS:superSubtype»</tspan></text><path stroke="#0000FF" fill="none" d="M725 346L725 297" /><path stroke="#0000FF" fill="#FCF2E3" d="M731 313L719 313L725 297L731 313" /><g transform="matrix(1 0 0 -1 670 325)"><path fill="#FFFFFF" stroke="none" fill-rule="nonzero" d="M0 0L115 0 115 -11 0 -11 0 0" /></g><text transform="matrix(1 0 0 1 670 325)" font-family="Arial" font-size="10.000000" stroke="none"><tspan x="0" y="9">«IDEAS:superSubtype»</tspan></text><path fill="none" d="M570 1073L570 1009" /><path fill="none" d="M570 1009L576 1024" /><path fill="none" d="M570 1009L564 1024" /><g transform="matrix(1 0 0 -1 557 1027)"><path fill="#FFFFFF" stroke="none" fill-rule="nonzero" d="M0 0L28 0 28 -11 0 -11 0 0" /></g><text transform="matrix(1 0 0 1 557 1027)" font-family="Arial" font-size="10.000000" stroke="none"><tspan x="0" y="9">range</tspan></text><g transform="matrix(1 0 0 -1 536 1044)"><path fill="#FFFFFF" stroke="none" fill-rule="nonzero" d="M0 0L71 0 71 -11 0 -11 0 0" /></g><text transform="matrix(1 0 0 1 536 1044)" font-family="Arial" font-size="10.000000" stroke="none"><tspan x="0" y="9">«place1Type»</tspan></text><path fill="none" d="M266 604L177 604" /><path fill="none" d="M177 604L192 598" /><path fill="none" d="M177 604L192 610" /><g transform="matrix(1 0 0 -1 226 587)"><path fill="#FFFFFF" stroke="none" fill-rule="nonzero" d="M0 0L25 0 25 -11 0 -11 0 0" /></g><text transform="matrix(1 0 0 1 226 587)" font-family="Arial" font-size="10.000000" stroke="none"><tspan x="0" y="9">node</tspan></text><g transform="matrix(1 0 0 -1 199 610)"><path fill="#FFFFFF" stroke="none" fill-rule="nonzero" d="M0 0L71 0 71 -11 0 -11 0 0" /></g><text transform="matrix(1 0 0 1 199 610)" font-family="Arial" font-size="10.000000" stroke="none"><tspan x="0" y="9">«place2Type»</tspan></text><path fill="none" d="M393 603L495 603" /><path fill="none" d="M495 603L480 609" /><path fill="none" d="M495 603L480 597" /><g transform="matrix(1 0 0 -1 421 589)"><path fill="#FFFFFF" stroke="none" fill-rule="nonzero" d="M0 0L48 0 48 -11 0 -11 0 0" /></g><text transform="matrix(1 0 0 1 421 589)" font-family="Arial" font-size="10.000000" stroke="none"><tspan x="0" y="9">capability</tspan></text><g transform="matrix(1 0 0 -1 410 606)"><path fill="#FFFFFF" stroke="none" fill-rule="nonzero" d="M0 0L71 0 71 -11 0 -11 0 0" /></g><text transform="matrix(1 0 0 1 410 606)" font-family="Arial" font-size="10.000000" stroke="none"><tspan x="0" y="9">«place1Type»</tspan></text><path stroke="#0000FF" fill="none" d="M713 111L712 61" /><path stroke="#0000FF" fill="#FCF2E3" d="M718 77L706 77L712 61L718 77" /><g transform="matrix(1 0 0 -1 658 89)"><path fill="#FFFFFF" stroke="none" fill-rule="nonzero" d="M0 0L115 0 115 -11 0 -11 0 0" /></g><text transform="matrix(1 0 0 1 658 89)" font-family="Arial" font-size="10.000000" stroke="none"><tspan x="0" y="9">«IDEAS:superSubtype»</tspan></text><path fill="none" d="M135 255L135 326" /><path fill="none" d="M135 326L129 311" /><path fill="none" d="M135 326L141 311" /><g transform="matrix(1 0 0 -1 143 260)"><path fill="#FFFFFF" stroke="none" fill-rule="nonzero" d="M0 0L6 0 6 -11 0 -11 0 0" /></g><text transform="matrix(1 0 0 1 143 260)" font-family="Arial" font-size="10.000000" stroke="none"><tspan x="0" y="9">1</tspan></text><g transform="matrix(1 0 0 -1 124 277)"><path fill="#FFFFFF" stroke="none" fill-rule="nonzero" d="M0 0L24 0 24 -11 0 -11 0 0" /></g><text transform="matrix(1 0 0 1 124 277)" font-family="Arial" font-size="10.000000" stroke="none"><tspan x="0" y="9">child</tspan></text><g transform="matrix(1 0 0 -1 101 294)"><path fill="#FFFFFF" stroke="none" fill-rule="nonzero" d="M0 0L71 0 71 -11 0 -11 0 0" /></g><text transform="matrix(1 0 0 1 101 294)" font-family="Arial" font-size="10.000000" stroke="none"><tspan x="0" y="9">«place2Type»</tspan></text><path fill="none" d="M169 216L169 155" /><path fill="none" d="M169 155L175 170" /><path fill="none" d="M169 155L163 170" /><g transform="matrix(1 0 0 -1 154 172)"><path fill="#FFFFFF" stroke="none" fill-rule="nonzero" d="M0 0L31 0 31 -11 0 -11 0 0" /></g><text transform="matrix(1 0 0 1 154 172)" font-family="Arial" font-size="10.000000" stroke="none"><tspan x="0" y="9">parent</tspan></text><g transform="matrix(1 0 0 -1 142 190)"><path fill="#FFFFFF" stroke="none" fill-rule="nonzero" d="M0 0L71 0 71 -11 0 -11 0 0" /></g><text transform="matrix(1 0 0 1 142 190)" font-family="Arial" font-size="10.000000" stroke="none"><tspan x="0" y="9">«place1Type»</tspan></text><path stroke="#0000FF" fill="none" d="M572 206L572 155" /><path stroke="#0000FF" fill="#FCF2E3" d="M578 171L566 171L572 155L578 171" /><g transform="matrix(1 0 0 -1 517 180)"><path fill="#FFFFFF" stroke="none" fill-rule="nonzero" d="M0 0L115 0 115 -11 0 -11 0 0" /></g><text transform="matrix(1 0 0 1 517 180)" font-family="Arial" font-size="10.000000" stroke="none"><tspan x="0" y="9">«IDEAS:superSubtype»</tspan></text><path stroke="#0000FF" fill="none" d="M740 500L740 459" /><path stroke="#0000FF" fill="#FCF2E3" d="M746 475L734 475L740 459L746 475" /><g transform="matrix(1 0 0 -1 685 483)"><path fill="#FFFFFF" stroke="none" fill-rule="nonzero" d="M0 0L115 0 115 -11 0 -11 0 0" /></g><text transform="matrix(1 0 0 1 685 483)" font-family="Arial" font-size="10.000000" stroke="none"><tspan x="0" y="9">«IDEAS:superSubtype»</tspan></text><path fill="none" d="M369 897L369 827" /><path fill="none" d="M369 827L375 842" /><path fill="none" d="M369 827L363 842" /><g transform="matrix(1 0 0 -1 372 880)"><path fill="#FFFFFF" stroke="none" fill-rule="nonzero" d="M0 0L17 0 17 -11 0 -11 0 0" /></g><text transform="matrix(1 0 0 1 372 880)" font-family="Arial" font-size="10.000000" stroke="none"><tspan x="0" y="9">0..*</tspan></text><g transform="matrix(1 0 0 -1 349 848)"><path fill="#FFFFFF" stroke="none" fill-rule="nonzero" d="M0 0L42 0 42 -11 0 -11 0 0" /></g><text transform="matrix(1 0 0 1 349 848)" font-family="Arial" font-size="10.000000" stroke="none"><tspan x="0" y="9">measure</tspan></text><g transform="matrix(1 0 0 -1 335 865)"><path fill="#FFFFFF" stroke="none" fill-rule="nonzero" d="M0 0L71 0 71 -11 0 -11 0 0" /></g><text transform="matrix(1 0 0 1 335 865)" font-family="Arial" font-size="10.000000" stroke="none"><tspan x="0" y="9">«place1Type»</tspan></text><g transform="matrix(1 0 0 -1 381 832)"><path fill="#FFFFFF" stroke="none" fill-rule="nonzero" d="M0 0L6 0 6 -11 0 -11 0 0" /></g><text transform="matrix(1 0 0 1 381 832)" font-family="Arial" font-size="10.000000" stroke="none"><tspan x="0" y="9">1</tspan></text><path fill="none" d="M566 372L678 372" /><path fill="none" d="M678 372L663 378" /><path fill="none" d="M678 372L663 366" /><g transform="matrix(1 0 0 -1 569 377)"><path fill="#FFFFFF" stroke="none" fill-rule="nonzero" d="M0 0L17 0 17 -11 0 -11 0 0" /></g><text transform="matrix(1 0 0 1 569 377)" font-family="Arial" font-size="10.000000" stroke="none"><tspan x="0" y="9">0..*</tspan></text><g transform="matrix(1 0 0 -1 585 358)"><path fill="#FFFFFF" stroke="none" fill-rule="nonzero" d="M0 0L78 0 78 -11 0 -11 0 0" /></g><text transform="matrix(1 0 0 1 585 358)" font-family="Arial" font-size="10.000000" stroke="none"><tspan x="0" y="9">constrainedItem</tspan></text><g transform="matrix(1 0 0 -1 588 375)"><path fill="#FFFFFF" stroke="none" fill-rule="nonzero" d="M0 0L71 0 71 -11 0 -11 0 0" /></g><text transform="matrix(1 0 0 1 588 375)" font-family="Arial" font-size="10.000000" stroke="none"><tspan x="0" y="9">«place2Type»</tspan></text><g transform="matrix(1 0 0 -1 669 377)"><path fill="#FFFFFF" stroke="none" fill-rule="nonzero" d="M0 0L6 0 6 -11 0 -11 0 0" /></g><text transform="matrix(1 0 0 1 669 377)" font-family="Arial" font-size="10.000000" stroke="none"><tspan x="0" y="9">1</tspan></text><path fill="none" d="M384 281L677 281" /><path fill="none" d="M677 281L662 287" /><path fill="none" d="M677 281L662 275" /><g transform="matrix(1 0 0 -1 387 286)"><path fill="#FFFFFF" stroke="none" fill-rule="nonzero" d="M0 0L17 0 17 -11 0 -11 0 0" /></g><text transform="matrix(1 0 0 1 387 286)" font-family="Arial" font-size="10.000000" stroke="none"><tspan x="0" y="9">0..*</tspan></text><g transform="matrix(1 0 0 -1 513 267)"><path fill="#FFFFFF" stroke="none" fill-rule="nonzero" d="M0 0L38 0 38 -11 0 -11 0 0" /></g><text transform="matrix(1 0 0 1 513 267)" font-family="Arial" font-size="10.000000" stroke="none"><tspan x="0" y="9">domain</tspan></text><g transform="matrix(1 0 0 -1 497 284)"><path fill="#FFFFFF" stroke="none" fill-rule="nonzero" d="M0 0L71 0 71 -11 0 -11 0 0" /></g><text transform="matrix(1 0 0 1 497 284)" font-family="Arial" font-size="10.000000" stroke="none"><tspan x="0" y="9">«place2Type»</tspan></text><g transform="matrix(1 0 0 -1 668 286)"><path fill="#FFFFFF" stroke="none" fill-rule="nonzero" d="M0 0L6 0 6 -11 0 -11 0 0" /></g><text transform="matrix(1 0 0 1 668 286)" font-family="Arial" font-size="10.000000" stroke="none"><tspan x="0" y="9">1</tspan></text><path fill="none" d="M384 224L503 224" /><path fill="none" d="M503 224L488 230" /><path fill="none" d="M503 224L488 218" /><g transform="matrix(1 0 0 -1 387 229)"><path fill="#FFFFFF" stroke="none" fill-rule="nonzero" d="M0 0L17 0 17 -11 0 -11 0 0" /></g><text transform="matrix(1 0 0 1 387 229)" font-family="Arial" font-size="10.000000" stroke="none"><tspan x="0" y="9">0..*</tspan></text><g transform="matrix(1 0 0 -1 417 210)"><path fill="#FFFFFF" stroke="none" fill-rule="nonzero" d="M0 0L57 0 57 -11 0 -11 0 0" /></g><text transform="matrix(1 0 0 1 417 210)" font-family="Arial" font-size="10.000000" stroke="none"><tspan x="0" y="9">architecture</tspan></text><g transform="matrix(1 0 0 -1 410 227)"><path fill="#FFFFFF" stroke="none" fill-rule="nonzero" d="M0 0L71 0 71 -11 0 -11 0 0" /></g><text transform="matrix(1 0 0 1 410 227)" font-family="Arial" font-size="10.000000" stroke="none"><tspan x="0" y="9">«place1Type»</tspan></text><g transform="matrix(1 0 0 -1 494 229)"><path fill="#FFFFFF" stroke="none" fill-rule="nonzero" d="M0 0L6 0 6 -11 0 -11 0 0" /></g><text transform="matrix(1 0 0 1 494 229)" font-family="Arial" font-size="10.000000" stroke="none"><tspan x="0" y="9">1</tspan></text><path fill="none" d="M270 706L177 706" /><path fill="none" d="M177 706L192 700" /><path fill="none" d="M177 706L192 712" /><g transform="matrix(1 0 0 -1 251 711)"><path fill="#FFFFFF" stroke="none" fill-rule="nonzero" d="M0 0L17 0 17 -11 0 -11 0 0" /></g><text transform="matrix(1 0 0 1 251 711)" font-family="Arial" font-size="10.000000" stroke="none"><tspan x="0" y="9">0..*</tspan></text><g transform="matrix(1 0 0 -1 212 692)"><path fill="#FFFFFF" stroke="none" fill-rule="nonzero" d="M0 0L25 0 25 -11 0 -11 0 0" /></g><text transform="matrix(1 0 0 1 212 692)" font-family="Arial" font-size="10.000000" stroke="none"><tspan x="0" y="9">node</tspan></text><g transform="matrix(1 0 0 -1 190 709)"><path fill="#FFFFFF" stroke="none" fill-rule="nonzero" d="M0 0L71 0 71 -11 0 -11 0 0" /></g><text transform="matrix(1 0 0 1 190 709)" font-family="Arial" font-size="10.000000" stroke="none"><tspan x="0" y="9">«place2Type»</tspan></text><g transform="matrix(1 0 0 -1 180 711)"><path fill="#FFFFFF" stroke="none" fill-rule="nonzero" d="M0 0L6 0 6 -11 0 -11 0 0" /></g><text transform="matrix(1 0 0 1 180 711)" font-family="Arial" font-size="10.000000" stroke="none"><tspan x="0" y="9">1</tspan></text><path fill="none" d="M353 727L353 790" /><path fill="none" d="M353 790L347 775" /><path fill="none" d="M353 790L359 775" /><g transform="matrix(1 0 0 -1 361 732)"><path fill="#FFFFFF" stroke="none" fill-rule="nonzero" d="M0 0L17 0 17 -11 0 -11 0 0" /></g><text transform="matrix(1 0 0 1 361 732)" font-family="Arial" font-size="10.000000" stroke="none"><tspan x="0" y="9">0..*</tspan></text><g transform="matrix(1 0 0 -1 333 745)"><path fill="#FFFFFF" stroke="none" fill-rule="nonzero" d="M0 0L42 0 42 -11 0 -11 0 0" /></g><text transform="matrix(1 0 0 1 333 745)" font-family="Arial" font-size="10.000000" stroke="none"><tspan x="0" y="9">measure</tspan></text><g transform="matrix(1 0 0 -1 319 762)"><path fill="#FFFFFF" stroke="none" fill-rule="nonzero" d="M0 0L71 0 71 -11 0 -11 0 0" /></g><text transform="matrix(1 0 0 1 319 762)" font-family="Arial" font-size="10.000000" stroke="none"><tspan x="0" y="9">«place1Type»</tspan></text><g transform="matrix(1 0 0 -1 361 772)"><path fill="#FFFFFF" stroke="none" fill-rule="nonzero" d="M0 0L6 0 6 -11 0 -11 0 0" /></g><text transform="matrix(1 0 0 1 361 772)" font-family="Arial" font-size="10.000000" stroke="none"><tspan x="0" y="9">1</tspan></text><path fill="none" d="M550 728L550 790" /><path fill="none" d="M550 790L544 775" /><path fill="none" d="M550 790L556 775" /><g transform="matrix(1 0 0 -1 531 745)"><path fill="#FFFFFF" stroke="none" fill-rule="nonzero" d="M0 0L41 0 41 -11 0 -11 0 0" /></g><text transform="matrix(1 0 0 1 531 745)" font-family="Arial" font-size="10.000000" stroke="none"><tspan x="0" y="9">instance</tspan></text><g transform="matrix(1 0 0 -1 521 765)"><path fill="#FFFFFF" stroke="none" fill-rule="nonzero" d="M0 0L71 0 71 -11 0 -11 0 0" /></g><text transform="matrix(1 0 0 1 521 765)" font-family="Arial" font-size="10.000000" stroke="none"><tspan x="0" y="9">«place2Type»</tspan></text><path stroke="#0000FF" fill="none" d="M775 972L775 827" /><path stroke="#0000FF" fill="#FCF2E3" d="M781 843L769 843L775 827L781 843" /><g transform="matrix(1 0 0 -1 725 850)"><path fill="#FFFFFF" stroke="none" fill-rule="nonzero" d="M0 0L115 0 115 -11 0 -11 0 0" /></g><text transform="matrix(1 0 0 1 725 850)" font-family="Arial" font-size="10.000000" stroke="none"><tspan x="0" y="9">«IDEAS:superSubtype»</tspan></text><path fill="none" d="M305 921L180 921" /><path fill="none" d="M180 921L195 915" /><path fill="none" d="M180 921L195 927" /><g transform="matrix(1 0 0 -1 296 926)"><path fill="#FFFFFF" stroke="none" fill-rule="nonzero" d="M0 0L6 0 6 -11 0 -11 0 0" /></g><text transform="matrix(1 0 0 1 296 926)" font-family="Arial" font-size="10.000000" stroke="none"><tspan x="0" y="9">1</tspan></text><g transform="matrix(1 0 0 -1 201 907)"><path fill="#FFFFFF" stroke="none" fill-rule="nonzero" d="M0 0L89 0 89 -11 0 -11 0 0" /></g><text transform="matrix(1 0 0 1 201 907)" font-family="Arial" font-size="10.000000" stroke="none"><tspan x="0" y="9">measureInContext</tspan></text><g transform="matrix(1 0 0 -1 209 924)"><path fill="#FFFFFF" stroke="none" fill-rule="nonzero" d="M0 0L71 0 71 -11 0 -11 0 0" /></g><text transform="matrix(1 0 0 1 209 924)" font-family="Arial" font-size="10.000000" stroke="none"><tspan x="0" y="9">«place2Type»</tspan></text><g transform="matrix(1 0 0 -1 183 926)"><path fill="#FFFFFF" stroke="none" fill-rule="nonzero" d="M0 0L6 0 6 -11 0 -11 0 0" /></g><text transform="matrix(1 0 0 1 183 926)" font-family="Arial" font-size="10.000000" stroke="none"><tspan x="0" y="9">1</tspan></text><path stroke="#0000FF" fill="none" d="M481 969L481 827" /><path stroke="#0000FF" fill="#FCF2E3" d="M487 843L475 843L481 827L487 843" /><g transform="matrix(1 0 0 -1 431 847)"><path fill="#FFFFFF" stroke="none" fill-rule="nonzero" d="M0 0L115 0 115 -11 0 -11 0 0" /></g><text transform="matrix(1 0 0 1 431 847)" font-family="Arial" font-size="10.000000" stroke="none"><tspan x="0" y="9">«IDEAS:superSubtype»</tspan></text><path stroke="#0000FF" fill="none" d="M111 896L111 827" /><path stroke="#0000FF" fill="#FCF2E3" d="M117 843L105 843L111 827L117 843" /><g transform="matrix(1 0 0 -1 45 866)"><path fill="#FFFFFF" stroke="none" fill-rule="nonzero" d="M0 0L115 0 115 -11 0 -11 0 0" /></g><text transform="matrix(1 0 0 1 45 866)" font-family="Arial" font-size="10.000000" stroke="none"><tspan x="0" y="9">«IDEAS:superSubtype»</tspan></text><path fill="none" d="M110 991L110 941" /><path fill="none" d="M110 941L116 956" /><path fill="none" d="M110 941L104 956" /><g transform="matrix(1 0 0 -1 113 974)"><path fill="#FFFFFF" stroke="none" fill-rule="nonzero" d="M0 0L17 0 17 -11 0 -11 0 0" /></g><text transform="matrix(1 0 0 1 113 974)" font-family="Arial" font-size="10.000000" stroke="none"><tspan x="0" y="9">1..*</tspan></text><g transform="matrix(1 0 0 -1 90 952)"><path fill="#FFFFFF" stroke="none" fill-rule="nonzero" d="M0 0L42 0 42 -11 0 -11 0 0" /></g><text transform="matrix(1 0 0 1 90 952)" font-family="Arial" font-size="10.000000" stroke="none"><tspan x="0" y="9">measure</tspan></text><g transform="matrix(1 0 0 -1 76 969)"><path fill="#FFFFFF" stroke="none" fill-rule="nonzero" d="M0 0L71 0 71 -11 0 -11 0 0" /></g><text transform="matrix(1 0 0 1 76 969)" font-family="Arial" font-size="10.000000" stroke="none"><tspan x="0" y="9">«place1Type»</tspan></text><g transform="matrix(1 0 0 -1 122 946)"><path fill="#FFFFFF" stroke="none" fill-rule="nonzero" d="M0 0L6 0 6 -11 0 -11 0 0" /></g><text transform="matrix(1 0 0 1 122 946)" font-family="Arial" font-size="10.000000" stroke="none"><tspan x="0" y="9">1</tspan></text><path fill="none" d="M688 913L688 972" /><path fill="none" d="M688 972L682 957" /><path fill="none" d="M688 972L694 957" /><g transform="matrix(1 0 0 -1 660 929)"><path fill="#FFFFFF" stroke="none" fill-rule="nonzero" d="M0 0L58 0 58 -11 0 -11 0 0" /></g><text transform="matrix(1 0 0 1 660 929)" font-family="Arial" font-size="10.000000" stroke="none"><tspan x="0" y="9">lowerBound</tspan></text><g transform="matrix(1 0 0 -1 654 946)"><path fill="#FFFFFF" stroke="none" fill-rule="nonzero" d="M0 0L71 0 71 -11 0 -11 0 0" /></g><text transform="matrix(1 0 0 1 654 946)" font-family="Arial" font-size="10.000000" stroke="none"><tspan x="0" y="9">«place2Type»</tspan></text><path fill="none" d="M568 913L568 969" /><path fill="none" d="M568 969L562 954" /><path fill="none" d="M568 969L574 954" /><g transform="matrix(1 0 0 -1 555 927)"><path fill="#FFFFFF" stroke="none" fill-rule="nonzero" d="M0 0L28 0 28 -11 0 -11 0 0" /></g><text transform="matrix(1 0 0 1 555 927)" font-family="Arial" font-size="10.000000" stroke="none"><tspan x="0" y="9">range</tspan></text><g transform="matrix(1 0 0 -1 534 944)"><path fill="#FFFFFF" stroke="none" fill-rule="nonzero" d="M0 0L71 0 71 -11 0 -11 0 0" /></g><text transform="matrix(1 0 0 1 534 944)" font-family="Arial" font-size="10.000000" stroke="none"><tspan x="0" y="9">«place1Type»</tspan></text><path fill="none" d="M692 1073L692 1008" /><path fill="none" d="M692 1008L698 1023" /><path fill="none" d="M692 1008L686 1023" /><g transform="matrix(1 0 0 -1 663 1027)"><path fill="#FFFFFF" stroke="none" fill-rule="nonzero" d="M0 0L60 0 60 -11 0 -11 0 0" /></g><text transform="matrix(1 0 0 1 663 1027)" font-family="Arial" font-size="10.000000" stroke="none"><tspan x="0" y="9">upperBound</tspan></text><g transform="matrix(1 0 0 -1 658 1044)"><path fill="#FFFFFF" stroke="none" fill-rule="nonzero" d="M0 0L71 0 71 -11 0 -11 0 0" /></g><text transform="matrix(1 0 0 1 658 1044)" font-family="Arial" font-size="10.000000" stroke="none"><tspan x="0" y="9">«place2Type»</tspan></text><path fill="none" d="M455 373L333 373" /><path fill="none" d="M333 373L348 367" /><path fill="none" d="M333 373L348 379" /><g transform="matrix(1 0 0 -1 436 378)"><path fill="#FFFFFF" stroke="none" fill-rule="nonzero" d="M0 0L17 0 17 -11 0 -11 0 0" /></g><text transform="matrix(1 0 0 1 436 378)" font-family="Arial" font-size="10.000000" stroke="none"><tspan x="0" y="9">0..*</tspan></text><g transform="matrix(1 0 0 -1 380 359)"><path fill="#FFFFFF" stroke="none" fill-rule="nonzero" d="M0 0L29 0 29 -11 0 -11 0 0" /></g><text transform="matrix(1 0 0 1 380 359)" font-family="Arial" font-size="10.000000" stroke="none"><tspan x="0" y="9">policy</tspan></text><g transform="matrix(1 0 0 -1 360 376)"><path fill="#FFFFFF" stroke="none" fill-rule="nonzero" d="M0 0L71 0 71 -11 0 -11 0 0" /></g><text transform="matrix(1 0 0 1 360 376)" font-family="Arial" font-size="10.000000" stroke="none"><tspan x="0" y="9">«place1Type»</tspan></text><g transform="matrix(1 0 0 -1 336 378)"><path fill="#FFFFFF" stroke="none" fill-rule="nonzero" d="M0 0L6 0 6 -11 0 -11 0 0" /></g><text transform="matrix(1 0 0 1 336 378)" font-family="Arial" font-size="10.000000" stroke="none"><tspan x="0" y="9">1</tspan></text><path fill="none" d="M615 705L741 705" /><path fill="none" d="M741 705L726 711" /><path fill="none" d="M741 705L726 699" /><g transform="matrix(1 0 0 -1 668 691)"><path fill="#FFFFFF" stroke="none" fill-rule="nonzero" d="M0 0L21 0 21 -11 0 -11 0 0" /></g><text transform="matrix(1 0 0 1 668 691)" font-family="Arial" font-size="10.000000" stroke="none"><tspan x="0" y="9">type</tspan></text><g transform="matrix(1 0 0 -1 644 708)"><path fill="#FFFFFF" stroke="none" fill-rule="nonzero" d="M0 0L71 0 71 -11 0 -11 0 0" /></g><text transform="matrix(1 0 0 1 644 708)" font-family="Arial" font-size="10.000000" stroke="none"><tspan x="0" y="9">«place1Type»</tspan></text></g></g></g></g></svg>