<?xml version="1.0" encoding="utf-8"?><svg version="1.1" preserveAspectRatio="xMidYMid" xml:space="preserve" width="545.66877pt" height="327.57682pt" viewBox="19.34703 7.38068 545.66877 327.57682" xmlns="http://www.w3.org/2000/svg" xmlns:svg="http://www.w3.org/2000/svg" xmlns:xlink="http://www.w3.org/1999/xlink"><g transform="matrix(1 0 0 -1 0 816)"><g stroke="#000000" fill="#000000" fill-rule="nonzero" stroke-width="1" stroke-linecap="round" stroke-linejoin="miter" stroke-miterlimit="10" alphaIsShape="0" letter-spacing="normal" word-spacing="normal" font-family="Helvetica" font-size="10" font-weight="normal" font-style="normal" baseline-shift="0"><g transform="matrix(0.750000 0 0 0.750000 0 816.450012)"><g transform="matrix(0.959545 0 0 -0.959436 0 0)"><path fill="#C0BFC0" stroke="none" fill-rule="nonzero" d="M397 29L774 29 774 92 397 92 397 29" /><path stroke="none" fill="#99CCFF" fill-rule="nonzero" d="M394 26L771 26 771 89 394 89 394 26" /><path stroke="#FFFF00" fill="none" d="M394 26L771 26 771 90 394 90 394 26" /><path stroke="#FFFF00" fill="none" d="M394 26L771 26 771 89 394 89 394 26" /><text transform="matrix(1 0 0 1 548 32)" font-family="Arial" font-size="10.000000" stroke="none"><tspan x="0" y="9">«IDEAS:Type»</tspan></text><text transform="matrix(1 0 0 1 545 45)" font-family="Arial" font-size="10.000000" font-weight="bold" stroke="none"><tspan x="0" y="9">StateTransition</tspan></text><path fill="#C0BFC0" stroke="none" fill-rule="nonzero" d="M42 260L163 260 163 298 42 298 42 260" /><path stroke="none" fill="#99CCFF" stroke-width="3" fill-rule="nonzero" d="M39 257L160 257 160 295 39 295 39 257" /><path stroke="#0000FF" fill="none" stroke-width="3" d="M39 257L160 257 160 296 39 296 39 257" /><path stroke="#0000FF" stroke-width="3" fill="none" d="M39 257L160 257 160 295 39 295 39 257" /><text transform="matrix(1 0 0 1 65 263)" font-family="Arial" font-size="10.000000" stroke="none"><tspan x="0" y="9">«IDEAS:Type»</tspan></text><text transform="matrix(1 0 0 1 74 276)" font-family="Arial" font-size="10.000000" font-weight="bold" stroke="none"><tspan x="0" y="9">NodeState</tspan></text><path fill="#C0BFC0" stroke="none" fill-rule="nonzero" d="M636 352L774 352 774 455 636 455 636 352" /><path stroke="none" fill="#99CCFF" stroke-width="3" fill-rule="nonzero" d="M633 349L771 349 771 452 633 452 633 349" /><path stroke="#FFFF00" fill="none" stroke-width="3" d="M633 349L771 349 771 453 633 453 633 349" /><path stroke="#FFFF00" stroke-width="3" fill="none" d="M633 349L771 349 771 452 633 452 633 349" /><text transform="matrix(1 0 0 1 667 355)" font-family="Arial" font-size="10.000000" stroke="none"><tspan x="0" y="9">«IDEAS:Type»</tspan></text><text transform="matrix(1 0 0 1 667 368)" font-family="Arial" font-size="10.000000" font-weight="bold" stroke="none"><tspan x="0" y="9">StateMachine</tspan></text><path fill="#C0BFC0" stroke="none" fill-rule="nonzero" d="M397 418L519 418 519 455 397 455 397 418" /><path stroke="none" fill="#CCFFCC" fill-rule="nonzero" d="M394 415L516 415 516 452 394 452 394 415" /><path stroke="#0000FF" fill="none" d="M394 415L516 415 516 453 394 453 394 415" /><path stroke="#0000FF" fill="none" d="M394 415L516 415 516 452 394 452 394 415" /><text transform="matrix(1 0 0 1 406 421)" font-family="Arial" font-size="10.000000" stroke="none"><tspan x="0" y="9">«IDEAS:TupleType»</tspan></text><text transform="matrix(1 0 0 1 399 434)" font-family="Arial" font-size="10.000000" font-weight="bold" stroke="none"><tspan x="0" y="9">stateMachineForNode</tspan></text><path fill="#C0BFC0" stroke="none" fill-rule="nonzero" d="M399 258L774 258 774 297 399 297 399 258" /><path stroke="none" fill="#99CCFF" stroke-width="3" fill-rule="nonzero" d="M396 255L771 255 771 294 396 294 396 255" /><path stroke="#FFFF00" fill="none" stroke-width="3" d="M396 255L771 255 771 295 396 295 396 255" /><path stroke="#FFFF00" stroke-width="3" fill="none" d="M396 255L771 255 771 294 396 294 396 255" /><text transform="matrix(1 0 0 1 549 261)" font-family="Arial" font-size="10.000000" stroke="none"><tspan x="0" y="9">«IDEAS:Type»</tspan></text><text transform="matrix(1 0 0 1 531 274)" font-family="Arial" font-size="10.000000" font-weight="bold" stroke="none"><tspan x="0" y="9">StateMachineRegion</tspan></text><path fill="#C0BFC0" stroke="none" fill-rule="nonzero" d="M397 352L519 352 519 389 397 389 397 352" /><path stroke="none" fill="#CCFFCC" fill-rule="nonzero" d="M394 349L516 349 516 386 394 386 394 349" /><path stroke="#FFFF00" fill="none" d="M394 349L516 349 516 387 394 387 394 349" /><path stroke="#FFFF00" fill="none" d="M394 349L516 349 516 386 394 386 394 349" /><text transform="matrix(1 0 0 1 406 355)" font-family="Arial" font-size="10.000000" stroke="none"><tspan x="0" y="9">«IDEAS:TupleType»</tspan></text><text transform="matrix(1 0 0 1 398 368)" font-family="Arial" font-size="10.000000" font-weight="bold" stroke="none"><tspan x="0" y="9">regionOfStateMachine</tspan></text><path fill="#C0BFC0" stroke="none" fill-rule="nonzero" d="M397 146L525 146 525 184 397 184 397 146" /><path stroke="none" fill="#CCFFCC" fill-rule="nonzero" d="M394 143L522 143 522 181 394 181 394 143" /><path stroke="#FFFF00" fill="none" d="M394 143L522 143 522 182 394 182 394 143" /><path stroke="#FFFF00" fill="none" d="M394 143L522 143 522 181 394 181 394 143" /><text transform="matrix(1 0 0 1 409 149)" font-family="Arial" font-size="10.000000" stroke="none"><tspan x="0" y="9">«IDEAS:TupleType»</tspan></text><text transform="matrix(1 0 0 1 423 162)" font-family="Arial" font-size="10.000000" font-weight="bold" stroke="none"><tspan x="0" y="9">stateInRegion</tspan></text><path fill="#C0BFC0" stroke="none" fill-rule="nonzero" d="M626 147L774 147 774 186 626 186 626 147" /><path stroke="none" fill="#CCFFCC" fill-rule="nonzero" d="M623 144L771 144 771 183 623 183 623 144" /><path stroke="#FFFF00" fill="none" d="M623 144L771 144 771 184 623 184 623 144" /><path stroke="#FFFF00" fill="none" d="M623 144L771 144 771 183 623 183 623 144" /><text transform="matrix(1 0 0 1 648 150)" font-family="Arial" font-size="10.000000" stroke="none"><tspan x="0" y="9">«IDEAS:TupleType»</tspan></text><text transform="matrix(1 0 0 1 637 163)" font-family="Arial" font-size="10.000000" font-weight="bold" stroke="none"><tspan x="0" y="9">stateTransitionInRegion</tspan></text><path fill="#C0BFC0" stroke="none" fill-rule="nonzero" d="M42 417L163 417 163 455 42 455 42 417" /><path stroke="none" fill="#99CCFF" stroke-width="2" fill-rule="nonzero" d="M39 414L160 414 160 452 39 452 39 414" /><path stroke="#0000FF" fill="none" stroke-width="2" d="M39 414L160 414 160 453 39 453 39 414" /><path stroke="#0000FF" stroke-width="2" fill="none" d="M39 414L160 414 160 452 39 452 39 414" /><text transform="matrix(1 0 0 1 65 420)" font-family="Arial" font-size="10.000000" stroke="none"><tspan x="0" y="9">«IDEAS:Type»</tspan></text><text transform="matrix(1 0 0 1 87 433)" font-family="Arial" font-size="10.000000" font-weight="bold" stroke="none"><tspan x="0" y="9">Node</tspan></text><path fill="#C0BFC0" stroke="none" fill-rule="nonzero" d="M42 25L158 25 158 183 42 183 42 25" /><path stroke="none" fill="#C0C0C0" stroke-width="3" fill-rule="nonzero" d="M39 22L155 22 155 180 39 180 39 22" /><path stroke="#FFFF00" fill="none" stroke-width="3" d="M39 22L155 22 155 181 39 181 39 22" /><path stroke="#FFFF00" stroke-width="3" fill="none" d="M39 22L155 22 155 180 39 180 39 22" /><text transform="matrix(1 0 0 1 62 28)" font-family="Arial" font-size="10.000000" stroke="none"><tspan x="0" y="9">«IDEAS:Type»</tspan></text><text transform="matrix(1 0 0 1 51 41)" font-family="Arial" font-size="10.000000" font-weight="bold" font-style="italic" stroke="none"><tspan x="0" y="9">StateSpecification</tspan></text><path stroke="#0000FF" fill="none" d="M93 413L93 298" /><path stroke="#0000FF" fill="#FCF2E3" d="M99 314L87 314L93 298L99 314" /><g transform="matrix(1 0 0 -1 38 359)"><path fill="#FFFFFF" stroke="none" fill-rule="nonzero" d="M0 0L115 0 115 -11 0 -11 0 0" /></g><text transform="matrix(1 0 0 1 38 359)" font-family="Arial" font-size="10.000000" stroke="none"><tspan x="0" y="9">«IDEAS:superSubtype»</tspan></text><path fill="none" d="M697 144L697 90" /><path fill="none" d="M697 90L703 105" /><path fill="none" d="M697 90L691 105" /><g transform="matrix(1 0 0 -1 700 127)"><path fill="#FFFFFF" stroke="none" fill-rule="nonzero" d="M0 0L17 0 17 -11 0 -11 0 0" /></g><text transform="matrix(1 0 0 1 700 127)" font-family="Arial" font-size="10.000000" stroke="none"><tspan x="0" y="9">0..*</tspan></text><g transform="matrix(1 0 0 -1 676 103)"><path fill="#FFFFFF" stroke="none" fill-rule="nonzero" d="M0 0L45 0 45 -11 0 -11 0 0" /></g><text transform="matrix(1 0 0 1 676 103)" font-family="Arial" font-size="10.000000" stroke="none"><tspan x="0" y="9">transition</tspan></text><g transform="matrix(1 0 0 -1 663 120)"><path fill="#FFFFFF" stroke="none" fill-rule="nonzero" d="M0 0L71 0 71 -11 0 -11 0 0" /></g><text transform="matrix(1 0 0 1 663 120)" font-family="Arial" font-size="10.000000" stroke="none"><tspan x="0" y="9">«place2Type»</tspan></text><g transform="matrix(1 0 0 -1 709 95)"><path fill="#FFFFFF" stroke="none" fill-rule="nonzero" d="M0 0L6 0 6 -11 0 -11 0 0" /></g><text transform="matrix(1 0 0 1 709 95)" font-family="Arial" font-size="10.000000" stroke="none"><tspan x="0" y="9">1</tspan></text><path fill="none" d="M694 184L694 253" /><path fill="none" d="M694 253L688 238" /><path fill="none" d="M694 253L700 238" /><g transform="matrix(1 0 0 -1 702 189)"><path fill="#FFFFFF" stroke="none" fill-rule="nonzero" d="M0 0L17 0 17 -11 0 -11 0 0" /></g><text transform="matrix(1 0 0 1 702 189)" font-family="Arial" font-size="10.000000" stroke="none"><tspan x="0" y="9">0..*</tspan></text><g transform="matrix(1 0 0 -1 679 205)"><path fill="#FFFFFF" stroke="none" fill-rule="nonzero" d="M0 0L31 0 31 -11 0 -11 0 0" /></g><text transform="matrix(1 0 0 1 679 205)" font-family="Arial" font-size="10.000000" stroke="none"><tspan x="0" y="9">region</tspan></text><g transform="matrix(1 0 0 -1 660 222)"><path fill="#FFFFFF" stroke="none" fill-rule="nonzero" d="M0 0L71 0 71 -11 0 -11 0 0" /></g><text transform="matrix(1 0 0 1 660 222)" font-family="Arial" font-size="10.000000" stroke="none"><tspan x="0" y="9">«place1Type»</tspan></text><g transform="matrix(1 0 0 -1 702 235)"><path fill="#FFFFFF" stroke="none" fill-rule="nonzero" d="M0 0L6 0 6 -11 0 -11 0 0" /></g><text transform="matrix(1 0 0 1 702 235)" font-family="Arial" font-size="10.000000" stroke="none"><tspan x="0" y="9">1</tspan></text><path fill="none" d="M394 161L158 161" /><path fill="none" d="M158 161L173 155" /><path fill="none" d="M158 161L173 167" /><g transform="matrix(1 0 0 -1 375 166)"><path fill="#FFFFFF" stroke="none" fill-rule="nonzero" d="M0 0L17 0 17 -11 0 -11 0 0" /></g><text transform="matrix(1 0 0 1 375 166)" font-family="Arial" font-size="10.000000" stroke="none"><tspan x="0" y="9">0..*</tspan></text><g transform="matrix(1 0 0 -1 265 147)"><path fill="#FFFFFF" stroke="none" fill-rule="nonzero" d="M0 0L23 0 23 -11 0 -11 0 0" /></g><text transform="matrix(1 0 0 1 265 147)" font-family="Arial" font-size="10.000000" stroke="none"><tspan x="0" y="9">state</tspan></text><g transform="matrix(1 0 0 -1 242 164)"><path fill="#FFFFFF" stroke="none" fill-rule="nonzero" d="M0 0L71 0 71 -11 0 -11 0 0" /></g><text transform="matrix(1 0 0 1 242 164)" font-family="Arial" font-size="10.000000" stroke="none"><tspan x="0" y="9">«place2Type»</tspan></text><g transform="matrix(1 0 0 -1 161 166)"><path fill="#FFFFFF" stroke="none" fill-rule="nonzero" d="M0 0L6 0 6 -11 0 -11 0 0" /></g><text transform="matrix(1 0 0 1 161 166)" font-family="Arial" font-size="10.000000" stroke="none"><tspan x="0" y="9">1</tspan></text><path fill="none" d="M458 182L458 253" /><path fill="none" d="M458 253L452 238" /><path fill="none" d="M458 253L464 238" /><g transform="matrix(1 0 0 -1 466 187)"><path fill="#FFFFFF" stroke="none" fill-rule="nonzero" d="M0 0L17 0 17 -11 0 -11 0 0" /></g><text transform="matrix(1 0 0 1 466 187)" font-family="Arial" font-size="10.000000" stroke="none"><tspan x="0" y="9">0..*</tspan></text><g transform="matrix(1 0 0 -1 443 204)"><path fill="#FFFFFF" stroke="none" fill-rule="nonzero" d="M0 0L31 0 31 -11 0 -11 0 0" /></g><text transform="matrix(1 0 0 1 443 204)" font-family="Arial" font-size="10.000000" stroke="none"><tspan x="0" y="9">region</tspan></text><g transform="matrix(1 0 0 -1 424 221)"><path fill="#FFFFFF" stroke="none" fill-rule="nonzero" d="M0 0L71 0 71 -11 0 -11 0 0" /></g><text transform="matrix(1 0 0 1 424 221)" font-family="Arial" font-size="10.000000" stroke="none"><tspan x="0" y="9">«place1Type»</tspan></text><g transform="matrix(1 0 0 -1 466 235)"><path fill="#FFFFFF" stroke="none" fill-rule="nonzero" d="M0 0L6 0 6 -11 0 -11 0 0" /></g><text transform="matrix(1 0 0 1 466 235)" font-family="Arial" font-size="10.000000" stroke="none"><tspan x="0" y="9">1</tspan></text><path fill="none" d="M455 349L455 297" /><path fill="none" d="M455 297L461 312" /><path fill="none" d="M455 297L449 312" /><g transform="matrix(1 0 0 -1 458 332)"><path fill="#FFFFFF" stroke="none" fill-rule="nonzero" d="M0 0L17 0 17 -11 0 -11 0 0" /></g><text transform="matrix(1 0 0 1 458 332)" font-family="Arial" font-size="10.000000" stroke="none"><tspan x="0" y="9">0..*</tspan></text><g transform="matrix(1 0 0 -1 440 309)"><path fill="#FFFFFF" stroke="none" fill-rule="nonzero" d="M0 0L31 0 31 -11 0 -11 0 0" /></g><text transform="matrix(1 0 0 1 440 309)" font-family="Arial" font-size="10.000000" stroke="none"><tspan x="0" y="9">region</tspan></text><g transform="matrix(1 0 0 -1 421 326)"><path fill="#FFFFFF" stroke="none" fill-rule="nonzero" d="M0 0L71 0 71 -11 0 -11 0 0" /></g><text transform="matrix(1 0 0 1 421 326)" font-family="Arial" font-size="10.000000" stroke="none"><tspan x="0" y="9">«place2Type»</tspan></text><g transform="matrix(1 0 0 -1 467 302)"><path fill="#FFFFFF" stroke="none" fill-rule="nonzero" d="M0 0L6 0 6 -11 0 -11 0 0" /></g><text transform="matrix(1 0 0 1 467 302)" font-family="Arial" font-size="10.000000" stroke="none"><tspan x="0" y="9">1</tspan></text><path fill="none" d="M517 368L631 368" /><path fill="none" d="M631 368L616 374" /><path fill="none" d="M631 368L616 362" /><g transform="matrix(1 0 0 -1 520 373)"><path fill="#FFFFFF" stroke="none" fill-rule="nonzero" d="M0 0L17 0 17 -11 0 -11 0 0" /></g><text transform="matrix(1 0 0 1 520 373)" font-family="Arial" font-size="10.000000" stroke="none"><tspan x="0" y="9">0..*</tspan></text><g transform="matrix(1 0 0 -1 543 354)"><path fill="#FFFFFF" stroke="none" fill-rule="nonzero" d="M0 0L66 0 66 -11 0 -11 0 0" /></g><text transform="matrix(1 0 0 1 543 354)" font-family="Arial" font-size="10.000000" stroke="none"><tspan x="0" y="9">stateMachine</tspan></text><g transform="matrix(1 0 0 -1 540 371)"><path fill="#FFFFFF" stroke="none" fill-rule="nonzero" d="M0 0L71 0 71 -11 0 -11 0 0" /></g><text transform="matrix(1 0 0 1 540 371)" font-family="Arial" font-size="10.000000" stroke="none"><tspan x="0" y="9">«place1Type»</tspan></text><g transform="matrix(1 0 0 -1 622 373)"><path fill="#FFFFFF" stroke="none" fill-rule="nonzero" d="M0 0L6 0 6 -11 0 -11 0 0" /></g><text transform="matrix(1 0 0 1 622 373)" font-family="Arial" font-size="10.000000" stroke="none"><tspan x="0" y="9">1</tspan></text><path fill="none" d="M517 434L631 434" /><path fill="none" d="M631 434L616 440" /><path fill="none" d="M631 434L616 428" /><g transform="matrix(1 0 0 -1 520 439)"><path fill="#FFFFFF" stroke="none" fill-rule="nonzero" d="M0 0L6 0 6 -11 0 -11 0 0" /></g><text transform="matrix(1 0 0 1 520 439)" font-family="Arial" font-size="10.000000" stroke="none"><tspan x="0" y="9">1</tspan></text><g transform="matrix(1 0 0 -1 543 420)"><path fill="#FFFFFF" stroke="none" fill-rule="nonzero" d="M0 0L66 0 66 -11 0 -11 0 0" /></g><text transform="matrix(1 0 0 1 543 420)" font-family="Arial" font-size="10.000000" stroke="none"><tspan x="0" y="9">stateMachine</tspan></text><g transform="matrix(1 0 0 -1 540 437)"><path fill="#FFFFFF" stroke="none" fill-rule="nonzero" d="M0 0L71 0 71 -11 0 -11 0 0" /></g><text transform="matrix(1 0 0 1 540 437)" font-family="Arial" font-size="10.000000" stroke="none"><tspan x="0" y="9">«place2Type»</tspan></text><g transform="matrix(1 0 0 -1 622 439)"><path fill="#FFFFFF" stroke="none" fill-rule="nonzero" d="M0 0L6 0 6 -11 0 -11 0 0" /></g><text transform="matrix(1 0 0 1 622 439)" font-family="Arial" font-size="10.000000" stroke="none"><tspan x="0" y="9">1</tspan></text><path fill="none" d="M394 433L162 433" /><path fill="none" d="M162 433L177 427" /><path fill="none" d="M162 433L177 439" /><g transform="matrix(1 0 0 -1 266 419)"><path fill="#FFFFFF" stroke="none" fill-rule="nonzero" d="M0 0L25 0 25 -11 0 -11 0 0" /></g><text transform="matrix(1 0 0 1 266 419)" font-family="Arial" font-size="10.000000" stroke="none"><tspan x="0" y="9">node</tspan></text><g transform="matrix(1 0 0 -1 244 436)"><path fill="#FFFFFF" stroke="none" fill-rule="nonzero" d="M0 0L71 0 71 -11 0 -11 0 0" /></g><text transform="matrix(1 0 0 1 244 436)" font-family="Arial" font-size="10.000000" stroke="none"><tspan x="0" y="9">«place1Type»</tspan></text><path stroke="#0000FF" fill="none" d="M96 255L96 183" /><path stroke="#0000FF" fill="#FCF2E3" d="M102 199L90 199L96 183L102 199" /><g transform="matrix(1 0 0 -1 41 222)"><path fill="#FFFFFF" stroke="none" fill-rule="nonzero" d="M0 0L115 0 115 -11 0 -11 0 0" /></g><text transform="matrix(1 0 0 1 41 222)" font-family="Arial" font-size="10.000000" stroke="none"><tspan x="0" y="9">«IDEAS:superSubtype»</tspan></text><path fill="none" d="M394 75L158 75" /><path fill="none" d="M158 75L173 69" /><path fill="none" d="M158 75L173 81" /><g transform="matrix(1 0 0 -1 375 80)"><path fill="#FFFFFF" stroke="none" fill-rule="nonzero" d="M0 0L17 0 17 -11 0 -11 0 0" /></g><text transform="matrix(1 0 0 1 375 80)" font-family="Arial" font-size="10.000000" stroke="none"><tspan x="0" y="9">0..*</tspan></text><g transform="matrix(1 0 0 -1 254 61)"><path fill="#FFFFFF" stroke="none" fill-rule="nonzero" d="M0 0L46 0 46 -11 0 -11 0 0" /></g><text transform="matrix(1 0 0 1 254 61)" font-family="Arial" font-size="10.000000" stroke="none"><tspan x="0" y="9">postState</tspan></text><g transform="matrix(1 0 0 -1 242 78)"><path fill="#FFFFFF" stroke="none" fill-rule="nonzero" d="M0 0L71 0 71 -11 0 -11 0 0" /></g><text transform="matrix(1 0 0 1 242 78)" font-family="Arial" font-size="10.000000" stroke="none"><tspan x="0" y="9">«place2Type»</tspan></text><g transform="matrix(1 0 0 -1 161 80)"><path fill="#FFFFFF" stroke="none" fill-rule="nonzero" d="M0 0L6 0 6 -11 0 -11 0 0" /></g><text transform="matrix(1 0 0 1 161 80)" font-family="Arial" font-size="10.000000" stroke="none"><tspan x="0" y="9">1</tspan></text><path fill="none" d="M394 38L158 38" /><path fill="none" d="M158 38L173 32" /><path fill="none" d="M158 38L173 44" /><g transform="matrix(1 0 0 -1 375 43)"><path fill="#FFFFFF" stroke="none" fill-rule="nonzero" d="M0 0L17 0 17 -11 0 -11 0 0" /></g><text transform="matrix(1 0 0 1 375 43)" font-family="Arial" font-size="10.000000" stroke="none"><tspan x="0" y="9">0..*</tspan></text><g transform="matrix(1 0 0 -1 256 24)"><path fill="#FFFFFF" stroke="none" fill-rule="nonzero" d="M0 0L42 0 42 -11 0 -11 0 0" /></g><text transform="matrix(1 0 0 1 256 24)" font-family="Arial" font-size="10.000000" stroke="none"><tspan x="0" y="9">preState</tspan></text><g transform="matrix(1 0 0 -1 242 41)"><path fill="#FFFFFF" stroke="none" fill-rule="nonzero" d="M0 0L71 0 71 -11 0 -11 0 0" /></g><text transform="matrix(1 0 0 1 242 41)" font-family="Arial" font-size="10.000000" stroke="none"><tspan x="0" y="9">«place1Type»</tspan></text><g transform="matrix(1 0 0 -1 161 43)"><path fill="#FFFFFF" stroke="none" fill-rule="nonzero" d="M0 0L6 0 6 -11 0 -11 0 0" /></g><text transform="matrix(1 0 0 1 161 43)" font-family="Arial" font-size="10.000000" stroke="none"><tspan x="0" y="9">1</tspan></text></g></g></g></g></svg>