<?xml version="1.0" encoding="utf-8"?><svg version="1.1" preserveAspectRatio="xMidYMid" xml:space="preserve" width="512.69525pt" height="656.42364pt" viewBox="12.155750000000001 23.93096 512.69525 656.42364" xmlns="http://www.w3.org/2000/svg" xmlns:svg="http://www.w3.org/2000/svg" xmlns:xlink="http://www.w3.org/1999/xlink"><g transform="matrix(1 0 0 -1 0 816)"><g stroke="#000000" fill="#000000" fill-rule="nonzero" stroke-width="1" stroke-linecap="round" stroke-linejoin="miter" stroke-miterlimit="10" alphaIsShape="0" letter-spacing="normal" word-spacing="normal" font-family="Helvetica" font-size="10" font-weight="normal" font-style="normal" baseline-shift="0"><g transform="matrix(0.600000 0 0 0.600000 0 816.450012)"><g transform="matrix(1.199747 0 0 -1.199295 0 0)"><path fill="#C0BFC0" stroke="none" fill-rule="nonzero" d="M32 48L187 48 187 207 32 207 32 48" /><path stroke="none" fill="#99CCFF" stroke-width="3" fill-rule="nonzero" d="M29 45L184 45 184 204 29 204 29 45" /><path stroke="#800080" fill="none" stroke-width="3" d="M29 45L184 45 184 205 29 205 29 45" /><path stroke="#800080" stroke-width="3" fill="none" d="M29 45L184 45 184 204 29 204 29 45" /><text transform="matrix(1 0 0 1 82 51)" font-family="Arial" font-size="8.000000" stroke="none"><tspan x="0" y="8">«IDEAS:Type»</tspan></text><text transform="matrix(1 0 0 1 64 61)" font-family="Arial" font-size="8.000000" font-weight="bold" stroke="none"><tspan x="0" y="8">ServiceSpecification</tspan></text><path fill="#C0BFC0" stroke="none" fill-rule="nonzero" d="M396 54L518 54 518 123 396 123 396 54" /><path stroke="none" fill="#CCFFCC" fill-rule="nonzero" d="M393 51L515 51 515 120 393 120 393 51" /><path stroke="#800080" fill="none" d="M393 51L515 51 515 121 393 121 393 51" /><path stroke="#800080" fill="none" d="M393 51L515 51 515 120 393 120 393 51" /><text transform="matrix(1 0 0 1 420 57)" font-family="Arial" font-size="8.000000" stroke="none"><tspan x="0" y="8">«IDEAS:TupleType»</tspan></text><text transform="matrix(1 0 0 1 408 67)" font-family="Arial" font-size="8.000000" font-weight="bold" stroke="none"><tspan x="0" y="8">serviceGeneralisation</tspan></text><path fill="#C0BFC0" stroke="none" fill-rule="nonzero" d="M314 169L452 169 452 210 314 210 314 169" /><path stroke="none" fill="#99CCFF" fill-rule="nonzero" d="M311 166L449 166 449 207 311 207 311 166" /><path stroke="#800080" fill="none" d="M311 166L449 166 449 208 311 208 311 166" /><path stroke="#800080" fill="none" d="M311 166L449 166 449 207 311 207 311 166" /><text transform="matrix(1 0 0 1 356 172)" font-family="Arial" font-size="8.000000" stroke="none"><tspan x="0" y="8">«IDEAS:Type»</tspan></text><text transform="matrix(1 0 0 1 342 182)" font-family="Arial" font-size="8.000000" font-weight="bold" stroke="none"><tspan x="0" y="8">AttributeOfService</tspan></text><path fill="#C0BFC0" stroke="none" fill-rule="nonzero" d="M591 169L718 169 718 210 591 210 591 169" /><path fill="#99CCFF" stroke="none" fill-rule="nonzero" d="M588 166L715 166 715 207 588 207 588 166" /><path fill="none" d="M588 166L715 166 715 208 588 208 588 166" /><path fill="none" d="M588 166L715 166 715 207 588 207 588 166" /><text transform="matrix(1 0 0 1 627 172)" font-family="Arial" font-size="8.000000" stroke="none"><tspan x="0" y="8">«IDEAS:Type»</tspan></text><text transform="matrix(1 0 0 1 616 182)" font-family="Arial" font-size="8.000000" font-weight="bold" stroke="none"><tspan x="0" y="8">MeasureCategory</tspan></text><path fill="#C0BFC0" stroke="none" fill-rule="nonzero" d="M31 375L718 375 718 413 31 413 31 375" /><path fill="#99CCFF" stroke="none" fill-rule="nonzero" d="M28 372L715 372 715 410 28 410 28 372" /><path fill="none" d="M28 372L715 372 715 411 28 411 28 372" /><path fill="none" d="M28 372L715 372 715 410 28 410 28 372" /><text transform="matrix(1 0 0 1 347 378)" font-family="Arial" font-size="8.000000" stroke="none"><tspan x="0" y="8">«IDEAS:Type»</tspan></text><text transform="matrix(1 0 0 1 354 388)" font-family="Arial" font-size="8.000000" font-weight="bold" stroke="none"><tspan x="0" y="8">Measure</tspan></text><path fill="#C0BFC0" stroke="none" fill-rule="nonzero" d="M522 580L652 580 652 619 522 619 522 580" /><path fill="#99CCFF" stroke="none" fill-rule="nonzero" d="M519 577L649 577 649 616 519 616 519 577" /><path fill="none" d="M519 577L649 577 649 617 519 617 519 577" /><path fill="none" d="M519 577L649 577 649 616 519 616 519 577" /><text transform="matrix(1 0 0 1 560 583)" font-family="Arial" font-size="8.000000" stroke="none"><tspan x="0" y="8">«IDEAS:Type»</tspan></text><text transform="matrix(1 0 0 1 553 593)" font-family="Arial" font-size="8.000000" font-weight="bold" stroke="none"><tspan x="0" y="8">MeasureRange</tspan></text><path fill="#C0BFC0" stroke="none" fill-rule="nonzero" d="M434 477L585 477 585 516 434 516 434 477" /><path fill="#CCFFCC" stroke="none" fill-rule="nonzero" d="M431 474L582 474 582 513 431 513 431 474" /><path fill="none" d="M431 474L582 474 582 514 431 514 431 474" /><path fill="none" d="M431 474L582 474 582 513 431 513 431 474" /><text transform="matrix(1 0 0 1 473 480)" font-family="Arial" font-size="8.000000" stroke="none"><tspan x="0" y="8">«IDEAS:TupleType»</tspan></text><text transform="matrix(1 0 0 1 447 490)" font-family="Arial" font-size="8.000000" font-weight="bold" stroke="none"><tspan x="0" y="8">upperBoundOfMeasureRange</tspan></text><path fill="#C0BFC0" stroke="none" fill-rule="nonzero" d="M434 682L588 682 588 719 434 719 434 682" /><path fill="#CCFFCC" stroke="none" fill-rule="nonzero" d="M431 679L585 679 585 716 431 716 431 679" /><path fill="none" d="M431 679L585 679 585 717 431 717 431 679" /><path fill="none" d="M431 679L585 679 585 716 431 716 431 679" /><text transform="matrix(1 0 0 1 474 685)" font-family="Arial" font-size="8.000000" stroke="none"><tspan x="0" y="8">«IDEAS:TupleType»</tspan></text><text transform="matrix(1 0 0 1 448 695)" font-family="Arial" font-size="8.000000" font-weight="bold" stroke="none"><tspan x="0" y="8">lowerBoundOfMeasureRange</tspan></text><path fill="#C0BFC0" stroke="none" fill-rule="nonzero" d="M349 580L469 580 469 615 349 615 349 580" /><path fill="#99CCFF" stroke="none" fill-rule="nonzero" d="M346 577L466 577 466 612 346 612 346 577" /><path fill="none" d="M346 577L466 577 466 613 346 613 346 577" /><path fill="none" d="M346 577L466 577 466 612 346 612 346 577" /><text transform="matrix(1 0 0 1 382 583)" font-family="Arial" font-size="8.000000" stroke="none"><tspan x="0" y="8">«IDEAS:Type»</tspan></text><text transform="matrix(1 0 0 1 378 593)" font-family="Arial" font-size="8.000000" font-weight="bold" stroke="none"><tspan x="0" y="8">MeasurePoint</tspan></text><path fill="#C0BFC0" stroke="none" fill-rule="nonzero" d="M604 272L718 272 718 313 604 313 604 272" /><path fill="#CCFFCC" stroke="none" fill-rule="nonzero" d="M601 269L715 269 715 310 601 310 601 269" /><path fill="none" d="M601 269L715 269 715 311 601 311 601 269" /><path fill="none" d="M601 269L715 269 715 310 601 310 601 269" /><text transform="matrix(1 0 0 1 624 275)" font-family="Arial" font-size="8.000000" stroke="none"><tspan x="0" y="8">«IDEAS:TupleType»</tspan></text><text transform="matrix(1 0 0 1 614 285)" font-family="Arial" font-size="8.000000" font-weight="bold" stroke="none"><tspan x="0" y="8">measureTypeInstance</tspan></text><path fill="#C0BFC0" stroke="none" fill-rule="nonzero" d="M72 897L174 897 174 935 72 935 72 897" /><path stroke="none" fill="#99CCFF" stroke-width="3" fill-rule="nonzero" d="M69 894L171 894 171 932 69 932 69 894" /><path stroke="#FFFF00" fill="none" stroke-width="3" d="M69 894L171 894 171 933 69 933 69 894" /><path stroke="#FFFF00" stroke-width="3" fill="none" d="M69 894L171 894 171 932 69 932 69 894" /><text transform="matrix(1 0 0 1 96 900)" font-family="Arial" font-size="8.000000" stroke="none"><tspan x="0" y="8">«IDEAS:Type»</tspan></text><text transform="matrix(1 0 0 1 97 910)" font-family="Arial" font-size="8.000000" font-weight="bold" stroke="none"><tspan x="0" y="8">TerrainType</tspan></text><path fill="#C0BFC0" stroke="none" fill-rule="nonzero" d="M196 897L299 897 299 935 196 935 196 897" /><path stroke="none" fill="#99CCFF" stroke-width="3" fill-rule="nonzero" d="M193 894L296 894 296 932 193 932 193 894" /><path stroke="#FFFF00" fill="none" stroke-width="3" d="M193 894L296 894 296 933 193 933 193 894" /><path stroke="#FFFF00" stroke-width="3" fill="none" d="M193 894L296 894 296 932 193 932 193 894" /><text transform="matrix(1 0 0 1 220 900)" font-family="Arial" font-size="8.000000" stroke="none"><tspan x="0" y="8">«IDEAS:Type»</tspan></text><text transform="matrix(1 0 0 1 206 910)" font-family="Arial" font-size="8.000000" font-weight="bold" stroke="none"><tspan x="0" y="8">WeatherConditions</tspan></text><path fill="#C0BFC0" stroke="none" fill-rule="nonzero" d="M321 897L422 897 422 935 321 935 321 897" /><path stroke="none" fill="#99CCFF" stroke-width="3" fill-rule="nonzero" d="M318 894L419 894 419 932 318 932 318 894" /><path stroke="#FFFF00" fill="none" stroke-width="3" d="M318 894L419 894 419 933 318 933 318 894" /><path stroke="#FFFF00" stroke-width="3" fill="none" d="M318 894L419 894 419 932 318 932 318 894" /><text transform="matrix(1 0 0 1 344 900)" font-family="Arial" font-size="8.000000" stroke="none"><tspan x="0" y="8">«IDEAS:Type»</tspan></text><text transform="matrix(1 0 0 1 337 910)" font-family="Arial" font-size="8.000000" font-weight="bold" stroke="none"><tspan x="0" y="8">LightConditions</tspan></text><path fill="#C0BFC0" stroke="none" fill-rule="nonzero" d="M444 897L554 897 554 935 444 935 444 897" /><path stroke="none" fill="#99CCFF" stroke-width="3" fill-rule="nonzero" d="M441 894L551 894 551 932 441 932 441 894" /><path stroke="#FFFF00" fill="none" stroke-width="3" d="M441 894L551 894 551 933 441 933 441 894" /><path stroke="#FFFF00" stroke-width="3" fill="none" d="M441 894L551 894 551 932 441 932 441 894" /><text transform="matrix(1 0 0 1 472 900)" font-family="Arial" font-size="8.000000" stroke="none"><tspan x="0" y="8">«IDEAS:Type»</tspan></text><text transform="matrix(1 0 0 1 458 910)" font-family="Arial" font-size="8.000000" font-weight="bold" stroke="none"><tspan x="0" y="8">CBRNEnvironment</tspan></text><path fill="#C0BFC0" stroke="none" fill-rule="nonzero" d="M86 682L221 682 221 721 86 721 86 682" /><path stroke="none" fill="#CCFFCC" fill-rule="nonzero" d="M83 679L218 679 218 718 83 718 83 679" /><path stroke="#FFFF00" fill="none" d="M83 679L218 679 218 719 83 719 83 679" /><path stroke="#FFFF00" fill="none" d="M83 679L218 679 218 718 83 718 83 679" /><text transform="matrix(1 0 0 1 117 685)" font-family="Arial" font-size="8.000000" stroke="none"><tspan x="0" y="8">«IDEAS:TupleType»</tspan></text><text transform="matrix(1 0 0 1 106 695)" font-family="Arial" font-size="8.000000" font-weight="bold" stroke="none"><tspan x="0" y="8">environmentalContext</tspan></text><path fill="#C0BFC0" stroke="none" fill-rule="nonzero" d="M70 580L294 580 294 620 70 620 70 580" /><path stroke="none" fill="#99CCFF" stroke-width="3" fill-rule="nonzero" d="M67 577L291 577 291 617 67 617 67 577" /><path stroke="#FFFF00" fill="none" stroke-width="3" d="M67 577L291 577 291 618 67 618 67 577" /><path stroke="#FFFF00" stroke-width="3" fill="none" d="M67 577L291 577 291 617 67 617 67 577" /><text transform="matrix(1 0 0 1 155 583)" font-family="Arial" font-size="8.000000" stroke="none"><tspan x="0" y="8">«IDEAS:Type»</tspan></text><text transform="matrix(1 0 0 1 142 593)" font-family="Arial" font-size="8.000000" font-weight="bold" stroke="none"><tspan x="0" y="8">MeasureInContext</tspan></text><path fill="#C0BFC0" stroke="none" fill-rule="nonzero" d="M167 477L269 477 269 514 167 514 167 477" /><path stroke="none" fill="#CCFFCC" fill-rule="nonzero" d="M164 474L266 474 266 511 164 511 164 474" /><path stroke="#FFFF00" fill="none" d="M164 474L266 474 266 512 164 512 164 474" /><path stroke="#FFFF00" fill="none" d="M164 474L266 474 266 511 164 511 164 474" /><text transform="matrix(1 0 0 1 181 480)" font-family="Arial" font-size="8.000000" stroke="none"><tspan x="0" y="8">«IDEAS:TupleType»</tspan></text><text transform="matrix(1 0 0 1 180 490)" font-family="Arial" font-size="8.000000" font-weight="bold" stroke="none"><tspan x="0" y="8">qualifiedMeasure</tspan></text><path fill="#C0BFC0" stroke="none" fill-rule="nonzero" d="M576 897L695 897 695 935 576 935 576 897" /><path stroke="none" fill="#99CCFF" stroke-width="3" fill-rule="nonzero" d="M573 894L692 894 692 932 573 932 573 894" /><path stroke="#FFFF00" fill="none" stroke-width="3" d="M573 894L692 894 692 933 573 933 573 894" /><path stroke="#FFFF00" stroke-width="3" fill="none" d="M573 894L692 894 692 932 573 932 573 894" /><text transform="matrix(1 0 0 1 608 900)" font-family="Arial" font-size="8.000000" stroke="none"><tspan x="0" y="8">«IDEAS:Type»</tspan></text><text transform="matrix(1 0 0 1 606 910)" font-family="Arial" font-size="8.000000" font-weight="bold" stroke="none"><tspan x="0" y="8">SituationType</tspan></text><path fill="#C0BFC0" stroke="none" fill-rule="nonzero" d="M31 272L154 272 154 313 31 313 31 272" /><path stroke="none" fill="#CCFFCC" fill-rule="nonzero" d="M28 269L151 269 151 310 28 310 28 269" /><path stroke="#800080" fill="none" d="M28 269L151 269 151 311 28 311 28 269" /><path stroke="#800080" fill="none" d="M28 269L151 269 151 310 28 310 28 269" /><text transform="matrix(1 0 0 1 56 275)" font-family="Arial" font-size="8.000000" stroke="none"><tspan x="0" y="8">«IDEAS:TupleType»</tspan></text><text transform="matrix(1 0 0 1 61 285)" font-family="Arial" font-size="8.000000" font-weight="bold" stroke="none"><tspan x="0" y="8">servicePolicy</tspan></text><path fill="#C0BFC0" stroke="none" fill-rule="nonzero" d="M75 794L691 794 691 831 75 831 75 794" /><path stroke="none" fill="#99CCFF" stroke-width="3" fill-rule="nonzero" d="M72 791L688 791 688 828 72 828 72 791" /><path stroke="#FFFF00" fill="none" stroke-width="3" d="M72 791L688 791 688 829 72 829 72 791" /><path stroke="#FFFF00" stroke-width="3" fill="none" d="M72 791L688 791 688 828 72 828 72 791" /><text transform="matrix(1 0 0 1 356 797)" font-family="Arial" font-size="8.000000" stroke="none"><tspan x="0" y="8">«IDEAS:Type»</tspan></text><text transform="matrix(1 0 0 1 337 807)" font-family="Arial" font-size="8.000000" font-weight="bold" stroke="none"><tspan x="0" y="8">EnvironmentalFactor</tspan></text><path stroke="#0000FF" fill="none" d="M99 892L99 831" /><path stroke="#0000FF" fill="#FCF2E3" d="M105 847L93 847L99 831L105 847" /><g transform="matrix(1 0 0 -1 60 865)"><path fill="#FFFFFF" stroke="none" fill-rule="nonzero" d="M0 0L92 0 92 -9 0 -9 0 0" /></g><text transform="matrix(1 0 0 1 60 865)" font-family="Arial" font-size="8.000000" stroke="none"><tspan x="0" y="8">«IDEAS:superSubtype»</tspan></text><path fill="none" d="M393 102L187 102" /><path fill="none" d="M187 102L202 96" /><path fill="none" d="M187 102L202 108" /><g transform="matrix(1 0 0 -1 277 91)"><path fill="#FFFFFF" stroke="none" fill-rule="nonzero" d="M0 0L29 0 29 -9 0 -9 0 0" /></g><text transform="matrix(1 0 0 1 277 91)" font-family="Arial" font-size="8.000000" stroke="none"><tspan x="0" y="8">specific</tspan></text><g transform="matrix(1 0 0 -1 267 104)"><path fill="#FFFFFF" stroke="none" fill-rule="nonzero" d="M0 0L57 0 57 -9 0 -9 0 0" /></g><text transform="matrix(1 0 0 1 267 104)" font-family="Arial" font-size="8.000000" stroke="none"><tspan x="0" y="8">«place2Type»</tspan></text><path fill="none" d="M450 187L588 187" /><path fill="none" d="M588 187L573 193" /><path fill="none" d="M588 187L573 181" /><g transform="matrix(1 0 0 -1 453 192)"><path fill="#FFFFFF" stroke="none" fill-rule="nonzero" d="M0 0L13 0 13 -9 0 -9 0 0" /></g><text transform="matrix(1 0 0 1 453 192)" font-family="Arial" font-size="8.000000" stroke="none"><tspan x="0" y="8">0..*</tspan></text><g transform="matrix(1 0 0 -1 506 176)"><path fill="#FFFFFF" stroke="none" fill-rule="nonzero" d="M0 0L33 0 33 -9 0 -9 0 0" /></g><text transform="matrix(1 0 0 1 506 176)" font-family="Arial" font-size="8.000000" stroke="none"><tspan x="0" y="8">attribute</tspan></text><g transform="matrix(1 0 0 -1 496 189)"><path fill="#FFFFFF" stroke="none" fill-rule="nonzero" d="M0 0L57 0 57 -9 0 -9 0 0" /></g><text transform="matrix(1 0 0 1 496 189)" font-family="Arial" font-size="8.000000" stroke="none"><tspan x="0" y="8">«place1Type»</tspan></text><g transform="matrix(1 0 0 -1 581 192)"><path fill="#FFFFFF" stroke="none" fill-rule="nonzero" d="M0 0L5 0 5 -9 0 -9 0 0" /></g><text transform="matrix(1 0 0 1 581 192)" font-family="Arial" font-size="8.000000" stroke="none"><tspan x="0" y="8">1</tspan></text><path fill="none" d="M311 186L187 186" /><path fill="none" d="M187 186L202 180" /><path fill="none" d="M187 186L202 192" /><g transform="matrix(1 0 0 -1 297 191)"><path fill="#FFFFFF" stroke="none" fill-rule="nonzero" d="M0 0L13 0 13 -9 0 -9 0 0" /></g><text transform="matrix(1 0 0 1 297 191)" font-family="Arial" font-size="8.000000" stroke="none"><tspan x="0" y="8">0..*</tspan></text><g transform="matrix(1 0 0 -1 237 175)"><path fill="#FFFFFF" stroke="none" fill-rule="nonzero" d="M0 0L27 0 27 -9 0 -9 0 0" /></g><text transform="matrix(1 0 0 1 237 175)" font-family="Arial" font-size="8.000000" stroke="none"><tspan x="0" y="8">service</tspan></text><g transform="matrix(1 0 0 -1 226 188)"><path fill="#FFFFFF" stroke="none" fill-rule="nonzero" d="M0 0L57 0 57 -9 0 -9 0 0" /></g><text transform="matrix(1 0 0 1 226 188)" font-family="Arial" font-size="8.000000" stroke="none"><tspan x="0" y="8">«place2Type»</tspan></text><g transform="matrix(1 0 0 -1 190 191)"><path fill="#FFFFFF" stroke="none" fill-rule="nonzero" d="M0 0L5 0 5 -9 0 -9 0 0" /></g><text transform="matrix(1 0 0 1 190 191)" font-family="Arial" font-size="8.000000" stroke="none"><tspan x="0" y="8">1</tspan></text><path stroke="#0000FF" fill="none" d="M629 577L629 411" /><path stroke="#0000FF" fill="#FCF2E3" d="M635 427L623 427L629 411L635 427" /><g transform="matrix(1 0 0 -1 591 444)"><path fill="#FFFFFF" stroke="none" fill-rule="nonzero" d="M0 0L92 0 92 -9 0 -9 0 0" /></g><text transform="matrix(1 0 0 1 591 444)" font-family="Arial" font-size="8.000000" stroke="none"><tspan x="0" y="8">«IDEAS:superSubtype»</tspan></text><path fill="none" d="M551 514L551 577" /><path fill="none" d="M551 577L545 562" /><path fill="none" d="M551 577L557 562" /><g transform="matrix(1 0 0 -1 541 535)"><path fill="#FFFFFF" stroke="none" fill-rule="nonzero" d="M0 0L23 0 23 -9 0 -9 0 0" /></g><text transform="matrix(1 0 0 1 541 535)" font-family="Arial" font-size="8.000000" stroke="none"><tspan x="0" y="8">range</tspan></text><g transform="matrix(1 0 0 -1 528 548)"><path fill="#FFFFFF" stroke="none" fill-rule="nonzero" d="M0 0L57 0 57 -9 0 -9 0 0" /></g><text transform="matrix(1 0 0 1 528 548)" font-family="Arial" font-size="8.000000" stroke="none"><tspan x="0" y="8">«place1Type»</tspan></text><path fill="none" d="M449 514L449 577" /><path fill="none" d="M449 577L443 562" /><path fill="none" d="M449 577L455 562" /><g transform="matrix(1 0 0 -1 429 535)"><path fill="#FFFFFF" stroke="none" fill-rule="nonzero" d="M0 0L48 0 48 -9 0 -9 0 0" /></g><text transform="matrix(1 0 0 1 429 535)" font-family="Arial" font-size="8.000000" stroke="none"><tspan x="0" y="8">upperBound</tspan></text><g transform="matrix(1 0 0 -1 426 548)"><path fill="#FFFFFF" stroke="none" fill-rule="nonzero" d="M0 0L57 0 57 -9 0 -9 0 0" /></g><text transform="matrix(1 0 0 1 426 548)" font-family="Arial" font-size="8.000000" stroke="none"><tspan x="0" y="8">«place2Type»</tspan></text><path fill="none" d="M552 679L552 617" /><path fill="none" d="M552 617L558 632" /><path fill="none" d="M552 617L546 632" /><g transform="matrix(1 0 0 -1 542 637)"><path fill="#FFFFFF" stroke="none" fill-rule="nonzero" d="M0 0L23 0 23 -9 0 -9 0 0" /></g><text transform="matrix(1 0 0 1 542 637)" font-family="Arial" font-size="8.000000" stroke="none"><tspan x="0" y="8">range</tspan></text><g transform="matrix(1 0 0 -1 529 650)"><path fill="#FFFFFF" stroke="none" fill-rule="nonzero" d="M0 0L57 0 57 -9 0 -9 0 0" /></g><text transform="matrix(1 0 0 1 529 650)" font-family="Arial" font-size="8.000000" stroke="none"><tspan x="0" y="8">«place1Type»</tspan></text><path fill="none" d="M446 679L446 613" /><path fill="none" d="M446 613L452 628" /><path fill="none" d="M446 613L440 628" /><g transform="matrix(1 0 0 -1 427 635)"><path fill="#FFFFFF" stroke="none" fill-rule="nonzero" d="M0 0L47 0 47 -9 0 -9 0 0" /></g><text transform="matrix(1 0 0 1 427 635)" font-family="Arial" font-size="8.000000" stroke="none"><tspan x="0" y="8">lowerBound</tspan></text><g transform="matrix(1 0 0 -1 423 648)"><path fill="#FFFFFF" stroke="none" fill-rule="nonzero" d="M0 0L57 0 57 -9 0 -9 0 0" /></g><text transform="matrix(1 0 0 1 423 648)" font-family="Arial" font-size="8.000000" stroke="none"><tspan x="0" y="8">«place2Type»</tspan></text><path stroke="#0000FF" fill="none" d="M373 577L373 411" /><path stroke="#0000FF" fill="#FCF2E3" d="M379 427L367 427L373 411L379 427" /><g transform="matrix(1 0 0 -1 337 443)"><path fill="#FFFFFF" stroke="none" fill-rule="nonzero" d="M0 0L92 0 92 -9 0 -9 0 0" /></g><text transform="matrix(1 0 0 1 337 443)" font-family="Arial" font-size="8.000000" stroke="none"><tspan x="0" y="8">«IDEAS:superSubtype»</tspan></text><path fill="none" d="M393 62L187 62" /><path fill="none" d="M187 62L202 56" /><path fill="none" d="M187 62L202 68" /><g transform="matrix(1 0 0 -1 277 51)"><path fill="#FFFFFF" stroke="none" fill-rule="nonzero" d="M0 0L30 0 30 -9 0 -9 0 0" /></g><text transform="matrix(1 0 0 1 277 51)" font-family="Arial" font-size="8.000000" stroke="none"><tspan x="0" y="8">general</tspan></text><g transform="matrix(1 0 0 -1 267 64)"><path fill="#FFFFFF" stroke="none" fill-rule="nonzero" d="M0 0L57 0 57 -9 0 -9 0 0" /></g><text transform="matrix(1 0 0 1 267 64)" font-family="Arial" font-size="8.000000" stroke="none"><tspan x="0" y="8">«place1Type»</tspan></text><path fill="none" d="M658 311L658 372" /><path fill="none" d="M658 372L652 357" /><path fill="none" d="M658 372L664 357" /><g transform="matrix(1 0 0 -1 644 331)"><path fill="#FFFFFF" stroke="none" fill-rule="nonzero" d="M0 0L33 0 33 -9 0 -9 0 0" /></g><text transform="matrix(1 0 0 1 644 331)" font-family="Arial" font-size="8.000000" stroke="none"><tspan x="0" y="8">instance</tspan></text><g transform="matrix(1 0 0 -1 635 343)"><path fill="#FFFFFF" stroke="none" fill-rule="nonzero" d="M0 0L57 0 57 -9 0 -9 0 0" /></g><text transform="matrix(1 0 0 1 635 343)" font-family="Arial" font-size="8.000000" stroke="none"><tspan x="0" y="8">«place2Type»</tspan></text><path fill="none" d="M90 269L90 207" /><path fill="none" d="M90 207L96 222" /><path fill="none" d="M90 207L84 222" /><g transform="matrix(1 0 0 -1 93 255)"><path fill="#FFFFFF" stroke="none" fill-rule="nonzero" d="M0 0L13 0 13 -9 0 -9 0 0" /></g><text transform="matrix(1 0 0 1 93 255)" font-family="Arial" font-size="8.000000" stroke="none"><tspan x="0" y="8">0..*</tspan></text><g transform="matrix(1 0 0 -1 78 227)"><path fill="#FFFFFF" stroke="none" fill-rule="nonzero" d="M0 0L27 0 27 -9 0 -9 0 0" /></g><text transform="matrix(1 0 0 1 78 227)" font-family="Arial" font-size="8.000000" stroke="none"><tspan x="0" y="8">service</tspan></text><g transform="matrix(1 0 0 -1 67 240)"><path fill="#FFFFFF" stroke="none" fill-rule="nonzero" d="M0 0L57 0 57 -9 0 -9 0 0" /></g><text transform="matrix(1 0 0 1 67 240)" font-family="Arial" font-size="8.000000" stroke="none"><tspan x="0" y="8">«place2Type»</tspan></text><g transform="matrix(1 0 0 -1 102 212)"><path fill="#FFFFFF" stroke="none" fill-rule="nonzero" d="M0 0L5 0 5 -9 0 -9 0 0" /></g><text transform="matrix(1 0 0 1 102 212)" font-family="Arial" font-size="8.000000" stroke="none"><tspan x="0" y="8">1</tspan></text><path stroke="#0000FF" fill="none" d="M227 892L227 831" /><path stroke="#0000FF" fill="#FCF2E3" d="M233 847L221 847L227 831L233 847" /><g transform="matrix(1 0 0 -1 186 851)"><path fill="#FFFFFF" stroke="none" fill-rule="nonzero" d="M0 0L92 0 92 -9 0 -9 0 0" /></g><text transform="matrix(1 0 0 1 186 851)" font-family="Arial" font-size="8.000000" stroke="none"><tspan x="0" y="8">«IDEAS:superSubtype»</tspan></text><path stroke="#0000FF" fill="none" d="M349 892L349 831" /><path stroke="#0000FF" fill="#FCF2E3" d="M355 847L343 847L349 831L355 847" /><g transform="matrix(1 0 0 -1 310 864)"><path fill="#FFFFFF" stroke="none" fill-rule="nonzero" d="M0 0L92 0 92 -9 0 -9 0 0" /></g><text transform="matrix(1 0 0 1 310 864)" font-family="Arial" font-size="8.000000" stroke="none"><tspan x="0" y="8">«IDEAS:superSubtype»</tspan></text><path stroke="#0000FF" fill="none" d="M494 892L494 831" /><path stroke="#0000FF" fill="#FCF2E3" d="M500 847L488 847L494 831L500 847" /><g transform="matrix(1 0 0 -1 446 850)"><path fill="#FFFFFF" stroke="none" fill-rule="nonzero" d="M0 0L92 0 92 -9 0 -9 0 0" /></g><text transform="matrix(1 0 0 1 446 850)" font-family="Arial" font-size="8.000000" stroke="none"><tspan x="0" y="8">«IDEAS:superSubtype»</tspan></text><path fill="none" d="M151 719L151 789" /><path fill="none" d="M151 789L145 774" /><path fill="none" d="M151 789L157 774" /><g transform="matrix(1 0 0 -1 159 724)"><path fill="#FFFFFF" stroke="none" fill-rule="nonzero" d="M0 0L13 0 13 -9 0 -9 0 0" /></g><text transform="matrix(1 0 0 1 159 724)" font-family="Arial" font-size="8.000000" stroke="none"><tspan x="0" y="8">0..*</tspan></text><g transform="matrix(1 0 0 -1 140 743)"><path fill="#FFFFFF" stroke="none" fill-rule="nonzero" d="M0 0L28 0 28 -9 0 -9 0 0" /></g><text transform="matrix(1 0 0 1 140 743)" font-family="Arial" font-size="8.000000" stroke="none"><tspan x="0" y="8">context</tspan></text><g transform="matrix(1 0 0 -1 128 756)"><path fill="#FFFFFF" stroke="none" fill-rule="nonzero" d="M0 0L57 0 57 -9 0 -9 0 0" /></g><text transform="matrix(1 0 0 1 128 756)" font-family="Arial" font-size="8.000000" stroke="none"><tspan x="0" y="8">«place2Type»</tspan></text><g transform="matrix(1 0 0 -1 159 774)"><path fill="#FFFFFF" stroke="none" fill-rule="nonzero" d="M0 0L5 0 5 -9 0 -9 0 0" /></g><text transform="matrix(1 0 0 1 159 774)" font-family="Arial" font-size="8.000000" stroke="none"><tspan x="0" y="8">1</tspan></text><path fill="none" d="M151 679L151 620" /><path fill="none" d="M151 620L157 635" /><path fill="none" d="M151 620L145 635" /><g transform="matrix(1 0 0 -1 154 665)"><path fill="#FFFFFF" stroke="none" fill-rule="nonzero" d="M0 0L13 0 13 -9 0 -9 0 0" /></g><text transform="matrix(1 0 0 1 154 665)" font-family="Arial" font-size="8.000000" stroke="none"><tspan x="0" y="8">1..*</tspan></text><g transform="matrix(1 0 0 -1 137 639)"><path fill="#FFFFFF" stroke="none" fill-rule="nonzero" d="M0 0L33 0 33 -9 0 -9 0 0" /></g><text transform="matrix(1 0 0 1 137 639)" font-family="Arial" font-size="8.000000" stroke="none"><tspan x="0" y="8">measure</tspan></text><g transform="matrix(1 0 0 -1 128 652)"><path fill="#FFFFFF" stroke="none" fill-rule="nonzero" d="M0 0L57 0 57 -9 0 -9 0 0" /></g><text transform="matrix(1 0 0 1 128 652)" font-family="Arial" font-size="8.000000" stroke="none"><tspan x="0" y="8">«place1Type»</tspan></text><g transform="matrix(1 0 0 -1 163 625)"><path fill="#FFFFFF" stroke="none" fill-rule="nonzero" d="M0 0L5 0 5 -9 0 -9 0 0" /></g><text transform="matrix(1 0 0 1 163 625)" font-family="Arial" font-size="8.000000" stroke="none"><tspan x="0" y="8">1</tspan></text><path stroke="#0000FF" fill="none" d="M115 575L115 411" /><path stroke="#0000FF" fill="#FCF2E3" d="M121 427L109 427L115 411L121 427" /><g transform="matrix(1 0 0 -1 65 496)"><path fill="#FFFFFF" stroke="none" fill-rule="nonzero" d="M0 0L92 0 92 -9 0 -9 0 0" /></g><text transform="matrix(1 0 0 1 65 496)" font-family="Arial" font-size="8.000000" stroke="none"><tspan x="0" y="8">«IDEAS:superSubtype»</tspan></text><path fill="none" d="M228 474L228 411" /><path fill="none" d="M228 411L234 426" /><path fill="none" d="M228 411L222 426" /><g transform="matrix(1 0 0 -1 231 460)"><path fill="#FFFFFF" stroke="none" fill-rule="nonzero" d="M0 0L13 0 13 -9 0 -9 0 0" /></g><text transform="matrix(1 0 0 1 231 460)" font-family="Arial" font-size="8.000000" stroke="none"><tspan x="0" y="8">0..*</tspan></text><g transform="matrix(1 0 0 -1 214 432)"><path fill="#FFFFFF" stroke="none" fill-rule="nonzero" d="M0 0L33 0 33 -9 0 -9 0 0" /></g><text transform="matrix(1 0 0 1 214 432)" font-family="Arial" font-size="8.000000" stroke="none"><tspan x="0" y="8">measure</tspan></text><g transform="matrix(1 0 0 -1 205 445)"><path fill="#FFFFFF" stroke="none" fill-rule="nonzero" d="M0 0L57 0 57 -9 0 -9 0 0" /></g><text transform="matrix(1 0 0 1 205 445)" font-family="Arial" font-size="8.000000" stroke="none"><tspan x="0" y="8">«place1Type»</tspan></text><g transform="matrix(1 0 0 -1 240 416)"><path fill="#FFFFFF" stroke="none" fill-rule="nonzero" d="M0 0L5 0 5 -9 0 -9 0 0" /></g><text transform="matrix(1 0 0 1 240 416)" font-family="Arial" font-size="8.000000" stroke="none"><tspan x="0" y="8">1</tspan></text><path fill="none" d="M215 512L215 575" /><path fill="none" d="M215 575L209 560" /><path fill="none" d="M215 575L221 560" /><g transform="matrix(1 0 0 -1 223 517)"><path fill="#FFFFFF" stroke="none" fill-rule="nonzero" d="M0 0L5 0 5 -9 0 -9 0 0" /></g><text transform="matrix(1 0 0 1 223 517)" font-family="Arial" font-size="8.000000" stroke="none"><tspan x="0" y="8">1</tspan></text><g transform="matrix(1 0 0 -1 185 533)"><path fill="#FFFFFF" stroke="none" fill-rule="nonzero" d="M0 0L71 0 71 -9 0 -9 0 0" /></g><text transform="matrix(1 0 0 1 185 533)" font-family="Arial" font-size="8.000000" stroke="none"><tspan x="0" y="8">measureInContext</tspan></text><g transform="matrix(1 0 0 -1 192 546)"><path fill="#FFFFFF" stroke="none" fill-rule="nonzero" d="M0 0L57 0 57 -9 0 -9 0 0" /></g><text transform="matrix(1 0 0 1 192 546)" font-family="Arial" font-size="8.000000" stroke="none"><tspan x="0" y="8">«place2Type»</tspan></text><g transform="matrix(1 0 0 -1 223 560)"><path fill="#FFFFFF" stroke="none" fill-rule="nonzero" d="M0 0L5 0 5 -9 0 -9 0 0" /></g><text transform="matrix(1 0 0 1 223 560)" font-family="Arial" font-size="8.000000" stroke="none"><tspan x="0" y="8">1</tspan></text><path stroke="#0000FF" fill="none" d="M631 892L631 831" /><path stroke="#0000FF" fill="#FCF2E3" d="M637 847L625 847L631 831L637 847" /><g transform="matrix(1 0 0 -1 586 861)"><path fill="#FFFFFF" stroke="none" fill-rule="nonzero" d="M0 0L92 0 92 -9 0 -9 0 0" /></g><text transform="matrix(1 0 0 1 586 861)" font-family="Arial" font-size="8.000000" stroke="none"><tspan x="0" y="8">«IDEAS:superSubtype»</tspan></text><path fill="none" d="M90 311L90 372" /><path fill="none" d="M90 372L84 357" /><path fill="none" d="M90 372L96 357" /><g transform="matrix(1 0 0 -1 98 316)"><path fill="#FFFFFF" stroke="none" fill-rule="nonzero" d="M0 0L13 0 13 -9 0 -9 0 0" /></g><text transform="matrix(1 0 0 1 98 316)" font-family="Arial" font-size="8.000000" stroke="none"><tspan x="0" y="8">0..*</tspan></text><g transform="matrix(1 0 0 -1 81 331)"><path fill="#FFFFFF" stroke="none" fill-rule="nonzero" d="M0 0L23 0 23 -9 0 -9 0 0" /></g><text transform="matrix(1 0 0 1 81 331)" font-family="Arial" font-size="8.000000" stroke="none"><tspan x="0" y="8">policy</tspan></text><g transform="matrix(1 0 0 -1 67 344)"><path fill="#FFFFFF" stroke="none" fill-rule="nonzero" d="M0 0L57 0 57 -9 0 -9 0 0" /></g><text transform="matrix(1 0 0 1 67 344)" font-family="Arial" font-size="8.000000" stroke="none"><tspan x="0" y="8">«place1Type»</tspan></text><g transform="matrix(1 0 0 -1 98 357)"><path fill="#FFFFFF" stroke="none" fill-rule="nonzero" d="M0 0L5 0 5 -9 0 -9 0 0" /></g><text transform="matrix(1 0 0 1 98 357)" font-family="Arial" font-size="8.000000" stroke="none"><tspan x="0" y="8">1</tspan></text><path fill="none" d="M658 269L658 208" /><path fill="none" d="M658 208L664 223" /><path fill="none" d="M658 208L652 223" /><g transform="matrix(1 0 0 -1 655 230)"><path fill="#FFFFFF" stroke="none" fill-rule="nonzero" d="M0 0L17 0 17 -9 0 -9 0 0" /></g><text transform="matrix(1 0 0 1 655 230)" font-family="Arial" font-size="8.000000" stroke="none"><tspan x="0" y="8">type</tspan></text><g transform="matrix(1 0 0 -1 635 248)"><path fill="#FFFFFF" stroke="none" fill-rule="nonzero" d="M0 0L57 0 57 -9 0 -9 0 0" /></g><text transform="matrix(1 0 0 1 635 248)" font-family="Arial" font-size="8.000000" stroke="none"><tspan x="0" y="8">«place1Type»</tspan></text></g></g></g></g></svg>