<?xml version="1.0" encoding="utf-8"?><svg version="1.1" preserveAspectRatio="xMidYMid" xml:space="preserve" width="777.5994800000001pt" height="401.69336pt" viewBox="5.67712 2.3436400000000006 777.5994800000001 401.69336" xmlns="http://www.w3.org/2000/svg" xmlns:svg="http://www.w3.org/2000/svg" xmlns:xlink="http://www.w3.org/1999/xlink"><g transform="matrix(1 0 0 -1 0 816)"><g stroke="#000000" fill="#000000" fill-rule="nonzero" stroke-width="1" stroke-linecap="round" stroke-linejoin="miter" stroke-miterlimit="10" alphaIsShape="0" letter-spacing="normal" word-spacing="normal" font-family="Helvetica" font-size="10" font-weight="normal" font-style="normal" baseline-shift="0"><g transform="matrix(0.600000 0 0 0.600000 0 816.450012)"><g transform="matrix(1.199747 0 0 -1.199295 0 0)"><path fill="#C0BFC0" stroke="none" fill-rule="nonzero" d="M30 268L183 268 183 309 30 309 30 268" /><path stroke="none" fill="#99CCFF" stroke-width="3" fill-rule="nonzero" d="M27 265L180 265 180 306 27 306 27 265" /><path stroke="#7F7F7F" fill="none" stroke-width="3" d="M27 265L180 265 180 307 27 307 27 265" /><path stroke="#7F7F7F" stroke-width="3" fill="none" d="M27 265L180 265 180 306 27 306 27 265" /><text transform="matrix(1 0 0 1 79 271)" font-family="Arial" font-size="8.000000" stroke="none"><tspan x="0" y="8">«IDEAS:Type»</tspan></text><text transform="matrix(1 0 0 1 59 281)" font-family="Arial" font-size="8.000000" font-weight="bold" stroke="none"><tspan x="0" y="8">InterfaceSpecification</tspan></text><path fill="#C0BFC0" stroke="none" fill-rule="nonzero" d="M593 162L786 162 786 198 593 198 593 162" /><path stroke="none" fill="#99CCFF" stroke-width="3" fill-rule="nonzero" d="M590 159L783 159 783 195 590 195 590 159" /><path stroke="#800080" fill="none" stroke-width="3" d="M590 159L783 159 783 196 590 196 590 159" /><path stroke="#800080" stroke-width="3" fill="none" d="M590 159L783 159 783 195 590 195 590 159" /><text transform="matrix(1 0 0 1 662 165)" font-family="Arial" font-size="8.000000" stroke="none"><tspan x="0" y="8">«IDEAS:Type»</tspan></text><text transform="matrix(1 0 0 1 644 175)" font-family="Arial" font-size="8.000000" font-weight="bold" stroke="none"><tspan x="0" y="8">ServiceSpecification</tspan></text><path fill="#C0BFC0" stroke="none" fill-rule="nonzero" d="M387 160L488 160 488 198 387 198 387 160" /><path stroke="none" fill="#99CCFF" fill-rule="nonzero" d="M384 157L485 157 485 195 384 195 384 157" /><path stroke="#800080" fill="none" d="M384 157L485 157 485 196 384 196 384 157" /><path stroke="#800080" fill="none" d="M384 157L485 157 485 195 384 195 384 157" /><text transform="matrix(1 0 0 1 410 163)" font-family="Arial" font-size="8.000000" stroke="none"><tspan x="0" y="8">«IDEAS:Type»</tspan></text><text transform="matrix(1 0 0 1 401 173)" font-family="Arial" font-size="8.000000" font-weight="bold" stroke="none"><tspan x="0" y="8">ServiceInterface</tspan></text><path fill="#C0BFC0" stroke="none" fill-rule="nonzero" d="M658 271L924 271 924 461 658 461 658 271" /><path stroke="none" fill="#C0C0C0" stroke-width="3" fill-rule="nonzero" d="M655 268L921 268 921 458 655 458 655 268" /><path stroke="#7F7F7F" fill="none" stroke-width="3" d="M655 268L921 268 921 459 655 459 655 268" /><path stroke="#7F7F7F" stroke-width="3" fill="none" d="M655 268L921 268 921 458 655 458 655 268" /><text transform="matrix(1 0 0 1 764 274)" font-family="Arial" font-size="8.000000" stroke="none"><tspan x="0" y="8">«IDEAS:Type»</tspan></text><text transform="matrix(1 0 0 1 742 284)" font-family="Arial" font-size="8.000000" font-weight="bold" font-style="italic" stroke="none"><tspan x="0" y="8">OperationSpecification</tspan></text><path fill="#C0BFC0" stroke="none" fill-rule="nonzero" d="M388 268L544 268 544 308 388 308 388 268" /><path stroke="none" fill="#99CCFF" fill-rule="nonzero" d="M385 265L541 265 541 305 385 305 385 265" /><path stroke="#7F7F7F" fill="none" d="M385 265L541 265 541 306 385 306 385 265" /><path stroke="#7F7F7F" fill="none" d="M385 265L541 265 541 305 385 305 385 265" /><text transform="matrix(1 0 0 1 439 271)" font-family="Arial" font-size="8.000000" stroke="none"><tspan x="0" y="8">«IDEAS:Type»</tspan></text><text transform="matrix(1 0 0 1 425 281)" font-family="Arial" font-size="8.000000" font-weight="bold" stroke="none"><tspan x="0" y="8">InterfaceOperation</tspan></text><path fill="#C0BFC0" stroke="none" fill-rule="nonzero" d="M32 323L183 323 183 473 32 473 32 323" /><path stroke="none" fill="#99CCFF" stroke-width="3" fill-rule="nonzero" d="M29 320L180 320 180 470 29 470 29 320" /><path stroke="#7F7F7F" fill="none" stroke-width="3" d="M29 320L180 320 180 471 29 471 29 320" /><path stroke="#7F7F7F" stroke-width="3" fill="none" d="M29 320L180 320 180 470 29 470 29 320" /><text transform="matrix(1 0 0 1 80 326)" font-family="Arial" font-size="8.000000" stroke="none"><tspan x="0" y="8">«IDEAS:Type»</tspan></text><text transform="matrix(1 0 0 1 63 336)" font-family="Arial" font-size="8.000000" font-weight="bold" stroke="none"><tspan x="0" y="8">OperationParameter</tspan></text><path fill="#C0BFC0" stroke="none" fill-rule="nonzero" d="M388 320L544 320 544 358 388 358 388 320" /><path stroke="none" fill="#99CCFF" fill-rule="nonzero" d="M385 317L541 317 541 355 385 355 385 317" /><path stroke="#7F7F7F" fill="none" d="M385 317L541 317 541 356 385 356 385 317" /><path stroke="#7F7F7F" fill="none" d="M385 317L541 317 541 355 385 355 385 317" /><text transform="matrix(1 0 0 1 439 323)" font-family="Arial" font-size="8.000000" stroke="none"><tspan x="0" y="8">«IDEAS:Type»</tspan></text><text transform="matrix(1 0 0 1 412 333)" font-family="Arial" font-size="8.000000" font-weight="bold" stroke="none"><tspan x="0" y="8">OperationInputParameter</tspan></text><path fill="#C0BFC0" stroke="none" fill-rule="nonzero" d="M388 370L544 370 544 410 388 410 388 370" /><path stroke="none" fill="#99CCFF" fill-rule="nonzero" d="M385 367L541 367 541 407 385 407 385 367" /><path stroke="#7F7F7F" fill="none" d="M385 367L541 367 541 408 385 408 385 367" /><path stroke="#7F7F7F" fill="none" d="M385 367L541 367 541 407 385 407 385 367" /><text transform="matrix(1 0 0 1 439 373)" font-family="Arial" font-size="8.000000" stroke="none"><tspan x="0" y="8">«IDEAS:Type»</tspan></text><text transform="matrix(1 0 0 1 409 383)" font-family="Arial" font-size="8.000000" font-weight="bold" stroke="none"><tspan x="0" y="8">OperationReturnParameter</tspan></text><path fill="#C0BFC0" stroke="none" fill-rule="nonzero" d="M934 18L1077 18 1077 55 934 55 934 18" /><path stroke="none" fill="#C0C0C0" stroke-width="3" fill-rule="nonzero" d="M931 15L1074 15 1074 52 931 52 931 15" /><path stroke="#7F7F7F" fill="none" stroke-width="3" d="M931 15L1074 15 1074 53 931 53 931 15" /><path stroke="#7F7F7F" stroke-width="3" fill="none" d="M931 15L1074 15 1074 52 931 52 931 15" /><text transform="matrix(1 0 0 1 978 21)" font-family="Arial" font-size="8.000000" stroke="none"><tspan x="0" y="8">«IDEAS:Type»</tspan></text><text transform="matrix(1 0 0 1 977 31)" font-family="Arial" font-size="8.000000" font-weight="bold" stroke="none"><tspan x="0" y="8">DataElement</tspan></text><path fill="#C0BFC0" stroke="none" fill-rule="nonzero" d="M782 20L917 20 917 59 782 59 782 20" /><path stroke="none" fill="#99CCFF" fill-rule="nonzero" d="M779 17L914 17 914 56 779 56 779 17" /><path stroke="#7F7F7F" fill="none" d="M779 17L914 17 914 57 779 57 779 17" /><path stroke="#7F7F7F" fill="none" d="M779 17L914 17 914 56 779 56 779 17" /><text transform="matrix(1 0 0 1 813 23)" font-family="Arial" font-size="8.000000" stroke="none"><tspan x="0" y="8">«IDEAS:TupleType»</tspan></text><text transform="matrix(1 0 0 1 793 33)" font-family="Arial" font-size="8.000000" font-weight="bold" stroke="none"><tspan x="0" y="8">SupportedMessageFormat</tspan></text><path fill="#C0BFC0" stroke="none" fill-rule="nonzero" d="M115 157L248 157 248 197 115 197 115 157" /><path stroke="none" fill="#99CCFF" stroke-width="3" fill-rule="nonzero" d="M112 154L245 154 245 194 112 194 112 154" /><path stroke="#7F7F7F" fill="none" stroke-width="3" d="M112 154L245 154 245 195 112 195 112 154" /><path stroke="#7F7F7F" stroke-width="3" fill="none" d="M112 154L245 154 245 194 112 194 112 154" /><text transform="matrix(1 0 0 1 154 160)" font-family="Arial" font-size="8.000000" stroke="none"><tspan x="0" y="8">«IDEAS:Type»</tspan></text><text transform="matrix(1 0 0 1 142 170)" font-family="Arial" font-size="8.000000" font-weight="bold" stroke="none"><tspan x="0" y="8">RequiredInterface</tspan></text><path fill="#C0BFC0" stroke="none" fill-rule="nonzero" d="M207 218L341 218 341 256 207 256 207 218" /><path stroke="none" fill="#99CCFF" stroke-width="3" fill-rule="nonzero" d="M204 215L338 215 338 253 204 253 204 215" /><path stroke="#7F7F7F" fill="none" stroke-width="3" d="M204 215L338 215 338 254 204 254 204 215" /><path stroke="#7F7F7F" stroke-width="3" fill="none" d="M204 215L338 215 338 253 204 253 204 215" /><text transform="matrix(1 0 0 1 247 221)" font-family="Arial" font-size="8.000000" stroke="none"><tspan x="0" y="8">«IDEAS:Type»</tspan></text><text transform="matrix(1 0 0 1 235 231)" font-family="Arial" font-size="8.000000" font-weight="bold" stroke="none"><tspan x="0" y="8">ProvidedInterface</tspan></text><path fill="#C0BFC0" stroke="none" fill-rule="nonzero" d="M209 26L588 26 588 62 209 62 209 26" /><path stroke="none" fill="#C0C0C0" stroke-width="3" fill-rule="nonzero" d="M206 23L585 23 585 59 206 59 206 23" /><path stroke="#7F7F7F" fill="none" stroke-width="3" d="M206 23L585 23 585 60 206 60 206 23" /><path stroke="#7F7F7F" stroke-width="3" fill="none" d="M206 23L585 23 585 59 206 59 206 23" /><text transform="matrix(1 0 0 1 371 29)" font-family="Arial" font-size="8.000000" stroke="none"><tspan x="0" y="8">«IDEAS:Type»</tspan></text><text transform="matrix(1 0 0 1 378 39)" font-family="Arial" font-size="8.000000" font-weight="bold" font-style="italic" stroke="none"><tspan x="0" y="8">Interface</tspan></text><path fill="#C0BFC0" stroke="none" fill-rule="nonzero" d="M22 21L131 21 131 60 22 60 22 21" /><path stroke="none" fill="#CCFFCC" fill-rule="nonzero" d="M19 18L128 18 128 57 19 57 19 18" /><path stroke="#7F7F7F" fill="none" d="M19 18L128 18 128 58 19 58 19 18" /><path stroke="#7F7F7F" fill="none" d="M19 18L128 18 128 57 19 57 19 18" /><text transform="matrix(1 0 0 1 40 24)" font-family="Arial" font-size="8.000000" stroke="none"><tspan x="0" y="8">«IDEAS:TupleType»</tspan></text><text transform="matrix(1 0 0 1 39 34)" font-family="Arial" font-size="8.000000" font-weight="bold" stroke="none"><tspan x="0" y="8">specForInterface</tspan></text><path fill="#C0BFC0" stroke="none" fill-rule="nonzero" d="M827 161L982 161 982 199 827 199 827 161" /><path stroke="none" fill="#99CCFF" stroke-width="3" fill-rule="nonzero" d="M824 158L979 158 979 196 824 196 824 158" /><path stroke="#7F7F7F" fill="none" stroke-width="3" d="M824 158L979 158 979 197 824 197 824 158" /><path stroke="#7F7F7F" stroke-width="3" fill="none" d="M824 158L979 158 979 196 824 196 824 158" /><text transform="matrix(1 0 0 1 877 164)" font-family="Arial" font-size="8.000000" stroke="none"><tspan x="0" y="8">«IDEAS:Type»</tspan></text><text transform="matrix(1 0 0 1 856 174)" font-family="Arial" font-size="8.000000" font-weight="bold" stroke="none"><tspan x="0" y="8">MessageSpecification</tspan></text><path fill="#C0BFC0" stroke="none" fill-rule="nonzero" d="M388 422L544 422 544 462 388 462 388 422" /><path stroke="none" fill="#99CCFF" fill-rule="nonzero" d="M385 419L541 419 541 459 385 459 385 419" /><path stroke="#7F7F7F" fill="none" d="M385 419L541 419 541 460 385 460 385 419" /><path stroke="#7F7F7F" fill="none" d="M385 419L541 419 541 459 385 459 385 419" /><text transform="matrix(1 0 0 1 439 425)" font-family="Arial" font-size="8.000000" stroke="none"><tspan x="0" y="8">«IDEAS:Type»</tspan></text><text transform="matrix(1 0 0 1 401 435)" font-family="Arial" font-size="8.000000" font-weight="bold" stroke="none"><tspan x="0" y="8">OperationReadWriteParameter</tspan></text><path fill="#C0BFC0" stroke="none" fill-rule="nonzero" d="M655 511L774 511 774 551 655 551 655 511" /><path stroke="none" fill="#99CCFF" stroke-width="3" fill-rule="nonzero" d="M652 508L771 508 771 548 652 548 652 508" /><path stroke="#7F7F7F" fill="none" stroke-width="3" d="M652 508L771 508 771 549 652 549 652 508" /><path stroke="#7F7F7F" stroke-width="3" fill="none" d="M652 508L771 508 771 548 652 548 652 508" /><text transform="matrix(1 0 0 1 687 514)" font-family="Arial" font-size="8.000000" stroke="none"><tspan x="0" y="8">«IDEAS:Type»</tspan></text><text transform="matrix(1 0 0 1 665 524)" font-family="Arial" font-size="8.000000" font-weight="bold" stroke="none"><tspan x="0" y="8">SynchronousOperation</tspan></text><path fill="#C0BFC0" stroke="none" fill-rule="nonzero" d="M796 511L934 511 934 549 796 549 796 511" /><path stroke="none" fill="#99CCFF" stroke-width="3" fill-rule="nonzero" d="M793 508L931 508 931 546 793 546 793 508" /><path stroke="#7F7F7F" fill="none" stroke-width="3" d="M793 508L931 508 931 547 793 547 793 508" /><path stroke="#7F7F7F" stroke-width="3" fill="none" d="M793 508L931 508 931 546 793 546 793 508" /><text transform="matrix(1 0 0 1 838 514)" font-family="Arial" font-size="8.000000" stroke="none"><tspan x="0" y="8">«IDEAS:Type»</tspan></text><text transform="matrix(1 0 0 1 813 524)" font-family="Arial" font-size="8.000000" font-weight="bold" stroke="none"><tspan x="0" y="8">AsynchronousOperation</tspan></text><path stroke="#0000FF" fill="none" d="M221 152L221 62" /><path stroke="#0000FF" fill="#FCF2E3" d="M227 78L215 78L221 62L227 78" /><g transform="matrix(1 0 0 -1 182 109)"><path fill="#FFFFFF" stroke="none" fill-rule="nonzero" d="M0 0L92 0 92 -9 0 -9 0 0" /></g><text transform="matrix(1 0 0 1 182 109)" font-family="Arial" font-size="8.000000" stroke="none"><tspan x="0" y="8">«IDEAS:superSubtype»</tspan></text><path fill="none" d="M434 157L434 62" /><path fill="none" d="M434 62L440 77" /><path fill="none" d="M434 62L428 77" /><g transform="matrix(1 0 0 -1 405 99)"><path fill="#FFFFFF" stroke="none" fill-rule="nonzero" d="M0 0L67 0 67 -9 0 -9 0 0" /></g><text transform="matrix(1 0 0 1 405 99)" font-family="Arial" font-size="8.000000" stroke="none"><tspan x="0" y="8">requiredInterface</tspan></text><g transform="matrix(1 0 0 -1 411 112)"><path fill="#FFFFFF" stroke="none" fill-rule="nonzero" d="M0 0L57 0 57 -9 0 -9 0 0" /></g><text transform="matrix(1 0 0 1 411 112)" font-family="Arial" font-size="8.000000" stroke="none"><tspan x="0" y="8">«place2Type»</tspan></text><path fill="none" d="M542 286L653 286" /><path fill="none" d="M653 286L638 292" /><path fill="none" d="M653 286L638 280" /><g transform="matrix(1 0 0 -1 545 291)"><path fill="#FFFFFF" stroke="none" fill-rule="nonzero" d="M0 0L13 0 13 -9 0 -9 0 0" /></g><text transform="matrix(1 0 0 1 545 291)" font-family="Arial" font-size="8.000000" stroke="none"><tspan x="0" y="8">0..*</tspan></text><g transform="matrix(1 0 0 -1 583 275)"><path fill="#FFFFFF" stroke="none" fill-rule="nonzero" d="M0 0L38 0 38 -9 0 -9 0 0" /></g><text transform="matrix(1 0 0 1 583 275)" font-family="Arial" font-size="8.000000" stroke="none"><tspan x="0" y="8">operation</tspan></text><g transform="matrix(1 0 0 -1 575 288)"><path fill="#FFFFFF" stroke="none" fill-rule="nonzero" d="M0 0L57 0 57 -9 0 -9 0 0" /></g><text transform="matrix(1 0 0 1 575 288)" font-family="Arial" font-size="8.000000" stroke="none"><tspan x="0" y="8">«place2Type»</tspan></text><g transform="matrix(1 0 0 -1 646 291)"><path fill="#FFFFFF" stroke="none" fill-rule="nonzero" d="M0 0L5 0 5 -9 0 -9 0 0" /></g><text transform="matrix(1 0 0 1 646 291)" font-family="Arial" font-size="8.000000" stroke="none"><tspan x="0" y="8">1</tspan></text><path fill="none" d="M385 285L183 285" /><path fill="none" d="M183 285L198 279" /><path fill="none" d="M183 285L198 291" /><g transform="matrix(1 0 0 -1 371 290)"><path fill="#FFFFFF" stroke="none" fill-rule="nonzero" d="M0 0L13 0 13 -9 0 -9 0 0" /></g><text transform="matrix(1 0 0 1 371 290)" font-family="Arial" font-size="8.000000" stroke="none"><tspan x="0" y="8">0..*</tspan></text><g transform="matrix(1 0 0 -1 270 274)"><path fill="#FFFFFF" stroke="none" fill-rule="nonzero" d="M0 0L34 0 34 -9 0 -9 0 0" /></g><text transform="matrix(1 0 0 1 270 274)" font-family="Arial" font-size="8.000000" stroke="none"><tspan x="0" y="8">interface</tspan></text><g transform="matrix(1 0 0 -1 261 287)"><path fill="#FFFFFF" stroke="none" fill-rule="nonzero" d="M0 0L57 0 57 -9 0 -9 0 0" /></g><text transform="matrix(1 0 0 1 261 287)" font-family="Arial" font-size="8.000000" stroke="none"><tspan x="0" y="8">«place1Type»</tspan></text><g transform="matrix(1 0 0 -1 186 290)"><path fill="#FFFFFF" stroke="none" fill-rule="nonzero" d="M0 0L5 0 5 -9 0 -9 0 0" /></g><text transform="matrix(1 0 0 1 186 290)" font-family="Arial" font-size="8.000000" stroke="none"><tspan x="0" y="8">1</tspan></text><path fill="none" d="M385 337L183 337" /><path fill="none" d="M183 337L198 331" /><path fill="none" d="M183 337L198 343" /><g transform="matrix(1 0 0 -1 371 342)"><path fill="#FFFFFF" stroke="none" fill-rule="nonzero" d="M0 0L13 0 13 -9 0 -9 0 0" /></g><text transform="matrix(1 0 0 1 371 342)" font-family="Arial" font-size="8.000000" stroke="none"><tspan x="0" y="8">0..*</tspan></text><g transform="matrix(1 0 0 -1 267 326)"><path fill="#FFFFFF" stroke="none" fill-rule="nonzero" d="M0 0L40 0 40 -9 0 -9 0 0" /></g><text transform="matrix(1 0 0 1 267 326)" font-family="Arial" font-size="8.000000" stroke="none"><tspan x="0" y="8">parameter</tspan></text><g transform="matrix(1 0 0 -1 261 339)"><path fill="#FFFFFF" stroke="none" fill-rule="nonzero" d="M0 0L57 0 57 -9 0 -9 0 0" /></g><text transform="matrix(1 0 0 1 261 339)" font-family="Arial" font-size="8.000000" stroke="none"><tspan x="0" y="8">«place2Type»</tspan></text><g transform="matrix(1 0 0 -1 186 342)"><path fill="#FFFFFF" stroke="none" fill-rule="nonzero" d="M0 0L5 0 5 -9 0 -9 0 0" /></g><text transform="matrix(1 0 0 1 186 342)" font-family="Arial" font-size="8.000000" stroke="none"><tspan x="0" y="8">1</tspan></text><path fill="none" d="M542 336L653 336" /><path fill="none" d="M653 336L638 342" /><path fill="none" d="M653 336L638 330" /><g transform="matrix(1 0 0 -1 545 341)"><path fill="#FFFFFF" stroke="none" fill-rule="nonzero" d="M0 0L13 0 13 -9 0 -9 0 0" /></g><text transform="matrix(1 0 0 1 545 341)" font-family="Arial" font-size="8.000000" stroke="none"><tspan x="0" y="8">0..*</tspan></text><g transform="matrix(1 0 0 -1 583 325)"><path fill="#FFFFFF" stroke="none" fill-rule="nonzero" d="M0 0L38 0 38 -9 0 -9 0 0" /></g><text transform="matrix(1 0 0 1 583 325)" font-family="Arial" font-size="8.000000" stroke="none"><tspan x="0" y="8">operation</tspan></text><g transform="matrix(1 0 0 -1 575 338)"><path fill="#FFFFFF" stroke="none" fill-rule="nonzero" d="M0 0L57 0 57 -9 0 -9 0 0" /></g><text transform="matrix(1 0 0 1 575 338)" font-family="Arial" font-size="8.000000" stroke="none"><tspan x="0" y="8">«place1Type»</tspan></text><g transform="matrix(1 0 0 -1 646 341)"><path fill="#FFFFFF" stroke="none" fill-rule="nonzero" d="M0 0L5 0 5 -9 0 -9 0 0" /></g><text transform="matrix(1 0 0 1 646 341)" font-family="Arial" font-size="8.000000" stroke="none"><tspan x="0" y="8">1</tspan></text><path fill="none" d="M385 387L183 387" /><path fill="none" d="M183 387L198 381" /><path fill="none" d="M183 387L198 393" /><g transform="matrix(1 0 0 -1 371 392)"><path fill="#FFFFFF" stroke="none" fill-rule="nonzero" d="M0 0L13 0 13 -9 0 -9 0 0" /></g><text transform="matrix(1 0 0 1 371 392)" font-family="Arial" font-size="8.000000" stroke="none"><tspan x="0" y="8">0..*</tspan></text><g transform="matrix(1 0 0 -1 267 376)"><path fill="#FFFFFF" stroke="none" fill-rule="nonzero" d="M0 0L40 0 40 -9 0 -9 0 0" /></g><text transform="matrix(1 0 0 1 267 376)" font-family="Arial" font-size="8.000000" stroke="none"><tspan x="0" y="8">parameter</tspan></text><g transform="matrix(1 0 0 -1 261 389)"><path fill="#FFFFFF" stroke="none" fill-rule="nonzero" d="M0 0L57 0 57 -9 0 -9 0 0" /></g><text transform="matrix(1 0 0 1 261 389)" font-family="Arial" font-size="8.000000" stroke="none"><tspan x="0" y="8">«place2Type»</tspan></text><g transform="matrix(1 0 0 -1 186 392)"><path fill="#FFFFFF" stroke="none" fill-rule="nonzero" d="M0 0L5 0 5 -9 0 -9 0 0" /></g><text transform="matrix(1 0 0 1 186 392)" font-family="Arial" font-size="8.000000" stroke="none"><tspan x="0" y="8">1</tspan></text><path fill="none" d="M542 387L653 387" /><path fill="none" d="M653 387L638 393" /><path fill="none" d="M653 387L638 381" /><g transform="matrix(1 0 0 -1 545 392)"><path fill="#FFFFFF" stroke="none" fill-rule="nonzero" d="M0 0L13 0 13 -9 0 -9 0 0" /></g><text transform="matrix(1 0 0 1 545 392)" font-family="Arial" font-size="8.000000" stroke="none"><tspan x="0" y="8">0..*</tspan></text><g transform="matrix(1 0 0 -1 583 376)"><path fill="#FFFFFF" stroke="none" fill-rule="nonzero" d="M0 0L38 0 38 -9 0 -9 0 0" /></g><text transform="matrix(1 0 0 1 583 376)" font-family="Arial" font-size="8.000000" stroke="none"><tspan x="0" y="8">operation</tspan></text><g transform="matrix(1 0 0 -1 575 389)"><path fill="#FFFFFF" stroke="none" fill-rule="nonzero" d="M0 0L57 0 57 -9 0 -9 0 0" /></g><text transform="matrix(1 0 0 1 575 389)" font-family="Arial" font-size="8.000000" stroke="none"><tspan x="0" y="8">«place1Type»</tspan></text><g transform="matrix(1 0 0 -1 646 392)"><path fill="#FFFFFF" stroke="none" fill-rule="nonzero" d="M0 0L5 0 5 -9 0 -9 0 0" /></g><text transform="matrix(1 0 0 1 646 392)" font-family="Arial" font-size="8.000000" stroke="none"><tspan x="0" y="8">1</tspan></text><path fill="none" d="M486 175L588 175" /><path fill="none" d="M588 175L573 181" /><path fill="none" d="M588 175L573 169" /><g transform="matrix(1 0 0 -1 525 164)"><path fill="#FFFFFF" stroke="none" fill-rule="nonzero" d="M0 0L27 0 27 -9 0 -9 0 0" /></g><text transform="matrix(1 0 0 1 525 164)" font-family="Arial" font-size="8.000000" stroke="none"><tspan x="0" y="8">service</tspan></text><g transform="matrix(1 0 0 -1 514 177)"><path fill="#FFFFFF" stroke="none" fill-rule="nonzero" d="M0 0L57 0 57 -9 0 -9 0 0" /></g><text transform="matrix(1 0 0 1 514 177)" font-family="Arial" font-size="8.000000" stroke="none"><tspan x="0" y="8">«place1Type»</tspan></text><path fill="none" d="M868 57L868 156" /><path fill="none" d="M868 156L862 141" /><path fill="none" d="M868 156L874 141" /><g transform="matrix(1 0 0 -1 876 62)"><path fill="#FFFFFF" stroke="none" fill-rule="nonzero" d="M0 0L13 0 13 -9 0 -9 0 0" /></g><text transform="matrix(1 0 0 1 876 62)" font-family="Arial" font-size="8.000000" stroke="none"><tspan x="0" y="8">0..*</tspan></text><g transform="matrix(1 0 0 -1 841 96)"><path fill="#FFFFFF" stroke="none" fill-rule="nonzero" d="M0 0L62 0 62 -9 0 -9 0 0" /></g><text transform="matrix(1 0 0 1 841 96)" font-family="Arial" font-size="8.000000" stroke="none"><tspan x="0" y="8">messageFormat</tspan></text><g transform="matrix(1 0 0 -1 845 109)"><path fill="#FFFFFF" stroke="none" fill-rule="nonzero" d="M0 0L57 0 57 -9 0 -9 0 0" /></g><text transform="matrix(1 0 0 1 845 109)" font-family="Arial" font-size="8.000000" stroke="none"><tspan x="0" y="8">«place2Type»</tspan></text><g transform="matrix(1 0 0 -1 876 141)"><path fill="#FFFFFF" stroke="none" fill-rule="nonzero" d="M0 0L5 0 5 -9 0 -9 0 0" /></g><text transform="matrix(1 0 0 1 876 141)" font-family="Arial" font-size="8.000000" stroke="none"><tspan x="0" y="8">1</tspan></text><path stroke="#0000FF" fill="none" d="M857 506L857 461" /><path stroke="#0000FF" fill="#FCF2E3" d="M863 477L851 477L857 461L863 477" /><g transform="matrix(1 0 0 -1 818 486)"><path fill="#FFFFFF" stroke="none" fill-rule="nonzero" d="M0 0L92 0 92 -9 0 -9 0 0" /></g><text transform="matrix(1 0 0 1 818 486)" font-family="Arial" font-size="8.000000" stroke="none"><tspan x="0" y="8">«IDEAS:superSubtype»</tspan></text><path stroke="#0000FF" fill="none" d="M293 213L293 62" /><path stroke="#0000FF" fill="#FCF2E3" d="M299 78L287 78L293 62L299 78" /><g transform="matrix(1 0 0 -1 275 90)"><path fill="#FFFFFF" stroke="none" fill-rule="nonzero" d="M0 0L92 0 92 -9 0 -9 0 0" /></g><text transform="matrix(1 0 0 1 275 90)" font-family="Arial" font-size="8.000000" stroke="none"><tspan x="0" y="8">«IDEAS:superSubtype»</tspan></text><path fill="none" d="M129 39L204 39" /><path fill="none" d="M204 39L189 45" /><path fill="none" d="M204 39L189 33" /><g transform="matrix(1 0 0 -1 132 44)"><path fill="#FFFFFF" stroke="none" fill-rule="nonzero" d="M0 0L5 0 5 -9 0 -9 0 0" /></g><text transform="matrix(1 0 0 1 132 44)" font-family="Arial" font-size="8.000000" stroke="none"><tspan x="0" y="8">1</tspan></text><g transform="matrix(1 0 0 -1 152 25)"><path fill="#FFFFFF" stroke="none" fill-rule="nonzero" d="M0 0L34 0 34 -9 0 -9 0 0" /></g><text transform="matrix(1 0 0 1 152 25)" font-family="Arial" font-size="8.000000" stroke="none"><tspan x="0" y="8">interface</tspan></text><g transform="matrix(1 0 0 -1 146 46)"><path fill="#FFFFFF" stroke="none" fill-rule="nonzero" d="M0 0L57 0 57 -9 0 -9 0 0" /></g><text transform="matrix(1 0 0 1 146 46)" font-family="Arial" font-size="8.000000" stroke="none"><tspan x="0" y="8">«place2Type»</tspan></text><g transform="matrix(1 0 0 -1 197 44)"><path fill="#FFFFFF" stroke="none" fill-rule="nonzero" d="M0 0L5 0 5 -9 0 -9 0 0" /></g><text transform="matrix(1 0 0 1 197 44)" font-family="Arial" font-size="8.000000" stroke="none"><tspan x="0" y="8">1</tspan></text><path fill="none" d="M67 58L67 263" /><path fill="none" d="M67 263L61 248" /><path fill="none" d="M67 263L73 248" /><g transform="matrix(1 0 0 -1 75 63)"><path fill="#FFFFFF" stroke="none" fill-rule="nonzero" d="M0 0L13 0 13 -9 0 -9 0 0" /></g><text transform="matrix(1 0 0 1 75 63)" font-family="Arial" font-size="8.000000" stroke="none"><tspan x="0" y="8">0..*</tspan></text><g transform="matrix(1 0 0 -1 46 150)"><path fill="#FFFFFF" stroke="none" fill-rule="nonzero" d="M0 0L49 0 49 -9 0 -9 0 0" /></g><text transform="matrix(1 0 0 1 46 150)" font-family="Arial" font-size="8.000000" stroke="none"><tspan x="0" y="8">specification</tspan></text><g transform="matrix(1 0 0 -1 44 163)"><path fill="#FFFFFF" stroke="none" fill-rule="nonzero" d="M0 0L57 0 57 -9 0 -9 0 0" /></g><text transform="matrix(1 0 0 1 44 163)" font-family="Arial" font-size="8.000000" stroke="none"><tspan x="0" y="8">«place1Type»</tspan></text><g transform="matrix(1 0 0 -1 75 248)"><path fill="#FFFFFF" stroke="none" fill-rule="nonzero" d="M0 0L5 0 5 -9 0 -9 0 0" /></g><text transform="matrix(1 0 0 1 75 248)" font-family="Arial" font-size="8.000000" stroke="none"><tspan x="0" y="8">1</tspan></text><path stroke="#0000FF" fill="none" d="M951 156L951 55" /><path stroke="#0000FF" fill="#FCF2E3" d="M957 71L945 71L951 55L957 71" /><g transform="matrix(1 0 0 -1 912 108)"><path fill="#FFFFFF" stroke="none" fill-rule="nonzero" d="M0 0L92 0 92 -9 0 -9 0 0" /></g><text transform="matrix(1 0 0 1 912 108)" font-family="Arial" font-size="8.000000" stroke="none"><tspan x="0" y="8">«IDEAS:superSubtype»</tspan></text><path fill="none" d="M385 439L183 439" /><path fill="none" d="M183 439L198 433" /><path fill="none" d="M183 439L198 445" /><g transform="matrix(1 0 0 -1 371 444)"><path fill="#FFFFFF" stroke="none" fill-rule="nonzero" d="M0 0L13 0 13 -9 0 -9 0 0" /></g><text transform="matrix(1 0 0 1 371 444)" font-family="Arial" font-size="8.000000" stroke="none"><tspan x="0" y="8">0..*</tspan></text><g transform="matrix(1 0 0 -1 267 428)"><path fill="#FFFFFF" stroke="none" fill-rule="nonzero" d="M0 0L40 0 40 -9 0 -9 0 0" /></g><text transform="matrix(1 0 0 1 267 428)" font-family="Arial" font-size="8.000000" stroke="none"><tspan x="0" y="8">parameter</tspan></text><g transform="matrix(1 0 0 -1 261 441)"><path fill="#FFFFFF" stroke="none" fill-rule="nonzero" d="M0 0L57 0 57 -9 0 -9 0 0" /></g><text transform="matrix(1 0 0 1 261 441)" font-family="Arial" font-size="8.000000" stroke="none"><tspan x="0" y="8">«place2Type»</tspan></text><g transform="matrix(1 0 0 -1 186 444)"><path fill="#FFFFFF" stroke="none" fill-rule="nonzero" d="M0 0L5 0 5 -9 0 -9 0 0" /></g><text transform="matrix(1 0 0 1 186 444)" font-family="Arial" font-size="8.000000" stroke="none"><tspan x="0" y="8">1</tspan></text><path fill="none" d="M542 439L653 439" /><path fill="none" d="M653 439L638 445" /><path fill="none" d="M653 439L638 433" /><g transform="matrix(1 0 0 -1 545 444)"><path fill="#FFFFFF" stroke="none" fill-rule="nonzero" d="M0 0L13 0 13 -9 0 -9 0 0" /></g><text transform="matrix(1 0 0 1 545 444)" font-family="Arial" font-size="8.000000" stroke="none"><tspan x="0" y="8">0..*</tspan></text><g transform="matrix(1 0 0 -1 583 428)"><path fill="#FFFFFF" stroke="none" fill-rule="nonzero" d="M0 0L38 0 38 -9 0 -9 0 0" /></g><text transform="matrix(1 0 0 1 583 428)" font-family="Arial" font-size="8.000000" stroke="none"><tspan x="0" y="8">operation</tspan></text><g transform="matrix(1 0 0 -1 575 441)"><path fill="#FFFFFF" stroke="none" fill-rule="nonzero" d="M0 0L57 0 57 -9 0 -9 0 0" /></g><text transform="matrix(1 0 0 1 575 441)" font-family="Arial" font-size="8.000000" stroke="none"><tspan x="0" y="8">«place1Type»</tspan></text><g transform="matrix(1 0 0 -1 646 444)"><path fill="#FFFFFF" stroke="none" fill-rule="nonzero" d="M0 0L5 0 5 -9 0 -9 0 0" /></g><text transform="matrix(1 0 0 1 646 444)" font-family="Arial" font-size="8.000000" stroke="none"><tspan x="0" y="8">1</tspan></text><path stroke="#0000FF" fill="none" d="M713 506L713 461" /><path stroke="#0000FF" fill="#FCF2E3" d="M719 477L707 477L713 461L719 477" /><g transform="matrix(1 0 0 -1 674 486)"><path fill="#FFFFFF" stroke="none" fill-rule="nonzero" d="M0 0L92 0 92 -9 0 -9 0 0" /></g><text transform="matrix(1 0 0 1 674 486)" font-family="Arial" font-size="8.000000" stroke="none"><tspan x="0" y="8">«IDEAS:superSubtype»</tspan></text><path fill="none" d="M779 39L588 39" /><path fill="none" d="M588 39L603 33" /><path fill="none" d="M588 39L603 45" /><g transform="matrix(1 0 0 -1 765 44)"><path fill="#FFFFFF" stroke="none" fill-rule="nonzero" d="M0 0L13 0 13 -9 0 -9 0 0" /></g><text transform="matrix(1 0 0 1 765 44)" font-family="Arial" font-size="8.000000" stroke="none"><tspan x="0" y="8">0..*</tspan></text><g transform="matrix(1 0 0 -1 672 28)"><path fill="#FFFFFF" stroke="none" fill-rule="nonzero" d="M0 0L30 0 30 -9 0 -9 0 0" /></g><text transform="matrix(1 0 0 1 672 28)" font-family="Arial" font-size="8.000000" stroke="none"><tspan x="0" y="8">handler</tspan></text><g transform="matrix(1 0 0 -1 661 41)"><path fill="#FFFFFF" stroke="none" fill-rule="nonzero" d="M0 0L57 0 57 -9 0 -9 0 0" /></g><text transform="matrix(1 0 0 1 661 41)" font-family="Arial" font-size="8.000000" stroke="none"><tspan x="0" y="8">«place1Type»</tspan></text><g transform="matrix(1 0 0 -1 591 44)"><path fill="#FFFFFF" stroke="none" fill-rule="nonzero" d="M0 0L5 0 5 -9 0 -9 0 0" /></g><text transform="matrix(1 0 0 1 591 44)" font-family="Arial" font-size="8.000000" stroke="none"><tspan x="0" y="8">1</tspan></text></g></g></g></g></svg>