<?xml version="1.0" encoding="utf-8"?><svg version="1.1" preserveAspectRatio="xMidYMid" xml:space="preserve" width="774.16pt" height="268.60504pt" viewBox="7.119999999999999 13.75986 774.16 268.60504" xmlns="http://www.w3.org/2000/svg" xmlns:svg="http://www.w3.org/2000/svg" xmlns:xlink="http://www.w3.org/1999/xlink"><g transform="matrix(1 0 0 -1 0 790)"><g stroke="#000000" fill="#000000" fill-rule="nonzero" stroke-width="1" stroke-linecap="round" stroke-linejoin="miter" stroke-miterlimit="10" alphaIsShape="0" letter-spacing="normal" word-spacing="normal" font-family="Helvetica" font-size="10" font-weight="normal" font-style="normal" baseline-shift="0"><g transform="matrix(0.600000 0 0 0.600000 0 790.549988)"><g transform="matrix(1.200000 0 0 -1.199454 0 0)"><path fill="#C0BFC0" stroke="none" fill-rule="nonzero" d="M907 66L1026 66 1026 107 907 107 907 66" /><path stroke="none" fill="#99CCFF" stroke-width="3" fill-rule="nonzero" d="M904 63L1023 63 1023 104 904 104 904 63" /><path stroke="#800080" fill="none" stroke-width="3" d="M904 63L1023 63 1023 105 904 105 904 63" /><path stroke="#800080" stroke-width="3" fill="none" d="M904 63L1023 63 1023 104 904 104 904 63" /><text transform="matrix(1 0 0 1 939 69)" font-family="Arial" font-size="8.000000" stroke="none"><tspan x="0" y="8">«IDEAS:Type»</tspan></text><text transform="matrix(1 0 0 1 921 79)" font-family="Arial" font-size="8.000000" font-weight="bold" stroke="none"><tspan x="0" y="8">ServiceSpecification</tspan></text><path fill="#C0BFC0" stroke="none" fill-rule="nonzero" d="M499 68L608 68 608 109 499 109 499 68" /><path stroke="none" fill="#99CCFF" stroke-width="3" fill-rule="nonzero" d="M496 65L605 65 605 106 496 106 496 65" /><path stroke="#800080" fill="none" stroke-width="3" d="M496 65L605 65 605 107 496 107 496 65" /><path stroke="#800080" stroke-width="3" fill="none" d="M496 65L605 65 605 106 496 106 496 65" /><text transform="matrix(1 0 0 1 526 71)" font-family="Arial" font-size="8.000000" stroke="none"><tspan x="0" y="8">«IDEAS:Type»</tspan></text><text transform="matrix(1 0 0 1 525 81)" font-family="Arial" font-size="8.000000" font-weight="bold" stroke="none"><tspan x="0" y="8">ServiceRole</tspan></text><path fill="#C0BFC0" stroke="none" fill-rule="nonzero" d="M24 68L158 68 158 382 24 382 24 68" /><path stroke="none" fill="#99CCFF" stroke-width="3" fill-rule="nonzero" d="M21 65L155 65 155 379 21 379 21 65" /><path stroke="#800080" fill="none" stroke-width="3" d="M21 65L155 65 155 380 21 380 21 65" /><path stroke="#800080" stroke-width="3" fill="none" d="M21 65L155 65 155 379 21 379 21 65" /><text transform="matrix(1 0 0 1 64 71)" font-family="Arial" font-size="8.000000" stroke="none"><tspan x="0" y="8">«IDEAS:Type»</tspan></text><text transform="matrix(1 0 0 1 54 81)" font-family="Arial" font-size="8.000000" font-weight="bold" stroke="none"><tspan x="0" y="8">ServiceFunction</tspan></text><path fill="#C0BFC0" stroke="none" fill-rule="nonzero" d="M268 126L417 126 417 195 268 195 268 126" /><path stroke="none" fill="#99CCFF" fill-rule="nonzero" d="M265 123L414 123 414 192 265 192 265 123" /><path stroke="#800080" fill="none" d="M265 123L414 123 414 193 265 193 265 123" /><path stroke="#800080" fill="none" d="M265 123L414 123 414 192 265 192 265 123" /><text transform="matrix(1 0 0 1 315 129)" font-family="Arial" font-size="8.000000" stroke="none"><tspan x="0" y="8">«IDEAS:Type»</tspan></text><text transform="matrix(1 0 0 1 281 139)" font-family="Arial" font-size="8.000000" font-weight="bold" stroke="none"><tspan x="0" y="8">ServiceFunctionComposition</tspan></text><path stroke="#800080" stroke-width="2" fill="none" d="M880 31L880 40" /><path stroke="#800080" stroke-width="2" fill="none" d="M880 46L880 55" /><path stroke="#800080" stroke-width="2" fill="none" d="M880 61L880 70" /><path stroke="#800080" stroke-width="2" fill="none" d="M880 76L880 85" /><path stroke="#800080" stroke-width="2" fill="none" d="M880 91L880 100" /><path stroke="#800080" stroke-width="2" fill="none" d="M880 106L880 115" /><path stroke="#800080" stroke-width="2" fill="none" d="M881 120L890 120" /><path stroke="#800080" stroke-width="2" fill="none" d="M896 120L905 120" /><path stroke="#800080" stroke-width="2" fill="none" d="M911 120L920 120" /><path stroke="#800080" stroke-width="2" fill="none" d="M926 120L935 120" /><path stroke="#800080" stroke-width="2" fill="none" d="M941 120L950 120" /><path stroke="#800080" stroke-width="2" fill="none" d="M956 120L965 120" /><path stroke="#800080" stroke-width="2" fill="none" d="M971 120L980 120" /><path stroke="#800080" stroke-width="2" fill="none" d="M986 120L995 120" /><path stroke="#800080" stroke-width="2" fill="none" d="M1001 120L1010 120" /><path stroke="#800080" stroke-width="2" fill="none" d="M1016 120L1025 120" /><path stroke="#800080" stroke-width="2" fill="none" d="M1031 120L1037 120" /><path stroke="#800080" stroke-width="2" fill="none" d="M1037 120L1037 117" /><path stroke="#800080" stroke-width="2" fill="none" d="M1037 111L1037 102" /><path stroke="#800080" stroke-width="2" fill="none" d="M1037 96L1037 87" /><path stroke="#800080" stroke-width="2" fill="none" d="M1037 81L1037 72" /><path stroke="#800080" stroke-width="2" fill="none" d="M1037 66L1037 57" /><path stroke="#800080" stroke-width="2" fill="none" d="M1037 51L1037 42" /><path stroke="#800080" stroke-width="2" fill="none" d="M1037 36L1037 31" /><path stroke="#800080" stroke-width="2" fill="none" d="M1037 31L1033 31" /><path stroke="#800080" stroke-width="2" fill="none" d="M1027 31L1018 31" /><path stroke="#800080" stroke-width="2" fill="none" d="M1012 31L1003 31" /><path stroke="#800080" stroke-width="2" fill="none" d="M997 31L988 31" /><path stroke="#800080" stroke-width="2" fill="none" d="M982 31L973 31" /><path stroke="#800080" stroke-width="2" fill="none" d="M967 31L958 31" /><path stroke="#800080" stroke-width="2" fill="none" d="M952 31L943 31" /><path stroke="#800080" stroke-width="2" fill="none" d="M937 31L928 31" /><path stroke="#800080" stroke-width="2" fill="none" d="M922 31L913 31" /><path stroke="#800080" stroke-width="2" fill="none" d="M907 31L898 31" /><path stroke="#800080" stroke-width="2" fill="none" d="M892 31L883 31" /><text transform="matrix(1 0 0 1 949 35)" fill="#800080" font-family="Arial Black" font-size="13" stroke="none"><tspan x="0" y="14">S1</tspan></text><path fill="#C0BFC0" stroke="none" fill-rule="nonzero" d="M737 250L857 250 857 285 737 285 737 250" /><path stroke="none" fill="#99CCFF" fill-rule="nonzero" d="M734 247L854 247 854 282 734 282 734 247" /><path stroke="#800080" fill="none" d="M734 247L854 247 854 283 734 283 734 247" /><path stroke="#800080" fill="none" d="M734 247L854 247 854 282 734 282 734 247" /><text transform="matrix(1 0 0 1 770 253)" font-family="Arial" font-size="8.000000" stroke="none"><tspan x="0" y="8">«IDEAS:Type»</tspan></text><text transform="matrix(1 0 0 1 765 263)" font-family="Arial" font-size="8.000000" font-weight="bold" stroke="none"><tspan x="0" y="8">ServiceExport</tspan></text><path fill="#C0BFC0" stroke="none" fill-rule="nonzero" d="M499 254L623 254 623 294 499 294 499 254" /><path stroke="none" fill="#99CCFF" stroke-width="3" fill-rule="nonzero" d="M496 251L620 251 620 291 496 291 496 251" /><path stroke="#800080" fill="none" stroke-width="3" d="M496 251L620 251 620 292 496 292 496 251" /><path stroke="#800080" stroke-width="3" fill="none" d="M496 251L620 251 620 291 496 291 496 251" /><text transform="matrix(1 0 0 1 534 257)" font-family="Arial" font-size="8.000000" stroke="none"><tspan x="0" y="8">«IDEAS:Type»</tspan></text><text transform="matrix(1 0 0 1 509 267)" font-family="Arial" font-size="8.000000" font-weight="bold" stroke="none"><tspan x="0" y="8">ServiceFlowExportRole</tspan></text><path fill="#C0BFC0" stroke="none" fill-rule="nonzero" d="M504 320L627 320 627 359 504 359 504 320" /><path stroke="none" fill="#99CCFF" stroke-width="3" fill-rule="nonzero" d="M501 317L624 317 624 356 501 356 501 317" /><path stroke="#800080" fill="none" stroke-width="3" d="M501 317L624 317 624 357 501 357 501 317" /><path stroke="#800080" stroke-width="3" fill="none" d="M501 317L624 317 624 356 501 356 501 317" /><text transform="matrix(1 0 0 1 538 323)" font-family="Arial" font-size="8.000000" stroke="none"><tspan x="0" y="8">«IDEAS:Type»</tspan></text><text transform="matrix(1 0 0 1 514 333)" font-family="Arial" font-size="8.000000" font-weight="bold" stroke="none"><tspan x="0" y="8">ServiceFlowImportRole</tspan></text><path fill="#C0BFC0" stroke="none" fill-rule="nonzero" d="M737 316L856 316 856 354 737 354 737 316" /><path stroke="none" fill="#99CCFF" fill-rule="nonzero" d="M734 313L853 313 853 351 734 351 734 313" /><path stroke="#800080" fill="none" d="M734 313L853 313 853 352 734 352 734 313" /><path stroke="#800080" fill="none" d="M734 313L853 313 853 351 734 351 734 313" /><text transform="matrix(1 0 0 1 769 319)" font-family="Arial" font-size="8.000000" stroke="none"><tspan x="0" y="8">«IDEAS:Type»</tspan></text><text transform="matrix(1 0 0 1 765 329)" font-family="Arial" font-size="8.000000" font-weight="bold" stroke="none"><tspan x="0" y="8">ServiceImport</tspan></text><path fill="#C0BFC0" stroke="none" fill-rule="nonzero" d="M268 251L401 251 401 290 268 290 268 251" /><path stroke="none" fill="#99CCFF" fill-rule="nonzero" d="M265 248L398 248 398 287 265 287 265 248" /><path stroke="#800080" fill="none" d="M265 248L398 248 398 288 265 288 265 248" /><path stroke="#800080" fill="none" d="M265 248L398 248 398 287 265 287 265 248" /><text transform="matrix(1 0 0 1 307 254)" font-family="Arial" font-size="8.000000" stroke="none"><tspan x="0" y="8">«IDEAS:Type»</tspan></text><text transform="matrix(1 0 0 1 279 264)" font-family="Arial" font-size="8.000000" font-weight="bold" stroke="none"><tspan x="0" y="8">ProducerServiceFunction</tspan></text><path fill="#C0BFC0" stroke="none" fill-rule="nonzero" d="M267 317L405 317 405 356 267 356 267 317" /><path stroke="none" fill="#99CCFF" fill-rule="nonzero" d="M264 314L402 314 402 353 264 353 264 314" /><path stroke="#800080" fill="none" d="M264 314L402 314 402 354 264 354 264 314" /><path stroke="#800080" fill="none" d="M264 314L402 314 402 353 264 353 264 314" /><text transform="matrix(1 0 0 1 309 320)" font-family="Arial" font-size="8.000000" stroke="none"><tspan x="0" y="8">«IDEAS:Type»</tspan></text><text transform="matrix(1 0 0 1 279 330)" font-family="Arial" font-size="8.000000" font-weight="bold" stroke="none"><tspan x="0" y="8">ConsumerServiceFunction</tspan></text><path fill="#C0BFC0" stroke="none" fill-rule="nonzero" d="M961 247L1074 247 1074 360 961 360 961 247" /><path stroke="none" fill="#99CCFF" stroke-width="3" fill-rule="nonzero" d="M958 244L1071 244 1071 357 958 357 958 244" /><path stroke="#800080" fill="none" stroke-width="3" d="M958 244L1071 244 1071 358 958 358 958 244" /><path stroke="#800080" stroke-width="3" fill="none" d="M958 244L1071 244 1071 357 958 357 958 244" /><text transform="matrix(1 0 0 1 990 250)" font-family="Arial" font-size="8.000000" stroke="none"><tspan x="0" y="8">«IDEAS:Type»</tspan></text><text transform="matrix(1 0 0 1 988 260)" font-family="Arial" font-size="8.000000" font-weight="bold" stroke="none"><tspan x="0" y="8">ServiceFlow</tspan></text><path fill="none" d="M264 334L158 334" /><path fill="none" d="M158 334L173 328" /><path fill="none" d="M158 334L173 340" /><g transform="matrix(1 0 0 -1 250 339)"><path fill="#FFFFFF" stroke="none" fill-rule="nonzero" d="M0 0L13 0 13 -9 0 -9 0 0" /></g><text transform="matrix(1 0 0 1 250 339)" font-family="Arial" font-size="8.000000" stroke="none"><tspan x="0" y="8">0..*</tspan></text><g transform="matrix(1 0 0 -1 198 323)"><path fill="#FFFFFF" stroke="none" fill-rule="nonzero" d="M0 0L32 0 32 -9 0 -9 0 0" /></g><text transform="matrix(1 0 0 1 198 323)" font-family="Arial" font-size="8.000000" stroke="none"><tspan x="0" y="8">function</tspan></text><g transform="matrix(1 0 0 -1 188 336)"><path fill="#FFFFFF" stroke="none" fill-rule="nonzero" d="M0 0L57 0 57 -9 0 -9 0 0" /></g><text transform="matrix(1 0 0 1 188 336)" font-family="Arial" font-size="8.000000" stroke="none"><tspan x="0" y="8">«place1Type»</tspan></text><g transform="matrix(1 0 0 -1 161 339)"><path fill="#FFFFFF" stroke="none" fill-rule="nonzero" d="M0 0L5 0 5 -9 0 -9 0 0" /></g><text transform="matrix(1 0 0 1 161 339)" font-family="Arial" font-size="8.000000" stroke="none"><tspan x="0" y="8">1</tspan></text><path fill="none" d="M403 334L499 334" /><path fill="none" d="M499 334L484 340" /><path fill="none" d="M499 334L484 328" /><g transform="matrix(1 0 0 -1 406 339)"><path fill="#FFFFFF" stroke="none" fill-rule="nonzero" d="M0 0L13 0 13 -9 0 -9 0 0" /></g><text transform="matrix(1 0 0 1 406 339)" font-family="Arial" font-size="8.000000" stroke="none"><tspan x="0" y="8">0..*</tspan></text><g transform="matrix(1 0 0 -1 433 323)"><path fill="#FFFFFF" stroke="none" fill-rule="nonzero" d="M0 0L43 0 43 -9 0 -9 0 0" /></g><text transform="matrix(1 0 0 1 433 323)" font-family="Arial" font-size="8.000000" stroke="none"><tspan x="0" y="8">importRole</tspan></text><g transform="matrix(1 0 0 -1 428 336)"><path fill="#FFFFFF" stroke="none" fill-rule="nonzero" d="M0 0L57 0 57 -9 0 -9 0 0" /></g><text transform="matrix(1 0 0 1 428 336)" font-family="Arial" font-size="8.000000" stroke="none"><tspan x="0" y="8">«place2Type»</tspan></text><g transform="matrix(1 0 0 -1 492 339)"><path fill="#FFFFFF" stroke="none" fill-rule="nonzero" d="M0 0L5 0 5 -9 0 -9 0 0" /></g><text transform="matrix(1 0 0 1 492 339)" font-family="Arial" font-size="8.000000" stroke="none"><tspan x="0" y="8">1</tspan></text><path fill="none" d="M265 268L158 268" /><path fill="none" d="M158 268L173 262" /><path fill="none" d="M158 268L173 274" /><g transform="matrix(1 0 0 -1 251 273)"><path fill="#FFFFFF" stroke="none" fill-rule="nonzero" d="M0 0L13 0 13 -9 0 -9 0 0" /></g><text transform="matrix(1 0 0 1 251 273)" font-family="Arial" font-size="8.000000" stroke="none"><tspan x="0" y="8">0..*</tspan></text><g transform="matrix(1 0 0 -1 199 257)"><path fill="#FFFFFF" stroke="none" fill-rule="nonzero" d="M0 0L32 0 32 -9 0 -9 0 0" /></g><text transform="matrix(1 0 0 1 199 257)" font-family="Arial" font-size="8.000000" stroke="none"><tspan x="0" y="8">function</tspan></text><g transform="matrix(1 0 0 -1 189 270)"><path fill="#FFFFFF" stroke="none" fill-rule="nonzero" d="M0 0L57 0 57 -9 0 -9 0 0" /></g><text transform="matrix(1 0 0 1 189 270)" font-family="Arial" font-size="8.000000" stroke="none"><tspan x="0" y="8">«place1Type»</tspan></text><g transform="matrix(1 0 0 -1 161 273)"><path fill="#FFFFFF" stroke="none" fill-rule="nonzero" d="M0 0L5 0 5 -9 0 -9 0 0" /></g><text transform="matrix(1 0 0 1 161 273)" font-family="Arial" font-size="8.000000" stroke="none"><tspan x="0" y="8">1</tspan></text><path fill="none" d="M399 268L494 268" /><path fill="none" d="M494 268L479 274" /><path fill="none" d="M494 268L479 262" /><g transform="matrix(1 0 0 -1 402 273)"><path fill="#FFFFFF" stroke="none" fill-rule="nonzero" d="M0 0L13 0 13 -9 0 -9 0 0" /></g><text transform="matrix(1 0 0 1 402 273)" font-family="Arial" font-size="8.000000" stroke="none"><tspan x="0" y="8">0..*</tspan></text><g transform="matrix(1 0 0 -1 429 257)"><path fill="#FFFFFF" stroke="none" fill-rule="nonzero" d="M0 0L42 0 42 -9 0 -9 0 0" /></g><text transform="matrix(1 0 0 1 429 257)" font-family="Arial" font-size="8.000000" stroke="none"><tspan x="0" y="8">exportRole</tspan></text><g transform="matrix(1 0 0 -1 424 270)"><path fill="#FFFFFF" stroke="none" fill-rule="nonzero" d="M0 0L57 0 57 -9 0 -9 0 0" /></g><text transform="matrix(1 0 0 1 424 270)" font-family="Arial" font-size="8.000000" stroke="none"><tspan x="0" y="8">«place2Type»</tspan></text><g transform="matrix(1 0 0 -1 487 273)"><path fill="#FFFFFF" stroke="none" fill-rule="nonzero" d="M0 0L5 0 5 -9 0 -9 0 0" /></g><text transform="matrix(1 0 0 1 487 273)" font-family="Arial" font-size="8.000000" stroke="none"><tspan x="0" y="8">1</tspan></text><path fill="none" d="M734 333L627 333" /><path fill="none" d="M627 333L642 327" /><path fill="none" d="M627 333L642 339" /><g transform="matrix(1 0 0 -1 720 338)"><path fill="#FFFFFF" stroke="none" fill-rule="nonzero" d="M0 0L13 0 13 -9 0 -9 0 0" /></g><text transform="matrix(1 0 0 1 720 338)" font-family="Arial" font-size="8.000000" stroke="none"><tspan x="0" y="8">0..*</tspan></text><g transform="matrix(1 0 0 -1 663 322)"><path fill="#FFFFFF" stroke="none" fill-rule="nonzero" d="M0 0L43 0 43 -9 0 -9 0 0" /></g><text transform="matrix(1 0 0 1 663 322)" font-family="Arial" font-size="8.000000" stroke="none"><tspan x="0" y="8">importRole</tspan></text><g transform="matrix(1 0 0 -1 658 335)"><path fill="#FFFFFF" stroke="none" fill-rule="nonzero" d="M0 0L57 0 57 -9 0 -9 0 0" /></g><text transform="matrix(1 0 0 1 658 335)" font-family="Arial" font-size="8.000000" stroke="none"><tspan x="0" y="8">«place2Type»</tspan></text><g transform="matrix(1 0 0 -1 630 338)"><path fill="#FFFFFF" stroke="none" fill-rule="nonzero" d="M0 0L5 0 5 -9 0 -9 0 0" /></g><text transform="matrix(1 0 0 1 630 338)" font-family="Arial" font-size="8.000000" stroke="none"><tspan x="0" y="8">1</tspan></text><path fill="none" d="M854 332L956 332" /><path fill="none" d="M956 332L941 338" /><path fill="none" d="M956 332L941 326" /><g transform="matrix(1 0 0 -1 857 337)"><path fill="#FFFFFF" stroke="none" fill-rule="nonzero" d="M0 0L13 0 13 -9 0 -9 0 0" /></g><text transform="matrix(1 0 0 1 857 337)" font-family="Arial" font-size="8.000000" stroke="none"><tspan x="0" y="8">0..*</tspan></text><g transform="matrix(1 0 0 -1 899 321)"><path fill="#FFFFFF" stroke="none" fill-rule="nonzero" d="M0 0L16 0 16 -9 0 -9 0 0" /></g><text transform="matrix(1 0 0 1 899 321)" font-family="Arial" font-size="8.000000" stroke="none"><tspan x="0" y="8">flow</tspan></text><g transform="matrix(1 0 0 -1 882 334)"><path fill="#FFFFFF" stroke="none" fill-rule="nonzero" d="M0 0L57 0 57 -9 0 -9 0 0" /></g><text transform="matrix(1 0 0 1 882 334)" font-family="Arial" font-size="8.000000" stroke="none"><tspan x="0" y="8">«place1Type»</tspan></text><g transform="matrix(1 0 0 -1 949 337)"><path fill="#FFFFFF" stroke="none" fill-rule="nonzero" d="M0 0L5 0 5 -9 0 -9 0 0" /></g><text transform="matrix(1 0 0 1 949 337)" font-family="Arial" font-size="8.000000" stroke="none"><tspan x="0" y="8">1</tspan></text><path fill="none" d="M734 266L623 266" /><path fill="none" d="M623 266L638 260" /><path fill="none" d="M623 266L638 272" /><g transform="matrix(1 0 0 -1 720 271)"><path fill="#FFFFFF" stroke="none" fill-rule="nonzero" d="M0 0L13 0 13 -9 0 -9 0 0" /></g><text transform="matrix(1 0 0 1 720 271)" font-family="Arial" font-size="8.000000" stroke="none"><tspan x="0" y="8">0..*</tspan></text><g transform="matrix(1 0 0 -1 661 255)"><path fill="#FFFFFF" stroke="none" fill-rule="nonzero" d="M0 0L42 0 42 -9 0 -9 0 0" /></g><text transform="matrix(1 0 0 1 661 255)" font-family="Arial" font-size="8.000000" stroke="none"><tspan x="0" y="8">exportRole</tspan></text><g transform="matrix(1 0 0 -1 656 268)"><path fill="#FFFFFF" stroke="none" fill-rule="nonzero" d="M0 0L57 0 57 -9 0 -9 0 0" /></g><text transform="matrix(1 0 0 1 656 268)" font-family="Arial" font-size="8.000000" stroke="none"><tspan x="0" y="8">«place2Type»</tspan></text><g transform="matrix(1 0 0 -1 626 271)"><path fill="#FFFFFF" stroke="none" fill-rule="nonzero" d="M0 0L5 0 5 -9 0 -9 0 0" /></g><text transform="matrix(1 0 0 1 626 271)" font-family="Arial" font-size="8.000000" stroke="none"><tspan x="0" y="8">1</tspan></text><path fill="none" d="M855 265L956 265" /><path fill="none" d="M956 265L941 271" /><path fill="none" d="M956 265L941 259" /><g transform="matrix(1 0 0 -1 858 270)"><path fill="#FFFFFF" stroke="none" fill-rule="nonzero" d="M0 0L13 0 13 -9 0 -9 0 0" /></g><text transform="matrix(1 0 0 1 858 270)" font-family="Arial" font-size="8.000000" stroke="none"><tspan x="0" y="8">0..*</tspan></text><g transform="matrix(1 0 0 -1 900 254)"><path fill="#FFFFFF" stroke="none" fill-rule="nonzero" d="M0 0L16 0 16 -9 0 -9 0 0" /></g><text transform="matrix(1 0 0 1 900 254)" font-family="Arial" font-size="8.000000" stroke="none"><tspan x="0" y="8">flow</tspan></text><g transform="matrix(1 0 0 -1 883 267)"><path fill="#FFFFFF" stroke="none" fill-rule="nonzero" d="M0 0L57 0 57 -9 0 -9 0 0" /></g><text transform="matrix(1 0 0 1 883 267)" font-family="Arial" font-size="8.000000" stroke="none"><tspan x="0" y="8">«place1Type»</tspan></text><g transform="matrix(1 0 0 -1 949 270)"><path fill="#FFFFFF" stroke="none" fill-rule="nonzero" d="M0 0L5 0 5 -9 0 -9 0 0" /></g><text transform="matrix(1 0 0 1 949 270)" font-family="Arial" font-size="8.000000" stroke="none"><tspan x="0" y="8">1</tspan></text><path fill="none" d="M265 179L158 179" /><path fill="none" d="M158 179L173 173" /><path fill="none" d="M158 179L173 185" /><g transform="matrix(1 0 0 -1 251 184)"><path fill="#FFFFFF" stroke="none" fill-rule="nonzero" d="M0 0L13 0 13 -9 0 -9 0 0" /></g><text transform="matrix(1 0 0 1 251 184)" font-family="Arial" font-size="8.000000" stroke="none"><tspan x="0" y="8">0..*</tspan></text><g transform="matrix(1 0 0 -1 206 168)"><path fill="#FFFFFF" stroke="none" fill-rule="nonzero" d="M0 0L15 0 15 -9 0 -9 0 0" /></g><text transform="matrix(1 0 0 1 206 168)" font-family="Arial" font-size="8.000000" stroke="none"><tspan x="0" y="8">part</tspan></text><g transform="matrix(1 0 0 -1 189 181)"><path fill="#FFFFFF" stroke="none" fill-rule="nonzero" d="M0 0L57 0 57 -9 0 -9 0 0" /></g><text transform="matrix(1 0 0 1 189 181)" font-family="Arial" font-size="8.000000" stroke="none"><tspan x="0" y="8">«place2Type»</tspan></text><g transform="matrix(1 0 0 -1 161 184)"><path fill="#FFFFFF" stroke="none" fill-rule="nonzero" d="M0 0L5 0 5 -9 0 -9 0 0" /></g><text transform="matrix(1 0 0 1 161 184)" font-family="Arial" font-size="8.000000" stroke="none"><tspan x="0" y="8">1</tspan></text><path fill="none" d="M265 134L158 134" /><path fill="none" d="M158 134L173 128" /><path fill="none" d="M158 134L173 140" /><g transform="matrix(1 0 0 -1 251 139)"><path fill="#FFFFFF" stroke="none" fill-rule="nonzero" d="M0 0L13 0 13 -9 0 -9 0 0" /></g><text transform="matrix(1 0 0 1 251 139)" font-family="Arial" font-size="8.000000" stroke="none"><tspan x="0" y="8">0..*</tspan></text><g transform="matrix(1 0 0 -1 203 123)"><path fill="#FFFFFF" stroke="none" fill-rule="nonzero" d="M0 0L23 0 23 -9 0 -9 0 0" /></g><text transform="matrix(1 0 0 1 203 123)" font-family="Arial" font-size="8.000000" stroke="none"><tspan x="0" y="8">whole</tspan></text><g transform="matrix(1 0 0 -1 189 136)"><path fill="#FFFFFF" stroke="none" fill-rule="nonzero" d="M0 0L57 0 57 -9 0 -9 0 0" /></g><text transform="matrix(1 0 0 1 189 136)" font-family="Arial" font-size="8.000000" stroke="none"><tspan x="0" y="8">«place1Type»</tspan></text><g transform="matrix(1 0 0 -1 161 139)"><path fill="#FFFFFF" stroke="none" fill-rule="nonzero" d="M0 0L5 0 5 -9 0 -9 0 0" /></g><text transform="matrix(1 0 0 1 161 139)" font-family="Arial" font-size="8.000000" stroke="none"><tspan x="0" y="8">1</tspan></text><path fill="none" d="M494 86L158 86" /><path fill="none" d="M158 86L173 80" /><path fill="none" d="M158 86L173 92" /><g transform="matrix(1 0 0 -1 480 91)"><path fill="#FFFFFF" stroke="none" fill-rule="nonzero" d="M0 0L13 0 13 -9 0 -9 0 0" /></g><text transform="matrix(1 0 0 1 480 91)" font-family="Arial" font-size="8.000000" stroke="none"><tspan x="0" y="8">0..*</tspan></text><g transform="matrix(1 0 0 -1 313 75)"><path fill="#FFFFFF" stroke="none" fill-rule="nonzero" d="M0 0L32 0 32 -9 0 -9 0 0" /></g><text transform="matrix(1 0 0 1 313 75)" font-family="Arial" font-size="8.000000" stroke="none"><tspan x="0" y="8">function</tspan></text><g transform="matrix(1 0 0 -1 303 88)"><path fill="#FFFFFF" stroke="none" fill-rule="nonzero" d="M0 0L57 0 57 -9 0 -9 0 0" /></g><text transform="matrix(1 0 0 1 303 88)" font-family="Arial" font-size="8.000000" stroke="none"><tspan x="0" y="8">«place2Type»</tspan></text><g transform="matrix(1 0 0 -1 161 91)"><path fill="#FFFFFF" stroke="none" fill-rule="nonzero" d="M0 0L5 0 5 -9 0 -9 0 0" /></g><text transform="matrix(1 0 0 1 161 91)" font-family="Arial" font-size="8.000000" stroke="none"><tspan x="0" y="8">1</tspan></text><path fill="none" d="M608 85L902 84" /><path fill="none" d="M902 84L887 90" /><path fill="none" d="M902 84L887 78" /><g transform="matrix(1 0 0 -1 611 90)"><path fill="#FFFFFF" stroke="none" fill-rule="nonzero" d="M0 0L13 0 13 -9 0 -9 0 0" /></g><text transform="matrix(1 0 0 1 611 90)" font-family="Arial" font-size="8.000000" stroke="none"><tspan x="0" y="8">0..*</tspan></text><g transform="matrix(1 0 0 -1 743 74)"><path fill="#FFFFFF" stroke="none" fill-rule="nonzero" d="M0 0L27 0 27 -9 0 -9 0 0" /></g><text transform="matrix(1 0 0 1 743 74)" font-family="Arial" font-size="8.000000" stroke="none"><tspan x="0" y="8">service</tspan></text><g transform="matrix(1 0 0 -1 732 87)"><path fill="#FFFFFF" stroke="none" fill-rule="nonzero" d="M0 0L57 0 57 -9 0 -9 0 0" /></g><text transform="matrix(1 0 0 1 732 87)" font-family="Arial" font-size="8.000000" stroke="none"><tspan x="0" y="8">«place1Type»</tspan></text><g transform="matrix(1 0 0 -1 895 89)"><path fill="#FFFFFF" stroke="none" fill-rule="nonzero" d="M0 0L5 0 5 -9 0 -9 0 0" /></g><text transform="matrix(1 0 0 1 895 89)" font-family="Arial" font-size="8.000000" stroke="none"><tspan x="0" y="8">1</tspan></text></g></g></g></g></svg>