<?xml version="1.0" encoding="utf-8"?><svg version="1.1" preserveAspectRatio="xMidYMid" xml:space="preserve" width="542.3199999999999pt" height="327.66261000000003pt" viewBox="19.36 14.83279 542.3199999999999 327.66261000000003" xmlns="http://www.w3.org/2000/svg" xmlns:svg="http://www.w3.org/2000/svg" xmlns:xlink="http://www.w3.org/1999/xlink"><g transform="matrix(1 0 0 -1 0 768)"><g stroke="#000000" fill="#000000" fill-rule="nonzero" stroke-width="1" stroke-linecap="round" stroke-linejoin="miter" stroke-miterlimit="10" alphaIsShape="0" letter-spacing="normal" word-spacing="normal" font-family="Helvetica" font-size="10" font-weight="normal" font-style="normal" baseline-shift="0"><g transform="matrix(0.600000 0 0 0.600000 0 768.200012)"><g transform="matrix(1.200000 0 0 -1.199625 0 0)"><path fill="#C0BFC0" stroke="none" fill-rule="nonzero" d="M392 39L769 39 769 95 392 95 392 39" /><path stroke="none" fill="#99CCFF" fill-rule="nonzero" d="M389 36L766 36 766 92 389 92 389 36" /><path stroke="#FFFF00" fill="none" d="M389 36L766 36 766 93 389 93 389 36" /><path stroke="#FFFF00" fill="none" d="M389 36L766 36 766 92 389 92 389 36" /><text transform="matrix(1 0 0 1 553 42)" font-family="Arial" font-size="8.000000" stroke="none"><tspan x="0" y="8">«IDEAS:Type»</tspan></text><text transform="matrix(1 0 0 1 547 52)" font-family="Arial" font-size="8.000000" font-weight="bold" stroke="none"><tspan x="0" y="8">StateTransition</tspan></text><path fill="#C0BFC0" stroke="none" fill-rule="nonzero" d="M631 362L769 362 769 465 631 465 631 362" /><path stroke="none" fill="#99CCFF" stroke-width="3" fill-rule="nonzero" d="M628 359L766 359 766 462 628 462 628 359" /><path stroke="#FFFF00" fill="none" stroke-width="3" d="M628 359L766 359 766 463 628 463 628 359" /><path stroke="#FFFF00" stroke-width="3" fill="none" d="M628 359L766 359 766 462 628 462 628 359" /><text transform="matrix(1 0 0 1 673 365)" font-family="Arial" font-size="8.000000" stroke="none"><tspan x="0" y="8">«IDEAS:Type»</tspan></text><text transform="matrix(1 0 0 1 669 375)" font-family="Arial" font-size="8.000000" font-weight="bold" stroke="none"><tspan x="0" y="8">StateMachine</tspan></text><path fill="#C0BFC0" stroke="none" fill-rule="nonzero" d="M394 262L769 262 769 301 394 301 394 262" /><path stroke="none" fill="#99CCFF" stroke-width="3" fill-rule="nonzero" d="M391 259L766 259 766 298 391 298 391 259" /><path stroke="#FFFF00" fill="none" stroke-width="3" d="M391 259L766 259 766 299 391 299 391 259" /><path stroke="#FFFF00" stroke-width="3" fill="none" d="M391 259L766 259 766 298 391 298 391 259" /><text transform="matrix(1 0 0 1 554 265)" font-family="Arial" font-size="8.000000" stroke="none"><tspan x="0" y="8">«IDEAS:Type»</tspan></text><text transform="matrix(1 0 0 1 537 275)" font-family="Arial" font-size="8.000000" font-weight="bold" stroke="none"><tspan x="0" y="8">StateMachineRegion</tspan></text><path fill="#C0BFC0" stroke="none" fill-rule="nonzero" d="M396 356L518 356 518 393 396 393 396 356" /><path stroke="none" fill="#CCFFCC" fill-rule="nonzero" d="M393 353L515 353 515 390 393 390 393 353" /><path stroke="#FFFF00" fill="none" d="M393 353L515 353 515 391 393 391 393 353" /><path stroke="#FFFF00" fill="none" d="M393 353L515 353 515 390 393 390 393 353" /><text transform="matrix(1 0 0 1 420 359)" font-family="Arial" font-size="8.000000" stroke="none"><tspan x="0" y="8">«IDEAS:TupleType»</tspan></text><text transform="matrix(1 0 0 1 409 369)" font-family="Arial" font-size="8.000000" font-weight="bold" stroke="none"><tspan x="0" y="8">regionOfStateMachine</tspan></text><path fill="#C0BFC0" stroke="none" fill-rule="nonzero" d="M396 150L524 150 524 188 396 188 396 150" /><path stroke="none" fill="#CCFFCC" fill-rule="nonzero" d="M393 147L521 147 521 185 393 185 393 147" /><path stroke="#FFFF00" fill="none" d="M393 147L521 147 521 186 393 186 393 147" /><path stroke="#FFFF00" fill="none" d="M393 147L521 147 521 185 393 185 393 147" /><text transform="matrix(1 0 0 1 423 153)" font-family="Arial" font-size="8.000000" stroke="none"><tspan x="0" y="8">«IDEAS:TupleType»</tspan></text><text transform="matrix(1 0 0 1 429 163)" font-family="Arial" font-size="8.000000" font-weight="bold" stroke="none"><tspan x="0" y="8">stateInRegion</tspan></text><path fill="#C0BFC0" stroke="none" fill-rule="nonzero" d="M621 151L769 151 769 190 621 190 621 151" /><path stroke="none" fill="#CCFFCC" fill-rule="nonzero" d="M618 148L766 148 766 187 618 187 618 148" /><path stroke="#FFFF00" fill="none" d="M618 148L766 148 766 188 618 188 618 148" /><path stroke="#FFFF00" fill="none" d="M618 148L766 148 766 187 618 187 618 148" /><text transform="matrix(1 0 0 1 658 154)" font-family="Arial" font-size="8.000000" stroke="none"><tspan x="0" y="8">«IDEAS:TupleType»</tspan></text><text transform="matrix(1 0 0 1 644 164)" font-family="Arial" font-size="8.000000" font-weight="bold" stroke="none"><tspan x="0" y="8">stateTransitionInRegion</tspan></text><path fill="#C0BFC0" stroke="none" fill-rule="nonzero" d="M41 35L176 35 176 193 41 193 41 35" /><path stroke="none" fill="#C0C0C0" stroke-width="3" fill-rule="nonzero" d="M38 32L173 32 173 190 38 190 38 32" /><path stroke="#FFFF00" fill="none" stroke-width="3" d="M38 32L173 32 173 191 38 191 38 32" /><path stroke="#FFFF00" stroke-width="3" fill="none" d="M38 32L173 32 173 190 38 190 38 32" /><text transform="matrix(1 0 0 1 81 38)" font-family="Arial" font-size="8.000000" stroke="none"><tspan x="0" y="8">«IDEAS:Type»</tspan></text><text transform="matrix(1 0 0 1 69 48)" font-family="Arial" font-size="8.000000" font-weight="bold" font-style="italic" stroke="none"><tspan x="0" y="8">StateSpecification</tspan></text><path fill="#C0BFC0" stroke="none" fill-rule="nonzero" d="M41 405L176 405 176 463 41 463 41 405" /><path stroke="none" fill="#99CCFF" stroke-width="3" fill-rule="nonzero" d="M38 402L173 402 173 460 38 460 38 402" /><path stroke="#800080" fill="none" stroke-width="3" d="M38 402L173 402 173 461 38 461 38 402" /><path stroke="#800080" stroke-width="3" fill="none" d="M38 402L173 402 173 460 38 460 38 402" /><text transform="matrix(1 0 0 1 81 408)" font-family="Arial" font-size="8.000000" stroke="none"><tspan x="0" y="8">«IDEAS:Type»</tspan></text><text transform="matrix(1 0 0 1 63 418)" font-family="Arial" font-size="8.000000" font-weight="bold" stroke="none"><tspan x="0" y="8">ServiceSpecification</tspan></text><path fill="#C0BFC0" stroke="none" fill-rule="nonzero" d="M41 257L176 257 176 308 41 308 41 257" /><path stroke="none" fill="#99CCFF" stroke-width="3" fill-rule="nonzero" d="M38 254L173 254 173 305 38 305 38 254" /><path stroke="#800080" fill="none" stroke-width="3" d="M38 254L173 254 173 306 38 306 38 254" /><path stroke="#800080" stroke-width="3" fill="none" d="M38 254L173 254 173 305 38 305 38 254" /><text transform="matrix(1 0 0 1 81 260)" font-family="Arial" font-size="8.000000" stroke="none"><tspan x="0" y="8">«IDEAS:Type»</tspan></text><text transform="matrix(1 0 0 1 52 270)" font-family="Arial" font-size="8.000000" font-weight="bold" stroke="none"><tspan x="0" y="8">ServiceSpecificationState</tspan></text><path fill="#C0BFC0" stroke="none" fill-rule="nonzero" d="M323 427L515 427 515 465 323 465 323 427" /><path stroke="none" fill="#CCFFCC" fill-rule="nonzero" d="M320 424L512 424 512 462 320 462 320 424" /><path stroke="#800080" fill="none" d="M320 424L512 424 512 463 320 463 320 424" /><path stroke="#800080" fill="none" d="M320 424L512 424 512 462 320 462 320 424" /><text transform="matrix(1 0 0 1 382 430)" font-family="Arial" font-size="8.000000" stroke="none"><tspan x="0" y="8">«IDEAS:TupleType»</tspan></text><text transform="matrix(1 0 0 1 339 440)" font-family="Arial" font-size="8.000000" font-weight="bold" stroke="none"><tspan x="0" y="8">stateMachineForServiceSpecification</tspan></text><path fill="none" d="M393 165L176 165" /><path fill="none" d="M176 165L191 159" /><path fill="none" d="M176 165L191 171" /><g transform="matrix(1 0 0 -1 379 170)"><path fill="#FFFFFF" stroke="none" fill-rule="nonzero" d="M0 0L13 0 13 -9 0 -9 0 0" /></g><text transform="matrix(1 0 0 1 379 170)" font-family="Arial" font-size="8.000000" stroke="none"><tspan x="0" y="8">0..*</tspan></text><g transform="matrix(1 0 0 -1 277 154)"><path fill="#FFFFFF" stroke="none" fill-rule="nonzero" d="M0 0L18 0 18 -9 0 -9 0 0" /></g><text transform="matrix(1 0 0 1 277 154)" font-family="Arial" font-size="8.000000" stroke="none"><tspan x="0" y="8">state</tspan></text><g transform="matrix(1 0 0 -1 262 167)"><path fill="#FFFFFF" stroke="none" fill-rule="nonzero" d="M0 0L57 0 57 -9 0 -9 0 0" /></g><text transform="matrix(1 0 0 1 262 167)" font-family="Arial" font-size="8.000000" stroke="none"><tspan x="0" y="8">«place2Type»</tspan></text><g transform="matrix(1 0 0 -1 179 170)"><path fill="#FFFFFF" stroke="none" fill-rule="nonzero" d="M0 0L5 0 5 -9 0 -9 0 0" /></g><text transform="matrix(1 0 0 1 179 170)" font-family="Arial" font-size="8.000000" stroke="none"><tspan x="0" y="8">1</tspan></text><path fill="none" d="M457 186L457 257" /><path fill="none" d="M457 257L451 242" /><path fill="none" d="M457 257L463 242" /><g transform="matrix(1 0 0 -1 465 191)"><path fill="#FFFFFF" stroke="none" fill-rule="nonzero" d="M0 0L13 0 13 -9 0 -9 0 0" /></g><text transform="matrix(1 0 0 1 465 191)" font-family="Arial" font-size="8.000000" stroke="none"><tspan x="0" y="8">0..*</tspan></text><g transform="matrix(1 0 0 -1 446 211)"><path fill="#FFFFFF" stroke="none" fill-rule="nonzero" d="M0 0L25 0 25 -9 0 -9 0 0" /></g><text transform="matrix(1 0 0 1 446 211)" font-family="Arial" font-size="8.000000" stroke="none"><tspan x="0" y="8">region</tspan></text><g transform="matrix(1 0 0 -1 434 224)"><path fill="#FFFFFF" stroke="none" fill-rule="nonzero" d="M0 0L57 0 57 -9 0 -9 0 0" /></g><text transform="matrix(1 0 0 1 434 224)" font-family="Arial" font-size="8.000000" stroke="none"><tspan x="0" y="8">«place1Type»</tspan></text><g transform="matrix(1 0 0 -1 465 242)"><path fill="#FFFFFF" stroke="none" fill-rule="nonzero" d="M0 0L5 0 5 -9 0 -9 0 0" /></g><text transform="matrix(1 0 0 1 465 242)" font-family="Arial" font-size="8.000000" stroke="none"><tspan x="0" y="8">1</tspan></text><path stroke="#0000FF" fill="none" d="M106 400L106 308" /><path stroke="#0000FF" fill="#FCF2E3" d="M112 324L100 324L106 308L112 324" /><g transform="matrix(1 0 0 -1 68 354)"><path fill="#FFFFFF" stroke="none" fill-rule="nonzero" d="M0 0L92 0 92 -9 0 -9 0 0" /></g><text transform="matrix(1 0 0 1 68 354)" font-family="Arial" font-size="8.000000" stroke="none"><tspan x="0" y="8">«IDEAS:superSubtype»</tspan></text><path stroke="#0000FF" fill="none" d="M106 252L106 193" /><path stroke="#0000FF" fill="#FCF2E3" d="M112 209L100 209L106 193L112 209" /><g transform="matrix(1 0 0 -1 67 225)"><path fill="#FFFFFF" stroke="none" fill-rule="nonzero" d="M0 0L92 0 92 -9 0 -9 0 0" /></g><text transform="matrix(1 0 0 1 67 225)" font-family="Arial" font-size="8.000000" stroke="none"><tspan x="0" y="8">«IDEAS:superSubtype»</tspan></text><path fill="none" d="M454 353L454 301" /><path fill="none" d="M454 301L460 316" /><path fill="none" d="M454 301L448 316" /><g transform="matrix(1 0 0 -1 457 339)"><path fill="#FFFFFF" stroke="none" fill-rule="nonzero" d="M0 0L13 0 13 -9 0 -9 0 0" /></g><text transform="matrix(1 0 0 1 457 339)" font-family="Arial" font-size="8.000000" stroke="none"><tspan x="0" y="8">0..*</tspan></text><g transform="matrix(1 0 0 -1 443 316)"><path fill="#FFFFFF" stroke="none" fill-rule="nonzero" d="M0 0L25 0 25 -9 0 -9 0 0" /></g><text transform="matrix(1 0 0 1 443 316)" font-family="Arial" font-size="8.000000" stroke="none"><tspan x="0" y="8">region</tspan></text><g transform="matrix(1 0 0 -1 431 329)"><path fill="#FFFFFF" stroke="none" fill-rule="nonzero" d="M0 0L57 0 57 -9 0 -9 0 0" /></g><text transform="matrix(1 0 0 1 431 329)" font-family="Arial" font-size="8.000000" stroke="none"><tspan x="0" y="8">«place2Type»</tspan></text><g transform="matrix(1 0 0 -1 466 306)"><path fill="#FFFFFF" stroke="none" fill-rule="nonzero" d="M0 0L5 0 5 -9 0 -9 0 0" /></g><text transform="matrix(1 0 0 1 466 306)" font-family="Arial" font-size="8.000000" stroke="none"><tspan x="0" y="8">1</tspan></text><path fill="none" d="M516 374L626 374" /><path fill="none" d="M626 374L611 380" /><path fill="none" d="M626 374L611 368" /><g transform="matrix(1 0 0 -1 519 379)"><path fill="#FFFFFF" stroke="none" fill-rule="nonzero" d="M0 0L13 0 13 -9 0 -9 0 0" /></g><text transform="matrix(1 0 0 1 519 379)" font-family="Arial" font-size="8.000000" stroke="none"><tspan x="0" y="8">0..*</tspan></text><g transform="matrix(1 0 0 -1 549 363)"><path fill="#FFFFFF" stroke="none" fill-rule="nonzero" d="M0 0L53 0 53 -9 0 -9 0 0" /></g><text transform="matrix(1 0 0 1 549 363)" font-family="Arial" font-size="8.000000" stroke="none"><tspan x="0" y="8">stateMachine</tspan></text><g transform="matrix(1 0 0 -1 548 376)"><path fill="#FFFFFF" stroke="none" fill-rule="nonzero" d="M0 0L57 0 57 -9 0 -9 0 0" /></g><text transform="matrix(1 0 0 1 548 376)" font-family="Arial" font-size="8.000000" stroke="none"><tspan x="0" y="8">«place1Type»</tspan></text><g transform="matrix(1 0 0 -1 619 379)"><path fill="#FFFFFF" stroke="none" fill-rule="nonzero" d="M0 0L5 0 5 -9 0 -9 0 0" /></g><text transform="matrix(1 0 0 1 619 379)" font-family="Arial" font-size="8.000000" stroke="none"><tspan x="0" y="8">1</tspan></text><path fill="none" d="M513 443L626 443" /><path fill="none" d="M626 443L611 449" /><path fill="none" d="M626 443L611 437" /><g transform="matrix(1 0 0 -1 516 448)"><path fill="#FFFFFF" stroke="none" fill-rule="nonzero" d="M0 0L5 0 5 -9 0 -9 0 0" /></g><text transform="matrix(1 0 0 1 516 448)" font-family="Arial" font-size="8.000000" stroke="none"><tspan x="0" y="8">1</tspan></text><g transform="matrix(1 0 0 -1 548 432)"><path fill="#FFFFFF" stroke="none" fill-rule="nonzero" d="M0 0L53 0 53 -9 0 -9 0 0" /></g><text transform="matrix(1 0 0 1 548 432)" font-family="Arial" font-size="8.000000" stroke="none"><tspan x="0" y="8">stateMachine</tspan></text><g transform="matrix(1 0 0 -1 547 445)"><path fill="#FFFFFF" stroke="none" fill-rule="nonzero" d="M0 0L57 0 57 -9 0 -9 0 0" /></g><text transform="matrix(1 0 0 1 547 445)" font-family="Arial" font-size="8.000000" stroke="none"><tspan x="0" y="8">«place2Type»</tspan></text><g transform="matrix(1 0 0 -1 619 448)"><path fill="#FFFFFF" stroke="none" fill-rule="nonzero" d="M0 0L5 0 5 -9 0 -9 0 0" /></g><text transform="matrix(1 0 0 1 619 448)" font-family="Arial" font-size="8.000000" stroke="none"><tspan x="0" y="8">1</tspan></text><path fill="none" d="M320 443L176 443" /><path fill="none" d="M176 443L191 437" /><path fill="none" d="M176 443L191 449" /><g transform="matrix(1 0 0 -1 306 448)"><path fill="#FFFFFF" stroke="none" fill-rule="nonzero" d="M0 0L13 0 13 -9 0 -9 0 0" /></g><text transform="matrix(1 0 0 1 306 448)" font-family="Arial" font-size="8.000000" stroke="none"><tspan x="0" y="8">0..*</tspan></text><g transform="matrix(1 0 0 -1 236 432)"><path fill="#FFFFFF" stroke="none" fill-rule="nonzero" d="M0 0L27 0 27 -9 0 -9 0 0" /></g><text transform="matrix(1 0 0 1 236 432)" font-family="Arial" font-size="8.000000" stroke="none"><tspan x="0" y="8">service</tspan></text><g transform="matrix(1 0 0 -1 225 445)"><path fill="#FFFFFF" stroke="none" fill-rule="nonzero" d="M0 0L57 0 57 -9 0 -9 0 0" /></g><text transform="matrix(1 0 0 1 225 445)" font-family="Arial" font-size="8.000000" stroke="none"><tspan x="0" y="8">«place1Type»</tspan></text><g transform="matrix(1 0 0 -1 179 448)"><path fill="#FFFFFF" stroke="none" fill-rule="nonzero" d="M0 0L5 0 5 -9 0 -9 0 0" /></g><text transform="matrix(1 0 0 1 179 448)" font-family="Arial" font-size="8.000000" stroke="none"><tspan x="0" y="8">1</tspan></text><path fill="none" d="M692 148L692 93" /><path fill="none" d="M692 93L698 108" /><path fill="none" d="M692 93L686 108" /><g transform="matrix(1 0 0 -1 695 134)"><path fill="#FFFFFF" stroke="none" fill-rule="nonzero" d="M0 0L13 0 13 -9 0 -9 0 0" /></g><text transform="matrix(1 0 0 1 695 134)" font-family="Arial" font-size="8.000000" stroke="none"><tspan x="0" y="8">0..*</tspan></text><g transform="matrix(1 0 0 -1 677 110)"><path fill="#FFFFFF" stroke="none" fill-rule="nonzero" d="M0 0L36 0 36 -9 0 -9 0 0" /></g><text transform="matrix(1 0 0 1 677 110)" font-family="Arial" font-size="8.000000" stroke="none"><tspan x="0" y="8">transition</tspan></text><g transform="matrix(1 0 0 -1 669 123)"><path fill="#FFFFFF" stroke="none" fill-rule="nonzero" d="M0 0L57 0 57 -9 0 -9 0 0" /></g><text transform="matrix(1 0 0 1 669 123)" font-family="Arial" font-size="8.000000" stroke="none"><tspan x="0" y="8">«place2Type»</tspan></text><g transform="matrix(1 0 0 -1 704 98)"><path fill="#FFFFFF" stroke="none" fill-rule="nonzero" d="M0 0L5 0 5 -9 0 -9 0 0" /></g><text transform="matrix(1 0 0 1 704 98)" font-family="Arial" font-size="8.000000" stroke="none"><tspan x="0" y="8">1</tspan></text><path fill="none" d="M689 188L689 257" /><path fill="none" d="M689 257L683 242" /><path fill="none" d="M689 257L695 242" /><g transform="matrix(1 0 0 -1 697 193)"><path fill="#FFFFFF" stroke="none" fill-rule="nonzero" d="M0 0L13 0 13 -9 0 -9 0 0" /></g><text transform="matrix(1 0 0 1 697 193)" font-family="Arial" font-size="8.000000" stroke="none"><tspan x="0" y="8">0..*</tspan></text><g transform="matrix(1 0 0 -1 678 212)"><path fill="#FFFFFF" stroke="none" fill-rule="nonzero" d="M0 0L25 0 25 -9 0 -9 0 0" /></g><text transform="matrix(1 0 0 1 678 212)" font-family="Arial" font-size="8.000000" stroke="none"><tspan x="0" y="8">region</tspan></text><g transform="matrix(1 0 0 -1 666 225)"><path fill="#FFFFFF" stroke="none" fill-rule="nonzero" d="M0 0L57 0 57 -9 0 -9 0 0" /></g><text transform="matrix(1 0 0 1 666 225)" font-family="Arial" font-size="8.000000" stroke="none"><tspan x="0" y="8">«place1Type»</tspan></text><g transform="matrix(1 0 0 -1 697 242)"><path fill="#FFFFFF" stroke="none" fill-rule="nonzero" d="M0 0L5 0 5 -9 0 -9 0 0" /></g><text transform="matrix(1 0 0 1 697 242)" font-family="Arial" font-size="8.000000" stroke="none"><tspan x="0" y="8">1</tspan></text><path fill="none" d="M389 81L176 81" /><path fill="none" d="M176 81L191 75" /><path fill="none" d="M176 81L191 87" /><g transform="matrix(1 0 0 -1 375 86)"><path fill="#FFFFFF" stroke="none" fill-rule="nonzero" d="M0 0L13 0 13 -9 0 -9 0 0" /></g><text transform="matrix(1 0 0 1 375 86)" font-family="Arial" font-size="8.000000" stroke="none"><tspan x="0" y="8">0..*</tspan></text><g transform="matrix(1 0 0 -1 268 70)"><path fill="#FFFFFF" stroke="none" fill-rule="nonzero" d="M0 0L37 0 37 -9 0 -9 0 0" /></g><text transform="matrix(1 0 0 1 268 70)" font-family="Arial" font-size="8.000000" stroke="none"><tspan x="0" y="8">postState</tspan></text><g transform="matrix(1 0 0 -1 260 83)"><path fill="#FFFFFF" stroke="none" fill-rule="nonzero" d="M0 0L57 0 57 -9 0 -9 0 0" /></g><text transform="matrix(1 0 0 1 260 83)" font-family="Arial" font-size="8.000000" stroke="none"><tspan x="0" y="8">«place2Type»</tspan></text><g transform="matrix(1 0 0 -1 179 86)"><path fill="#FFFFFF" stroke="none" fill-rule="nonzero" d="M0 0L5 0 5 -9 0 -9 0 0" /></g><text transform="matrix(1 0 0 1 179 86)" font-family="Arial" font-size="8.000000" stroke="none"><tspan x="0" y="8">1</tspan></text><path fill="none" d="M389 44L176 44" /><path fill="none" d="M176 44L191 38" /><path fill="none" d="M176 44L191 50" /><g transform="matrix(1 0 0 -1 375 49)"><path fill="#FFFFFF" stroke="none" fill-rule="nonzero" d="M0 0L13 0 13 -9 0 -9 0 0" /></g><text transform="matrix(1 0 0 1 375 49)" font-family="Arial" font-size="8.000000" stroke="none"><tspan x="0" y="8">0..*</tspan></text><g transform="matrix(1 0 0 -1 269 33)"><path fill="#FFFFFF" stroke="none" fill-rule="nonzero" d="M0 0L33 0 33 -9 0 -9 0 0" /></g><text transform="matrix(1 0 0 1 269 33)" font-family="Arial" font-size="8.000000" stroke="none"><tspan x="0" y="8">preState</tspan></text><g transform="matrix(1 0 0 -1 260 46)"><path fill="#FFFFFF" stroke="none" fill-rule="nonzero" d="M0 0L57 0 57 -9 0 -9 0 0" /></g><text transform="matrix(1 0 0 1 260 46)" font-family="Arial" font-size="8.000000" stroke="none"><tspan x="0" y="8">«place1Type»</tspan></text><g transform="matrix(1 0 0 -1 179 49)"><path fill="#FFFFFF" stroke="none" fill-rule="nonzero" d="M0 0L5 0 5 -9 0 -9 0 0" /></g><text transform="matrix(1 0 0 1 179 49)" font-family="Arial" font-size="8.000000" stroke="none"><tspan x="0" y="8">1</tspan></text></g></g></g></g></svg>