<?xml version="1.0" encoding="utf-8"?><svg version="1.1" preserveAspectRatio="xMidYMid" xml:space="preserve" width="549.5200000000001pt" height="695.3706900000001pt" viewBox="17.92 4.404109999999999 549.5200000000001 695.3706900000001" xmlns="http://www.w3.org/2000/svg" xmlns:svg="http://www.w3.org/2000/svg" xmlns:xlink="http://www.w3.org/1999/xlink"><g transform="matrix(1 0 0 -1 0 790)"><g stroke="#000000" fill="#000000" fill-rule="nonzero" stroke-width="1" stroke-linecap="round" stroke-linejoin="miter" stroke-miterlimit="10" alphaIsShape="0" letter-spacing="normal" word-spacing="normal" font-family="Helvetica" font-size="10" font-weight="normal" font-style="normal" baseline-shift="0"><g transform="matrix(0.600000 0 0 0.600000 0 790.549988)"><g transform="matrix(1.200000 0 0 -1.199454 0 0)"><path fill="#C0BFC0" stroke="none" fill-rule="nonzero" d="M39 198L194 198 194 236 39 236 39 198" /><path stroke="none" fill="#99CCFF" stroke-width="3" fill-rule="nonzero" d="M36 195L191 195 191 233 36 233 36 195" /><path stroke="#800080" fill="none" stroke-width="3" d="M36 195L191 195 191 234 36 234 36 195" /><path stroke="#800080" stroke-width="3" fill="none" d="M36 195L191 195 191 233 36 233 36 195" /><text transform="matrix(1 0 0 1 89 201)" font-family="Arial" font-size="8.000000" stroke="none"><tspan x="0" y="8">«IDEAS:Type»</tspan></text><text transform="matrix(1 0 0 1 71 211)" font-family="Arial" font-size="8.000000" font-weight="bold" stroke="none"><tspan x="0" y="8">ServiceSpecification</tspan></text><path fill="#C0BFC0" stroke="none" fill-rule="nonzero" d="M316 196L454 196 454 237 316 237 316 196" /><path stroke="none" fill="#99CCFF" fill-rule="nonzero" d="M313 193L451 193 451 234 313 234 313 193" /><path stroke="#800080" fill="none" d="M313 193L451 193 451 235 313 235 313 193" /><path stroke="#800080" fill="none" d="M313 193L451 193 451 234 313 234 313 193" /><text transform="matrix(1 0 0 1 358 199)" font-family="Arial" font-size="8.000000" stroke="none"><tspan x="0" y="8">«IDEAS:Type»</tspan></text><text transform="matrix(1 0 0 1 344 209)" font-family="Arial" font-size="8.000000" font-weight="bold" stroke="none"><tspan x="0" y="8">AttributeOfService</tspan></text><path fill="#C0BFC0" stroke="none" fill-rule="nonzero" d="M583 196L710 196 710 237 583 237 583 196" /><path fill="#99CCFF" stroke="none" fill-rule="nonzero" d="M580 193L707 193 707 234 580 234 580 193" /><path fill="none" d="M580 193L707 193 707 235 580 235 580 193" /><path fill="none" d="M580 193L707 193 707 234 580 234 580 193" /><text transform="matrix(1 0 0 1 619 199)" font-family="Arial" font-size="8.000000" stroke="none"><tspan x="0" y="8">«IDEAS:Type»</tspan></text><text transform="matrix(1 0 0 1 608 209)" font-family="Arial" font-size="8.000000" font-weight="bold" stroke="none"><tspan x="0" y="8">MeasureCategory</tspan></text><path fill="#C0BFC0" stroke="none" fill-rule="nonzero" d="M42 402L729 402 729 440 42 440 42 402" /><path fill="#99CCFF" stroke="none" fill-rule="nonzero" d="M39 399L726 399 726 437 39 437 39 399" /><path fill="none" d="M39 399L726 399 726 438 39 438 39 399" /><path fill="none" d="M39 399L726 399 726 437 39 437 39 399" /><text transform="matrix(1 0 0 1 358 405)" font-family="Arial" font-size="8.000000" stroke="none"><tspan x="0" y="8">«IDEAS:Type»</tspan></text><text transform="matrix(1 0 0 1 365 415)" font-family="Arial" font-size="8.000000" font-weight="bold" stroke="none"><tspan x="0" y="8">Measure</tspan></text><path fill="#C0BFC0" stroke="none" fill-rule="nonzero" d="M525 571L655 571 655 610 525 610 525 571" /><path fill="#99CCFF" stroke="none" fill-rule="nonzero" d="M522 568L652 568 652 607 522 607 522 568" /><path fill="none" d="M522 568L652 568 652 608 522 608 522 568" /><path fill="none" d="M522 568L652 568 652 607 522 607 522 568" /><text transform="matrix(1 0 0 1 563 574)" font-family="Arial" font-size="8.000000" stroke="none"><tspan x="0" y="8">«IDEAS:Type»</tspan></text><text transform="matrix(1 0 0 1 556 584)" font-family="Arial" font-size="8.000000" font-weight="bold" stroke="none"><tspan x="0" y="8">MeasureRange</tspan></text><path fill="#C0BFC0" stroke="none" fill-rule="nonzero" d="M437 460L588 460 588 499 437 499 437 460" /><path fill="#CCFFCC" stroke="none" fill-rule="nonzero" d="M434 457L585 457 585 496 434 496 434 457" /><path fill="none" d="M434 457L585 457 585 497 434 497 434 457" /><path fill="none" d="M434 457L585 457 585 496 434 496 434 457" /><text transform="matrix(1 0 0 1 476 463)" font-family="Arial" font-size="8.000000" stroke="none"><tspan x="0" y="8">«IDEAS:TupleType»</tspan></text><text transform="matrix(1 0 0 1 450 473)" font-family="Arial" font-size="8.000000" font-weight="bold" stroke="none"><tspan x="0" y="8">upperBoundOfMeasureRange</tspan></text><path fill="#C0BFC0" stroke="none" fill-rule="nonzero" d="M437 687L591 687 591 724 437 724 437 687" /><path fill="#CCFFCC" stroke="none" fill-rule="nonzero" d="M434 684L588 684 588 721 434 721 434 684" /><path fill="none" d="M434 684L588 684 588 722 434 722 434 684" /><path fill="none" d="M434 684L588 684 588 721 434 721 434 684" /><text transform="matrix(1 0 0 1 477 690)" font-family="Arial" font-size="8.000000" stroke="none"><tspan x="0" y="8">«IDEAS:TupleType»</tspan></text><text transform="matrix(1 0 0 1 451 700)" font-family="Arial" font-size="8.000000" font-weight="bold" stroke="none"><tspan x="0" y="8">lowerBoundOfMeasureRange</tspan></text><path fill="#C0BFC0" stroke="none" fill-rule="nonzero" d="M352 572L472 572 472 607 352 607 352 572" /><path fill="#99CCFF" stroke="none" fill-rule="nonzero" d="M349 569L469 569 469 604 349 604 349 569" /><path fill="none" d="M349 569L469 569 469 605 349 605 349 569" /><path fill="none" d="M349 569L469 569 469 604 349 604 349 569" /><text transform="matrix(1 0 0 1 385 575)" font-family="Arial" font-size="8.000000" stroke="none"><tspan x="0" y="8">«IDEAS:Type»</tspan></text><text transform="matrix(1 0 0 1 381 585)" font-family="Arial" font-size="8.000000" font-weight="bold" stroke="none"><tspan x="0" y="8">MeasurePoint</tspan></text><path fill="#C0BFC0" stroke="none" fill-rule="nonzero" d="M588 298L711 298 711 339 588 339 588 298" /><path fill="#CCFFCC" stroke="none" fill-rule="nonzero" d="M585 295L708 295 708 336 585 336 585 295" /><path fill="none" d="M585 295L708 295 708 337 585 337 585 295" /><path fill="none" d="M585 295L708 295 708 336 585 336 585 295" /><text transform="matrix(1 0 0 1 613 301)" font-family="Arial" font-size="8.000000" stroke="none"><tspan x="0" y="8">«IDEAS:TupleType»</tspan></text><text transform="matrix(1 0 0 1 602 311)" font-family="Arial" font-size="8.000000" font-weight="bold" stroke="none"><tspan x="0" y="8">measureTypeInstance</tspan></text><path fill="#C0BFC0" stroke="none" fill-rule="nonzero" d="M75 924L177 924 177 962 75 962 75 924" /><path stroke="none" fill="#99CCFF" stroke-width="3" fill-rule="nonzero" d="M72 921L174 921 174 959 72 959 72 921" /><path stroke="#FFFF00" fill="none" stroke-width="3" d="M72 921L174 921 174 960 72 960 72 921" /><path stroke="#FFFF00" stroke-width="3" fill="none" d="M72 921L174 921 174 959 72 959 72 921" /><text transform="matrix(1 0 0 1 99 927)" font-family="Arial" font-size="8.000000" stroke="none"><tspan x="0" y="8">«IDEAS:Type»</tspan></text><text transform="matrix(1 0 0 1 100 937)" font-family="Arial" font-size="8.000000" font-weight="bold" stroke="none"><tspan x="0" y="8">TerrainType</tspan></text><path fill="#C0BFC0" stroke="none" fill-rule="nonzero" d="M199 924L302 924 302 962 199 962 199 924" /><path stroke="none" fill="#99CCFF" stroke-width="3" fill-rule="nonzero" d="M196 921L299 921 299 959 196 959 196 921" /><path stroke="#FFFF00" fill="none" stroke-width="3" d="M196 921L299 921 299 960 196 960 196 921" /><path stroke="#FFFF00" stroke-width="3" fill="none" d="M196 921L299 921 299 959 196 959 196 921" /><text transform="matrix(1 0 0 1 223 927)" font-family="Arial" font-size="8.000000" stroke="none"><tspan x="0" y="8">«IDEAS:Type»</tspan></text><text transform="matrix(1 0 0 1 209 937)" font-family="Arial" font-size="8.000000" font-weight="bold" stroke="none"><tspan x="0" y="8">WeatherConditions</tspan></text><path fill="#C0BFC0" stroke="none" fill-rule="nonzero" d="M324 924L425 924 425 962 324 962 324 924" /><path stroke="none" fill="#99CCFF" stroke-width="3" fill-rule="nonzero" d="M321 921L422 921 422 959 321 959 321 921" /><path stroke="#FFFF00" fill="none" stroke-width="3" d="M321 921L422 921 422 960 321 960 321 921" /><path stroke="#FFFF00" stroke-width="3" fill="none" d="M321 921L422 921 422 959 321 959 321 921" /><text transform="matrix(1 0 0 1 347 927)" font-family="Arial" font-size="8.000000" stroke="none"><tspan x="0" y="8">«IDEAS:Type»</tspan></text><text transform="matrix(1 0 0 1 340 937)" font-family="Arial" font-size="8.000000" font-weight="bold" stroke="none"><tspan x="0" y="8">LightConditions</tspan></text><path fill="#C0BFC0" stroke="none" fill-rule="nonzero" d="M447 924L557 924 557 962 447 962 447 924" /><path stroke="none" fill="#99CCFF" stroke-width="3" fill-rule="nonzero" d="M444 921L554 921 554 959 444 959 444 921" /><path stroke="#FFFF00" fill="none" stroke-width="3" d="M444 921L554 921 554 960 444 960 444 921" /><path stroke="#FFFF00" stroke-width="3" fill="none" d="M444 921L554 921 554 959 444 959 444 921" /><text transform="matrix(1 0 0 1 475 927)" font-family="Arial" font-size="8.000000" stroke="none"><tspan x="0" y="8">«IDEAS:Type»</tspan></text><text transform="matrix(1 0 0 1 461 937)" font-family="Arial" font-size="8.000000" font-weight="bold" stroke="none"><tspan x="0" y="8">CBRNEnvironment</tspan></text><path fill="#C0BFC0" stroke="none" fill-rule="nonzero" d="M89 714L224 714 224 753 89 753 89 714" /><path stroke="none" fill="#CCFFCC" fill-rule="nonzero" d="M86 711L221 711 221 750 86 750 86 711" /><path stroke="#FFFF00" fill="none" d="M86 711L221 711 221 751 86 751 86 711" /><path stroke="#FFFF00" fill="none" d="M86 711L221 711 221 750 86 750 86 711" /><text transform="matrix(1 0 0 1 120 717)" font-family="Arial" font-size="8.000000" stroke="none"><tspan x="0" y="8">«IDEAS:TupleType»</tspan></text><text transform="matrix(1 0 0 1 109 727)" font-family="Arial" font-size="8.000000" font-weight="bold" stroke="none"><tspan x="0" y="8">environmentalContext</tspan></text><path fill="#C0BFC0" stroke="none" fill-rule="nonzero" d="M73 618L297 618 297 658 73 658 73 618" /><path stroke="none" fill="#99CCFF" stroke-width="3" fill-rule="nonzero" d="M70 615L294 615 294 655 70 655 70 615" /><path stroke="#FFFF00" fill="none" stroke-width="3" d="M70 615L294 615 294 656 70 656 70 615" /><path stroke="#FFFF00" stroke-width="3" fill="none" d="M70 615L294 615 294 655 70 655 70 615" /><text transform="matrix(1 0 0 1 158 621)" font-family="Arial" font-size="8.000000" stroke="none"><tspan x="0" y="8">«IDEAS:Type»</tspan></text><text transform="matrix(1 0 0 1 145 631)" font-family="Arial" font-size="8.000000" font-weight="bold" stroke="none"><tspan x="0" y="8">MeasureInContext</tspan></text><path fill="#C0BFC0" stroke="none" fill-rule="nonzero" d="M170 506L272 506 272 543 170 543 170 506" /><path stroke="none" fill="#CCFFCC" fill-rule="nonzero" d="M167 503L269 503 269 540 167 540 167 503" /><path stroke="#FFFF00" fill="none" d="M167 503L269 503 269 541 167 541 167 503" /><path stroke="#FFFF00" fill="none" d="M167 503L269 503 269 540 167 540 167 503" /><text transform="matrix(1 0 0 1 184 509)" font-family="Arial" font-size="8.000000" stroke="none"><tspan x="0" y="8">«IDEAS:TupleType»</tspan></text><text transform="matrix(1 0 0 1 183 519)" font-family="Arial" font-size="8.000000" font-weight="bold" stroke="none"><tspan x="0" y="8">qualifiedMeasure</tspan></text><path fill="#C0BFC0" stroke="none" fill-rule="nonzero" d="M579 924L698 924 698 962 579 962 579 924" /><path stroke="none" fill="#99CCFF" stroke-width="3" fill-rule="nonzero" d="M576 921L695 921 695 959 576 959 576 921" /><path stroke="#FFFF00" fill="none" stroke-width="3" d="M576 921L695 921 695 960 576 960 576 921" /><path stroke="#FFFF00" stroke-width="3" fill="none" d="M576 921L695 921 695 959 576 959 576 921" /><text transform="matrix(1 0 0 1 611 927)" font-family="Arial" font-size="8.000000" stroke="none"><tspan x="0" y="8">«IDEAS:Type»</tspan></text><text transform="matrix(1 0 0 1 609 937)" font-family="Arial" font-size="8.000000" font-weight="bold" stroke="none"><tspan x="0" y="8">SituationType</tspan></text><path fill="#C0BFC0" stroke="none" fill-rule="nonzero" d="M50 300L173 300 173 341 50 341 50 300" /><path stroke="none" fill="#CCFFCC" fill-rule="nonzero" d="M47 297L170 297 170 338 47 338 47 297" /><path stroke="#800080" fill="none" d="M47 297L170 297 170 339 47 339 47 297" /><path stroke="#800080" fill="none" d="M47 297L170 297 170 338 47 338 47 297" /><text transform="matrix(1 0 0 1 75 303)" font-family="Arial" font-size="8.000000" stroke="none"><tspan x="0" y="8">«IDEAS:TupleType»</tspan></text><text transform="matrix(1 0 0 1 80 313)" font-family="Arial" font-size="8.000000" font-weight="bold" stroke="none"><tspan x="0" y="8">servicePolicy</tspan></text><path fill="#C0BFC0" stroke="none" fill-rule="nonzero" d="M162 21L777 21 777 60 162 60 162 21" /><path stroke="none" fill="#C0C0C0" stroke-width="3" fill-rule="nonzero" d="M159 18L774 18 774 57 159 57 159 18" /><path stroke="#FFFF00" fill="none" stroke-width="3" d="M159 18L774 18 774 58 159 58 159 18" /><path stroke="#FFFF00" stroke-width="3" fill="none" d="M159 18L774 18 774 57 159 57 159 18" /><text transform="matrix(1 0 0 1 442 24)" font-family="Arial" font-size="8.000000" stroke="none"><tspan x="0" y="8">«IDEAS:Type»</tspan></text><text transform="matrix(1 0 0 1 422 34)" font-family="Arial" font-size="8.000000" font-weight="bold" stroke="none"><tspan x="0" y="8">ModemIndividualType</tspan></text><path fill="#C0BFC0" stroke="none" fill-rule="nonzero" d="M305 111L454 111 454 150 305 150 305 111" /><path stroke="none" fill="#CCFFCC" fill-rule="nonzero" d="M302 108L451 108 451 147 302 147 302 108" /><path stroke="#FFFF00" fill="none" d="M302 108L451 108 451 148 302 148 302 108" /><path stroke="#FFFF00" fill="none" d="M302 108L451 108 451 147 302 147 302 108" /><text transform="matrix(1 0 0 1 343 114)" font-family="Arial" font-size="8.000000" stroke="none"><tspan x="0" y="8">«IDEAS:TupleType»</tspan></text><text transform="matrix(1 0 0 1 341 124)" font-family="Arial" font-size="8.000000" font-weight="bold" stroke="none"><tspan x="0" y="8">constraintOnType</tspan></text><path fill="#C0BFC0" stroke="none" fill-rule="nonzero" d="M628 113L775 113 775 152 628 152 628 113" /><path stroke="none" fill="#99CCFF" stroke-width="3" fill-rule="nonzero" d="M625 110L772 110 772 149 625 149 625 110" /><path stroke="#FFFF00" fill="none" stroke-width="3" d="M625 110L772 110 772 150 625 150 625 110" /><path stroke="#FFFF00" stroke-width="3" fill="none" d="M625 110L772 110 772 149 625 149 625 110" /><text transform="matrix(1 0 0 1 674 116)" font-family="Arial" font-size="8.000000" stroke="none"><tspan x="0" y="8">«IDEAS:Type»</tspan></text><text transform="matrix(1 0 0 1 678 126)" font-family="Arial" font-size="8.000000" font-weight="bold" stroke="none"><tspan x="0" y="8">Constraint</tspan></text><path fill="#C0BFC0" stroke="none" fill-rule="nonzero" d="M121 108L256 108 256 144 121 144 121 108" /><path stroke="none" fill="#C0C0C0" stroke-width="3" fill-rule="nonzero" d="M118 105L253 105 253 141 118 141 118 105" /><path stroke="#800080" fill="none" stroke-width="3" d="M118 105L253 105 253 142 118 142 118 105" /><path stroke="#800080" stroke-width="3" fill="none" d="M118 105L253 105 253 141 118 141 118 105" /><text transform="matrix(1 0 0 1 161 111)" font-family="Arial" font-size="8.000000" stroke="none"><tspan x="0" y="8">«IDEAS:Type»</tspan></text><text transform="matrix(1 0 0 1 132 121)" font-family="Arial" font-size="8.000000" font-weight="bold" stroke="none"><tspan x="0" y="8">ServiceSpecificationState</tspan></text><path fill="#C0BFC0" stroke="none" fill-rule="nonzero" d="M81 814L706 814 706 851 81 851 81 814" /><path stroke="none" fill="#99CCFF" stroke-width="3" fill-rule="nonzero" d="M78 811L703 811 703 848 78 848 78 811" /><path stroke="#FFFF00" fill="none" stroke-width="3" d="M78 811L703 811 703 849 78 849 78 811" /><path stroke="#FFFF00" stroke-width="3" fill="none" d="M78 811L703 811 703 848 78 848 78 811" /><text transform="matrix(1 0 0 1 366 817)" font-family="Arial" font-size="8.000000" stroke="none"><tspan x="0" y="8">«IDEAS:Type»</tspan></text><text transform="matrix(1 0 0 1 348 827)" font-family="Arial" font-size="8.000000" font-weight="bold" stroke="none"><tspan x="0" y="8">EnvironmentalFactor</tspan></text><path stroke="#0000FF" fill="none" d="M230 919L230 851" /><path stroke="#0000FF" fill="#FCF2E3" d="M236 867L224 867L230 851L236 867" /><g transform="matrix(1 0 0 -1 189 874)"><path fill="#FFFFFF" stroke="none" fill-rule="nonzero" d="M0 0L92 0 92 -9 0 -9 0 0" /></g><text transform="matrix(1 0 0 1 189 874)" font-family="Arial" font-size="8.000000" stroke="none"><tspan x="0" y="8">«IDEAS:superSubtype»</tspan></text><path fill="none" d="M449 684L449 605" /><path fill="none" d="M449 605L455 620" /><path fill="none" d="M449 605L443 620" /><g transform="matrix(1 0 0 -1 430 634)"><path fill="#FFFFFF" stroke="none" fill-rule="nonzero" d="M0 0L47 0 47 -9 0 -9 0 0" /></g><text transform="matrix(1 0 0 1 430 634)" font-family="Arial" font-size="8.000000" stroke="none"><tspan x="0" y="8">lowerBound</tspan></text><g transform="matrix(1 0 0 -1 426 647)"><path fill="#FFFFFF" stroke="none" fill-rule="nonzero" d="M0 0L57 0 57 -9 0 -9 0 0" /></g><text transform="matrix(1 0 0 1 426 647)" font-family="Arial" font-size="8.000000" stroke="none"><tspan x="0" y="8">«place2Type»</tspan></text><path fill="none" d="M109 339L109 399" /><path fill="none" d="M109 399L103 384" /><path fill="none" d="M109 399L115 384" /><g transform="matrix(1 0 0 -1 117 344)"><path fill="#FFFFFF" stroke="none" fill-rule="nonzero" d="M0 0L13 0 13 -9 0 -9 0 0" /></g><text transform="matrix(1 0 0 1 117 344)" font-family="Arial" font-size="8.000000" stroke="none"><tspan x="0" y="8">0..*</tspan></text><g transform="matrix(1 0 0 -1 100 358)"><path fill="#FFFFFF" stroke="none" fill-rule="nonzero" d="M0 0L23 0 23 -9 0 -9 0 0" /></g><text transform="matrix(1 0 0 1 100 358)" font-family="Arial" font-size="8.000000" stroke="none"><tspan x="0" y="8">policy</tspan></text><g transform="matrix(1 0 0 -1 86 371)"><path fill="#FFFFFF" stroke="none" fill-rule="nonzero" d="M0 0L57 0 57 -9 0 -9 0 0" /></g><text transform="matrix(1 0 0 1 86 371)" font-family="Arial" font-size="8.000000" stroke="none"><tspan x="0" y="8">«place1Type»</tspan></text><g transform="matrix(1 0 0 -1 117 384)"><path fill="#FFFFFF" stroke="none" fill-rule="nonzero" d="M0 0L5 0 5 -9 0 -9 0 0" /></g><text transform="matrix(1 0 0 1 117 384)" font-family="Arial" font-size="8.000000" stroke="none"><tspan x="0" y="8">1</tspan></text><path fill="none" d="M109 297L109 236" /><path fill="none" d="M109 236L115 251" /><path fill="none" d="M109 236L103 251" /><g transform="matrix(1 0 0 -1 112 283)"><path fill="#FFFFFF" stroke="none" fill-rule="nonzero" d="M0 0L13 0 13 -9 0 -9 0 0" /></g><text transform="matrix(1 0 0 1 112 283)" font-family="Arial" font-size="8.000000" stroke="none"><tspan x="0" y="8">0..*</tspan></text><g transform="matrix(1 0 0 -1 97 256)"><path fill="#FFFFFF" stroke="none" fill-rule="nonzero" d="M0 0L27 0 27 -9 0 -9 0 0" /></g><text transform="matrix(1 0 0 1 97 256)" font-family="Arial" font-size="8.000000" stroke="none"><tspan x="0" y="8">service</tspan></text><g transform="matrix(1 0 0 -1 86 269)"><path fill="#FFFFFF" stroke="none" fill-rule="nonzero" d="M0 0L57 0 57 -9 0 -9 0 0" /></g><text transform="matrix(1 0 0 1 86 269)" font-family="Arial" font-size="8.000000" stroke="none"><tspan x="0" y="8">«place2Type»</tspan></text><g transform="matrix(1 0 0 -1 121 241)"><path fill="#FFFFFF" stroke="none" fill-rule="nonzero" d="M0 0L5 0 5 -9 0 -9 0 0" /></g><text transform="matrix(1 0 0 1 121 241)" font-family="Arial" font-size="8.000000" stroke="none"><tspan x="0" y="8">1</tspan></text><path fill="none" d="M452 128L623 128" /><path fill="none" d="M623 128L608 134" /><path fill="none" d="M623 128L608 122" /><g transform="matrix(1 0 0 -1 455 133)"><path fill="#FFFFFF" stroke="none" fill-rule="nonzero" d="M0 0L13 0 13 -9 0 -9 0 0" /></g><text transform="matrix(1 0 0 1 455 133)" font-family="Arial" font-size="8.000000" stroke="none"><tspan x="0" y="8">0..*</tspan></text><g transform="matrix(1 0 0 -1 522 117)"><path fill="#FFFFFF" stroke="none" fill-rule="nonzero" d="M0 0L37 0 37 -9 0 -9 0 0" /></g><text transform="matrix(1 0 0 1 522 117)" font-family="Arial" font-size="8.000000" stroke="none"><tspan x="0" y="8">constraint</tspan></text><g transform="matrix(1 0 0 -1 515 130)"><path fill="#FFFFFF" stroke="none" fill-rule="nonzero" d="M0 0L57 0 57 -9 0 -9 0 0" /></g><text transform="matrix(1 0 0 1 515 130)" font-family="Arial" font-size="8.000000" stroke="none"><tspan x="0" y="8">«place1Type»</tspan></text><g transform="matrix(1 0 0 -1 616 133)"><path fill="#FFFFFF" stroke="none" fill-rule="nonzero" d="M0 0L5 0 5 -9 0 -9 0 0" /></g><text transform="matrix(1 0 0 1 616 133)" font-family="Arial" font-size="8.000000" stroke="none"><tspan x="0" y="8">1</tspan></text><path fill="none" d="M376 108L376 60" /><path fill="none" d="M376 60L382 75" /><path fill="none" d="M376 60L370 75" /><g transform="matrix(1 0 0 -1 379 94)"><path fill="#FFFFFF" stroke="none" fill-rule="nonzero" d="M0 0L13 0 13 -9 0 -9 0 0" /></g><text transform="matrix(1 0 0 1 379 94)" font-family="Arial" font-size="8.000000" stroke="none"><tspan x="0" y="8">0..*</tspan></text><g transform="matrix(1 0 0 -1 349 73)"><path fill="#FFFFFF" stroke="none" fill-rule="nonzero" d="M0 0L65 0 65 -9 0 -9 0 0" /></g><text transform="matrix(1 0 0 1 349 73)" font-family="Arial" font-size="8.000000" stroke="none"><tspan x="0" y="8">constrainedType</tspan></text><g transform="matrix(1 0 0 -1 353 86)"><path fill="#FFFFFF" stroke="none" fill-rule="nonzero" d="M0 0L57 0 57 -9 0 -9 0 0" /></g><text transform="matrix(1 0 0 1 353 86)" font-family="Arial" font-size="8.000000" stroke="none"><tspan x="0" y="8">«place2Type»</tspan></text><g transform="matrix(1 0 0 -1 386 78)"><path fill="#FFFFFF" stroke="none" fill-rule="nonzero" d="M0 0L5 0 5 -9 0 -9 0 0" /></g><text transform="matrix(1 0 0 1 386 78)" font-family="Arial" font-size="8.000000" stroke="none"><tspan x="0" y="8">1</tspan></text><path fill="none" d="M554 497L554 568" /><path fill="none" d="M554 568L548 553" /><path fill="none" d="M554 568L560 553" /><g transform="matrix(1 0 0 -1 544 522)"><path fill="#FFFFFF" stroke="none" fill-rule="nonzero" d="M0 0L22 0 22 -9 0 -9 0 0" /></g><text transform="matrix(1 0 0 1 544 522)" font-family="Arial" font-size="8.000000" stroke="none"><tspan x="0" y="8">range</tspan></text><g transform="matrix(1 0 0 -1 531 535)"><path fill="#FFFFFF" stroke="none" fill-rule="nonzero" d="M0 0L57 0 57 -9 0 -9 0 0" /></g><text transform="matrix(1 0 0 1 531 535)" font-family="Arial" font-size="8.000000" stroke="none"><tspan x="0" y="8">«place1Type»</tspan></text><path fill="none" d="M452 497L452 569" /><path fill="none" d="M452 569L446 554" /><path fill="none" d="M452 569L458 554" /><g transform="matrix(1 0 0 -1 432 522)"><path fill="#FFFFFF" stroke="none" fill-rule="nonzero" d="M0 0L48 0 48 -9 0 -9 0 0" /></g><text transform="matrix(1 0 0 1 432 522)" font-family="Arial" font-size="8.000000" stroke="none"><tspan x="0" y="8">upperBound</tspan></text><g transform="matrix(1 0 0 -1 429 535)"><path fill="#FFFFFF" stroke="none" fill-rule="nonzero" d="M0 0L57 0 57 -9 0 -9 0 0" /></g><text transform="matrix(1 0 0 1 429 535)" font-family="Arial" font-size="8.000000" stroke="none"><tspan x="0" y="8">«place2Type»</tspan></text><path stroke="#0000FF" fill="none" d="M103 919L103 851" /><path stroke="#0000FF" fill="#FCF2E3" d="M109 867L97 867L103 851L109 867" /><g transform="matrix(1 0 0 -1 64 888)"><path fill="#FFFFFF" stroke="none" fill-rule="nonzero" d="M0 0L92 0 92 -9 0 -9 0 0" /></g><text transform="matrix(1 0 0 1 64 888)" font-family="Arial" font-size="8.000000" stroke="none"><tspan x="0" y="8">«IDEAS:superSubtype»</tspan></text><path fill="none" d="M231 503L231 438" /><path fill="none" d="M231 438L237 453" /><path fill="none" d="M231 438L225 453" /><g transform="matrix(1 0 0 -1 234 489)"><path fill="#FFFFFF" stroke="none" fill-rule="nonzero" d="M0 0L13 0 13 -9 0 -9 0 0" /></g><text transform="matrix(1 0 0 1 234 489)" font-family="Arial" font-size="8.000000" stroke="none"><tspan x="0" y="8">0..*</tspan></text><g transform="matrix(1 0 0 -1 217 460)"><path fill="#FFFFFF" stroke="none" fill-rule="nonzero" d="M0 0L33 0 33 -9 0 -9 0 0" /></g><text transform="matrix(1 0 0 1 217 460)" font-family="Arial" font-size="8.000000" stroke="none"><tspan x="0" y="8">measure</tspan></text><g transform="matrix(1 0 0 -1 208 473)"><path fill="#FFFFFF" stroke="none" fill-rule="nonzero" d="M0 0L57 0 57 -9 0 -9 0 0" /></g><text transform="matrix(1 0 0 1 208 473)" font-family="Arial" font-size="8.000000" stroke="none"><tspan x="0" y="8">«place1Type»</tspan></text><g transform="matrix(1 0 0 -1 243 443)"><path fill="#FFFFFF" stroke="none" fill-rule="nonzero" d="M0 0L5 0 5 -9 0 -9 0 0" /></g><text transform="matrix(1 0 0 1 243 443)" font-family="Arial" font-size="8.000000" stroke="none"><tspan x="0" y="8">1</tspan></text><path fill="none" d="M218 541L218 613" /><path fill="none" d="M218 613L212 598" /><path fill="none" d="M218 613L224 598" /><g transform="matrix(1 0 0 -1 226 546)"><path fill="#FFFFFF" stroke="none" fill-rule="nonzero" d="M0 0L5 0 5 -9 0 -9 0 0" /></g><text transform="matrix(1 0 0 1 226 546)" font-family="Arial" font-size="8.000000" stroke="none"><tspan x="0" y="8">1</tspan></text><g transform="matrix(1 0 0 -1 188 566)"><path fill="#FFFFFF" stroke="none" fill-rule="nonzero" d="M0 0L71 0 71 -9 0 -9 0 0" /></g><text transform="matrix(1 0 0 1 188 566)" font-family="Arial" font-size="8.000000" stroke="none"><tspan x="0" y="8">measureInContext</tspan></text><g transform="matrix(1 0 0 -1 195 579)"><path fill="#FFFFFF" stroke="none" fill-rule="nonzero" d="M0 0L57 0 57 -9 0 -9 0 0" /></g><text transform="matrix(1 0 0 1 195 579)" font-family="Arial" font-size="8.000000" stroke="none"><tspan x="0" y="8">«place2Type»</tspan></text><g transform="matrix(1 0 0 -1 226 598)"><path fill="#FFFFFF" stroke="none" fill-rule="nonzero" d="M0 0L5 0 5 -9 0 -9 0 0" /></g><text transform="matrix(1 0 0 1 226 598)" font-family="Arial" font-size="8.000000" stroke="none"><tspan x="0" y="8">1</tspan></text><path stroke="#0000FF" fill="none" d="M699 108L699 60" /><path stroke="#0000FF" fill="#FCF2E3" d="M705 76L693 76L699 60L705 76" /><g transform="matrix(1 0 0 -1 660 86)"><path fill="#FFFFFF" stroke="none" fill-rule="nonzero" d="M0 0L92 0 92 -9 0 -9 0 0" /></g><text transform="matrix(1 0 0 1 660 86)" font-family="Arial" font-size="8.000000" stroke="none"><tspan x="0" y="8">«IDEAS:superSubtype»</tspan></text><path fill="none" d="M555 684L555 608" /><path fill="none" d="M555 608L561 623" /><path fill="none" d="M555 608L549 623" /><g transform="matrix(1 0 0 -1 545 635)"><path fill="#FFFFFF" stroke="none" fill-rule="nonzero" d="M0 0L22 0 22 -9 0 -9 0 0" /></g><text transform="matrix(1 0 0 1 545 635)" font-family="Arial" font-size="8.000000" stroke="none"><tspan x="0" y="8">range</tspan></text><g transform="matrix(1 0 0 -1 532 648)"><path fill="#FFFFFF" stroke="none" fill-rule="nonzero" d="M0 0L57 0 57 -9 0 -9 0 0" /></g><text transform="matrix(1 0 0 1 532 648)" font-family="Arial" font-size="8.000000" stroke="none"><tspan x="0" y="8">«place1Type»</tspan></text><path stroke="#0000FF" fill="none" d="M497 919L497 851" /><path stroke="#0000FF" fill="#FCF2E3" d="M503 867L491 867L497 851L503 867" /><g transform="matrix(1 0 0 -1 449 873)"><path fill="#FFFFFF" stroke="none" fill-rule="nonzero" d="M0 0L92 0 92 -9 0 -9 0 0" /></g><text transform="matrix(1 0 0 1 449 873)" font-family="Arial" font-size="8.000000" stroke="none"><tspan x="0" y="8">«IDEAS:superSubtype»</tspan></text><path stroke="#0000FF" fill="none" d="M376 569L376 438" /><path stroke="#0000FF" fill="#FCF2E3" d="M382 454L370 454L376 438L382 454" /><g transform="matrix(1 0 0 -1 337 506)"><path fill="#FFFFFF" stroke="none" fill-rule="nonzero" d="M0 0L92 0 92 -9 0 -9 0 0" /></g><text transform="matrix(1 0 0 1 337 506)" font-family="Arial" font-size="8.000000" stroke="none"><tspan x="0" y="8">«IDEAS:superSubtype»</tspan></text><path stroke="#0000FF" fill="none" d="M155 193L155 144" /><path stroke="#0000FF" fill="#FCF2E3" d="M161 160L149 160L155 144L161 160" /><g transform="matrix(1 0 0 -1 116 171)"><path fill="#FFFFFF" stroke="none" fill-rule="nonzero" d="M0 0L92 0 92 -9 0 -9 0 0" /></g><text transform="matrix(1 0 0 1 116 171)" font-family="Arial" font-size="8.000000" stroke="none"><tspan x="0" y="8">«IDEAS:superSubtype»</tspan></text><path stroke="#0000FF" fill="none" d="M352 919L352 851" /><path stroke="#0000FF" fill="#FCF2E3" d="M358 867L346 867L352 851L358 867" /><g transform="matrix(1 0 0 -1 313 887)"><path fill="#FFFFFF" stroke="none" fill-rule="nonzero" d="M0 0L92 0 92 -9 0 -9 0 0" /></g><text transform="matrix(1 0 0 1 313 887)" font-family="Arial" font-size="8.000000" stroke="none"><tspan x="0" y="8">«IDEAS:superSubtype»</tspan></text><path stroke="#0000FF" fill="none" d="M632 568L632 438" /><path stroke="#0000FF" fill="#FCF2E3" d="M638 454L626 454L632 438L638 454" /><g transform="matrix(1 0 0 -1 593 505)"><path fill="#FFFFFF" stroke="none" fill-rule="nonzero" d="M0 0L92 0 92 -9 0 -9 0 0" /></g><text transform="matrix(1 0 0 1 593 505)" font-family="Arial" font-size="8.000000" stroke="none"><tspan x="0" y="8">«IDEAS:superSubtype»</tspan></text><path fill="none" d="M646 295L646 235" /><path fill="none" d="M646 235L652 250" /><path fill="none" d="M646 235L640 250" /><g transform="matrix(1 0 0 -1 643 256)"><path fill="#FFFFFF" stroke="none" fill-rule="nonzero" d="M0 0L17 0 17 -9 0 -9 0 0" /></g><text transform="matrix(1 0 0 1 643 256)" font-family="Arial" font-size="8.000000" stroke="none"><tspan x="0" y="8">type</tspan></text><g transform="matrix(1 0 0 -1 623 274)"><path fill="#FFFFFF" stroke="none" fill-rule="nonzero" d="M0 0L57 0 57 -9 0 -9 0 0" /></g><text transform="matrix(1 0 0 1 623 274)" font-family="Arial" font-size="8.000000" stroke="none"><tspan x="0" y="8">«place1Type»</tspan></text><path fill="none" d="M647 337L647 399" /><path fill="none" d="M647 399L641 384" /><path fill="none" d="M647 399L653 384" /><g transform="matrix(1 0 0 -1 633 357)"><path fill="#FFFFFF" stroke="none" fill-rule="nonzero" d="M0 0L32 0 32 -9 0 -9 0 0" /></g><text transform="matrix(1 0 0 1 633 357)" font-family="Arial" font-size="8.000000" stroke="none"><tspan x="0" y="8">instance</tspan></text><g transform="matrix(1 0 0 -1 624 369)"><path fill="#FFFFFF" stroke="none" fill-rule="nonzero" d="M0 0L57 0 57 -9 0 -9 0 0" /></g><text transform="matrix(1 0 0 1 624 369)" font-family="Arial" font-size="8.000000" stroke="none"><tspan x="0" y="8">«place2Type»</tspan></text><path fill="none" d="M452 214L580 214" /><path fill="none" d="M580 214L565 220" /><path fill="none" d="M580 214L565 208" /><g transform="matrix(1 0 0 -1 455 219)"><path fill="#FFFFFF" stroke="none" fill-rule="nonzero" d="M0 0L13 0 13 -9 0 -9 0 0" /></g><text transform="matrix(1 0 0 1 455 219)" font-family="Arial" font-size="8.000000" stroke="none"><tspan x="0" y="8">0..*</tspan></text><g transform="matrix(1 0 0 -1 503 203)"><path fill="#FFFFFF" stroke="none" fill-rule="nonzero" d="M0 0L32 0 32 -9 0 -9 0 0" /></g><text transform="matrix(1 0 0 1 503 203)" font-family="Arial" font-size="8.000000" stroke="none"><tspan x="0" y="8">attribute</tspan></text><g transform="matrix(1 0 0 -1 493 216)"><path fill="#FFFFFF" stroke="none" fill-rule="nonzero" d="M0 0L57 0 57 -9 0 -9 0 0" /></g><text transform="matrix(1 0 0 1 493 216)" font-family="Arial" font-size="8.000000" stroke="none"><tspan x="0" y="8">«place1Type»</tspan></text><g transform="matrix(1 0 0 -1 573 219)"><path fill="#FFFFFF" stroke="none" fill-rule="nonzero" d="M0 0L5 0 5 -9 0 -9 0 0" /></g><text transform="matrix(1 0 0 1 573 219)" font-family="Arial" font-size="8.000000" stroke="none"><tspan x="0" y="8">1</tspan></text><path fill="none" d="M313 214L194 214" /><path fill="none" d="M194 214L209 208" /><path fill="none" d="M194 214L209 220" /><g transform="matrix(1 0 0 -1 299 219)"><path fill="#FFFFFF" stroke="none" fill-rule="nonzero" d="M0 0L13 0 13 -9 0 -9 0 0" /></g><text transform="matrix(1 0 0 1 299 219)" font-family="Arial" font-size="8.000000" stroke="none"><tspan x="0" y="8">0..*</tspan></text><g transform="matrix(1 0 0 -1 242 203)"><path fill="#FFFFFF" stroke="none" fill-rule="nonzero" d="M0 0L27 0 27 -9 0 -9 0 0" /></g><text transform="matrix(1 0 0 1 242 203)" font-family="Arial" font-size="8.000000" stroke="none"><tspan x="0" y="8">service</tspan></text><g transform="matrix(1 0 0 -1 231 216)"><path fill="#FFFFFF" stroke="none" fill-rule="nonzero" d="M0 0L57 0 57 -9 0 -9 0 0" /></g><text transform="matrix(1 0 0 1 231 216)" font-family="Arial" font-size="8.000000" stroke="none"><tspan x="0" y="8">«place2Type»</tspan></text><g transform="matrix(1 0 0 -1 197 219)"><path fill="#FFFFFF" stroke="none" fill-rule="nonzero" d="M0 0L5 0 5 -9 0 -9 0 0" /></g><text transform="matrix(1 0 0 1 197 219)" font-family="Arial" font-size="8.000000" stroke="none"><tspan x="0" y="8">1</tspan></text><path stroke="#0000FF" fill="none" d="M118 613L118 438" /><path stroke="#0000FF" fill="#FCF2E3" d="M124 454L112 454L118 438L124 454" /><g transform="matrix(1 0 0 -1 68 529)"><path fill="#FFFFFF" stroke="none" fill-rule="nonzero" d="M0 0L92 0 92 -9 0 -9 0 0" /></g><text transform="matrix(1 0 0 1 68 529)" font-family="Arial" font-size="8.000000" stroke="none"><tspan x="0" y="8">«IDEAS:superSubtype»</tspan></text><path stroke="#0000FF" fill="none" d="M206 103L206 60" /><path stroke="#0000FF" fill="#FCF2E3" d="M212 76L200 76L206 60L212 76" /><g transform="matrix(1 0 0 -1 167 84)"><path fill="#FFFFFF" stroke="none" fill-rule="nonzero" d="M0 0L92 0 92 -9 0 -9 0 0" /></g><text transform="matrix(1 0 0 1 167 84)" font-family="Arial" font-size="8.000000" stroke="none"><tspan x="0" y="8">«IDEAS:superSubtype»</tspan></text><path fill="none" d="M154 751L154 809" /><path fill="none" d="M154 809L148 794" /><path fill="none" d="M154 809L160 794" /><g transform="matrix(1 0 0 -1 162 756)"><path fill="#FFFFFF" stroke="none" fill-rule="nonzero" d="M0 0L13 0 13 -9 0 -9 0 0" /></g><text transform="matrix(1 0 0 1 162 756)" font-family="Arial" font-size="8.000000" stroke="none"><tspan x="0" y="8">0..*</tspan></text><g transform="matrix(1 0 0 -1 143 769)"><path fill="#FFFFFF" stroke="none" fill-rule="nonzero" d="M0 0L28 0 28 -9 0 -9 0 0" /></g><text transform="matrix(1 0 0 1 143 769)" font-family="Arial" font-size="8.000000" stroke="none"><tspan x="0" y="8">context</tspan></text><g transform="matrix(1 0 0 -1 131 782)"><path fill="#FFFFFF" stroke="none" fill-rule="nonzero" d="M0 0L57 0 57 -9 0 -9 0 0" /></g><text transform="matrix(1 0 0 1 131 782)" font-family="Arial" font-size="8.000000" stroke="none"><tspan x="0" y="8">«place2Type»</tspan></text><g transform="matrix(1 0 0 -1 162 794)"><path fill="#FFFFFF" stroke="none" fill-rule="nonzero" d="M0 0L5 0 5 -9 0 -9 0 0" /></g><text transform="matrix(1 0 0 1 162 794)" font-family="Arial" font-size="8.000000" stroke="none"><tspan x="0" y="8">1</tspan></text><path fill="none" d="M154 711L154 658" /><path fill="none" d="M154 658L160 673" /><path fill="none" d="M154 658L148 673" /><g transform="matrix(1 0 0 -1 157 697)"><path fill="#FFFFFF" stroke="none" fill-rule="nonzero" d="M0 0L13 0 13 -9 0 -9 0 0" /></g><text transform="matrix(1 0 0 1 157 697)" font-family="Arial" font-size="8.000000" stroke="none"><tspan x="0" y="8">1..*</tspan></text><g transform="matrix(1 0 0 -1 140 674)"><path fill="#FFFFFF" stroke="none" fill-rule="nonzero" d="M0 0L33 0 33 -9 0 -9 0 0" /></g><text transform="matrix(1 0 0 1 140 674)" font-family="Arial" font-size="8.000000" stroke="none"><tspan x="0" y="8">measure</tspan></text><g transform="matrix(1 0 0 -1 131 687)"><path fill="#FFFFFF" stroke="none" fill-rule="nonzero" d="M0 0L57 0 57 -9 0 -9 0 0" /></g><text transform="matrix(1 0 0 1 131 687)" font-family="Arial" font-size="8.000000" stroke="none"><tspan x="0" y="8">«place1Type»</tspan></text><g transform="matrix(1 0 0 -1 166 663)"><path fill="#FFFFFF" stroke="none" fill-rule="nonzero" d="M0 0L5 0 5 -9 0 -9 0 0" /></g><text transform="matrix(1 0 0 1 166 663)" font-family="Arial" font-size="8.000000" stroke="none"><tspan x="0" y="8">1</tspan></text><path stroke="#0000FF" fill="none" d="M636 919L636 851" /><path stroke="#0000FF" fill="#FCF2E3" d="M642 867L630 867L636 851L642 867" /><g transform="matrix(1 0 0 -1 591 884)"><path fill="#FFFFFF" stroke="none" fill-rule="nonzero" d="M0 0L92 0 92 -9 0 -9 0 0" /></g><text transform="matrix(1 0 0 1 591 884)" font-family="Arial" font-size="8.000000" stroke="none"><tspan x="0" y="8">«IDEAS:superSubtype»</tspan></text></g></g></g></g></svg>